<svg xmlns="http://www.w3.org/2000/svg" viewBox="0 0 512 512" version="1.1"><path d="M 24.574 57.579 C 14.027 61.443, 5.844 69.455, 2.027 79.657 C -0.006 85.091, -0.015 86.020, 0.242 257.310 L 0.500 429.500 3.419 435.446 C 7.131 443.004, 12.996 448.869, 20.554 452.581 L 26.500 455.500 256 455.500 L 485.500 455.500 491.239 452.682 C 498.657 449.039, 505.181 442.453, 508.519 435.239 C 509.979 432.083, 511.585 428.719, 512.087 427.764 C 513.316 425.425, 513.311 82.690, 512.081 83.450 C 511.576 83.762, 510.870 82.685, 510.513 81.057 C 509.534 76.604, 502.863 66.883, 498.509 63.569 C 496.392 61.957, 492.148 59.605, 489.080 58.343 L 483.500 56.047 256 56.094 C 60.706 56.134, 27.944 56.344, 24.574 57.579 M 32.500 72.930 C 25.636 74.613, 21.716 77.692, 18.403 84 C 16.896 86.869, 16.495 90.430, 16.180 103.750 L 15.794 120 215.897 120 L 416 120 416 128 L 416 136 215.984 136 L 15.967 136 16.234 280.250 L 16.500 424.500 18.644 428.500 C 21.095 433.075, 23.054 434.986, 28 437.629 C 31.389 439.441, 38.591 439.500, 256 439.500 L 480.500 439.500 484.500 437.356 C 489.075 434.905, 490.986 432.946, 493.629 428 C 495.428 424.634, 495.510 418.979, 495.766 280.250 L 496.033 136 472.016 136 L 448 136 448 128 L 448 120 472.103 120 L 496.206 120 495.820 103.750 C 495.344 83.677, 493.761 79.607, 484.500 74.644 L 480.500 72.500 258 72.347 C 135.625 72.263, 34.150 72.525, 32.500 72.930 M 0.489 256 C 0.489 350.875, 0.606 389.688, 0.750 342.250 C 0.894 294.813, 0.894 217.188, 0.750 169.750 C 0.606 122.313, 0.489 161.125, 0.489 256 M 32 96 L 32 104 40 104 L 48 104 48 96 L 48 88 40 88 L 32 88 32 96 M 64 96 L 64 104 72 104 L 80 104 80 96 L 80 88 72 88 L 64 88 64 96 M 96 96 L 96 104 104 104 L 112 104 112 96 L 112 88 104 88 L 96 88 96 96 M 65.232 195.268 C 41.911 218.603, 40 220.778, 40 224 C 40 227.222, 41.911 229.397, 65.232 252.732 L 90.464 277.978 96.243 272.259 L 102.023 266.540 80.770 245.270 L 59.517 224 80.770 202.730 L 102.023 181.460 96.243 175.741 L 90.464 170.022 65.232 195.268 M 415.740 175.738 L 409.998 181.481 431.240 202.740 L 452.483 224 431.230 245.270 L 409.977 266.540 415.757 272.259 L 421.536 277.978 446.768 252.732 C 470.129 229.357, 472 227.226, 472 223.985 C 472 220.744, 470.134 218.620, 446.741 195.241 L 421.482 169.996 415.740 175.738 M 120 224 L 120 264 128 264 L 136 264 136 248 L 136 232 152 232 L 168 232 168 248 L 168 264 176 264 L 184 264 184 224 L 184 184 176 184 L 168 184 168 200 L 168 216 152 216 L 136 216 136 200 L 136 184 128 184 L 120 184 120 224 M 200 192 L 200 200 208 200 L 216 200 216 232 L 216 264 224 264 L 232 264 232 232 L 232 200 240 200 L 248 200 248 192 L 248 184 224 184 L 200 184 200 192 M 264 192 L 264 200 272 200 L 280 200 280 232 L 280 264 288 264 L 296 264 296 232 L 296 200 304 200 L 312 200 312 192 L 312 184 288 184 L 264 184 264 192 M 330.174 186.314 C 328.021 188.606, 328 188.998, 328 226.314 L 328 264 336 264 L 344 264 344 248 L 344 232 365.826 232 C 394.326 232, 392 234.145, 392 207.860 C 392 188.758, 391.951 188.303, 389.686 186.174 C 387.425 184.051, 386.730 184, 359.860 184 C 332.396 184, 332.345 184.004, 330.174 186.314 M 344 208 L 344 216 360 216 L 376 216 376 208 L 376 200 360 200 L 344 200 344 208 M 50.174 298.314 C 48.095 300.527, 48 301.484, 48 320.140 C 48 339.242, 48.049 339.697, 50.314 341.826 L 52.629 344 256.140 344 L 459.651 344 461.826 341.686 C 463.905 339.473, 464 338.516, 464 319.860 C 464 300.758, 463.951 300.303, 461.686 298.174 L 459.371 296 255.860 296 L 52.349 296 50.174 298.314 M 64 320 L 64 328 256 328 L 448 328 448 320 L 448 312 256 312 L 64 312 64 320 M 50.174 354.314 C 48.051 356.575, 48 357.270, 48 384.140 C 48 411.604, 48.004 411.655, 50.314 413.826 L 52.629 416 104.140 416 L 155.651 416 157.826 413.686 C 159.949 411.425, 160 410.730, 160 383.860 C 160 356.396, 159.996 356.345, 157.686 354.174 L 155.371 352 103.860 352 L 52.349 352 50.174 354.314 M 170.174 354.314 C 168.051 356.575, 168 357.270, 168 384.140 C 168 411.604, 168.004 411.655, 170.314 413.826 L 172.629 416 316.140 416 L 459.651 416 461.826 413.686 C 463.949 411.425, 464 410.730, 464 383.860 C 464 356.396, 463.996 356.345, 461.686 354.174 L 459.371 352 315.860 352 L 172.349 352 170.174 354.314 M 64 384 L 64 400 104 400 L 144 400 144 384 L 144 368 104 368 L 64 368 64 384 M 184 384 L 184 400 316 400 L 448 400 448 384 L 448 368 316 368 L 184 368 184 384" stroke="none" class="tool_gradient_color" fill-rule="evenodd"/></svg>