<svg xmlns="http://www.w3.org/2000/svg" viewBox="0 0 512 512" version="1.1"><path d="M 57.798 41.931 C 42.174 46.926, 30.746 58.368, 25.985 73.783 C 24.081 79.948, 24 83.218, 24 153.931 L 24 227.651 26.314 229.826 C 29.486 232.805, 34.957 232.739, 37.826 229.686 C 39.957 227.417, 40 226.788, 40 197.686 L 40 168 120.250 167.988 C 187.195 167.978, 201.404 167.736, 205.955 166.525 C 226.480 161.062, 241.444 145.642, 246.978 124.250 L 248.077 120 360.039 120 L 472 120 472 173.826 L 472 227.651 474.314 229.826 C 477.486 232.805, 482.957 232.739, 485.826 229.686 L 488 227.371 488 153.791 C 488 83.218, 487.919 79.948, 486.015 73.783 C 483.862 66.812, 477.986 57.074, 473.386 52.851 C 468.522 48.386, 460.815 44.026, 454.145 41.964 C 447.919 40.040, 443.876 40.001, 255.645 40.054 C 72.544 40.105, 63.232 40.193, 57.798 41.931 M 66.132 57.070 C 59.208 58.443, 53.397 61.765, 48.614 67.084 C 40.809 75.765, 40.655 76.681, 40.234 116.750 L 39.863 152 115.681 151.992 C 162.946 151.988, 193.893 151.597, 197.855 150.954 C 210.316 148.932, 221.805 140.504, 227.401 129.280 C 228.854 126.366, 230.499 120.624, 231.126 116.280 C 231.887 111.008, 232.909 107.775, 234.299 106.250 L 236.349 104 354.314 104 L 472.279 104 471.726 92.750 C 471.002 77.999, 469.234 73.086, 462.074 65.926 C 451.646 55.498, 473.400 56.521, 258.500 56.352 C 155.100 56.270, 68.534 56.593, 66.132 57.070 M 298.174 74.314 C 295.195 77.486, 295.261 82.957, 298.314 85.826 L 300.629 88 372.140 88 L 443.651 88 445.826 85.686 C 448.805 82.514, 448.739 77.043, 445.686 74.174 L 443.371 72 371.860 72 L 300.349 72 298.174 74.314 M 69.500 90.377 C 66.750 91.674, 63.515 93.807, 62.312 95.118 C 56.754 101.169, 54.597 111.584, 57.141 120.078 C 61.030 133.058, 77.509 139.749, 90.500 133.623 C 96.458 130.813, 99.174 128.048, 101.916 122 C 106.071 112.836, 104.123 102.068, 97.028 94.972 C 89.710 87.655, 79.048 85.875, 69.500 90.377 M 125.500 90.377 C 122.750 91.674, 119.515 93.807, 118.312 95.118 C 112.754 101.169, 110.597 111.584, 113.141 120.078 C 117.030 133.058, 133.509 139.749, 146.500 133.623 C 152.458 130.813, 155.174 128.048, 157.916 122 C 162.071 112.836, 160.123 102.068, 153.028 94.972 C 145.710 87.655, 135.048 85.875, 125.500 90.377 M 183 89.314 C 178.147 90.852, 170.725 98.556, 169.222 103.616 C 166.602 112.440, 168.678 122.748, 174.312 128.882 C 177.920 132.811, 185.818 135.980, 192 135.980 C 198.182 135.980, 206.080 132.811, 209.688 128.882 C 218.132 119.688, 217.730 102.438, 208.882 94.312 C 202.755 88.685, 191.712 86.552, 183 89.314 M 77.465 104.961 C 69.848 108.014, 71.844 119.333, 80 119.333 C 84.052 119.333, 87.333 116.052, 87.333 112 C 87.333 106.989, 81.963 103.158, 77.465 104.961 M 133.465 104.961 C 125.848 108.014, 127.844 119.333, 136 119.333 C 140.052 119.333, 143.333 116.052, 143.333 112 C 143.333 106.989, 137.963 103.158, 133.465 104.961 M 189.465 104.961 C 181.848 108.014, 183.844 119.333, 192 119.333 C 196.052 119.333, 199.333 116.052, 199.333 112 C 199.333 106.989, 193.963 103.158, 189.465 104.961 M 15.137 249.369 C 10.065 251.205, 4.531 256.340, 2.138 261.430 C 0.053 265.866, 0 267.091, 0 311.123 C -0 343.782, 0.338 357.406, 1.222 360.384 C 2.830 365.796, 10.204 373.170, 15.616 374.778 C 18.809 375.726, 72.828 375.995, 256.616 375.978 C 492.892 375.956, 493.512 375.951, 498 373.916 C 504.166 371.121, 506.733 368.505, 510.111 361.573 L 513 355.646 512.985 309.573 C 512.976 282.813, 512.602 264.080, 512.093 264.883 C 511.453 265.894, 511.023 265.380, 510.493 262.970 C 509.504 258.463, 501.614 250.775, 496.384 249.222 C 490.406 247.447, 20.052 247.591, 15.137 249.369 M 21.020 265.284 C 16.045 267.802, 15.977 268.482, 16.248 313.223 L 16.500 354.946 18.777 357.223 L 21.054 359.500 66.527 359.779 L 112 360.059 112 312.029 L 112 264 67.750 264.015 C 34.266 264.026, 22.897 264.335, 21.020 265.284 M 128 312 L 128 360.016 309.472 359.758 L 490.945 359.500 493.222 357.222 L 495.500 354.944 495.500 312 L 495.500 269.056 493.222 266.778 L 490.945 264.500 309.472 264.242 L 128 263.984 128 312 M 0.462 311.500 C 0.461 337.350, 0.591 348.068, 0.749 335.319 C 0.907 322.569, 0.907 301.419, 0.749 288.319 C 0.591 275.218, 0.462 285.650, 0.462 311.500 M 47 272.935 C 42.022 274.455, 36.425 277.909, 32.856 281.665 C 26.992 287.836, 24.718 293.354, 24.207 302.648 C 23.809 309.899, 24.054 311.440, 26.432 316.648 C 31.835 328.480, 41.266 335.021, 54 335.767 C 59.964 336.116, 62.624 335.777, 66.988 334.109 L 72.477 332.011 82.505 342.005 C 91.122 350.593, 92.996 352, 95.813 352 C 100.212 352, 104 348.212, 104 343.813 C 104 340.996, 102.593 339.122, 94.005 330.505 L 84.011 320.477 86.005 315.228 C 93.915 294.411, 78.486 271.856, 56.500 272.096 C 52.650 272.138, 48.375 272.515, 47 272.935 M 51.315 289.104 C 44.089 291.190, 39.217 299.725, 40.940 307.278 C 43.705 319.398, 57.951 323.516, 66.733 314.733 C 78.090 303.377, 66.813 284.632, 51.315 289.104 M 146.174 306.314 C 143.195 309.486, 143.261 314.957, 146.314 317.826 C 148.414 319.798, 149.698 320, 160.140 320 C 170.880 320, 171.797 319.845, 173.826 317.686 C 176.805 314.514, 176.739 309.043, 173.686 306.174 C 171.586 304.202, 170.302 304, 159.860 304 C 149.120 304, 148.203 304.155, 146.174 306.314 M 194.174 306.314 C 191.195 309.486, 191.261 314.957, 194.314 317.826 C 196.414 319.798, 197.698 320, 208.140 320 C 218.880 320, 219.797 319.845, 221.826 317.686 C 224.805 314.514, 224.739 309.043, 221.686 306.174 C 219.586 304.202, 218.302 304, 207.860 304 C 197.120 304, 196.203 304.155, 194.174 306.314 M 242.174 306.314 C 239.195 309.486, 239.261 314.957, 242.314 317.826 C 244.414 319.798, 245.698 320, 256.140 320 C 266.880 320, 267.797 319.845, 269.826 317.686 C 272.805 314.514, 272.739 309.043, 269.686 306.174 C 267.586 304.202, 266.302 304, 255.860 304 C 245.120 304, 244.203 304.155, 242.174 306.314 M 290.174 306.314 C 287.195 309.486, 287.261 314.957, 290.314 317.826 C 292.414 319.798, 293.698 320, 304.140 320 C 314.880 320, 315.797 319.845, 317.826 317.686 C 320.805 314.514, 320.739 309.043, 317.686 306.174 C 315.586 304.202, 314.302 304, 303.860 304 C 293.120 304, 292.203 304.155, 290.174 306.314 M 338.174 306.314 C 335.195 309.486, 335.261 314.957, 338.314 317.826 C 340.414 319.798, 341.698 320, 352.140 320 C 362.880 320, 363.797 319.845, 365.826 317.686 C 368.805 314.514, 368.739 309.043, 365.686 306.174 C 363.586 304.202, 362.302 304, 351.860 304 C 341.120 304, 340.203 304.155, 338.174 306.314 M 26.174 394.314 C 24.112 396.510, 24 397.535, 24 414.209 C 24 428.858, 24.327 432.849, 25.964 438.145 C 28.026 444.815, 32.386 452.522, 36.851 457.386 C 41.074 461.986, 50.812 467.862, 57.783 470.015 C 64.100 471.966, 67.511 472, 256 472 C 443.798 472, 447.922 471.959, 454.145 470.036 C 465.474 466.535, 473.767 460.328, 480.151 450.572 C 486.706 440.554, 488 434.537, 488 414.069 C 488 396.839, 487.936 396.288, 485.686 394.174 C 482.543 391.222, 477.032 391.259, 474.274 394.250 C 472.390 396.295, 472.158 398.052, 471.734 413.500 C 471.159 434.425, 470.079 438.067, 462.064 446.090 C 451.690 456.475, 473.048 455.500, 256 455.500 C 38.952 455.500, 60.310 456.475, 49.936 446.090 C 41.921 438.067, 40.841 434.425, 40.266 413.500 C 39.842 398.052, 39.610 396.295, 37.726 394.250 C 34.868 391.151, 29.116 391.183, 26.174 394.314" stroke="none" class="tool_gradient_color" fill-rule="evenodd"/></svg>