<svg xmlns="http://www.w3.org/2000/svg" viewBox="0 0 512 512" version="1.1"><path d="M 2.174 2.314 L 0 4.629 0 96.140 L 0 187.651 2.314 189.826 L 4.629 192 62.314 192 L 120 192 120 209.826 C 120 227.166, 120.063 227.711, 122.314 229.826 C 123.766 231.189, 125.913 232, 128.074 232 C 131.220 232, 133.254 230.263, 151.500 212 L 171.481 192 275.566 192 L 379.651 192 381.826 189.686 L 384 187.371 384 95.860 L 384 4.349 381.686 2.174 L 379.371 -0 191.860 -0 L 4.349 0 2.174 2.314 M 16 96 L 16 176 73.826 176 L 131.651 176 133.826 178.314 C 135.807 180.424, 136 181.687, 136 192.552 L 136 204.474 150.263 190.237 L 164.525 176 266.263 176 L 368 176 368 96 L 368 16 192 16 L 16 16 16 96 M 48 96 L 48 152 56 152 L 64 152 64 128 L 64 104 80 104 L 96 104 96 128 L 96 152 104 152 L 112 152 112 96 L 112 40 104 40 L 96 40 96 64 L 96 88 80 88 L 64 88 64 64 L 64 40 56 40 L 48 40 48 96 M 128 48 L 128 56 140 56 L 152 56 152 104 L 152 152 160 152 L 168 152 168 104 L 168 56 180 56 L 192 56 192 48 L 192 40 160 40 L 128 40 128 48 M 210.174 42.314 L 208 44.629 208 98.314 L 208 152 215.985 152 L 223.969 152 224.235 123.250 L 224.500 94.500 228.365 105 C 232.955 117.466, 234.920 120, 240 120 C 245.080 120, 247.045 117.466, 251.635 105 L 255.500 94.500 255.765 123.250 L 256.031 152 264.015 152 L 272 152 272 98.174 L 272 44.349 269.686 42.174 C 266.542 39.221, 261.027 39.258, 258.291 42.250 C 257.160 43.487, 252.694 54.057, 248.367 65.737 C 244.040 77.417, 240.275 86.974, 240 86.974 C 239.725 86.974, 235.960 77.417, 231.633 65.737 C 227.306 54.057, 222.840 43.487, 221.709 42.250 C 218.874 39.150, 213.117 39.182, 210.174 42.314 M 288.022 87.250 C 288.046 139.962, 287.912 138.853, 295.128 145.699 C 301.164 151.426, 303.883 152, 324.968 152 L 344 152 344 144 L 344 136 327.547 136 C 309.973 136, 306.946 135.372, 305.110 131.343 C 304.350 129.674, 304 114.902, 304 84.453 L 304 40 296 40 L 288 40 288.022 87.250 M 400 95.872 L 400 103.839 423.250 104.190 C 448.937 104.578, 450.806 104.960, 456.923 111.077 C 461.449 115.603, 463.126 120.023, 463.716 128.982 L 464.212 136.500 459.370 138.446 C 453.094 140.970, 446.487 147.119, 443.240 153.460 C 441.289 157.270, 440.549 160.480, 440.211 166.612 C 439.812 173.855, 440.058 175.379, 442.511 180.846 C 445.780 188.129, 452.442 194.764, 459.286 197.551 L 464.072 199.500 463.424 203.500 C 462.456 209.479, 460.661 213.186, 456.923 216.923 C 449.844 224.002, 461.148 223.471, 311.250 223.768 L 176 224.035 176 232.028 L 176 240.021 313.750 239.760 L 451.500 239.500 457.500 236.702 C 469.836 230.948, 478.939 218.197, 479.798 205.470 L 480.205 199.440 484.838 197.523 C 490.960 194.991, 497.568 188.773, 500.760 182.540 C 502.711 178.730, 503.451 175.520, 503.789 169.388 C 504.188 162.145, 503.942 160.621, 501.489 155.154 C 498.247 147.931, 491.587 141.260, 484.834 138.472 L 480.169 136.546 479.832 126.523 C 479.548 118.083, 479.053 115.553, 476.699 110.500 C 473.030 102.627, 465.328 94.891, 457.605 91.321 L 451.500 88.500 425.750 88.203 L 400 87.905 400 95.872 M 470.500 152.468 C 469.950 152.664, 468.322 153.083, 466.883 153.398 C 463.290 154.185, 458.162 159.675, 457.022 163.958 C 454.074 175.023, 465.051 186.004, 476 182.944 C 484.289 180.627, 489.159 172.141, 486.952 163.858 C 485.980 160.212, 479.223 153.013, 476.747 152.986 C 476.061 152.979, 474.600 152.779, 473.500 152.542 C 472.400 152.305, 471.050 152.272, 470.500 152.468 M 55.549 226.113 C 37.500 232.320, 24.009 249.896, 23.996 267.218 L 23.993 272.500 19.261 274.446 C 13.055 276.999, 6.453 283.186, 3.240 289.460 C 1.289 293.270, 0.549 296.480, 0.211 302.612 C -0.188 309.855, 0.058 311.379, 2.511 316.846 C 5.769 324.104, 12.426 330.750, 19.246 333.551 L 23.993 335.500 23.996 340.782 C 24.004 351.237, 30.675 365.073, 39.355 372.636 C 41.635 374.622, 46.875 377.879, 51 379.873 L 58.500 383.500 77.250 383.828 L 96 384.156 96 376.078 L 96 368 82.710 368 C 74.089 368, 67.385 367.470, 63.627 366.491 C 52.404 363.568, 44.432 355.596, 41.509 344.373 C 39.348 336.078, 39.453 335.728, 44.739 333.554 C 50.945 331.001, 57.547 324.814, 60.760 318.540 C 62.711 314.730, 63.451 311.520, 63.789 305.388 C 64.188 298.145, 63.942 296.621, 61.489 291.154 C 58.231 283.896, 51.574 277.250, 44.754 274.449 C 39.451 272.272, 39.347 271.926, 41.509 263.627 C 44.432 252.404, 52.404 244.432, 63.627 241.509 C 67.385 240.530, 74.089 240, 82.710 240 L 96 240 96 232 L 96 224 78.750 224.033 C 64.033 224.062, 60.626 224.367, 55.549 226.113 M 114.174 266.314 L 112 268.629 112 368.140 L 112 467.651 114.314 469.826 L 116.629 472 206.314 472 L 296 472 296 489.826 C 296 507.166, 296.063 507.711, 298.314 509.826 C 299.766 511.189, 301.913 512, 304.074 512 C 307.220 512, 309.254 510.263, 327.500 492 L 347.481 472 427.566 472 L 507.651 472 509.826 469.686 L 512 467.371 512 367.860 L 512 268.349 509.686 266.174 L 507.371 264 311.860 264 L 116.349 264 114.174 266.314 M 128 368 L 128 456 217.826 456 L 307.651 456 309.826 458.314 C 311.807 460.424, 312 461.687, 312 472.552 L 312 484.474 326.263 470.237 L 340.525 456 418.263 456 L 496 456 496 368 L 496 280 312 280 L 128 280 128 368 M 30.500 288.468 C 29.950 288.664, 28.322 289.083, 26.883 289.398 C 23.290 290.185, 18.162 295.675, 17.022 299.958 C 14.074 311.023, 25.051 322.004, 36 318.944 C 44.289 316.627, 49.159 308.141, 46.952 299.858 C 45.980 296.212, 39.223 289.013, 36.747 288.986 C 36.061 288.979, 34.600 288.779, 33.500 288.542 C 32.400 288.305, 31.050 288.272, 30.500 288.468 M 204.500 297.346 C 193.127 301.112, 184.509 308.601, 179.582 318.997 L 176.500 325.500 176.500 368 L 176.500 410.500 179.620 417 C 183.593 425.278, 190.722 432.407, 199 436.380 C 205.005 439.262, 206.299 439.500, 216 439.500 C 225.662 439.500, 227.019 439.254, 233 436.413 C 245.114 430.661, 254.420 418.015, 255.706 405.560 L 256.280 400 248.159 400 C 240.114 400, 240.032 400.026, 239.429 402.750 C 237.314 412.303, 233.535 417.594, 226.341 421.077 C 212.753 427.655, 196.239 419.666, 193.092 404.994 C 191.632 398.183, 191.632 337.817, 193.092 331.006 C 196.239 316.334, 212.753 308.345, 226.341 314.923 C 233.535 318.406, 237.314 323.697, 239.429 333.250 C 240.032 335.974, 240.114 336, 248.159 336 L 256.280 336 255.706 330.440 C 254.408 317.866, 245.160 305.311, 233.003 299.619 C 227.519 297.051, 225.089 296.530, 217.500 296.297 C 211.970 296.128, 206.958 296.532, 204.500 297.346 M 300.500 297.346 C 289.127 301.112, 280.509 308.601, 275.582 318.997 C 272.748 324.977, 272.500 326.345, 272.500 336 C 272.500 345.655, 272.748 347.023, 275.582 353.003 C 281.915 366.367, 293.409 374.171, 309.582 376.089 C 314.487 376.670, 320.402 378.048, 322.727 379.151 C 337.814 386.308, 339.771 408.327, 326.238 418.649 C 312.626 429.032, 292.003 421.384, 289.201 404.914 L 288.450 400.500 280.081 400.207 L 271.711 399.914 272.290 405.518 C 273.575 417.973, 282.817 430.533, 295 436.380 C 301.005 439.262, 302.299 439.500, 312 439.500 C 321.655 439.500, 323.023 439.252, 329.003 436.418 C 337.333 432.470, 344.470 425.333, 348.418 417.003 C 351.252 411.023, 351.500 409.655, 351.500 400 C 351.500 390.345, 351.252 388.977, 348.418 382.997 C 342.078 369.619, 330.573 361.813, 314.418 359.928 C 303.642 358.671, 297.698 355.937, 293.351 350.238 C 282.891 336.524, 290.257 316.811, 307.250 313.044 C 319.689 310.287, 332.712 318.816, 334.799 331.086 L 335.550 335.500 343.919 335.793 L 352.289 336.086 351.710 330.482 C 350.408 317.866, 341.177 305.319, 329.003 299.619 C 323.519 297.051, 321.089 296.530, 313.500 296.297 C 307.970 296.128, 302.958 296.532, 300.500 297.346 M 396.500 297.346 C 385.127 301.112, 376.509 308.601, 371.582 318.997 C 368.748 324.977, 368.500 326.345, 368.500 336 C 368.500 345.655, 368.748 347.023, 371.582 353.003 C 377.915 366.367, 389.409 374.171, 405.582 376.089 C 410.487 376.670, 416.402 378.048, 418.727 379.151 C 433.814 386.308, 435.771 408.327, 422.238 418.649 C 408.626 429.032, 388.003 421.384, 385.201 404.914 L 384.450 400.500 376.081 400.207 L 367.711 399.914 368.290 405.518 C 369.575 417.973, 378.817 430.533, 391 436.380 C 397.005 439.262, 398.299 439.500, 408 439.500 C 417.655 439.500, 419.023 439.252, 425.003 436.418 C 433.333 432.470, 440.470 425.333, 444.418 417.003 C 447.252 411.023, 447.500 409.655, 447.500 400 C 447.500 390.345, 447.252 388.977, 444.418 382.997 C 438.078 369.619, 426.573 361.813, 410.418 359.928 C 399.642 358.671, 393.698 355.937, 389.351 350.238 C 378.891 336.524, 386.257 316.811, 403.250 313.044 C 415.689 310.287, 428.712 318.816, 430.799 331.086 L 431.550 335.500 439.919 335.793 L 448.289 336.086 447.710 330.482 C 446.408 317.866, 437.177 305.319, 425.003 299.619 C 419.519 297.051, 417.089 296.530, 409.500 296.297 C 403.970 296.128, 398.958 296.532, 396.500 297.346" stroke="none" fill="url(#gradientColor)" fill-rule="evenodd"/></svg>