
<svg xmlns="http://www.w3.org/2000/svg" viewBox="0 0 467 451" version="1.1"><path d="M 22.385 8.617 C 16.552 10.686, 10.605 16.144, 7.588 22.199 L 5 27.393 5 226 L 5 424.607 7.588 429.801 C 9.012 432.658, 11.989 436.547, 14.205 438.443 C 22.475 445.522, 4.968 445, 234 445 C 463.032 445, 445.525 445.522, 453.795 438.443 C 456.011 436.547, 458.988 432.658, 460.412 429.801 L 463 424.607 463 226 L 463 27.393 460.412 22.199 C 458.988 19.342, 456.011 15.453, 453.795 13.557 C 445.521 6.474, 463.111 6.991, 233.572 7.079 C 54.764 7.147, 25.938 7.357, 22.385 8.617 M 24.149 19.696 C 22.306 20.604, 19.606 23.148, 18.149 25.348 L 15.500 29.348 15.190 56.174 L 14.881 83 234 83 L 453.119 83 452.810 56.174 L 452.500 29.348 449.839 25.330 C 444.525 17.306, 464.968 17.997, 233.849 18.023 C 44.091 18.044, 27.231 18.178, 24.149 19.696 M 389.219 34.559 C 385.736 36.999, 386.427 40.473, 391.470 45.864 L 395.940 50.643 391.470 55.030 C 386.651 59.759, 385.900 62.694, 388.829 65.345 C 391.763 68, 394.290 67.299, 398.970 62.530 L 403.357 58.060 408.136 62.530 C 413.528 67.574, 417.001 68.264, 419.443 64.777 C 421.769 61.457, 421.429 60.373, 416.363 54.957 L 411.726 50 416.424 44.978 C 420.137 41.009, 420.980 39.490, 420.448 37.728 C 419.608 34.945, 419.055 34.392, 416.272 33.552 C 414.509 33.020, 412.986 33.868, 408.985 37.611 L 403.926 42.343 399.713 38.279 C 394.622 33.367, 392.164 32.496, 389.219 34.559 M 48.557 47.272 C 46.611 50.243, 47.617 53.904, 50.702 55.077 C 52.105 55.610, 83.514 56, 125.065 56 C 195.667 56, 197.037 55.963, 199 54 C 201.402 51.598, 201.569 48.712, 199.429 46.571 C 198.028 45.171, 189.805 45, 123.952 45 L 50.046 45 48.557 47.272 M 335.557 47.272 C 333.633 50.210, 334.519 53.460, 337.632 54.878 C 339.023 55.512, 345.415 56, 352.325 56 C 365.751 56, 369 54.931, 369 50.515 C 369 45.611, 367.056 45, 351.452 45 C 337.574 45, 336.992 45.083, 335.557 47.272 M 15.238 258.323 L 15.500 422.646 18.161 426.667 C 23.473 434.694, 3.050 434, 234 434 C 464.950 434, 444.527 434.694, 449.839 426.667 L 452.500 422.646 452.762 258.323 L 453.023 94 234 94 L 14.977 94 15.238 258.323 M 217.334 123.481 C 159.703 133.938, 123.561 191.044, 139.095 247.102 C 147.004 275.640, 169.805 301.010, 197.478 312.063 C 234.580 326.882, 276.923 317.693, 304.544 288.828 C 321.152 271.471, 329.531 253.487, 331.953 230 C 335.961 191.117, 315.479 152.739, 280.711 133.986 C 261.492 123.619, 238.017 119.728, 217.334 123.481 M 226 134.961 C 218.057 139.212, 210.259 150.280, 205.033 164.722 C 203.332 169.425, 202.133 173.466, 202.370 173.703 C 202.607 173.940, 206.253 173.654, 210.473 173.067 C 219.943 171.750, 247.907 171.725, 257.922 173.025 C 262.005 173.555, 265.506 173.827, 265.703 173.631 C 265.900 173.434, 264.668 169.425, 262.967 164.722 C 253.970 139.859, 239.148 127.926, 226 134.961 M 200.820 139.411 C 179.537 148.061, 161.745 165.794, 152.951 187.120 L 150.044 194.169 153.272 192.043 C 159.888 187.686, 171.778 182.172, 180.500 179.415 C 185.450 177.850, 189.627 176.503, 189.782 176.420 C 189.937 176.337, 190.888 173.396, 191.894 169.885 C 194.576 160.529, 199.787 148.517, 203.662 142.760 C 205.527 139.988, 206.919 137.585, 206.754 137.421 C 206.589 137.256, 203.919 138.152, 200.820 139.411 M 262.243 139.255 C 268.038 148.127, 273.343 159.976, 276.455 171 L 278.008 176.500 286.254 178.969 C 294.842 181.540, 308.171 187.561, 313.198 191.141 C 314.803 192.283, 316.338 192.995, 316.611 192.722 C 317.530 191.803, 312.251 180.238, 307.765 173.340 C 297.388 157.385, 281.289 144.247, 265.129 138.546 L 260.776 137.010 262.243 139.255 M 225 182.648 C 221.975 182.831, 215.081 183.489, 209.679 184.111 C 198.114 185.443, 198.734 184.664, 196.939 200.103 C 195.574 211.851, 196.182 239.980, 198.011 249.633 L 199.172 255.765 208.836 257.114 C 214.151 257.856, 225.475 258.463, 234 258.463 C 242.525 258.463, 253.849 257.856, 259.164 257.114 L 268.828 255.765 269.967 249.633 C 272.733 234.751, 272.139 195.756, 269.022 187.557 C 268.228 185.470, 267.175 185.135, 258.321 184.155 C 246.373 182.832, 232.407 182.201, 225 182.648 M 181 190.430 C 170.705 194.043, 160.866 199.416, 155.173 204.535 C 149.276 209.836, 147.348 212.970, 146.422 218.761 C 144.545 230.503, 160.326 244.698, 182.582 251.288 L 187.665 252.793 186.652 247.146 C 185.331 239.782, 185.343 201.156, 186.668 193.750 C 187.234 190.588, 187.653 188.033, 187.599 188.074 C 187.544 188.115, 184.575 189.175, 181 190.430 M 281.350 193.867 C 282.661 201.175, 282.659 239.834, 281.348 247.146 L 280.335 252.793 285.418 251.288 C 302.011 246.375, 315.879 236.752, 320.222 227.137 C 326.181 213.948, 312.888 199.314, 286.920 190.475 L 280.340 188.235 281.350 193.867 M 152.104 252.310 C 158.167 267.828, 170.558 283.477, 184.140 292.770 C 189.127 296.182, 200.963 302.295, 204.926 303.506 L 207.353 304.247 205.098 300.873 C 201.088 294.873, 194.213 279.700, 191.962 271.883 L 189.769 264.267 184.635 263.106 C 177.236 261.434, 163.748 255.692, 156.408 251.090 L 150.077 247.121 152.104 252.310 M 312.500 250.509 C 306.220 254.737, 293.033 260.522, 284.679 262.713 L 278.294 264.388 275.544 273.210 C 272.777 282.087, 267.045 294.615, 262.888 300.873 L 260.647 304.247 263.074 303.492 C 266.976 302.279, 279.118 295.997, 284 292.666 C 293.992 285.848, 304.552 274.154, 310.791 263 C 313.454 258.240, 318.412 246.867, 317.735 247.071 C 317.606 247.110, 315.250 248.657, 312.500 250.509 M 202 267.869 C 202 269.889, 206.939 282.092, 210.500 288.868 C 214.438 296.362, 221.401 304.013, 226.474 306.421 C 232.627 309.341, 241.291 307.993, 246.508 303.304 C 253.990 296.580, 262.609 281.222, 265.406 269.629 C 266.049 266.966, 265.922 266.803, 263.657 267.371 C 257.209 268.990, 233.177 269.870, 220.392 268.957 C 212.908 268.422, 205.708 267.714, 204.392 267.384 C 202.970 267.027, 202 267.223, 202 267.869 M 90.299 336.960 C 84.298 340.618, 84 342.191, 84 370.216 C 84 398.609, 84.416 400.609, 91.062 404.173 C 94.315 405.917, 100.775 406, 234 406 C 367.225 406, 373.685 405.917, 376.938 404.173 C 383.584 400.609, 384 398.609, 384 370.216 C 384 342.191, 383.702 340.618, 377.701 336.960 C 374.566 335.048, 371.589 335.007, 234 335.007 C 96.411 335.007, 93.434 335.048, 90.299 336.960 M 95.232 370.250 L 95.500 394.500 200.750 394.755 L 306 395.009 306 370.505 L 306 346 200.482 346 L 94.964 346 95.232 370.250 M 316 370.516 L 316 395.031 344.250 394.766 L 372.500 394.500 372.768 370.250 L 373.036 346 344.518 346 L 316 346 316 370.516 M 336.500 352.491 C 324.839 356.648, 321.363 370.598, 329.869 379.104 C 334.414 383.650, 340.003 385.390, 345.331 383.919 C 348.817 382.956, 349.358 383.107, 352.584 385.939 C 356.417 389.305, 360.009 389.849, 362.429 387.429 C 364.891 384.966, 364.291 382.040, 360.625 378.635 C 357.407 375.646, 357.273 375.240, 357.735 369.914 C 358.818 357.449, 347.845 348.446, 336.500 352.491 M 338.223 363.557 C 335.035 365.789, 335.236 370.454, 338.615 372.667 C 340.957 374.202, 341.506 374.227, 343.865 372.909 C 347.489 370.885, 348.016 365.825, 344.834 363.596 C 341.994 361.607, 341.014 361.601, 338.223 363.557 M 117.655 366.829 C 115.456 369.259, 115.567 371.567, 118 374 C 119.967 375.967, 121.333 376, 199.777 376 C 270.364 376, 279.811 375.821, 281.777 374.443 C 284.473 372.555, 284.658 368.905, 282.171 366.655 C 280.501 365.144, 273.344 365, 199.826 365 C 123.093 365, 119.232 365.086, 117.655 366.829" stroke="none" class="tool_gradient_color" fill-rule="evenodd"/></svg>