<svg xmlns="http://www.w3.org/2000/svg" viewBox="0 0 512 512" version="1.1"><defs><linearGradient id="gradientColor" x1="0%" y1="0%" x2="0%" y2="100%"><stop offset="0%" style="stop-color:rgb(255, 255, 255);stop-opacity:1" /><stop offset="100%" style="stop-color:rgb(255, 0, 0);stop-opacity:1" /></linearGradient></defs><path d="M 33.081 32.588 C 22.929 35.318, 15.679 41.896, 12.008 51.708 C 10.025 57.007, 10 59.291, 10 231.859 C 10 425.826, 9.462 410.816, 16.761 420.421 C 19.239 423.683, 22.671 426.530, 26.938 428.864 C 33.015 432.189, 34.013 432.410, 44.769 432.822 C 54.164 433.181, 56.246 433.542, 56.644 434.879 C 63.131 456.702, 78.335 472.401, 100 479.647 C 105.224 481.394, 112.849 481.500, 251.909 481.769 C 416.536 482.087, 408.815 482.392, 423.771 474.981 C 438.236 467.813, 449.001 455.521, 454.019 440.444 L 456.064 434.296 467.186 433.709 C 476.935 433.195, 479.087 432.740, 484.612 430.019 C 492.079 426.343, 497.188 420.787, 499.992 413.292 C 501.975 407.993, 502 405.709, 502 232.473 C 502 61.678, 501.949 56.887, 500.074 51.952 C 496.269 41.938, 488.766 35.216, 478.373 32.509 C 469.777 30.270, 41.420 30.347, 33.081 32.588 M 38.500 42.486 C 37.950 42.672, 36.251 43.101, 34.725 43.438 C 33.198 43.775, 30.187 45.643, 28.033 47.589 C 20.362 54.520, 20.922 39.211, 21.227 233.664 L 21.500 407.828 24.542 412.155 C 29.390 419.054, 33.762 420.964, 44.750 420.984 L 54 421 54 414.660 C 54 406.478, 57.083 394.519, 61.211 386.686 C 65.514 378.523, 78.523 365.514, 86.686 361.211 C 90.088 359.418, 96.348 357.062, 100.596 355.975 C 108.117 354.052, 112.205 354, 256 354 C 399.795 354, 403.883 354.052, 411.404 355.975 C 415.652 357.062, 421.912 359.418, 425.314 361.211 C 433.477 365.514, 446.486 378.523, 450.789 386.686 C 454.933 394.548, 458 406.486, 458 414.751 L 458 421.182 468.410 420.841 C 478.278 420.518, 479.021 420.341, 482.660 417.442 C 484.772 415.760, 487.512 412.402, 488.750 409.980 L 491 405.576 491 232.256 C 491 77.825, 490.831 58.531, 489.447 55.218 C 487.620 50.845, 483.698 46.485, 479.500 44.161 C 476.733 42.629, 459.547 42.486, 258 42.323 C 137.825 42.226, 39.050 42.299, 38.500 42.486 M 98.226 56.986 C 84.532 62.813, 80.605 79.451, 90.589 89.343 C 95.072 93.785, 98.954 95.406, 105 95.360 C 124.933 95.208, 131.047 70.663, 113.967 59.359 C 109.595 56.466, 102.102 55.336, 98.226 56.986 M 48.333 58.400 C 43.133 60.754, 37.445 67.176, 36.207 72.091 C 33.498 82.853, 41.057 94.046, 52.666 96.463 C 59.795 97.947, 69.765 92.230, 73.397 84.575 C 78.904 72.970, 69.897 58.191, 56.785 57.319 C 53.605 57.107, 50.239 57.538, 48.333 58.400 M 146.500 58.424 C 142.704 60.127, 136.446 66.632, 135.060 70.315 C 129.845 84.169, 143.497 99.479, 157.969 96.007 C 163.595 94.658, 169.115 90.384, 171.370 85.634 C 173.226 81.721, 173.512 73.486, 171.936 69.315 C 168.421 60.011, 155.395 54.434, 146.500 58.424 M 205.459 59.880 C 195.409 64.445, 191.300 76.945, 196.528 87.053 C 198.463 90.795, 203.531 94.539, 208.500 95.896 C 213.933 97.380, 446.885 97.437, 452.219 95.956 C 469.080 91.273, 470.824 65.181, 454.685 59.067 C 452.746 58.332, 414.145 58.007, 330.685 58.022 C 215.275 58.043, 209.307 58.131, 205.459 59.880 M 205.121 157.710 C 199.797 160.333, 198.796 164.039, 199.175 179.731 L 199.500 193.169 202.766 196.085 C 205.814 198.806, 206.581 199, 214.266 198.996 C 223.790 198.992, 227.844 197.205, 229.970 192.073 C 231.430 188.548, 230.263 184.422, 227.506 183.364 C 225.009 182.406, 220.824 183.958, 220.278 186.046 C 219.859 187.648, 218.888 188, 214.883 188 L 210 188 210 177.500 L 210 167 214.839 167 C 219.031 167, 219.831 167.335, 220.818 169.500 C 222.911 174.094, 231 172.011, 231 166.879 C 231 163.304, 227.938 158.872, 224.466 157.421 C 219.815 155.478, 209.334 155.635, 205.121 157.710 M 243.315 157.464 C 237.772 159.874, 236.808 163.285, 237.176 179.178 L 237.500 193.169 240.766 196.085 C 243.802 198.795, 244.599 199, 252.111 199 C 266.424 199, 269 195.730, 269 177.567 C 269 163.770, 267.842 160.102, 262.722 157.672 C 258.405 155.624, 247.807 155.510, 243.315 157.464 M 282.315 157.464 C 276.866 159.834, 276 162.964, 276 180.295 C 276 193.939, 276.208 195.878, 277.829 197.345 C 280.133 199.431, 283.391 199.467, 285.429 197.429 C 286.712 196.145, 287 193.212, 287 181.429 L 287 167 289.809 167 C 295.826 167, 296.469 168.485, 296.808 183.167 C 297.138 197.466, 297.703 199, 302.634 199 C 306.922 199, 308 195.655, 308 182.349 C 308 168.813, 308.717 167, 314.071 167 L 317 167 317 181.345 C 317 193.972, 317.219 195.888, 318.829 197.345 C 321.133 199.431, 324.391 199.467, 326.429 197.429 C 327.725 196.132, 327.997 193.112, 327.985 180.179 C 327.975 169.670, 327.559 163.676, 326.721 162 C 323.899 156.352, 314.077 154.420, 306.250 157.973 C 302.052 159.879, 301.948 159.879, 297.750 157.973 C 292.772 155.713, 286.793 155.516, 282.315 157.464 M 248 177.500 L 248 188 253 188 L 258 188 258 177.500 L 258 167 253 167 L 248 167 248 177.500 M 185.571 186.571 C 184.686 187.457, 184 189.827, 184 192 C 184 196.367, 186.037 199, 189.416 199 C 192.625 199, 195 195.948, 195 191.826 C 195 186.017, 189.302 182.841, 185.571 186.571 M 202.385 253.765 C 199.287 255.806, 200.183 263, 203.535 263 C 204.751 263, 205 265.345, 205 276.777 C 205 292.199, 205.900 295, 210.857 295 C 215.609 295, 216 293.731, 216 278.300 L 216 264 219.965 264 C 225.385 264, 226 265.581, 226 279.500 C 226 292.655, 226.751 295, 230.964 295 C 236.359 295, 237.002 293.255, 236.978 278.679 C 236.953 263.356, 235.530 258.727, 229.750 255.155 C 226.710 253.276, 224.807 253.002, 214.882 253.015 C 208.622 253.024, 202.998 253.361, 202.385 253.765 M 249.659 255.054 C 245.766 258.116, 244.728 263.098, 245.171 276.589 C 245.725 293.463, 247.081 295, 261.412 295 C 268.168 295, 270.200 294.631, 272.230 293.034 C 277.987 288.505, 278.062 280.807, 272.363 279.376 C 270.194 278.832, 269.204 279.224, 267.377 281.349 C 265.531 283.494, 264.228 284, 260.548 284 C 256.667 284, 256 283.707, 256 282 C 256 280.267, 256.667 280, 261 280 C 264.667 280, 266.533 279.467, 268 278 C 270.407 275.593, 270.501 274.160, 268.443 271.223 C 267.159 269.389, 265.935 269, 261.443 269 C 256.667 269, 256 268.755, 256 267 C 256 265.294, 256.667 265, 260.540 265 C 263.587 265, 266.017 265.692, 267.926 267.104 C 275.392 272.624, 280.148 262.420, 273.300 255.573 C 270.908 253.181, 270.079 253, 261.498 253 C 253.704 253, 251.864 253.319, 249.659 255.054 M 288.217 254.561 C 285.075 256.761, 282.718 261.741, 283.446 264.642 C 284.354 268.258, 288.266 269.711, 291.459 267.619 C 292.857 266.703, 294 265.514, 294 264.977 C 294 264.440, 294.675 264, 295.500 264 C 296.763 264, 297 266.256, 297 278.300 C 297 293.731, 297.391 295, 302.143 295 C 307.059 295, 308 292.159, 308 277.323 L 308 264.091 310.455 266.545 C 313.432 269.523, 315.361 269.639, 318 267 C 321.283 263.717, 319.997 258.184, 315.046 254.282 C 312.599 252.354, 291.048 252.578, 288.217 254.561 M 186.223 282.557 C 183.779 284.268, 183.177 289.594, 185.035 293.066 C 186.310 295.447, 191.199 295.658, 193.429 293.429 C 195.871 290.987, 195.479 284.449, 192.777 282.557 C 191.555 281.701, 190.080 281, 189.500 281 C 188.920 281, 187.445 281.701, 186.223 282.557 M 103.112 365.581 C 85.502 370.317, 71.147 384.821, 66.531 402.542 C 64.736 409.435, 64.540 421.695, 66.105 429.201 C 70.344 449.526, 88.516 466.381, 109 468.985 C 113.345 469.537, 163.368 469.951, 227.900 469.969 L 339.300 470 335.340 467.132 C 325.568 460.053, 316.568 445.047, 313.450 430.635 C 311.060 419.589, 311.807 405.041, 315.270 395.193 C 318.602 385.718, 324.751 376.372, 332.176 369.497 L 338.114 364 223.307 364.066 C 126.350 364.121, 107.662 364.357, 103.112 365.581 M 377.344 386.095 C 355.687 390.102, 347.518 416.365, 363.087 431.933 C 370.725 439.571, 383.883 441.849, 392.931 437.100 L 397.362 434.775 404.804 442.387 C 408.898 446.574, 412.776 450, 413.423 450 C 415.482 450, 417 447.697, 417 444.575 C 417 442.191, 415.625 440.165, 410.515 435.015 L 404.029 428.479 406.515 423.570 C 415.903 405.025, 398.168 382.241, 377.344 386.095 M 371.970 397.250 C 364.238 401.156, 360.583 409.328, 362.984 417.342 C 364.651 422.903, 371.343 429.498, 376.235 430.398 C 387.989 432.560, 399.607 421.082, 397.427 409.461 C 395.964 401.666, 387.931 395, 380 395 C 378.033 395, 374.420 396.012, 371.970 397.250 M 99.200 399.200 C 97.001 401.399, 98.071 406.378, 103.887 421 C 108.641 432.954, 110.132 435.734, 112.380 436.830 C 116.233 438.710, 119.424 436.389, 121.667 430.076 C 122.631 427.362, 123.741 425.340, 124.133 425.582 C 124.526 425.825, 125.571 428.203, 126.455 430.866 C 129.204 439.142, 135.996 439.928, 139.269 432.350 C 145.914 416.963, 149.856 405.600, 149.059 404.124 C 147.133 400.551, 143.211 397.847, 140.431 398.174 C 137.899 398.471, 137.397 399.272, 134.744 407.250 C 133.143 412.063, 131.510 416, 131.114 416 C 130.719 416, 129.573 413.714, 128.568 410.920 C 126.569 405.361, 123.157 402.780, 120.239 404.621 C 118.394 405.785, 117.765 406.832, 115.266 412.904 L 113.453 417.307 110.573 408.904 C 108.989 404.282, 107.257 399.938, 106.724 399.250 C 105.491 397.659, 100.772 397.628, 99.200 399.200 M 159.571 399.571 C 158.707 400.436, 158 401.995, 158 403.037 C 158 404.078, 160.762 411.877, 164.138 420.367 C 168.889 432.316, 170.809 436.047, 172.634 436.879 C 176.558 438.667, 179.247 436.807, 182.461 430.083 L 185.399 423.934 188.134 429.958 C 191.400 437.153, 194.519 439.201, 198.368 436.678 C 200.141 435.516, 202.409 431.004, 206.577 420.346 L 212.336 405.619 210.280 402.060 C 208.200 398.460, 203.847 396.753, 201.848 398.752 C 201.348 399.252, 199.471 403.772, 197.677 408.797 L 194.415 417.932 191.615 411.504 C 187.298 401.594, 183 401.467, 177.867 411.098 C 176.114 414.388, 174.374 416.724, 174.001 416.290 C 173.629 415.855, 172.305 412.575, 171.059 409 C 169.814 405.425, 168.156 401.488, 167.375 400.250 C 165.712 397.616, 161.861 397.281, 159.571 399.571 M 226.200 399.200 C 224.001 401.399, 225.071 406.378, 230.887 421 C 235.641 432.954, 237.132 435.734, 239.380 436.830 C 243.169 438.679, 246.314 436.466, 249.098 429.993 C 250.280 427.247, 251.558 425, 251.939 425 C 252.320 425, 253.631 427.410, 254.852 430.356 C 257.480 436.696, 260.673 438.776, 264.692 436.766 C 266.698 435.762, 268.441 432.399, 273.118 420.500 L 279.015 405.500 275.046 401.750 C 270.437 397.395, 266.757 396.864, 264.637 400.250 C 263.862 401.488, 262.240 405.538, 261.033 409.250 C 259.825 412.962, 258.513 416, 258.116 416 C 257.720 416, 256.573 413.714, 255.568 410.920 C 253.569 405.361, 250.157 402.780, 247.239 404.621 C 245.394 405.785, 244.765 406.832, 242.266 412.904 L 240.453 417.307 237.573 408.904 C 235.989 404.282, 234.257 399.938, 233.724 399.250 C 232.491 397.659, 227.772 397.628, 226.200 399.200" stroke="none" class="tool_gradient_color" fill="url(#gradientColor)" fill-rule="evenodd"/></svg>