<svg xmlns="http://www.w3.org/2000/svg" viewBox="0 0 512 512" version="1.1"><defs><linearGradient id="gradientColor" x1="0%" y1="0%" x2="0%" y2="100%"><stop offset="0%" style="stop-color:rgb(0, 133, 121);stop-opacity:1" /><stop offset="100%" style="stop-color:rgb(255, 0, 0);stop-opacity:1" /></linearGradient></defs><path d="M 248 118.240 L 248 236.480 229.740 218.240 L 211.480 200 105.740 200 L 0 200 0 356 L 0 512 132 512 L 264 512 264 412 L 264 312 300 312 L 336 312 336 304 L 336 296 300 296 L 264 296 264 156 L 264 16 356 16 L 448 16 448 40 L 448 64 472 64 L 496 64 496 180 L 496 296 488 296 L 480 296 480 304 L 480 312 495.995 312 L 511.990 312 512.332 411.250 C 512.521 465.837, 512.529 407.460, 512.352 281.522 L 512.029 52.543 485.772 26.272 L 459.514 0 353.757 0 L 248 0 248 118.240 M 464 38 L 464 48 474.231 48 L 484.462 48 474.500 38 C 469.021 32.500, 464.417 28, 464.269 28 C 464.121 28, 464 32.500, 464 38 M 108.504 48.004 L 124.485 64.008 71.228 117.272 L 17.972 170.535 23.752 176.255 L 29.532 181.974 88.503 122.997 L 147.473 64.020 139.510 56.010 L 131.547 48 169.773 48 L 208 48 208 86.227 L 208 124.453 199.991 116.491 L 191.983 108.530 161.003 139.497 L 130.023 170.465 135.742 176.245 L 141.461 182.024 166.728 156.772 L 191.996 131.519 207.998 147.498 L 224 163.477 224 97.738 L 224 32 158.262 32 L 92.523 32 108.504 48.004 M 280 48 L 280 64 288 64 L 296 64 296 56 L 296 48 304 48 L 312 48 312 40 L 312 32 296 32 L 280 32 280 48 M 126.220 118.280 L 73.972 170.535 79.752 176.255 L 85.532 181.975 137.780 129.720 L 190.028 77.465 184.248 71.745 L 178.468 66.025 126.220 118.280 M 320 92 L 320 104 308 104 L 296 104 296 128 L 296 152 308 152 L 320 152 320 164 L 320 176 308 176 L 296 176 296 200 L 296 224 308 224 L 320 224 320 236 L 320 248 344 248 L 368 248 368 236 L 368 224 380 224 L 392 224 392 236 L 392 248 416 248 L 440 248 440 236 L 440 224 452 224 L 464 224 464 200 L 464 176 452 176 L 440 176 440 164 L 440 152 452 152 L 464 152 464 128 L 464 104 452 104 L 440 104 440 92 L 440 80 416 80 L 392 80 392 92 L 392 104 380 104 L 368 104 368 92 L 368 80 344 80 L 320 80 320 92 M 336 108 L 336 120 324 120 L 312 120 312 128 L 312 136 324 136 L 336 136 336 164 L 336 192 324 192 L 312 192 312 200 L 312 208 324 208 L 336 208 336 220 L 336 232 344 232 L 352 232 352 220 L 352 208 380 208 L 408 208 408 220 L 408 232 416 232 L 424 232 424 220 L 424 208 436 208 L 448 208 448 200 L 448 192 436 192 L 424 192 424 164 L 424 136 436 136 L 448 136 448 128 L 448 120 436 120 L 424 120 424 108 L 424 96 416 96 L 408 96 408 108 L 408 120 380 120 L 352 120 352 108 L 352 96 344 96 L 336 96 336 108 M 352 164 L 352 192 380 192 L 408 192 408 164 L 408 136 380 136 L 352 136 352 164 M 368 164 L 368 176 380 176 L 392 176 392 164 L 392 152 380 152 L 368 152 368 164 M 0.488 356 C 0.488 442.075, 0.606 477.287, 0.750 434.250 C 0.894 391.212, 0.894 320.787, 0.750 277.750 C 0.606 234.712, 0.488 269.925, 0.488 356 M 16 356 L 16 496 132 496 L 248 496 248 380 L 248 264 224 264 L 200 264 200 240 L 200 216 108 216 L 16 216 16 356 M 216 238 L 216 248 226.231 248 L 236.462 248 226.500 238 C 221.021 232.500, 216.417 228, 216.269 228 C 216.121 228, 216 232.500, 216 238 M 32 248 L 32 264 40 264 L 48 264 48 256 L 48 248 56 248 L 64 248 64 240 L 64 232 48 232 L 32 232 32 248 M 109.878 274.364 C 89.233 280.475, 72.318 297.510, 66.316 318.232 C 64.025 326.141, 64 326.792, 64 379.113 L 64 432 88 432 L 112 432 112 416 L 112 400 128 400 L 144 400 144 416 L 144 432 168 432 L 192 432 192 379.230 C 192 329.289, 191.891 326.067, 189.972 319.141 C 187.392 309.830, 184.346 303.846, 178.403 296.416 C 165.244 279.963, 148.490 271.941, 127.520 272.054 C 120.163 272.093, 115.474 272.707, 109.878 274.364 M 393.608 273.522 C 374.315 278.819, 358.637 294.650, 353.475 314.045 C 352.493 317.737, 352.020 324.753, 352.012 335.750 L 352 352 344 352 L 336 352 336 416 L 336 480 408 480 L 480 480 480 416 L 480 352 472 352 L 464 352 463.988 335.750 C 463.980 324.753, 463.507 317.737, 462.525 314.045 C 457.301 294.416, 441.584 278.699, 421.955 273.475 C 415.241 271.689, 400.195 271.713, 393.608 273.522 M 120.536 289.113 C 100.611 292.014, 83.966 309.034, 81.040 329.500 C 80.490 333.350, 80.031 354.387, 80.020 376.250 L 80 416 88 416 L 96 416 96 400 L 96 384 128 384 L 160 384 160 400 L 160 416 168 416 L 176 416 175.980 376.250 C 175.969 354.387, 175.510 333.350, 174.960 329.500 C 171.197 303.185, 147.035 285.255, 120.536 289.113 M 401.226 289.112 C 385.241 291.774, 371.723 305.650, 369.046 322.145 C 368.479 325.640, 368.012 333.788, 368.008 340.250 L 368 352 408 352 L 448 352 447.992 340.250 C 447.988 333.788, 447.521 325.640, 446.954 322.145 C 444.200 305.177, 430.825 291.800, 413.862 289.047 C 410.363 288.480, 407.275 288.064, 407 288.124 C 406.725 288.185, 404.127 288.629, 401.226 289.112 M 119 304.877 C 110.401 307.701, 103.087 313.918, 98.856 322 C 96.639 326.234, 96.481 327.728, 96.178 347.250 L 95.855 368 128 368 L 160.145 368 159.822 347.250 C 159.519 327.728, 159.361 326.234, 157.144 322 C 153.906 315.816, 148.452 310.319, 142.500 307.243 C 138.596 305.225, 135.747 304.593, 129.500 304.357 C 125.100 304.192, 120.375 304.426, 119 304.877 M 123.315 321.102 C 119.026 322.343, 114.300 327.260, 113.041 331.791 C 112.475 333.831, 112.009 339.212, 112.006 343.750 L 112 352 128 352 L 144 352 143.994 343.750 C 143.991 339.212, 143.546 333.905, 143.004 331.956 C 141.779 327.544, 136.474 322.283, 131.942 320.983 C 128 319.853, 127.613 319.858, 123.315 321.102 M 352 416 L 352 464 408 464 L 464 464 464 416 L 464 368 408 368 L 352 368 352 416 M 398.422 385.418 C 380.968 393.018, 378.875 417.442, 394.777 427.953 L 400 431.405 400 439.703 L 400 448 408 448 L 416 448 416 439.703 L 416 431.405 421.250 427.953 C 437.219 417.451, 434.957 392.730, 417.355 385.375 C 413.193 383.636, 402.459 383.661, 398.422 385.418 M 405.465 400.961 C 397.848 404.014, 399.844 415.333, 408 415.333 C 412.052 415.333, 415.333 412.052, 415.333 408 C 415.333 402.989, 409.963 399.158, 405.465 400.961" stroke="none" class="tool_gradient_color" fill="url(#gradientColor)" fill-rule="evenodd"/></svg>