<svg xmlns="http://www.w3.org/2000/svg" viewBox="0 0 512 512" version="1.1"><defs><linearGradient id="gradientColor" x1="0%" y1="0%" x2="0%" y2="100%"><stop offset="0%" style="stop-color:rgb(0, 133, 121);stop-opacity:1" /><stop offset="100%" style="stop-color:rgb(255, 0, 0);stop-opacity:1" /></linearGradient></defs><path d="M 234 1.985 C 205.492 8.169, 181.856 24.271, 165.952 48.342 C 159.151 58.635, 154.815 68.535, 151.240 81.926 C 149.004 90.301, 148.684 93.504, 148.684 107.500 C 148.684 121.534, 149.001 124.688, 151.264 133.170 C 158.555 160.493, 173.941 182.294, 196.301 196.984 C 201.360 200.308, 206.058 203.485, 206.740 204.044 C 207.422 204.603, 214.302 214.487, 222.030 226.010 C 239.315 251.783, 243.085 255, 256 255 C 268.915 255, 272.685 251.783, 289.970 226.010 C 297.698 214.487, 304.578 204.603, 305.260 204.044 C 305.942 203.485, 310.640 200.308, 315.699 196.984 C 364.926 164.644, 378.609 97.624, 346.048 48.342 C 329.804 23.756, 304.639 6.992, 275.750 1.512 C 264.704 -0.583, 244.799 -0.358, 234 1.985 M 245 16.095 C 208.567 20.378, 178.478 46.188, 167.330 82.718 C 164.913 90.636, 164.650 93.024, 164.659 107 C 164.670 124.924, 166.331 132.875, 172.969 146.759 C 177.959 157.198, 181.597 162.475, 189.795 171.165 C 201.837 183.930, 219.451 193.741, 237.257 197.601 C 246.695 199.646, 265.305 199.646, 274.743 197.601 C 297.348 192.701, 319.096 178.255, 331.912 159.628 C 336.712 152.652, 342.720 139.449, 345.168 130.500 C 348.317 118.986, 348.317 96.014, 345.168 84.500 C 340.687 68.118, 331.584 52.628, 319.819 41.363 C 299.930 22.321, 272.071 12.913, 245 16.095 M 225.364 57.170 C 224.189 57.738, 222.727 59.304, 222.114 60.649 C 220.543 64.097, 220.558 150.935, 222.130 154.385 C 224.660 159.939, 233.340 159.939, 235.870 154.385 C 237.439 150.942, 237.457 64.097, 235.890 60.657 C 234.808 58.284, 231.125 55.931, 228.703 56.068 C 228.041 56.105, 226.539 56.601, 225.364 57.170 M 255.364 57.123 C 254.189 57.718, 252.727 59.304, 252.114 60.649 C 250.543 64.097, 250.558 150.935, 252.130 154.385 C 254.660 159.939, 263.340 159.939, 265.870 154.385 C 266.571 152.847, 267 145.322, 267 134.561 L 267 117.216 278.250 116.836 C 288.472 116.491, 289.995 116.184, 294.922 113.478 C 300.907 110.191, 307.113 103.114, 309.140 97.264 C 311.258 91.149, 310.792 80.324, 308.154 74.401 C 305.329 68.056, 299.050 61.804, 292.500 58.812 C 288.106 56.806, 285.681 56.499, 272.500 56.286 C 263.245 56.136, 256.682 56.457, 255.364 57.123 M 267 87.122 L 267 102.245 276.005 101.814 C 285.961 101.338, 288.585 100.106, 292.839 93.908 C 294.726 91.158, 295.091 89.568, 294.729 85.676 C 293.831 76.035, 288.088 72.004, 275.250 72.002 L 267 72 267 87.122 M 233 213.440 C 233 215.188, 248.646 237.008, 250.679 238.096 C 253.678 239.701, 258.374 239.673, 261.439 238.032 C 263.745 236.798, 279.584 214.251, 278.739 213.405 C 278.519 213.185, 275.675 213.502, 272.419 214.110 C 266.305 215.250, 239.429 214.792, 235.250 213.475 C 234.012 213.086, 233 213.070, 233 213.440 M 82.500 278.861 C 78.501 281.331, 76.391 283.821, 74.538 288.254 C 72.244 293.746, 72.252 365.274, 74.548 370.768 C 77.823 378.608, 83.079 382, 91.950 382 L 98 382 98 394.500 L 98 407 91.950 407 C 85.488 407, 81.831 408.384, 78.298 412.169 C 73.169 417.662, 73 419.171, 73 459.500 C 73 499.829, 73.169 501.338, 78.298 506.831 C 83.427 512.325, 72.241 512, 256 512 C 439.759 512, 428.573 512.325, 433.702 506.831 C 438.831 501.338, 439 499.829, 439 459.500 C 439 419.171, 438.831 417.662, 433.702 412.169 C 430.169 408.384, 426.512 407, 420.050 407 L 414 407 414 394.500 L 414 382 420.050 382 C 426.512 382, 430.169 380.616, 433.702 376.831 C 438.831 371.338, 439 369.829, 439 329.500 C 439 289.171, 438.831 287.662, 433.702 282.169 C 428.572 276.674, 439.777 277, 255.800 277.004 C 91.750 277.007, 85.390 277.075, 82.500 278.861 M 90.250 292.662 C 89.282 293.053, 89 301.364, 89 329.476 C 89 361.664, 89.180 365.855, 90.582 366.393 C 92.650 367.187, 419.350 367.187, 421.418 366.393 C 422.759 365.878, 423 363.595, 423 351.393 L 423 337 356.573 337 L 290.145 337 288.073 334.365 C 285.443 331.022, 285.443 327.978, 288.073 324.635 L 290.145 322 356.573 322 L 423 322 423 307.607 C 423 295.405, 422.759 293.122, 421.418 292.607 C 419.526 291.881, 92.051 291.935, 90.250 292.662 M 115.500 303.861 C 107.768 308.636, 106 313.409, 106 329.500 C 106 342.886, 107.040 347.272, 111.298 351.831 C 115.627 356.468, 117.964 357, 134 357 C 150.036 357, 152.373 356.468, 156.702 351.831 C 160.960 347.272, 162 342.886, 162 329.500 C 162 316.114, 160.960 311.728, 156.702 307.169 C 152.363 302.521, 150.052 302, 133.800 302.004 C 120.654 302.007, 118.078 302.268, 115.500 303.861 M 195.500 303.861 C 187.768 308.636, 186 313.409, 186 329.500 C 186 342.886, 187.040 347.272, 191.298 351.831 C 195.627 356.468, 197.964 357, 214 357 C 230.036 357, 232.373 356.468, 236.702 351.831 C 240.960 347.272, 242 342.886, 242 329.500 C 242 316.114, 240.960 311.728, 236.702 307.169 C 232.363 302.521, 230.052 302, 213.800 302.004 C 200.654 302.007, 198.078 302.268, 195.500 303.861 M 123.250 317.662 C 122.353 318.024, 122 321.364, 122 329.476 C 122 338.867, 122.268 340.889, 123.582 341.393 C 125.638 342.182, 142.362 342.182, 144.418 341.393 C 146.768 340.491, 146.768 318.509, 144.418 317.607 C 142.545 316.888, 125.055 316.934, 123.250 317.662 M 203.250 317.662 C 202.353 318.024, 202 321.364, 202 329.476 C 202 338.867, 202.268 340.889, 203.582 341.393 C 205.638 342.182, 222.362 342.182, 224.418 341.393 C 226.768 340.491, 226.768 318.509, 224.418 317.607 C 222.545 316.888, 205.055 316.934, 203.250 317.662 M 114 394.500 L 114 407 256 407 L 398 407 398 394.500 L 398 382 256 382 L 114 382 114 394.500 M 90.250 422.662 C 89.282 423.053, 89 431.364, 89 459.476 C 89 491.664, 89.180 495.855, 90.582 496.393 C 92.650 497.187, 419.350 497.187, 421.418 496.393 C 422.759 495.878, 423 493.595, 423 481.393 L 423 467 356.573 467 L 290.145 467 288.073 464.365 C 285.443 461.022, 285.443 457.978, 288.073 454.635 L 290.145 452 356.573 452 L 423 452 423 437.607 C 423 425.405, 422.759 423.122, 421.418 422.607 C 419.526 421.881, 92.051 421.935, 90.250 422.662 M 115.500 433.861 C 107.768 438.636, 106 443.409, 106 459.500 C 106 472.886, 107.040 477.272, 111.298 481.831 C 115.627 486.468, 117.964 487, 134 487 C 150.036 487, 152.373 486.468, 156.702 481.831 C 160.960 477.272, 162 472.886, 162 459.500 C 162 446.114, 160.960 441.728, 156.702 437.169 C 152.363 432.521, 150.052 432, 133.800 432.004 C 120.654 432.007, 118.078 432.268, 115.500 433.861 M 195.500 433.861 C 187.768 438.636, 186 443.409, 186 459.500 C 186 472.886, 187.040 477.272, 191.298 481.831 C 195.627 486.468, 197.964 487, 214 487 C 230.036 487, 232.373 486.468, 236.702 481.831 C 240.960 477.272, 242 472.886, 242 459.500 C 242 446.114, 240.960 441.728, 236.702 437.169 C 232.363 432.521, 230.052 432, 213.800 432.004 C 200.654 432.007, 198.078 432.268, 195.500 433.861 M 123.250 447.662 C 122.353 448.024, 122 451.364, 122 459.476 C 122 468.867, 122.268 470.889, 123.582 471.393 C 125.638 472.182, 142.362 472.182, 144.418 471.393 C 146.768 470.491, 146.768 448.509, 144.418 447.607 C 142.545 446.888, 125.055 446.934, 123.250 447.662 M 203.250 447.662 C 202.353 448.024, 202 451.364, 202 459.476 C 202 468.867, 202.268 470.889, 203.582 471.393 C 205.638 472.182, 222.362 472.182, 224.418 471.393 C 226.768 470.491, 226.768 448.509, 224.418 447.607 C 222.545 446.888, 205.055 446.934, 203.250 447.662" stroke="none" id="tool_gradient_color" fill="url(#gradientColor)" fill-rule="evenodd"/></svg>