<svg viewbox="0 0 493 493" class="tool_gradient_color" fill="url(#gradientColor)" xmlns="http://www.w3.org/2000/svg" version="1.1"><defs><linearGradient id="gradientColor" x1="0%" y1="0%" x2="0%" y2="100%"><stop offset="0%" style="stop-color:rgb(255, 255, 255);stop-opacity:1" /><stop offset="100%" style="stop-color:rgb(255, 0, 0);stop-opacity:1" /></linearGradient></defs>
    <path fill-rule="evenodd" d="m169.364,1.17c-1.175,0.568 -2.637,2.134 -3.25,3.479c-0.773,1.698 -1.114,18.478 -1.114,54.898l0,52.453l-79.418,0c-43.68,0 -80.147,0.28 -81.037,0.621c-4.736,1.817 -4.545,-6.234 -4.545,191.774l0,185.493l2.413,2.806l2.414,2.806l159.059,0l159.058,0l2.278,-2.278l2.278,-2.277l0,-53.472l0,-53.473l79.615,0c79.03,0 79.635,-0.015 82.25,-2.073c1.449,-1.139 2.742,-2.827 2.872,-3.75c0.131,-0.922 0.484,23.748 0.785,54.823c0.301,31.075 0.532,-31.25 0.513,-138.5c-0.031,-171.196 -0.218,-195.391 -1.535,-198.199c-1.637,-3.492 -1.712,-3.556 -45.916,-39.837c-59.802,-49.083 -64.713,-53.09 -67.105,-54.766c-2.243,-1.571 -10.066,-1.693 -104.952,-1.63c-68.433,0.045 -103.237,0.411 -104.663,1.102m11.636,62.33l0,48.5l15.417,0l15.417,0l6.71,5.5l6.71,5.5l111.724,0c75.435,0 112.702,0.341 114.735,1.05c1.656,0.577 3.523,2.173 4.149,3.547c1.539,3.377 1.623,166.713 0.088,171.116c-0.577,1.656 -2.173,3.523 -3.547,4.149c-1.779,0.811 -20.084,1.138 -63.7,1.138l-61.203,-0.001l0.277,32.501l0.277,32.5l74.723,0l74.723,0l0,-131.25l0,-131.25l-53.339,-0.5l-53.339,-0.5l-1.911,-2.361c-1.815,-2.242 -1.911,-4.516 -1.911,-45.25l0,-42.889l-93,0l-93,0l0,48.5m201,-6.514l0,34.014l41.25,-0.022c39.243,-0.021 41.146,-0.107 39.114,-1.75c-1.174,-0.951 -9.498,-7.803 -18.497,-15.228c-8.999,-7.425 -19.126,-15.75 -22.505,-18.5c-3.379,-2.75 -13.618,-11.194 -22.753,-18.764l-16.609,-13.764l0,34.014m-381.51,247.014c0,102.575 0.117,144.537 0.26,93.25c0.143,-51.288 0.143,-135.213 0,-186.5c-0.143,-51.288 -0.26,-9.325 -0.26,93.25m15.254,-0.25l0.245,176.75l148.005,0.253l148.006,0.254l0,-131.504l0,-131.503l-52.365,0c-51.462,0 -52.411,-0.036 -55,-2.073l-2.635,-2.072l0,-43.428l0,-43.427l-93.25,0l-93.25,0l0.244,176.75m201.256,-134.372l0,33.622l40.5,0c22.275,0 40.5,-0.197 40.5,-0.437c0,-0.241 -6.187,-5.522 -13.75,-11.737c-7.562,-6.215 -20.551,-16.931 -28.863,-23.813c-14.318,-11.854 -34.42,-28.263 -37.137,-30.314c-0.994,-0.751 -1.25,5.944 -1.25,32.679m28.047,-30.099c0.852,0.671 6.184,5.046 11.851,9.721c5.667,4.675 11.944,9.85 13.95,11.5c2.006,1.65 12.626,10.387 23.599,19.414l19.952,16.415l8.124,0.085c11.748,0.124 14.257,2.033 25.501,19.407c4.869,7.523 10.171,15.599 11.781,17.947l2.928,4.267l8.383,-12.767c7.092,-10.8 9.072,-13.115 12.846,-15.018c8.124,-4.097 18.888,-2.002 23.791,4.629c1.173,1.587 9.192,14.976 17.821,29.753c8.628,14.778 15.741,26.943 15.807,27.035c0.065,0.092 0.01,-29.833 -0.123,-66.5l-0.242,-66.667l-98.758,-0.221c-77.909,-0.175 -98.431,0.036 -97.211,1m114.158,10.559c-7.056,2.512 -11.837,6.554 -15.6,13.187c-6.24,11.002 -3.109,24.829 7.332,32.379c5.852,4.231 10.003,5.598 16.962,5.586c10.917,-0.019 21.153,-7.168 25.006,-17.466c2.552,-6.821 2.634,-10.547 0.371,-16.862c-4.983,-13.903 -20.608,-21.618 -34.071,-16.824m3.889,14.468c-9.136,3.202 -10.125,16.079 -1.548,20.149c8.88,4.214 18.008,-0.908 17.751,-9.962c-0.134,-4.729 -3.598,-9.205 -8.09,-10.452c-4.375,-1.215 -3.837,-1.233 -8.113,0.265m-35.566,68.448c0.015,11.41 0.128,28.734 0.25,38.496l0.222,17.75l24.5,0c13.475,0 24.5,-0.243 24.5,-0.539c0,-0.488 -5.134,-8.472 -20.712,-32.211c-2.978,-4.537 -5.836,-8.25 -6.351,-8.25c-0.515,0 -0.937,-0.476 -0.937,-1.059c0,-0.862 -20.825,-34.949 -21.345,-34.937c-0.085,0.002 -0.142,9.339 -0.127,20.75m59.35,-4.21c-1.858,3.049 -6.039,9.632 -9.291,14.63c-4.178,6.421 -5.645,9.491 -5,10.467c0.502,0.759 5.86,9.025 11.907,18.369l10.995,16.99l19.314,0c10.623,0 19.124,-0.337 18.891,-0.75c-0.233,-0.413 -5.235,-8.923 -11.115,-18.912c-5.88,-9.989 -11.165,-19.889 -11.744,-22c-1.159,-4.228 -6.641,-12.254 -10.377,-15.192c-1.314,-1.034 -2.131,-2.139 -1.815,-2.456c0.316,-0.316 -0.405,-1.951 -1.602,-3.632c-3.404,-4.781 -6.144,-4.111 -10.163,2.486m-346.514,7.626c-1.175,0.568 -2.637,2.134 -3.25,3.479c-0.79,1.735 -1.114,26.848 -1.114,86.475l0,84.03l2.923,2.923l2.923,2.923l122.403,0l122.402,0l2.175,-2.314l2.174,-2.315l0,-86.113l0,-86.113l-2.635,-2.072c-2.634,-2.072 -2.679,-2.073 -124.25,-2.005c-81.58,0.045 -122.318,0.408 -123.751,1.102m11.136,80.153l0,66.322l14.202,-24.44c7.811,-13.443 15.011,-25.351 16,-26.464c2.475,-2.785 9.125,-5.693 13.08,-5.719c3.999,-0.027 9.907,2.338 12.924,5.172c1.228,1.153 4.554,5.632 7.39,9.952c2.836,4.32 5.292,7.854 5.458,7.854c0.166,0 1.997,-2.812 4.069,-6.25c2.073,-3.437 7.235,-11.441 11.472,-17.786c6.602,-9.885 8.448,-11.942 12.898,-14.364c4.405,-2.397 6.063,-2.764 10.909,-2.413c9.539,0.689 11.746,2.739 25.343,23.525l12.058,18.432l7.434,-11.322c9.129,-13.905 9.783,-14.654 14.763,-16.941c10.367,-4.761 21.164,-0.229 27.124,11.382c0.913,1.781 5.793,10.212 10.844,18.737c5.051,8.525 11.28,19.1 13.842,23.5l4.66,8l0.015,-66.75l0.015,-66.75l-112.25,0l-112.25,0l0,66.323m139.935,-53.433c-5.552,2.522 -11.118,7.599 -13.721,12.515c-3.058,5.777 -3.058,17.413 0,23.19c4.566,8.623 13.985,14.347 23.67,14.383c8.326,0.031 13.083,-1.693 18.768,-6.804c6.847,-6.157 9.208,-11.073 9.208,-19.174c0,-10.504 -5.611,-18.879 -15.839,-23.642c-6.374,-2.969 -16.126,-3.175 -22.086,-0.468m3.224,15.164c-1.436,1.129 -3.13,3.785 -3.764,5.902c-0.983,3.28 -0.875,4.416 0.726,7.688c2.225,4.547 5.335,6.321 11.113,6.341c3.278,0.012 4.972,-0.644 7.5,-2.903c2.89,-2.582 3.266,-3.513 3.266,-8.082c0,-4.569 -0.376,-5.5 -3.266,-8.082c-4.146,-3.704 -11.449,-4.11 -15.575,-0.864m-39.173,45.711c-1.586,1.15 -13.904,20.073 -18.219,27.987c-1.274,2.338 -3.681,6.163 -5.347,8.5c-1.666,2.336 -8.384,12.348 -14.928,22.248l-11.899,18l26.383,0.266c14.51,0.147 38.528,0.147 53.372,0l26.988,-0.266l-12.925,-19.945c-7.109,-10.97 -13.275,-20.195 -13.703,-20.5c-1.124,-0.803 -7.64,-10.951 -9.665,-15.055c-2.102,-4.26 -12.653,-20.213 -14.043,-21.235c-0.55,-0.404 -1.9,-0.734 -3,-0.734c-1.1,0 -2.456,0.33 -3.014,0.734m70.21,11.554c-0.825,0.649 -4.904,6.356 -9.066,12.681c-4.161,6.325 -8.285,12.474 -9.163,13.663c-1.533,2.078 -1.114,2.898 10.61,20.75l12.205,18.587l18.859,0c10.373,0 18.859,-0.259 18.859,-0.576c0,-1.209 -20.853,-36.367 -22.662,-38.207c-0.694,-0.706 -2.91,-4.531 -4.924,-8.5c-9.077,-17.885 -11.51,-20.927 -14.718,-18.398m-138.743,16.733c-3.549,6.079 -7.441,12.492 -8.648,14.25c-1.208,1.759 -3.573,5.898 -5.256,9.198c-1.684,3.3 -5.526,10.05 -8.538,15c-3.012,4.95 -5.484,9.337 -5.494,9.75c-0.009,0.413 6.255,0.75 13.92,0.75l13.937,0l5.488,-8.42c3.019,-4.631 6.912,-10.977 8.651,-14.103c1.739,-3.126 4.473,-7.75 6.075,-10.276c1.601,-2.526 2.912,-5.221 2.912,-5.989c0,-2.67 -12.945,-21.212 -14.809,-21.212c-1.216,0 -3.841,3.522 -8.238,11.052m-47.258,81.059c-4.616,2.685 -4.053,10.493 0.92,12.759c3.559,1.622 105.652,1.591 108.701,-0.033c5.155,-2.746 6.091,-7.521 2.229,-11.382l-2.454,-2.455l-53.796,0.03c-35.714,0.021 -54.402,0.384 -55.6,1.081"/>
    <text font-weight="bold" xml:space="preserve" text-anchor="start" font-family="'Arial'" font-size="50" y="215" x="42" stroke-width="0">{{fromc}}</text>
    <text font-weight="bold" xml:space="preserve" text-anchor="start" font-family="'Arial'" font-size="50" y="100" x="210" stroke-width="0">{{toc}}</text>
</svg>