<svg xmlns="http://www.w3.org/2000/svg" viewBox="0 0 512 512" version="1.1"><path d="M 130.174 10.314 C 128.161 12.458, 128 13.639, 128 26.314 L 128 40 86.174 40 L 44.349 40 42.174 42.314 L 40 44.629 40 264.140 L 40 483.651 42.314 485.826 L 44.629 488 178.280 488 L 311.931 488 318.347 491.527 C 348.386 508.038, 385.765 508.247, 416.700 492.076 C 441.950 478.877, 459.832 456.651, 468.656 427.500 C 471.200 419.098, 471.381 417.271, 471.381 400 C 471.381 382.729, 471.200 380.902, 468.656 372.500 C 461.503 348.868, 448.862 330.378, 430.500 316.685 C 421.290 309.818, 408.339 303.204, 398.688 300.440 L 392 298.525 392 171.437 L 392 44.349 389.686 42.174 C 387.386 40.014, 387.109 40, 345.686 40 L 304 40 304 26.174 C 304 13.015, 303.888 12.244, 301.686 10.174 L 299.371 8 215.860 8 L 132.349 8 130.174 10.314 M 144 48 L 144 72 216 72 L 288 72 288 48 L 288 24 216 24 L 144 24 144 48 M 160 48 L 160 56 168 56 L 176 56 176 48 L 176 40 168 40 L 160 40 160 48 M 256 48 L 256 56 264 56 L 272 56 272 48 L 272 40 264 40 L 256 40 256 48 M 56 264 L 56 472 174.007 472 L 292.014 472 285.444 463.389 C 281.831 458.654, 277.229 451.454, 275.218 447.389 L 271.561 440 173.955 440 L 76.349 440 74.174 437.686 L 72 435.371 72 271.860 L 72 108.349 74.314 106.174 C 76.614 104.014, 76.891 104, 118.314 104 L 160 104 160 96 L 160 88 146.174 88 C 127.570 88, 128 88.433, 128 69.686 L 128 56 92 56 L 56 56 56 264 M 304 69.826 C 304 88.430, 304.433 88, 285.686 88 L 272 88 272 96 L 272 104 313.826 104 L 355.651 104 357.826 106.314 L 360 108.629 360 202.314 L 360 296 368 296 L 376 296 376 176 L 376 56 340 56 L 304 56 304 69.826 M 176 91.360 C 176 93.209, 176.286 96.809, 176.636 99.360 L 177.272 104 216 104 L 254.728 104 255.364 99.360 C 255.714 96.809, 256 93.209, 256 91.360 L 256 88 216 88 L 176 88 176 91.360 M 88 272 L 88 424 177.113 424 L 266.227 424 265.594 420.750 C 265.246 418.962, 264.685 411.762, 264.348 404.750 L 263.735 392 183.867 392 L 104 392 104 384 L 104 376 185.250 375.999 L 266.500 375.997 268.373 369.749 C 269.403 366.312, 270.468 362.712, 270.740 361.750 C 271.207 360.093, 266.773 360, 187.617 360 L 104 360 104 352 L 104 344 191.838 344 L 279.676 344 285.878 336 L 292.079 328 198.039 328 L 104 328 104 320 L 104 312 207.772 312 L 311.543 312 321.022 307.172 C 326.235 304.516, 333.538 301.485, 337.250 300.434 L 344 298.525 344 209.262 L 344 120 305.642 120 L 267.284 120 263.654 125.881 C 256.553 137.387, 243.525 146.913, 229.955 150.525 C 222.955 152.387, 209.045 152.387, 202.045 150.525 C 188.475 146.913, 175.447 137.387, 168.346 125.881 L 164.716 120 126.358 120 L 88 120 88 272 M 188.437 123.935 C 203.153 139.006, 228.847 139.006, 243.563 123.935 L 247.406 120 216 120 L 184.594 120 188.437 123.935 M 104 192 L 104 200 216 200 L 328 200 328 192 L 328 184 216 184 L 104 184 104 192 M 104 224 L 104 232 216 232 L 328 232 328 224 L 328 216 216 216 L 104 216 104 224 M 104 256 L 104 264 216 264 L 328 264 328 256 L 328 248 216 248 L 104 248 104 256 M 104 288 L 104 296 216 296 L 328 296 328 288 L 328 280 216 280 L 104 280 104 288 M 357.388 313.066 C 347.205 314.287, 332.777 319.207, 323.500 324.622 C 318.265 327.678, 312.354 332.438, 306.396 338.396 C 295.625 349.167, 289.299 359.310, 284.991 372.716 C 277.306 396.630, 279.914 422.040, 292.299 443.923 C 297.548 453.197, 309.711 466.198, 318.916 472.374 C 346.954 491.185, 383.386 492.384, 412.318 475.448 C 426.371 467.222, 441.169 450.912, 447.435 436.743 C 459.107 410.351, 457.743 380.888, 443.701 356.077 C 438.280 346.498, 425.758 333.269, 416.131 326.949 C 399.298 315.898, 377.241 310.686, 357.388 313.066 M 350.142 330.037 C 317.669 338.543, 296 366.543, 296 400 C 296 411.170, 298.342 421.741, 302.962 431.421 C 306.187 438.178, 309.763 440.788, 314.231 439.647 C 317.762 438.745, 408 347.924, 408 345.272 C 408 340.702, 405.716 337.966, 399.371 334.938 C 384.721 327.946, 365.450 326.028, 350.142 330.037 M 360.402 344.963 C 348.105 346.848, 337.668 352.125, 328.902 360.891 C 316.483 373.310, 310.635 390.324, 313.016 407.110 C 313.570 411.021, 314.368 414.836, 314.789 415.588 C 315.336 416.564, 325.545 406.962, 350.440 382.060 L 385.325 347.165 381.412 346.162 C 375.434 344.629, 366.068 344.095, 360.402 344.963 M 374.262 406.262 C 322.967 457.558, 324.777 455.224, 331.415 461.485 C 338.523 468.189, 355.907 472.553, 372.380 471.769 C 401.843 470.367, 426.865 451.171, 436.601 422.500 C 440.451 411.163, 441.101 394.791, 438.162 383.167 C 434.133 367.235, 429.309 360, 422.715 360 C 421.159 360, 407.124 373.400, 374.262 406.262 M 385.560 417.940 L 350.675 452.835 355.088 454.039 C 362.133 455.962, 376.473 455.510, 384 453.129 C 405.193 446.424, 419.875 429.035, 423.011 406.924 C 423.975 400.125, 422.970 387.556, 421.211 384.412 C 420.664 383.436, 410.455 393.038, 385.560 417.940" stroke="none" class="tool_gradient_color" fill-rule="evenodd"/></svg>