<svg xmlns="http://www.w3.org/2000/svg" viewBox="0 0 512 512" version="1.1"><defs><linearGradient id="gradientColor" x1="0%" y1="0%" x2="0%" y2="100%"><stop offset="0%" style="stop-color:rgb(255, 255, 255);stop-opacity:1" /><stop offset="100%" style="stop-color:rgb(255, 0, 0);stop-opacity:1" /></linearGradient></defs><path d="M 37.688 1.502 C 20.428 6.246, 6.078 20.753, 1.453 38.131 C -0.692 46.190, -0.692 465.810, 1.453 473.869 C 6.142 491.486, 20.514 505.858, 38.131 510.547 C 46.190 512.692, 465.810 512.692, 473.869 510.547 C 491.313 505.904, 507.636 489.518, 510.536 473.739 C 510.916 471.670, 511.626 469.731, 512.113 469.430 C 512.624 469.114, 513 378.229, 513 254.882 C 513 130.040, 512.629 41.111, 512.110 41.432 C 511.620 41.735, 510.910 40.299, 510.532 38.241 C 507.636 22.482, 491.303 6.093, 473.869 1.453 C 466.164 -0.598, 45.154 -0.551, 37.688 1.502 M 46.305 18.009 C 31.341 20.196, 20.197 31.673, 17.950 47.211 C 17.449 50.670, 17.031 64.412, 17.020 77.750 L 17 102 256.101 102 L 495.203 102 494.784 73.250 C 494.391 46.318, 494.222 44.136, 492.106 38.738 C 487.788 27.723, 477.328 19.763, 464.789 17.950 C 457.196 16.852, 53.832 16.909, 46.305 18.009 M 50.748 35.427 C 41.060 38.884, 35.012 47.106, 34.242 57.862 C 33.850 63.335, 34.179 65.545, 36.020 69.825 C 38.961 76.662, 45.596 82.536, 52.716 84.606 C 71.847 90.167, 90.177 71.881, 84.623 52.777 C 80.499 38.590, 64.642 30.469, 50.748 35.427 M 119.388 35.274 C 102.027 42.111, 96.603 62.830, 108.527 76.760 C 118.447 88.350, 137.563 88.338, 147.494 76.736 C 158.561 63.807, 154.398 43.754, 139.108 36.345 C 134.693 34.205, 123.627 33.605, 119.388 35.274 M 185.444 36.374 C 178.971 39.388, 173.370 45.918, 171.377 52.777 C 165.823 71.881, 184.153 90.167, 203.284 84.606 C 210.404 82.536, 217.039 76.662, 219.980 69.825 C 224.435 59.470, 221.113 46.001, 212.480 39.417 C 204.780 33.544, 194.102 32.342, 185.444 36.374 M 357.753 35.517 C 351.447 37.833, 347.208 41.831, 343.870 48.613 C 341.039 54.364, 340.778 55.651, 341.252 61.553 C 342.169 72.973, 350.326 82.617, 361.006 84.908 C 364.253 85.604, 382.142 86, 410.368 86 C 460.307 86, 461.466 85.863, 469.215 79.042 C 475.638 73.389, 478.382 66.585, 477.758 57.862 C 476.988 47.106, 470.940 38.884, 461.252 35.427 C 455.712 33.450, 363.163 33.530, 357.753 35.517 M 0.491 256 C 0.491 373.975, 0.607 422.238, 0.750 363.250 C 0.892 304.263, 0.892 207.738, 0.750 148.750 C 0.607 89.763, 0.491 138.025, 0.491 256 M 54.174 54.314 C 49.678 59.101, 53.161 68, 59.531 68 C 62.989 68, 68 62.989, 68 59.531 C 68 53.046, 58.673 49.526, 54.174 54.314 M 122.073 54.635 C 118.399 59.305, 119.685 64.798, 124.962 66.984 C 127.403 67.995, 128.597 67.995, 131.038 66.984 C 139.149 63.625, 136.792 52, 128 52 C 125.027 52, 123.671 52.602, 122.073 54.635 M 190.455 54.455 C 189.096 55.813, 188 58.081, 188 59.531 C 188 62.989, 193.011 68, 196.469 68 C 200.235 68, 204 63.861, 204 59.720 C 204 52.693, 195.515 49.394, 190.455 54.455 M 361.174 54.314 C 358.471 57.192, 358.355 61.981, 360.911 65.139 L 362.822 67.500 408.927 67.779 L 455.033 68.058 457.516 65.575 C 460.793 62.298, 460.870 57.166, 457.686 54.174 C 455.378 52.007, 455.224 52, 409.360 52 L 363.349 52 361.174 54.314 M 17.228 293.750 C 17.480 454.950, 17.623 467.808, 19.210 471.761 C 23.176 481.647, 30.353 488.824, 40.239 492.790 C 44.212 494.384, 58.808 494.500, 256 494.500 C 453.192 494.500, 467.788 494.384, 471.761 492.790 C 481.647 488.824, 488.824 481.647, 492.790 471.761 C 494.377 467.808, 494.520 454.950, 494.772 293.750 L 495.044 120 256 120 L 16.956 120 17.228 293.750 M 81.155 145.694 C 80.415 145.989, 69.503 158.611, 56.905 173.744 C 32.336 203.256, 31.735 204.284, 35.712 210.027 C 40.840 217.432, 78.544 261.779, 81.033 263.333 C 88.385 267.923, 96.993 259.460, 92.848 251.717 C 92.215 250.533, 83.945 240.295, 74.471 228.966 C 64.997 217.636, 56.673 207.449, 55.972 206.327 C 54.808 204.463, 56.197 202.491, 72.124 183.394 C 94.799 156.206, 94 157.304, 94 153.320 C 94 147.172, 87.351 143.224, 81.155 145.694 M 113.455 147.455 C 110.004 150.905, 110.062 156.770, 113.579 160.076 L 116.159 162.500 154.829 162.805 C 176.098 162.972, 195.013 162.830, 196.862 162.488 C 204.490 161.079, 207.695 152.604, 202.545 147.455 L 200.091 145 158 145 L 115.909 145 113.455 147.455 M 117 187.706 C 110.809 189.970, 108.894 197.984, 113.455 202.545 L 115.909 205 179.031 205 L 242.154 205 245.077 202.077 C 246.685 200.469, 248 198.197, 248 197.027 C 248 193.349, 245.198 189.265, 241.881 188.108 C 238.599 186.964, 120.074 186.582, 117 187.706 M 269.110 188.358 C 263.589 191.505, 262.594 197.748, 266.923 202.077 L 269.846 205 285.489 205 C 294.782 205, 301.951 204.561, 303.150 203.920 C 304.261 203.325, 305.803 201.322, 306.578 199.467 C 308.199 195.588, 307.424 192.578, 304.013 189.500 C 302.032 187.713, 300.184 187.473, 286.648 187.248 C 275.318 187.059, 270.898 187.339, 269.110 188.358 M 329.357 187.992 C 324.728 189.860, 322.727 195.741, 325.163 200.316 C 327.629 204.945, 327.539 204.935, 366.827 204.968 L 404.154 205 407.077 202.077 C 411.677 197.477, 410.768 191.483, 405.020 188.510 C 402.569 187.243, 396.417 187.010, 366.800 187.063 C 347.385 187.098, 330.536 187.516, 329.357 187.992 M 431.421 188.419 C 425.549 190.976, 424.630 198.991, 429.747 203.016 C 433.045 205.610, 445.333 205.856, 448.841 203.399 C 454.350 199.540, 453.539 190.959, 447.423 188.403 C 443.221 186.648, 435.471 186.655, 431.421 188.419 M 115.500 231.155 C 112.275 232.919, 110.998 235.144, 111.032 238.941 C 111.067 242.862, 112.368 245.071, 115.684 246.837 C 117.242 247.666, 129.530 248, 158.511 248 L 199.154 248 202.077 245.077 C 204.072 243.082, 205 241.152, 205 239 C 205 236.848, 204.072 234.918, 202.077 232.923 L 199.154 230 158.327 230.030 C 130.713 230.051, 116.853 230.415, 115.500 231.155 M 226.315 231.007 C 222.603 232.503, 220.778 238.652, 222.621 243.455 C 224.329 247.906, 225.656 248, 286.527 248 L 344.154 248 347.077 245.077 C 351.683 240.470, 350.880 234.127, 345.316 231.163 C 342.672 229.755, 229.790 229.607, 226.315 231.007 M 371.500 231.155 C 364.487 234.991, 365.826 245.663, 373.564 247.605 C 374.944 247.952, 378.774 248.040, 382.075 247.801 C 389.101 247.293, 391.758 245.268, 392.655 239.737 C 393.164 236.600, 392.823 235.669, 390.200 233.046 C 387.391 230.238, 386.621 230.002, 380.327 230.030 C 376.572 230.047, 372.600 230.553, 371.500 231.155 M 361.913 274.282 C 357.151 277.939, 357.064 285.684, 361.751 288.758 C 364.153 290.332, 368.503 290.529, 406.954 290.803 C 430.354 290.969, 451.013 290.827, 452.862 290.487 C 460.489 289.082, 463.695 280.604, 458.545 275.455 L 456.091 273 409.795 273.032 C 374.980 273.056, 363.107 273.366, 361.913 274.282 M 114.077 283.589 L 111 286.178 111 324.134 L 111 362.091 113.455 364.545 C 115.149 366.240, 117.021 367, 119.500 367 C 121.979 367, 123.851 366.240, 125.545 364.545 C 127.927 362.164, 128 361.655, 128 347.545 L 128 333 136.500 333 L 145 333 145 347.545 C 145 361.655, 145.073 362.164, 147.455 364.545 C 152.603 369.694, 161.076 366.492, 162.491 358.862 C 162.834 357.013, 162.976 340.200, 162.807 321.500 C 162.478 285.033, 162.390 284.410, 157.257 282.071 C 153.618 280.413, 151.418 280.777, 148.077 283.589 L 145 286.178 145 300.589 L 145 315 136.500 315 L 128 315 128 300.589 L 128 286.178 124.923 283.589 C 123.231 282.165, 120.791 281, 119.500 281 C 118.209 281, 115.769 282.165, 114.077 283.589 M 184.357 281.992 C 181.325 283.215, 178.995 286.927, 179.032 290.473 C 179.091 296.123, 183.107 299, 190.934 299 L 196 299 196 330.545 L 196 362.091 198.455 364.545 C 201.731 367.822, 206.911 367.840, 210.694 364.588 L 213.500 362.175 213.790 330.588 L 214.081 299 219.406 299 C 228.007 299, 232.710 293.541, 229.917 286.799 C 227.772 281.621, 225.022 280.993, 204.800 281.063 C 194.735 281.098, 185.536 281.516, 184.357 281.992 M 249.923 283.923 L 247 286.846 247 323.846 L 247 360.847 249.589 363.923 C 251.648 366.371, 252.960 367, 256 367 C 259.040 367, 260.352 366.371, 262.411 363.923 C 264.961 360.892, 265 360.607, 265 344.768 L 265 328.690 267.080 330.572 C 268.356 331.727, 270.643 332.455, 273 332.455 C 275.357 332.455, 277.644 331.727, 278.920 330.572 L 281 328.690 281 344.768 C 281 360.607, 281.039 360.892, 283.589 363.923 C 287.708 368.818, 294.799 368.018, 297.837 362.316 C 298.660 360.769, 299 349.429, 299 323.489 L 299 286.846 295.954 283.800 C 293.349 281.195, 292.388 280.838, 289.330 281.334 C 284.395 282.135, 283.117 283.560, 278.027 293.944 C 275.586 298.925, 273.324 303, 273 303 C 272.676 303, 270.406 298.898, 267.956 293.884 C 265.505 288.870, 262.427 283.920, 261.115 282.884 C 257.577 280.089, 253.366 280.480, 249.923 283.923 M 319.786 282.513 C 315.201 285.069, 314.854 288.421, 315.190 326.838 L 315.500 362.175 318.306 364.588 C 320.934 366.847, 321.870 367, 333.101 367 C 344.498 367, 345.212 366.879, 347.545 364.545 C 350.196 361.895, 350.783 357.331, 348.920 353.850 C 347.507 351.210, 342.090 349, 337.032 349 L 333 349 333 318.056 C 333 287.390, 332.980 287.089, 330.750 284.555 C 327.942 281.364, 323.373 280.513, 319.786 282.513 M 362.775 316.559 C 357.217 319.575, 356.398 325.552, 360.923 330.077 L 363.846 333 384 333 L 404.154 333 407.077 330.077 C 411.677 325.477, 410.768 319.483, 405.020 316.510 C 400.842 314.350, 366.773 314.389, 362.775 316.559 M 420.923 343.923 C 417.552 347.295, 417.117 351.279, 419.711 355.027 C 420.652 356.387, 429.427 367.101, 439.211 378.835 C 448.995 390.569, 457 400.597, 457 401.121 C 457 401.644, 449.226 411.394, 439.725 422.786 C 417.220 449.771, 418 448.698, 418 452.680 C 418 459.986, 426.857 463.720, 432.396 458.750 C 433.776 457.512, 444.601 444.821, 456.452 430.546 C 475.765 407.285, 478 404.217, 478 400.974 C 478 397.721, 475.726 394.632, 455.510 370.428 C 443.140 355.617, 432.003 342.944, 430.760 342.265 C 427.124 340.278, 424.050 340.796, 420.923 343.923 M 371.500 359.155 C 364.574 362.943, 365.814 373.660, 373.398 375.564 C 374.687 375.887, 382.364 376.005, 390.459 375.826 C 405.177 375.500, 405.178 375.500, 407.589 372.694 C 410.924 368.813, 410.740 364.586, 407.077 360.923 L 404.154 358 388.827 358.030 C 379.677 358.049, 372.694 358.502, 371.500 359.155 M 113.455 403.455 C 110.004 406.905, 110.062 412.770, 113.579 416.076 L 116.158 418.500 146.329 418.810 C 162.923 418.981, 178.013 418.839, 179.862 418.494 C 187.493 417.072, 190.694 408.603, 185.545 403.455 L 183.091 401 149.500 401 L 115.909 401 113.455 403.455 M 207.463 403.278 C 203.692 406.522, 203.630 412.084, 207.323 415.778 L 210.044 418.500 274.272 418.796 C 309.597 418.959, 340.013 418.817, 341.862 418.480 C 349.486 417.091, 352.696 408.605, 347.545 403.455 L 345.091 401 277.601 401 L 210.112 401 207.463 403.278 M 369.455 403.455 C 366.003 406.906, 366.062 412.770, 369.581 416.076 C 372.086 418.429, 372.621 418.500, 387.875 418.500 C 401.130 418.500, 404.004 418.227, 406.247 416.758 C 410.936 413.685, 410.850 405.939, 406.087 402.282 C 404.993 401.442, 399.435 401.054, 388.205 401.032 C 372.217 401.001, 371.863 401.046, 369.455 403.455 M 117 443.706 C 110.809 445.970, 108.894 453.984, 113.455 458.545 C 115.858 460.949, 116.247 461, 132.031 461 L 148.154 461 151.077 458.077 C 155.677 453.477, 154.768 447.483, 149.020 444.510 C 146.803 443.364, 142.775 443.019, 132.300 443.079 C 124.710 443.122, 117.825 443.405, 117 443.706 M 175.421 444.419 C 169.549 446.976, 168.630 454.991, 173.747 459.016 C 176.147 460.904, 177.871 461, 209.212 461 L 242.154 461 245.077 458.077 C 246.685 456.469, 248 454.197, 248 453.027 C 248 449.349, 245.198 445.265, 241.881 444.108 C 236.997 442.406, 179.427 442.675, 175.421 444.419 M 269.110 444.396 C 263.598 447.451, 262.592 453.745, 266.923 458.077 L 269.846 461 328.500 461 L 387.154 461 390.077 458.077 C 393.154 454.999, 393.620 452.760, 392.043 448.613 C 389.898 442.972, 390.182 442.997, 328.300 443.035 C 283.075 443.064, 271.013 443.341, 269.110 444.396" stroke="none" class="tool_gradient_color" fill="url(#gradientColor)" fill-rule="evenodd"/></svg>