<svg xmlns="http://www.w3.org/2000/svg" viewBox="0 0 512 512" version="1.1"><defs><linearGradient id="gradientColor" x1="0%" y1="0%" x2="0%" y2="100%"><stop offset="0%" style="stop-color:rgb(255, 255, 255);stop-opacity:1" /><stop offset="100%" style="stop-color:rgb(255, 0, 0);stop-opacity:1" /></linearGradient></defs><path d="M 141.665 18.447 C 130.311 23.115, 124.342 28.761, 119.234 39.664 L 116.500 45.500 116.229 110.702 L 115.958 175.904 90.729 176.202 L 65.500 176.500 58.799 179.674 C 50.274 183.713, 43.713 190.274, 39.674 198.799 L 36.500 205.500 36.234 292.938 C 35.940 389.316, 35.661 384.443, 42.220 397.436 C 46.172 405.264, 56.712 415.817, 64.512 419.753 C 75.289 425.192, 79.700 426, 98.624 426 L 115.886 426 116.193 446.250 L 116.500 466.500 119.674 473.201 C 123.713 481.726, 130.274 488.287, 138.799 492.326 L 145.500 495.500 296 495.500 L 446.500 495.500 453.201 492.326 C 461.726 488.287, 468.287 481.726, 472.326 473.201 L 475.500 466.500 475.758 284.021 L 476.016 101.542 433.245 58.771 L 390.474 16 268.987 16.024 L 147.500 16.047 141.665 18.447 M 151.144 37.187 C 144.760 38.613, 138.572 45.106, 137.113 51.910 C 136.343 55.500, 136 84.648, 136 146.535 L 136 235.971 268.750 236.236 L 401.500 236.500 406.784 239.284 C 413.508 242.827, 419.173 248.492, 422.716 255.216 L 425.500 260.500 425.500 331 L 425.500 401.500 422.716 406.784 C 419.173 413.508, 413.508 419.173, 406.784 422.716 L 401.500 425.500 268.750 425.764 L 136 426.029 136 440.465 C 136 459.493, 137.020 464.073, 142.474 469.526 C 145.718 472.770, 147.949 474.038, 151.910 474.887 C 159.238 476.459, 432.762 476.459, 440.090 474.887 C 447.329 473.335, 453.335 467.329, 454.887 460.090 C 455.679 456.396, 456 406.082, 456 285.451 L 456 116 418.923 116 L 381.846 116 378.923 113.077 L 376 110.154 376 73.077 L 376 36 265.750 36.107 C 198.381 36.173, 153.806 36.593, 151.144 37.187 M 396 73.500 L 396 96 418.742 96 L 441.483 96 419 73.500 C 406.634 61.125, 396.400 51, 396.258 51 C 396.116 51, 396 61.125, 396 73.500 M 168.923 88.923 C 166.631 91.216, 166 92.742, 166 96 C 166 99.258, 166.631 100.784, 168.923 103.077 L 171.846 106 216 106 L 260.154 106 263.077 103.077 C 267.193 98.961, 267.193 93.039, 263.077 88.923 L 260.154 86 216 86 L 171.846 86 168.923 88.923 M 168.923 128.923 C 166.631 131.216, 166 132.742, 166 136 C 166 139.258, 166.631 140.784, 168.923 143.077 L 171.846 146 256 146 L 340.154 146 343.077 143.077 C 345.369 140.784, 346 139.258, 346 136 C 346 132.742, 345.369 131.216, 343.077 128.923 L 340.154 126 256 126 L 171.846 126 168.923 128.923 M 168.923 168.923 C 166.631 171.216, 166 172.742, 166 176 C 166 179.258, 166.631 180.784, 168.923 183.077 L 171.846 186 256 186 L 340.154 186 343.077 183.077 C 345.369 180.784, 346 179.258, 346 176 C 346 172.742, 345.369 171.216, 343.077 168.923 L 340.154 166 256 166 L 171.846 166 168.923 168.923 M 71.144 197.187 C 65.016 198.555, 58.560 205.134, 57.231 211.364 C 55.688 218.601, 57.366 224.419, 62.471 229.524 C 68.148 235.200, 72.356 236, 96.549 236 L 116 236 116 216 L 116 196 95.750 196.107 C 84.612 196.166, 73.540 196.652, 71.144 197.187 M 56.220 314.785 C 56.569 385.203, 56.279 381.992, 63.135 391.539 C 66.696 396.497, 74.431 402.117, 80.500 404.156 C 83.781 405.258, 112.374 405.500, 239.500 405.500 C 393.597 405.500, 394.520 405.488, 397.965 403.465 C 399.870 402.345, 402.345 399.870, 403.465 397.965 C 405.454 394.578, 405.500 393.067, 405.500 331 C 405.500 268.933, 405.454 267.422, 403.465 264.035 C 402.345 262.130, 399.870 259.655, 397.965 258.535 C 394.527 256.516, 393.198 256.496, 230 256 L 65.500 255.500 60.702 253.285 L 55.904 251.070 56.220 314.785 M 106.568 277.532 C 87.340 282.809, 71.132 299.819, 66.960 319.101 C 65.234 327.077, 66.164 342.063, 68.845 349.500 C 74.916 366.337, 89.759 379.923, 107.131 384.547 C 114.069 386.394, 127.992 386.378, 134.992 384.515 C 158.382 378.291, 175.945 356.295, 175.988 333.173 C 175.999 327.506, 175.695 326.541, 173.077 323.923 L 170.154 321 146 321 L 121.846 321 118.923 323.923 C 116.631 326.216, 116 327.742, 116 331 C 116 334.258, 116.631 335.784, 118.923 338.077 L 121.846 341 137.923 341 C 146.765 341, 154 341.240, 154 341.533 C 154 343.598, 148.415 352.230, 144.834 355.699 C 131.320 368.793, 110.386 368.623, 96.824 355.311 C 83.197 341.934, 83.197 320.066, 96.824 306.689 C 103.710 299.929, 111.395 296.746, 120.979 296.685 C 127.859 296.640, 129.542 297.035, 136.453 300.317 C 145.089 304.418, 146.797 304.673, 151.020 302.490 C 154.707 300.583, 156 298.172, 156 293.202 C 156 290.295, 155.318 288.590, 153.377 286.650 C 150.124 283.396, 141.962 279.341, 134.869 277.453 C 128.216 275.682, 113.157 275.724, 106.568 277.532 M 178.923 278.923 C 176.631 281.216, 176 282.742, 176 286 C 176 289.258, 176.631 290.784, 178.923 293.077 L 181.846 296 204.427 296 L 227.008 296 201.504 334.248 C 179.265 367.599, 176 372.986, 176 376.325 C 176 379.224, 176.710 380.864, 178.923 383.077 L 181.846 386 216 386 L 250.154 386 253.077 383.077 C 257.193 378.961, 257.193 373.039, 253.077 368.923 L 250.154 366 227.573 366 L 204.992 366 230.496 327.752 C 252.735 294.401, 256 289.014, 256 285.675 C 256 282.776, 255.290 281.136, 253.077 278.923 L 250.154 276 216 276 L 181.846 276 178.923 278.923 M 278.923 278.923 L 276 281.846 276 331 L 276 380.154 278.923 383.077 C 283.039 387.193, 288.961 387.193, 293.077 383.077 L 296 380.154 296 331 L 296 281.846 293.077 278.923 C 290.784 276.631, 289.258 276, 286 276 C 282.742 276, 281.216 276.631, 278.923 278.923 M 318.973 278.873 L 316 281.846 316 331 L 316 380.154 318.923 383.077 C 323.039 387.193, 328.961 387.193, 333.077 383.077 L 336 380.154 336 363.077 L 336 346 351.962 346 C 372.261 346, 376.553 344.675, 385.614 335.614 C 393.742 327.487, 396.323 320.878, 395.816 309.500 C 395.206 295.827, 388.022 284.809, 376 279.108 C 370.610 276.552, 370.014 276.494, 346.223 276.200 L 321.946 275.900 318.973 278.873 M 336 311 L 336 326.183 350.750 325.842 C 363.173 325.554, 365.938 325.203, 368.276 323.618 C 377.854 317.124, 377.854 304.876, 368.276 298.382 C 365.938 296.797, 363.173 296.446, 350.750 296.158 L 336 295.817 336 311" stroke="none" class="tool_gradient_color" fill="url(#gradientColor)" fill-rule="evenodd"/></svg>