<svg xmlns="http://www.w3.org/2000/svg" viewBox="0 0 512 512" version="1.1"><path d="M 133.192 10.591 C 130.306 12.030, 126.846 14.647, 125.503 16.407 C 119.951 23.687, 120 23.175, 120 73.405 L 120 119.875 94.750 120.188 L 69.500 120.500 62.997 123.582 C 54.667 127.530, 47.530 134.667, 43.582 142.997 L 40.500 149.500 40.196 179.051 L 39.893 208.603 36.410 210.479 C 31.200 213.284, 18.936 226.676, 15.321 233.507 C 5.526 252.014, 5.506 276.036, 15.270 294.354 C 18.920 301.202, 29.996 313.405, 35.824 317 L 39.878 319.500 40.189 357 L 40.500 394.500 43.587 401 C 47.509 409.259, 54.644 416.385, 63 420.387 L 69.500 423.500 122.750 423.783 L 176 424.067 176 439.914 L 176 455.761 166.750 456.168 C 155.279 456.671, 147.017 460.141, 139.579 467.579 C 132.141 475.017, 128.671 483.279, 128.168 494.750 L 127.761 504 256 504 L 384.239 504 383.832 494.750 C 383.329 483.279, 379.859 475.017, 372.421 467.579 C 364.983 460.141, 356.721 456.671, 345.250 456.168 L 336 455.761 336 439.914 L 336 424.067 389.250 423.783 L 442.500 423.500 449.003 420.418 C 457.333 416.470, 464.470 409.333, 468.418 401.003 L 471.500 394.500 471.800 361.250 L 472.100 328 488.050 328 L 504 328 504 256 L 504 184 488.083 184 L 472.165 184 471.833 166.750 C 471.507 149.876, 471.433 149.358, 468.418 142.997 C 464.470 134.667, 457.333 127.530, 449.003 123.582 L 442.500 120.500 417.278 120.188 L 392.056 119.876 391.778 72.108 L 391.500 24.341 388.474 19.447 C 386.599 16.415, 383.585 13.401, 380.552 11.526 L 375.657 8.500 257.049 8.238 L 138.441 7.976 133.192 10.591 M 138.405 27.105 C 136.584 29.117, 136.500 31.461, 136.500 80.192 L 136.500 131.173 139.306 133.587 L 142.112 136 187.056 136 L 232 136 232 149.566 C 232 163.985, 232.742 167, 236.289 167 C 237.509 167, 248.963 160.025, 261.744 151.500 L 284.981 136 327.435 136 L 369.888 136 372.694 133.587 L 375.500 131.173 375.500 80.192 C 375.500 31.461, 375.416 29.117, 373.595 27.105 L 371.690 25 256 25 L 140.310 25 138.405 27.105 M 165.158 42.585 C 156 47.189, 151.481 55.509, 152.180 66.482 C 152.651 73.885, 155.754 79.361, 162.070 83.936 C 167.191 87.645, 173.564 89, 185.894 89 C 194.441 89, 195.922 89.257, 197.512 91.013 C 200.266 94.056, 199.859 98.865, 196.611 101.658 C 194.160 103.767, 192.920 104, 184.167 104 C 173.621 104, 170.679 102.916, 168.962 98.399 C 168.102 96.138, 167.582 96, 159.895 96 L 151.740 96 152.249 100.518 C 153.240 109.310, 161.567 117.884, 171.100 119.928 C 177.515 121.304, 190.485 121.304, 196.900 119.928 C 203.027 118.614, 209.051 114.391, 212.731 108.831 C 215.188 105.118, 215.500 103.727, 215.500 96.495 C 215.500 89.167, 215.194 87.849, 212.474 83.448 C 210.600 80.417, 207.584 77.400, 204.556 75.526 C 199.907 72.650, 199.005 72.475, 186.356 72 C 174.354 71.549, 172.833 71.285, 170.857 69.306 C 168.167 66.610, 167.993 61.770, 170.488 59.013 C 172.116 57.214, 173.555 57, 184 57 C 196.526 57, 197.847 57.492, 199.449 62.750 C 200.086 64.841, 200.706 65, 208.197 65 L 216.260 65 215.748 60.458 C 215.032 54.102, 210.454 47.176, 204.557 43.526 C 199.779 40.569, 199.334 40.493, 185.084 40.200 C 170.961 39.910, 170.331 39.985, 165.158 42.585 M 245.168 42.603 C 242.295 44.035, 238.846 46.647, 237.503 48.407 C 232.385 55.118, 232 57.372, 232 80.652 C 232 105.143, 232.622 107.827, 239.745 114.081 C 245.921 119.503, 249.088 120.337, 265.250 120.798 L 280 121.218 280 112.609 L 280 104 267.056 104 C 254.976 104, 253.932 103.846, 251.427 101.691 C 249.344 99.899, 248.631 98.220, 248.244 94.191 L 247.746 89 263.873 89 L 280 89 280 80.500 L 280 72 263.876 72 L 247.752 72 248.207 66.515 C 248.959 57.454, 249.815 57, 266.155 57 L 280 57 280 48.500 L 280 40 265.196 40 C 251.254 40, 250.089 40.151, 245.168 42.603 M 309.222 42.554 C 306.319 44.013, 302.846 46.647, 301.503 48.407 C 296.385 55.118, 296 57.372, 296 80.652 C 296 105.143, 296.622 107.827, 303.745 114.081 C 310.136 119.692, 313.092 120.473, 328 120.487 C 340.145 120.499, 341.976 120.265, 346.247 118.162 C 351.820 115.418, 357.610 109.054, 359.090 104.045 C 359.729 101.885, 360.014 91.875, 359.819 78.418 L 359.500 56.336 356.474 51.444 C 354.603 48.421, 351.580 45.397, 348.557 43.526 C 343.779 40.569, 343.334 40.493, 329.084 40.200 C 315.002 39.911, 314.318 39.992, 309.222 42.554 M 314.405 59.105 C 312.673 61.019, 312.500 62.929, 312.500 80.192 L 312.500 99.173 315.306 101.587 C 317.863 103.786, 318.989 104, 328 104 C 337.011 104, 338.137 103.786, 340.694 101.587 L 343.500 99.173 343.500 80.192 C 343.500 55.858, 344.263 57, 328 57 C 317.386 57, 316.135 57.194, 314.405 59.105 M 73.713 137.422 C 67.475 139.100, 62.122 143.523, 59.004 149.576 C 56.573 154.297, 56.490 155.128, 56.172 178.132 L 55.843 201.825 59.672 200.936 C 65.643 199.550, 79.838 199.873, 86.985 201.558 C 98.683 204.315, 107.612 209.396, 116.571 218.394 C 127.208 229.077, 132.392 238.641, 135.460 253.250 L 136.038 256 152.019 256 L 168 256 168 244 L 168 232 192 232 L 216 232 216 272 L 216 312 224 312 L 232 312 232 256 L 232 200 256 200 L 280 200 280 256 L 280 312 288 312 L 296 312 296 264 L 296 216 320 216 L 344 216 344 236 L 344 256 368 256 L 392 256 392 220 L 392 184 424.109 184 L 456.218 184 455.858 169.220 C 455.528 155.724, 455.275 154.010, 452.944 149.480 C 449.747 143.268, 443.627 138.515, 436.994 137.092 C 434.193 136.491, 422.732 136, 411.526 136 L 391.150 136 388.825 140.203 C 385.736 145.788, 379.283 150.559, 372.994 151.908 C 369.807 152.591, 353.350 153, 329.015 153 L 290.129 153 268.064 167.525 C 255.929 175.513, 244.846 182.488, 243.435 183.025 C 239.228 184.624, 231.248 184.168, 227.210 182.097 C 219.123 177.950, 216 172.086, 216 161.050 L 216 153 180.049 153 C 157.836 153, 142.153 152.583, 139.006 151.908 C 132.717 150.559, 126.264 145.788, 123.175 140.203 L 120.850 136 99.675 136.067 C 85.759 136.112, 76.859 136.576, 73.713 137.422 M 408 256 L 408 312 448 312 L 488 312 488 256 L 488 200 448 200 L 408 200 408 256 M 64.536 217.113 C 61.255 217.591, 55.279 219.545, 51.255 221.456 C 22.123 235.291, 15.547 275.134, 38.670 297.709 C 61.922 320.410, 100.846 313.673, 114.617 284.565 C 131.024 249.883, 102.580 211.574, 64.536 217.113 M 248 264 L 248 312 256 312 L 264 312 264 264 L 264 216 256 216 L 248 216 248 264 M 424 224 L 424 232 448 232 L 472 232 472 224 L 472 216 448 216 L 424 216 424 224 M 63 232.877 C 54.399 235.702, 47.083 241.922, 42.859 250 C 40.868 253.807, 40.506 255.964, 40.508 264 C 40.509 272.362, 40.828 274.099, 43.168 278.500 C 46.355 284.492, 51.868 289.934, 58 293.141 C 61.806 295.131, 63.966 295.494, 72 295.494 C 80.034 295.494, 82.194 295.131, 86 293.141 C 92.132 289.934, 97.645 284.492, 100.832 278.500 C 103.172 274.099, 103.491 272.362, 103.492 264 C 103.495 253.236, 101.781 248.651, 95.144 241.664 C 89.251 235.459, 82.856 232.710, 73.500 232.357 C 69.100 232.192, 64.375 232.426, 63 232.877 M 312 272 L 312 312 320 312 L 328 312 328 272 L 328 232 320 232 L 312 232 312 272 M 67.315 249.102 C 62.930 250.371, 58.260 255.322, 56.986 260.053 C 54.150 270.583, 64.159 281.374, 74.894 279.360 C 79.617 278.474, 85.737 272.690, 87.029 267.892 C 89.105 260.182, 83.872 251.258, 75.942 248.983 C 72 247.853, 71.613 247.858, 67.315 249.102 M 184 280 L 184 312 192 312 L 200 312 200 280 L 200 248 192 248 L 184 248 184 280 M 424 256 L 424 264 448 264 L 472 264 472 256 L 472 248 448 248 L 424 248 424 256 M 135.460 274.750 C 132.392 289.359, 127.208 298.923, 116.571 309.606 C 107.612 318.604, 98.683 323.685, 86.985 326.442 C 79.875 328.118, 65.650 328.452, 59.750 327.081 L 56 326.211 56 335.105 L 56 344 256 344 L 456 344 456 336 L 456 328 424 328 L 392 328 392 300 L 392 272 368 272 L 344 272 344 292 L 344 312 352 312 L 360 312 360 320 L 360 328 256 328 L 152 328 152 320 L 152 312 160 312 L 168 312 168 292 L 168 272 152.019 272 L 136.038 272 135.460 274.750 M 424 288 L 424 296 448 296 L 472 296 472 288 L 472 280 448 280 L 424 280 424 288 M 56.142 374.780 C 56.472 388.276, 56.725 389.990, 59.056 394.520 C 62.253 400.732, 68.373 405.485, 75.006 406.908 C 82.183 408.447, 429.817 408.447, 436.994 406.908 C 443.627 405.485, 449.747 400.732, 452.944 394.520 C 455.275 389.990, 455.528 388.276, 455.858 374.780 L 456.218 360 256 360 L 55.782 360 56.142 374.780 M 218.174 378.314 C 213.208 383.601, 216.870 392, 224.140 392 C 228.756 392, 232 388.640, 232 383.860 C 232 376.760, 223.019 373.157, 218.174 378.314 M 250.174 378.314 C 245.208 383.601, 248.870 392, 256.140 392 C 260.756 392, 264 388.640, 264 383.860 C 264 376.760, 255.019 373.157, 250.174 378.314 M 282.174 378.314 C 277.208 383.601, 280.870 392, 288.140 392 C 292.756 392, 296 388.640, 296 383.860 C 296 376.760, 287.019 373.157, 282.174 378.314 M 192 440 L 192 456 256 456 L 320 456 320 440 L 320 424 256 424 L 192 424 192 440 M 162.589 473.105 C 157.064 474.420, 152.281 477.630, 148.904 482.291 C 147.307 484.496, 146 486.683, 146 487.150 C 146 487.618, 195.500 488, 256 488 C 322.485 488, 366 487.635, 366 487.078 C 366 484.701, 358.981 477.352, 354.518 475.055 L 349.555 472.500 258.027 472.338 C 204.439 472.243, 164.879 472.561, 162.589 473.105" stroke="none" fill="url(#gradientColor)" fill-rule="evenodd"/></svg>