<svg xmlns="http://www.w3.org/2000/svg" viewBox="0 0 512 365" version="1.1"><defs><linearGradient id="gradientColor" x1="0%" y1="0%" x2="0%" y2="100%"><stop offset="0%" style="stop-color:rgb(0, 133, 121);stop-opacity:1" /><stop offset="100%" style="stop-color:rgb(255, 0, 0);stop-opacity:1" /></linearGradient></defs><path d="M 201.718 5.042 C 195.947 6.476, 192.786 8.424, 188.265 13.328 C 180.913 21.305, 181 20.395, 181 89.086 L 181 149.809 175.369 152.987 C 172.272 154.735, 167.647 158.121, 165.090 160.512 L 160.443 164.859 136.068 91.711 L 111.693 18.562 106.588 13.457 C 93.466 0.336, 70.781 2.536, 61.148 17.865 C 59.546 20.414, 56.113 28.936, 53.518 36.801 C 49.282 49.640, 48.926 51.408, 50.037 54.090 C 51.420 57.427, 53.717 59, 57.212 59 C 62.021 59, 63.667 56.502, 68.577 41.752 C 73.875 25.834, 76.645 21.844, 83.252 20.610 C 88.371 19.653, 95.289 22.725, 97.457 26.917 C 98.336 28.617, 110.497 64.544, 124.481 106.754 C 148.071 177.961, 149.839 183.789, 148.977 187.500 C 148.466 189.700, 148.037 193.206, 148.024 195.292 L 148 199.084 140.330 198.792 L 132.661 198.500 126.740 180.729 C 121.476 164.928, 120.502 162.794, 117.959 161.479 C 113.744 159.299, 57.256 159.299, 53.041 161.479 C 50.498 162.794, 49.524 164.929, 44.259 180.729 L 38.337 198.500 27.669 198.784 C 21.801 198.940, 17 198.760, 17 198.383 C 17 198.007, 25.325 172.391, 35.500 141.460 C 45.675 110.529, 54 84.522, 54 83.666 C 54 82.811, 52.946 80.886, 51.658 79.389 C 48.866 76.143, 44.056 75.734, 41.018 78.484 C 38.581 80.690, -0.002 197.022, 0.004 202.148 C 0.009 206.741, 3.346 211.829, 7.490 213.560 C 11.623 215.287, 38.377 215.578, 44.205 213.960 C 46.242 213.394, 48.808 211.788, 49.908 210.390 C 51.007 208.993, 54.279 200.683, 57.180 191.925 L 62.453 176 85.500 176 L 108.547 176 113.820 191.925 C 116.721 200.683, 119.993 208.993, 121.092 210.390 C 123.733 213.747, 128.625 214.988, 139.250 214.994 L 148 215 148 263.790 C 148 317.533, 148.120 318.817, 154.234 330.287 C 161.829 344.538, 177.513 355.093, 194 357.051 C 199.314 357.682, 237.294 357.956, 295.339 357.780 L 388.177 357.500 390.089 355.139 C 392.731 351.876, 392.558 346.873, 389.711 344.198 L 387.422 342.048 289.439 341.774 L 191.456 341.500 184.807 338.226 C 176.541 334.156, 169.046 326.259, 165.846 318.247 C 163.567 312.541, 163.548 312.108, 163.205 258.040 C 162.842 200.673, 163.341 191.058, 167.085 183.325 C 172.396 172.352, 183.217 164.637, 195.727 162.904 C 199.957 162.318, 254.271 162.052, 335.079 162.222 L 467.500 162.500 473.500 164.912 C 481.707 168.212, 490.788 177.293, 494.088 185.500 L 496.500 191.500 496.500 252 L 496.500 312.500 494.165 318.285 C 490.893 326.392, 482.761 334.915, 474.782 338.599 L 468.500 341.500 442.500 341.821 C 417.687 342.128, 416.397 342.239, 414.250 344.246 C 409.765 348.438, 412.190 356.006, 418.529 357.597 C 423.496 358.843, 469.169 357.353, 474 355.787 C 492.089 349.922, 505.219 336.727, 510.347 319.262 C 512.715 311.196, 512.886 194.223, 510.543 185.581 C 505.739 167.870, 490.971 153.093, 473.535 148.551 C 468.846 147.330, 461.676 147, 439.813 147 L 412.047 147 408.141 142.059 C 391.300 120.754, 393.656 89.825, 413.525 71.378 C 430.499 55.619, 456.520 52.588, 475.494 64.159 C 479.150 66.389, 484.788 66.537, 487.723 64.481 C 490.413 62.598, 506.554 39.311, 508.654 34.286 C 509.899 31.306, 509.978 29.871, 509.066 26.824 C 507.706 22.286, 504.098 19.362, 493.991 14.605 C 459.248 -1.746, 417.714 2.224, 387.388 24.794 C 351.209 51.722, 336.018 96.310, 348.427 139.153 L 350.700 147 340.497 147 L 330.293 147 329.660 139.505 C 328.473 125.461, 321.474 109.406, 312.437 99.994 L 309.070 96.488 312.235 87.494 C 315.036 79.533, 315.404 77.236, 315.435 67.500 C 315.473 55.326, 314.082 49.272, 308.666 38.056 C 304.318 29.052, 291.983 16.666, 282.500 11.781 C 269.806 5.242, 266.794 4.780, 234.500 4.423 C 218.504 4.246, 203.804 4.523, 201.718 5.042 M 202.225 22.004 C 200.424 23.102, 198.511 25.155, 197.975 26.566 C 197.382 28.126, 197 52.200, 197 88.065 L 197 147 207.500 147 L 218 147 218 135.401 C 218 122.128, 219.227 118.264, 224.303 115.546 C 227.093 114.052, 230.174 113.877, 248.500 114.167 C 269.121 114.494, 269.602 114.550, 275.161 117.280 C 284.839 122.032, 291.682 131.519, 292.725 141.628 L 293.280 147 303.640 147 L 314 147 314 142.710 C 314 131.181, 307.769 117.741, 297.771 107.702 C 290.014 99.914, 289.487 97.830, 293.508 90.852 C 309.035 63.903, 294.916 29.621, 265.081 21.833 C 259.691 20.426, 253.702 20.106, 232 20.061 C 207.221 20.011, 205.287 20.137, 202.225 22.004 M 436.500 21.041 C 423.606 23.047, 408.996 28.826, 398.140 36.212 C 385.464 44.838, 371.760 62.219, 366.135 76.807 C 357.935 98.069, 358.056 123.234, 366.454 143.250 L 368.027 147 379.917 147 L 391.808 147 388.982 141.750 C 383.149 130.911, 381.496 123.740, 381.546 109.500 C 381.586 98.105, 381.926 95.496, 384.301 88.369 C 396.579 51.537, 437.577 32.003, 473.500 45.871 L 480.500 48.573 486.305 40.280 C 489.498 35.719, 491.866 31.593, 491.569 31.111 C 490.716 29.732, 476.163 24.193, 469 22.521 C 460.703 20.585, 444.246 19.835, 436.500 21.041 M 223.912 43.280 C 218.494 46.931, 218.031 48.778, 218.015 66.800 C 217.998 84.982, 218.681 87.615, 224.299 91.040 C 227.072 92.732, 229.379 92.993, 241.568 92.996 C 258.279 93.001, 264.224 91.599, 270.132 86.262 C 281.819 75.703, 281.857 58.205, 270.215 47.958 C 263.777 42.291, 258.442 41, 241.466 41 C 228.372 41, 227.039 41.173, 223.912 43.280 M 234 67 L 234 77 244.550 77 C 258.876 77, 263 74.765, 263 67 C 263 59.235, 258.876 57, 244.550 57 L 234 57 234 67 M 79.715 80.010 C 77.694 81.599, 75.574 86.777, 69.580 104.760 C 65.411 117.268, 62 128.773, 62 130.327 C 62 132.118, 63.071 134.225, 64.923 136.077 L 67.846 139 85.500 139 L 103.154 139 106.077 136.077 C 108.136 134.018, 109 132.171, 109 129.827 C 109 127.998, 105.809 116.826, 101.909 105.001 C 96.188 87.655, 94.253 82.969, 91.893 80.750 C 88.336 77.405, 83.407 77.106, 79.715 80.010 M 83.057 114.273 C 81.779 118.248, 80.521 122.063, 80.260 122.750 C 79.916 123.658, 81.321 124, 85.393 124 C 88.477 124, 91 123.629, 91 123.175 C 91 122.230, 86.171 107.838, 85.694 107.361 C 85.521 107.187, 84.334 110.298, 83.057 114.273 M 234 138.500 L 234 147 255.500 147 L 277 147 277 143.868 C 277 139.474, 273.488 134.290, 268.939 131.969 C 265.590 130.260, 263.024 130, 249.540 130 L 234 130 234 138.500 M 193.648 178.027 C 186.972 180.028, 180.946 186.215, 178.973 193.095 C 178.394 195.114, 178 219.417, 178 253.129 L 178 309.772 180.793 315.119 C 182.537 318.457, 185.200 321.600, 187.880 323.483 L 192.172 326.500 330 326.500 L 467.828 326.500 472.164 323.494 C 475.016 321.516, 477.449 318.616, 479.273 315.018 L 482.046 309.548 481.773 250.945 L 481.500 192.341 478.485 187.465 C 476.290 183.915, 474.014 181.828, 470.120 179.794 L 464.772 177 330.636 177.086 C 256.861 177.133, 195.217 177.557, 193.648 178.027 M 195.655 194.829 C 194.157 196.484, 194 201.919, 194 252.174 C 194 304.687, 194.099 307.780, 195.829 309.345 C 197.489 310.848, 203.381 311, 259.829 311 L 322 311 322 252 L 322 193 259.655 193 C 200.526 193, 197.225 193.094, 195.655 194.829 M 338 252 L 338 311 356.500 311 C 374.530 311, 375 310.947, 375 308.934 C 375 300.496, 387.648 298.995, 389.766 307.182 L 390.624 310.500 402.312 310.782 C 415.364 311.096, 415.517 310.999, 412.365 304.357 C 410.573 300.580, 406.558 298, 402.473 298 C 400.880 298, 398.650 296.803, 396.806 294.960 C 394.262 292.416, 393.867 291.396, 394.386 288.710 C 395.144 284.788, 398.291 282, 401.963 282 C 406.207 282, 411.301 278.006, 412.897 273.428 C 414.146 269.842, 414.106 269.025, 412.512 265.666 C 408.034 256.231, 395.167 256.759, 391.435 266.531 C 389.395 271.872, 386.807 274, 382.350 274 C 377.624 274, 374.610 269.843, 375.463 264.503 C 376.830 255.953, 384.218 247.477, 392.872 244.528 C 410.825 238.411, 429.125 251.372, 429.125 270.204 C 429.125 276.910, 428.167 280.009, 424.180 286.203 L 421.797 289.906 423.925 292.895 C 427.046 297.278, 428.869 302.149, 429.146 306.850 L 429.391 311 446.124 311 C 460.003 311, 463.125 310.732, 464.429 309.429 C 465.820 308.038, 466 301.453, 466 252.084 C 466 199.321, 465.901 196.221, 464.171 194.655 C 462.577 193.212, 459.277 193, 438.417 193 L 414.492 193 407.295 203 L 400.098 213 412.360 213 C 423.319 213, 424.856 213.217, 426.811 215.039 C 429.569 217.608, 429.702 222.910, 427.090 226.139 C 425.223 228.447, 424.759 228.507, 406.340 228.807 C 384.905 229.157, 380.408 228.337, 378.174 223.676 C 377.429 222.123, 377.086 219.792, 377.412 218.495 C 377.875 216.650, 387.446 202.875, 394.258 194.250 C 395.043 193.256, 389.380 193, 366.622 193 L 338 193 338 252 M 0.286 201.500 C 0.294 204.250, 0.488 205.256, 0.718 203.736 C 0.947 202.216, 0.941 199.966, 0.704 198.736 C 0.467 197.506, 0.279 198.750, 0.286 201.500 M 249.205 208.835 C 242.463 211.239, 237.301 215.407, 233.500 221.516 L 230.500 226.336 230.186 250.585 C 229.887 273.721, 229.973 275.068, 232.072 279.946 C 236.242 289.640, 247.432 297, 258 297 C 268.568 297, 279.758 289.640, 283.928 279.946 C 286.026 275.069, 286.113 273.719, 285.814 250.667 L 285.500 226.500 282.770 221.855 C 275.796 209.992, 261.504 204.448, 249.205 208.835 M 252.299 224.624 C 246.033 227.713, 245.534 229.494, 245.184 250 C 244.819 271.368, 245.567 275.126, 250.898 278.713 C 257.843 283.387, 267.217 280.290, 269.816 272.463 C 270.766 269.601, 271.044 263.360, 270.816 250 C 270.464 229.399, 269.958 227.632, 263.540 224.586 C 259.354 222.600, 256.384 222.610, 252.299 224.624" stroke="none" id="tool_gradient_color" fill="url(#gradientColor)" fill-rule="evenodd"/></svg>