<svg xmlns="http://www.w3.org/2000/svg" viewBox="0 0 512 512" version="1.1"><path d="M 94.698 1.444 C 86.270 4.450, 79.450 11.270, 76.444 19.698 C 75.375 22.695, 75.078 33.890, 75.044 72.572 C 74.993 129.651, 74.749 127.893, 84.007 137.161 C 93.319 146.483, 88.147 146, 178.671 146 C 253.079 146, 257.227 145.906, 261.960 144.107 C 269.677 141.175, 274.504 136.752, 278.215 129.214 L 281.500 122.541 281.500 72.520 C 281.500 23.771, 281.447 22.384, 279.394 17.949 C 276.278 11.213, 271.623 6.467, 264.778 3.047 L 258.681 0 210.413 0 L 162.145 -0 160.073 2.635 C 157.451 5.967, 157.442 9.021, 160.043 12.328 L 162.086 14.925 208.793 15.213 C 261.238 15.535, 259.550 15.295, 263.906 23.046 C 265.947 26.678, 266 27.936, 265.998 72.636 C 265.997 123.765, 266.084 123.066, 259.102 127.730 L 255.704 130 178.102 129.996 C 101.970 129.993, 100.437 129.954, 97.182 127.970 C 95.169 126.742, 93.089 124.194, 91.894 121.493 C 90.012 117.239, 89.937 114.977, 90.212 71.092 C 90.492 26.477, 90.560 25.064, 92.562 22.384 C 97.444 15.847, 98.541 15.531, 117.563 15.168 C 134.875 14.837, 134.997 14.819, 136.992 12.283 C 139.559 9.019, 139.539 5.955, 136.927 2.635 L 134.855 0 116.677 0.044 C 104.012 0.074, 97.347 0.499, 94.698 1.444 M 315.174 2.314 C 312.286 5.389, 312.348 10.039, 315.314 12.826 L 317.629 15 412.814 15 C 506.667 15, 508.028 14.972, 510 13 C 511.238 11.762, 512 9.667, 512 7.500 C 512 5.333, 511.238 3.238, 510 2 C 508.028 0.028, 506.667 0, 412.674 0 L 317.349 0 315.174 2.314 M 6.544 33.365 C 0.906 39.003, 4.958 47, 13.455 47 L 18 47 18 77.944 L 18 108.888 20.342 111.611 C 23.555 115.346, 28.445 115.346, 31.658 111.611 L 34 108.888 34 72.555 C 34 28.212, 35.197 31.662, 19.634 31.160 C 9.456 30.832, 9 30.909, 6.544 33.365 M 153.077 35.773 C 146.144 39.584, 145.913 40.878, 146.223 74.186 L 146.500 103.872 149.443 106.942 C 152.680 110.319, 157.699 112.149, 161.226 111.238 C 162.477 110.915, 173.263 104.149, 185.194 96.202 C 207.834 81.124, 210.005 79.036, 209.996 72.349 C 209.989 66.760, 206.759 63.790, 184.837 49.216 C 161.634 33.790, 158.838 32.607, 153.077 35.773 M 317.315 44.007 C 312.578 45.916, 311.576 52.667, 315.455 56.545 L 317.909 59 412.320 59 C 506.318 59, 506.742 58.991, 509.365 56.927 C 513.087 54, 513.087 48, 509.365 45.073 C 506.741 43.008, 506.356 43, 413.115 43.063 C 361.627 43.098, 318.517 43.523, 317.315 44.007 M 162 72.883 L 162 92.774 176.466 83.137 C 184.422 77.837, 190.947 73.233, 190.966 72.907 C 190.985 72.581, 184.475 67.966, 176.500 62.653 L 162 52.992 162 72.883 M 315.174 89.314 C 311.186 93.559, 312.699 100.002, 318.128 101.895 C 322.596 103.452, 502.404 103.452, 506.872 101.895 C 512.394 99.970, 513.905 93.138, 509.686 89.174 L 507.371 87 412.360 87 L 317.349 87 315.174 89.314 M 317.500 131.143 C 312.228 134.058, 311.287 140.507, 315.635 143.927 C 318.239 145.976, 319.029 146, 382.961 146 L 447.651 146 449.826 143.686 C 452.529 140.808, 452.645 136.019, 450.089 132.861 L 448.177 130.500 383.839 130.268 C 338.309 130.105, 318.915 130.360, 317.500 131.143 M 94.275 184.642 C 88.966 186.537, 80.588 193.990, 77.700 199.387 C 75.513 203.475, 75.500 203.820, 75.500 256 C 75.500 308.180, 75.513 308.525, 77.700 312.613 C 78.910 314.874, 82.186 318.780, 84.980 321.292 C 94.067 329.462, 89.231 329.082, 180.078 328.773 L 260.500 328.500 265.856 325.534 C 271.792 322.245, 275.841 317.859, 279.243 311.031 C 281.496 306.508, 281.500 306.412, 281.500 256 C 281.500 205.588, 281.496 205.492, 279.243 200.969 C 275.841 194.141, 271.792 189.755, 265.856 186.466 L 260.500 183.500 179.500 183.317 C 109.521 183.159, 97.925 183.339, 94.275 184.642 M 315.174 185.314 C 311.186 189.559, 312.699 196.002, 318.128 197.895 C 322.596 199.452, 502.404 199.452, 506.872 197.895 C 512.394 195.970, 513.905 189.138, 509.686 185.174 L 507.371 183 412.360 183 L 317.349 183 315.174 185.314 M 97.304 200.956 C 90.233 205.268, 90.500 203.107, 90.500 255.956 L 90.500 303.500 92.829 306.765 C 97.508 313.326, 93.016 313, 178.874 313 L 256.847 313 260.059 310.297 C 266.016 305.285, 266 305.428, 266 255.482 C 266 205.548, 266.143 206.822, 259.959 201.619 L 256.847 199 178.673 199.004 C 102.952 199.007, 100.400 199.069, 97.304 200.956 M 13.366 216.505 C 7.619 219.369, 5.091 221.834, 2.105 227.485 C -2.088 235.422, 0.335 243, 7.066 243 C 11.640 243, 13.510 241.572, 15.394 236.638 C 18.687 228.015, 29.034 226.810, 32.757 234.617 C 34.166 237.571, 34.208 238.547, 33.071 241.769 C 31.533 246.122, 25.018 255.988, 13.285 271.729 C 5.210 282.562, 2 288.190, 2 291.513 C 2 292.381, 3.105 294.195, 4.455 295.545 C 6.898 297.989, 7.001 298, 27.020 298 C 38.226 298, 47.941 297.567, 48.961 297.021 C 51.425 295.702, 53.147 290.516, 52.065 287.671 C 50.304 283.038, 48.490 282.479, 36.256 282.799 C 27.077 283.039, 24.979 282.842, 25.621 281.799 C 26.061 281.085, 29.847 275.775, 34.034 270 C 43.746 256.605, 46.446 251.881, 48.517 244.666 C 50.368 238.214, 49.965 233.812, 46.989 227.978 C 44.690 223.473, 38.209 217.532, 33.400 215.523 C 27.711 213.146, 19.278 213.559, 13.366 216.505 M 153.424 218.855 C 146.292 222.164, 146 223.627, 146 256 C 146 288.558, 146.187 289.460, 153.692 293.093 C 157.410 294.893, 158.777 295.097, 161.501 294.261 C 166.883 292.609, 207.420 264.569, 208.798 261.545 C 210.396 258.037, 210.318 253.516, 208.603 250.199 C 206.865 246.838, 164.796 218.226, 160.500 217.483 C 158.670 217.167, 155.911 217.702, 153.424 218.855 M 317.500 227.146 C 312.229 230.052, 311.287 236.507, 315.635 239.927 C 318.258 241.991, 318.684 242, 412.500 242 C 506.316 242, 506.742 241.991, 509.365 239.927 C 512.588 237.392, 512.917 232.354, 510.089 228.861 L 508.177 226.500 413.839 226.272 C 346.588 226.109, 318.926 226.360, 317.500 227.146 M 162 256 L 162 276.079 176.496 266.289 C 184.469 260.905, 190.992 256.275, 190.992 256 C 190.992 255.725, 184.469 251.095, 176.496 245.711 L 162 235.921 162 256 M 315.635 272.073 C 310.752 275.913, 312.903 283.961, 319.225 285.505 C 320.476 285.810, 363.502 285.934, 414.839 285.780 L 508.177 285.500 510.089 283.139 C 512.917 279.646, 512.588 274.608, 509.365 272.073 C 506.742 270.009, 506.316 270, 412.500 270 C 318.684 270, 318.258 270.009, 315.635 272.073 M 317.400 314.428 C 312.383 316.612, 311.300 323.054, 315.314 326.826 L 317.629 329 382.640 329 L 447.651 329 449.826 326.686 C 453.814 322.441, 452.301 315.998, 446.872 314.105 C 441.842 312.352, 321.480 312.652, 317.400 314.428 M 94.594 367.645 C 91.063 368.730, 88.097 370.743, 84.004 374.836 C 74.631 384.209, 74.881 382.319, 75.215 441.115 C 75.498 491.231, 75.512 491.523, 77.757 495.723 C 80.635 501.109, 85.891 506.365, 91.277 509.243 L 95.500 511.500 176.860 511.773 L 258.220 512.046 263.406 509.672 C 270.658 506.351, 275.455 501.810, 278.710 495.182 C 281.367 489.770, 281.517 488.703, 281.851 472.722 C 282.045 463.494, 281.921 454.820, 281.576 453.447 C 279.979 447.085, 272.960 444.949, 268.455 449.455 C 266.045 451.864, 266 452.214, 266 468.568 C 266 483.625, 265.798 485.586, 263.906 488.954 C 262.754 491.003, 260.391 493.540, 258.656 494.590 C 255.621 496.426, 252.511 496.500, 177.823 496.500 C 100.930 496.500, 100.119 496.479, 97.385 494.438 C 95.866 493.304, 93.696 491.134, 92.562 489.616 C 90.560 486.936, 90.492 485.523, 90.212 440.908 C 89.937 397.023, 90.012 394.761, 91.894 390.507 C 93.089 387.806, 95.169 385.258, 97.182 384.030 C 100.437 382.046, 101.970 382.007, 178.102 382.004 L 255.704 382 259.102 384.270 C 265.041 388.238, 265.997 391.559, 265.998 408.250 C 266 421.602, 266.187 423.187, 267.975 424.975 C 270.868 427.868, 274.578 428.507, 277.472 426.610 C 281.795 423.778, 282.194 421.814, 281.836 405.129 C 281.506 389.731, 281.441 389.327, 278.215 382.780 C 274.504 375.248, 269.673 370.823, 261.960 367.893 C 257.220 366.092, 253.166 366.003, 178.239 366.070 C 111.088 366.129, 98.778 366.361, 94.594 367.645 M 315.635 368.073 C 310.752 371.913, 312.903 379.961, 319.225 381.505 C 320.476 381.810, 363.502 381.934, 414.839 381.780 L 508.177 381.500 510.089 379.139 C 512.742 375.862, 512.558 370.873, 509.686 368.174 L 507.371 366 412.820 366 C 318.680 366, 318.258 366.009, 315.635 368.073 M 15.524 399.063 C 9.848 401.894, 5.461 406.502, 3.004 412.211 C -0.463 420.272, 2.264 426, 9.568 426 C 13.128 426, 15.127 424.133, 17.364 418.714 C 19.508 413.524, 24.475 411.336, 29.420 413.402 C 33.479 415.098, 35 417.573, 35 422.482 C 35 426.975, 31.114 431, 26.777 431 C 23.534 431, 18 435.712, 18 438.473 C 18 440.944, 20.722 445.679, 22.545 446.379 C 23.435 446.720, 25.217 447, 26.505 447 C 27.793 447, 30.231 448.165, 31.923 449.589 C 34.485 451.744, 35 452.901, 35 456.500 C 35 460.133, 34.491 461.251, 31.805 463.510 C 26.115 468.298, 18.988 465.465, 16.914 457.591 C 15.124 450.789, 13.485 449, 9.050 449 C -1.442 449, -1.768 463.125, 8.479 473.664 C 17.272 482.707, 28.352 484.141, 39.193 477.640 C 46.748 473.109, 50.369 466.870, 50.827 457.597 C 51.139 451.278, 50.850 449.881, 48.194 444.848 L 45.210 439.197 48.105 433.457 C 51.259 427.204, 51.860 420.638, 49.919 413.645 C 48.570 408.788, 41.735 401.262, 36.500 398.871 C 30.975 396.348, 20.781 396.441, 15.524 399.063 M 155.462 401.088 C 153.792 401.561, 151.092 403.338, 149.462 405.038 L 146.500 408.128 146.223 437.814 C 145.968 465.214, 146.090 467.766, 147.815 470.950 C 150.458 475.829, 156.178 478.636, 160.888 477.364 C 162.875 476.827, 174.049 470.005, 185.720 462.203 C 207.374 447.727, 210 445.266, 210 439.451 C 210 433.019, 207.696 430.822, 185.207 415.801 C 173.268 407.827, 162.375 401.061, 161 400.766 C 159.625 400.471, 157.133 400.616, 155.462 401.088 M 317.400 410.428 C 312.383 412.612, 311.300 419.054, 315.314 422.826 L 317.629 425 412.640 425 L 507.651 425 509.826 422.686 C 513.814 418.441, 512.301 411.998, 506.872 410.105 C 501.798 408.337, 321.498 408.644, 317.400 410.428 M 162 439.420 L 162 459.008 176.500 449.347 C 184.475 444.034, 190.991 439.419, 190.980 439.093 C 190.961 438.533, 164.744 420.877, 162.876 420.167 C 162.393 419.983, 162 428.617, 162 439.420 M 315.455 455.455 C 312.475 458.434, 312.250 462.853, 314.911 466.139 L 316.823 468.500 411.942 468.765 L 507.061 469.030 509.531 466.560 C 512.987 463.104, 512.911 457.862, 509.365 455.073 C 506.742 453.009, 506.318 453, 412.320 453 L 317.909 453 315.455 455.455 M 315.174 499.314 C 312.286 502.389, 312.348 507.039, 315.314 509.826 L 317.629 512 382.814 512 C 446.667 512, 448.041 511.959, 450 510 C 451.238 508.762, 452 506.667, 452 504.500 C 452 502.333, 451.238 500.238, 450 499 C 448.041 497.041, 446.667 497, 382.674 497 L 317.349 497 315.174 499.314" stroke="none" class="tool_gradient_color" fill-rule="evenodd"/></svg>