<svg xmlns="http://www.w3.org/2000/svg" viewBox="0 0 512 512" version="1.1"><defs><linearGradient id="gradientColor" x1="0%" y1="0%" x2="0%" y2="100%"><stop offset="0%" style="stop-color:rgb(0, 133, 121);stop-opacity:1" /><stop offset="100%" style="stop-color:rgb(255, 0, 0);stop-opacity:1" /></linearGradient></defs><path d="M 29.459 18.367 C 23.625 21.084, 19.868 25.143, 17.574 31.211 C 16.100 35.106, 15.977 48.543, 16.226 177.579 L 16.500 319.657 19.526 324.552 C 21.401 327.585, 24.415 330.599, 27.447 332.474 L 32.341 335.500 78.575 335.779 L 124.810 336.057 126.905 333.394 C 129.559 330.020, 129.576 326.002, 126.951 322.665 L 124.902 320.060 80.978 319.780 L 37.054 319.500 34.777 317.222 L 32.500 314.945 32.237 205.472 L 31.974 96 191.987 96 L 352 96 352 125.566 C 352 142.939, 352.404 155.886, 352.979 156.961 C 355.314 161.324, 364.686 161.324, 367.021 156.961 C 367.629 155.824, 367.992 132.291, 367.978 94.816 C 367.957 36.267, 367.896 34.368, 365.916 30 C 363.174 23.952, 360.458 21.187, 354.500 18.377 L 349.500 16.020 192 16.020 L 34.500 16.020 29.459 18.367 M 414.237 38.263 C 395.327 57.207, 395.289 54.913, 414.825 74.293 C 431.329 90.665, 432.762 91.392, 438.077 86.077 C 442.688 81.465, 442.046 78.895, 434.250 70.771 L 427.500 63.736 436.771 64.244 C 447.884 64.852, 453.825 67.437, 458.649 73.762 C 463.311 79.874, 464 85.064, 464 114.049 C 464 138.667, 464.103 140.103, 466 142 C 468.890 144.890, 474.995 144.699, 477.880 141.628 C 480.099 139.265, 480.107 139.135, 479.804 108.353 L 479.500 77.450 476.305 70.965 C 472.144 62.517, 465.160 55.529, 457 51.649 C 451.283 48.930, 449.140 48.494, 439.212 48.029 L 427.923 47.500 433.962 41.531 C 439.229 36.324, 440 35.080, 440 31.781 C 440 26.776, 437.231 24, 432.237 24 C 428.728 24, 427.514 24.962, 414.237 38.263 M 37.020 33.279 C 32.499 35.576, 32.031 38.052, 32.015 59.750 L 32 80 192.055 80 L 352.110 80 351.805 58.526 C 351.509 37.712, 351.430 36.981, 349.222 34.776 L 346.945 32.500 193.222 32.260 C 71.180 32.069, 38.989 32.279, 37.020 33.279 M 50.174 50.314 C 45.208 55.601, 48.870 64, 56.140 64 C 60.756 64, 64 60.640, 64 55.860 C 64 48.760, 55.019 45.157, 50.174 50.314 M 82.174 50.314 C 77.208 55.601, 80.870 64, 88.140 64 C 92.756 64, 96 60.640, 96 55.860 C 96 48.760, 87.019 45.157, 82.174 50.314 M 114.174 50.314 C 109.208 55.601, 112.870 64, 120.140 64 C 124.756 64, 128 60.640, 128 55.860 C 128 48.760, 119.019 45.157, 114.174 50.314 M 226.881 49.007 C 225.991 49.527, 224.699 51.313, 224.010 52.976 C 222.543 56.517, 224.033 61.412, 227.071 63.038 C 228.155 63.618, 249.273 64, 280.260 64 L 331.651 64 333.826 61.686 C 336.805 58.514, 336.739 53.043, 333.686 50.174 L 331.371 48 279.936 48.030 C 249.474 48.048, 227.840 48.447, 226.881 49.007 M 98.736 129.250 C 94.600 132.391, 94.784 140.744, 99.039 143.021 C 101.528 144.353, 250.472 144.353, 252.961 143.021 C 255.700 141.555, 257.115 136.627, 255.843 132.979 C 255.264 131.317, 253.967 129.517, 252.961 128.979 C 250.022 127.406, 100.819 127.668, 98.736 129.250 M 274.736 129.250 C 270.600 132.391, 270.784 140.744, 275.039 143.021 C 277.426 144.299, 314.574 144.299, 316.961 143.021 C 319.700 141.555, 321.115 136.627, 319.843 132.979 C 319.264 131.317, 317.967 129.517, 316.961 128.979 C 314.143 127.471, 276.763 127.711, 274.736 129.250 M 66 178 C 64.667 179.333, 64 181.333, 64 184 C 64 186.667, 64.667 188.667, 66 190 C 67.904 191.904, 69.333 192, 95.826 192 C 123.619 192, 123.654 191.997, 125.826 189.686 C 128.652 186.678, 128.717 181.146, 125.961 178.189 C 123.957 176.038, 123.437 176, 95.961 176 C 69.333 176, 67.905 176.095, 66 178 M 157.500 178.160 C 151.678 181.174, 149.031 183.873, 146.377 189.500 L 144.020 194.500 144.010 335.782 C 144.001 460.388, 144.181 477.497, 145.531 480.728 C 148.084 486.839, 152.001 491.092, 157.383 493.598 L 162.500 495.980 320 495.980 L 477.500 495.980 482.500 493.623 C 488.458 490.813, 491.174 488.048, 493.916 482 C 495.939 477.538, 495.956 476.290, 495.956 336 C 495.956 195.710, 495.939 194.462, 493.916 190 C 491.266 184.154, 488.573 181.348, 482.783 178.401 L 478.066 176 319.783 176.044 C 161.684 176.088, 161.495 176.091, 157.500 178.160 M 165.020 193.279 C 160.499 195.576, 160.031 198.052, 160.015 219.750 L 160 240 320.055 240 L 480.110 240 479.805 218.526 C 479.509 197.712, 479.430 196.981, 477.222 194.776 L 474.945 192.500 321.222 192.260 C 199.180 192.069, 166.989 192.279, 165.020 193.279 M 178.174 210.314 C 173.208 215.601, 176.870 224, 184.140 224 C 188.756 224, 192 220.640, 192 215.860 C 192 208.760, 183.019 205.157, 178.174 210.314 M 210.174 210.314 C 205.208 215.601, 208.870 224, 216.140 224 C 220.756 224, 224 220.640, 224 215.860 C 224 208.760, 215.019 205.157, 210.174 210.314 M 242.174 210.314 C 237.208 215.601, 240.870 224, 248.140 224 C 252.756 224, 256 220.640, 256 215.860 C 256 208.760, 247.019 205.157, 242.174 210.314 M 354.736 209.250 C 350.600 212.391, 350.784 220.744, 355.039 223.021 C 356.165 223.623, 376.686 224, 408.362 224 L 459.855 224 461.927 221.365 C 464.722 217.812, 464.617 212.928, 461.686 210.174 C 459.371 208, 459.371 208, 407.877 208 C 368.226 208, 356.004 208.287, 354.736 209.250 M 67.229 224.669 C 64.955 225.584, 62.832 230.960, 63.516 234.072 C 64.779 239.823, 65.752 240, 96.048 240 C 123.608 240, 123.655 239.996, 125.826 237.686 C 128.805 234.514, 128.739 229.043, 125.686 226.174 C 123.421 224.047, 122.782 224.002, 95.936 224.079 C 80.846 224.122, 67.928 224.388, 67.229 224.669 M 160.237 365.472 L 160.500 474.945 162.778 477.222 L 165.056 479.500 320 479.500 L 474.944 479.500 477.222 477.222 L 479.500 474.945 479.763 365.472 L 480.026 256 320 256 L 159.974 256 160.237 365.472 M 66.736 273.250 C 62.600 276.391, 62.784 284.744, 67.039 287.021 C 68.105 287.592, 80.340 288, 96.362 288 L 123.855 288 125.927 285.365 C 128.568 282.008, 128.568 277.992, 125.927 274.635 L 123.855 272 96.119 272 C 75.474 272, 67.961 272.320, 66.736 273.250 M 350.892 290.296 C 343.488 293.419, 340.877 295.379, 332.250 304.295 C 326.368 310.373, 325 312.382, 325 314.939 C 325 319.330, 328.843 323, 333.441 323 C 336.502 323, 338.162 321.874, 345.869 314.570 C 352.501 308.285, 355.851 305.848, 359.041 304.989 C 375.104 300.664, 389.227 318.260, 381.496 332.965 C 380.763 334.359, 369.664 345.895, 356.832 358.601 C 335.744 379.480, 333.052 381.812, 328.837 382.843 C 323.194 384.225, 318.871 383.538, 313.322 380.379 C 307.852 377.264, 305.468 377.378, 301.923 380.923 C 296.403 386.443, 298.475 391.589, 308.294 396.745 C 312.952 399.191, 314.553 399.480, 323.500 399.489 C 339.339 399.506, 340.598 398.702, 369.134 370.325 C 398.492 341.130, 399.504 339.587, 399.492 324 C 399.483 311.424, 397.555 306.478, 389.539 298.461 C 382.230 291.153, 376.513 288.734, 365.500 288.292 C 357.776 287.982, 355.705 288.266, 350.892 290.296 M 310.120 336.204 C 299.708 337.785, 295.081 341.313, 269.314 367.314 C 240.730 396.158, 240.519 396.485, 240.508 412 C 240.500 422.052, 240.645 422.768, 243.899 428.768 C 247.966 436.268, 253.272 441.297, 260.880 444.865 C 265.716 447.132, 267.825 447.500, 276 447.500 C 284.210 447.500, 286.275 447.137, 291.207 444.825 C 297.789 441.740, 314.446 426.345, 315.425 422.441 C 316.793 416.992, 310.738 411.096, 305.202 412.485 C 303.895 412.813, 298.884 416.818, 294.066 421.384 C 287.021 428.060, 284.374 429.920, 280.549 430.883 C 264.610 434.897, 250.856 417.515, 258.511 403.035 C 259.248 401.641, 270.347 390.079, 283.176 377.342 C 302.356 358.299, 307.211 353.992, 310.500 353.098 C 316.694 351.415, 319.241 351.753, 325.783 355.128 C 330.082 357.344, 332.590 358.069, 334.396 357.615 C 338.225 356.654, 341 353.124, 341 349.213 C 341 340.712, 324.952 333.951, 310.120 336.204 M 38.070 382.429 C 25.776 394.746, 23.667 397.310, 23.667 399.938 C 23.667 404.366, 27.403 408, 31.956 408 C 35.040 408, 36.427 407.126, 41.531 401.966 L 47.500 395.931 48 423.216 L 48.500 450.500 51.582 457.003 C 55.530 465.333, 62.667 472.470, 70.997 476.418 C 77.199 479.357, 78.187 479.516, 92.336 479.843 C 106.616 480.174, 107.263 480.102, 109.586 477.919 C 112.817 474.884, 112.898 469.174, 109.750 466.280 C 107.781 464.469, 105.924 464.161, 94.894 463.815 C 83.848 463.468, 81.684 463.108, 77.404 460.905 C 71.263 457.745, 66.509 451.601, 65.092 444.994 C 64.489 442.180, 64 429.982, 64 417.730 L 64 395.558 70.250 401.641 C 73.688 404.986, 77.275 407.992, 78.222 408.319 C 82.631 409.846, 89 404.560, 89 399.375 C 89 398.426, 82.382 390.979, 74.293 382.825 C 54.874 363.250, 57.191 363.275, 38.070 382.429" stroke="none" class="tool_gradient_color" fill="url(#gradientColor)" fill-rule="evenodd"/></svg>