<svg xmlns="http://www.w3.org/2000/svg" viewBox="0 0 512 512" version="1.1"><defs><linearGradient id="gradientColor" x1="0%" y1="0%" x2="0%" y2="100%"><stop offset="0%" style="stop-color:rgb(0, 133, 121);stop-opacity:1" /><stop offset="100%" style="stop-color:rgb(255, 0, 0);stop-opacity:1" /></linearGradient></defs><path d="M 191.478 84.250 C 191.140 86.037, 187.387 105.950, 183.137 128.500 L 175.409 169.500 130.205 169.760 L 85 170.020 85 192.010 L 85 214 126.045 214 L 167.091 214 166.379 217.750 C 165.987 219.813, 162.462 238.600, 158.544 259.500 L 151.421 297.500 107.710 297.761 L 64 298.021 64 320.011 L 64 342 103.579 342 L 143.159 342 142.577 344.750 C 140.569 354.231, 128.045 422.379, 128.270 422.603 C 128.591 422.924, 170.447 430.884, 170.611 430.655 C 170.792 430.401, 187 343.379, 187 342.660 C 187 342.297, 210.625 342, 239.500 342 C 288.852 342, 291.997 342.105, 291.951 343.750 C 291.924 344.712, 288.607 362.825, 284.579 384 C 280.552 405.175, 277.312 422.574, 277.378 422.665 C 277.632 423.008, 319.514 430.763, 319.787 430.517 C 319.945 430.376, 323.776 410.514, 328.302 386.380 L 336.530 342.500 381.765 342.240 L 427 341.980 427 319.990 L 427 298 385.955 298 L 344.909 298 345.599 294.250 C 345.979 292.188, 349.495 273.400, 353.414 252.500 L 360.538 214.500 404.269 214.239 L 448 213.979 448 191.989 L 448 170 408.500 170 C 386.775 170, 369 169.843, 369 169.651 C 369 169.458, 372.364 151.373, 376.476 129.460 C 380.588 107.548, 383.762 89.429, 383.530 89.197 C 383.018 88.685, 341.761 80.889, 341.461 81.247 C 341.197 81.562, 324.980 168.218, 324.991 169.250 C 324.996 169.662, 301.375 170, 272.500 170 C 223.146 170, 220.003 169.895, 220.055 168.250 C 220.086 167.287, 223.395 149.175, 227.410 128 C 231.425 106.825, 234.603 89.365, 234.471 89.199 C 234.290 88.972, 193.304 81.004, 192.295 81.001 C 192.183 81, 191.815 82.463, 191.478 84.250 M 211 214.849 C 211 215.317, 207.628 233.654, 203.506 255.599 C 199.385 277.545, 196.010 296.063, 196.006 296.750 C 196.001 297.734, 207.126 298, 248.313 298 L 300.626 298 308.313 257.219 C 312.541 234.790, 316 215.890, 316 215.219 C 316 214.276, 304.131 214, 263.500 214 C 234.625 214, 211 214.382, 211 214.849" stroke="none" class="tool_gradient_color" fill="url(#gradientColor)" fill-rule="evenodd"/></svg>