<svg xmlns="http://www.w3.org/2000/svg" viewBox="0 0 512 512" version="1.1"><path d="M 74.243 10.491 C 57.438 14.834, 44.037 22.865, 31.500 36.108 C 15.867 52.621, 8.014 72.647, 8.014 96 C 8.014 114.052, 12.293 128.862, 21.726 143.451 C 35.554 164.840, 58.386 179.589, 83.750 183.518 L 88 184.176 88 200.588 C 88 215.859, 87.872 217, 86.160 217 C 82.702 217, 72.011 223.147, 67.334 227.824 C 64.765 230.393, 61.277 235.421, 59.582 238.997 L 56.500 245.500 56.500 272 L 56.500 298.500 59.587 305 C 61.346 308.705, 64.753 313.546, 67.510 316.259 C 72.366 321.036, 82.721 327, 86.160 327 C 87.872 327, 88 328.144, 88 343.500 L 88 360 57.866 360 C 37.034 360, 26.461 360.377, 23.616 361.222 C 18.204 362.830, 10.830 370.204, 9.222 375.616 C 7.568 381.188, 7.498 450.592, 9.141 456.078 C 10.796 461.600, 15.617 466.913, 21.429 469.619 C 25.951 471.725, 27.935 471.982, 39.753 471.990 L 53.007 472 76.573 487.707 C 99.896 503.252, 100.204 503.418, 106.413 503.814 C 110.998 504.106, 113.605 503.749, 116.094 502.490 C 124.945 498.011, 128 492.379, 128 480.540 L 128 472 146.750 471.978 C 163.457 471.958, 165.990 471.734, 170 469.916 C 176.048 467.174, 178.813 464.458, 181.623 458.500 C 183.765 453.956, 183.981 452.154, 183.990 438.750 L 184 424 192.500 424 C 200.087 424, 201 424.198, 201 425.840 C 201 429.279, 206.964 439.634, 211.741 444.490 C 214.454 447.247, 219.295 450.654, 223 452.413 L 229.500 455.500 253.772 455.815 C 281.572 456.175, 284.833 455.630, 294.823 448.960 C 301.648 444.402, 308.360 435.422, 310.265 428.300 L 311.415 424 319.551 424 L 327.687 424 329.403 432.732 C 336.109 466.863, 362.133 493.829, 396.263 502.011 C 406.495 504.464, 422.946 504.643, 433.792 502.420 C 467.805 495.447, 495.447 467.805, 502.420 433.792 C 504.643 422.946, 504.464 406.495, 502.011 396.263 C 493.829 362.133, 466.863 336.109, 432.732 329.403 L 424 327.687 424 311.551 L 424 295.415 428.300 294.265 C 435.422 292.360, 444.402 285.648, 448.960 278.823 C 455.631 268.832, 456.175 265.575, 455.815 237.746 L 455.500 213.448 452.203 206.756 C 450.390 203.076, 446.799 197.957, 444.223 195.381 C 439.676 190.834, 429.298 185.002, 425.750 185.001 C 424.154 185, 424 183.547, 424 168.500 L 424 152 464 152 L 504 152 504 80 L 504 8 416 8 L 328 8 328 48 L 328 88 319.500 88 C 311.913 88, 311 87.802, 311 86.160 C 311 82.702, 304.853 72.011, 300.176 67.334 C 297.607 64.765, 292.579 61.277, 289.003 59.582 L 282.500 56.500 256 56.500 L 229.500 56.500 222.997 59.582 C 219.421 61.277, 214.393 64.765, 211.824 67.334 C 207.147 72.011, 201 82.702, 201 86.160 C 201 87.801, 200.090 88, 192.588 88 L 184.176 88 183.518 83.750 C 178.778 53.153, 158.100 26.316, 130.237 14.597 C 113.397 7.515, 91.866 5.936, 74.243 10.491 M 86.539 25.066 C 62.643 28.734, 43.474 42.249, 32.472 63.185 C 22.084 82.954, 22.084 109.046, 32.472 128.815 C 39.910 142.970, 51.418 154.002, 65.681 160.650 C 75.609 165.277, 84.762 167.279, 96 167.279 C 123.538 167.279, 148.051 152.047, 160.020 127.500 C 165.148 116.982, 167.279 107.737, 167.279 96 C 167.279 68.968, 152.819 45.086, 128.815 32.472 C 116.882 26.202, 99.256 23.114, 86.539 25.066 M 354.167 24.843 C 354.350 25.307, 365.722 39.707, 379.439 56.843 L 404.377 88 416 88 L 427.623 88 452.561 56.843 C 466.278 39.707, 477.650 25.307, 477.833 24.843 C 478.017 24.379, 450.192 24, 416 24 C 381.808 24, 353.983 24.379, 354.167 24.843 M 344 83.392 C 344 118.107, 344.258 126.963, 345.250 126.366 C 346.508 125.610, 385.871 96.276, 387.226 95.086 C 387.741 94.633, 348.637 44.400, 344.408 40.083 C 344.184 39.854, 344 59.343, 344 83.392 M 466 66.998 C 454.175 81.805, 444.686 94.275, 444.914 94.710 C 445.142 95.144, 454.817 102.615, 466.414 111.312 L 487.500 127.123 487.769 104.994 C 487.917 92.822, 487.917 73.237, 487.769 61.471 L 487.500 40.078 466 66.998 M 58.174 58.314 C 56.026 60.601, 56 61.056, 56 96.140 L 56 131.651 58.314 133.826 C 59.693 135.120, 61.920 136, 63.821 136 C 67.324 136, 129.769 105.393, 133.750 101.725 C 135.294 100.302, 136 98.506, 136 96 C 136 93.494, 135.294 91.698, 133.750 90.275 C 132.512 89.135, 116.990 80.957, 99.256 72.101 C 64.833 54.912, 62.201 54.029, 58.174 58.314 M 233.954 73.361 C 228.121 74.934, 223.011 78.856, 220.142 83.962 L 217.872 88 232.936 88 L 248 88 248 96 L 248 104 232.936 104 L 217.872 104 220.142 108.038 C 225.556 117.672, 232.534 120, 256 120 C 279.466 120, 286.444 117.672, 291.858 108.038 L 294.128 104 279.064 104 L 264 104 264 96 L 264 88 279.064 88 L 294.128 88 291.858 83.962 C 288.903 78.703, 283.848 74.927, 277.592 73.304 C 271.084 71.616, 240.275 71.656, 233.954 73.361 M 72 96 C 72 105.900, 72.222 114, 72.493 114 C 73.494 114, 108 96.508, 108 96 C 108 95.492, 73.494 78, 72.493 78 C 72.222 78, 72 86.100, 72 96 M 183.518 108.250 C 178.983 137.524, 161.047 161.982, 134.291 175.375 C 127.219 178.915, 116.672 182.213, 108.250 183.518 L 104 184.176 104 200.380 L 104 216.585 108.300 217.735 C 115.422 219.640, 124.402 226.352, 128.960 233.177 C 135.631 243.168, 136.175 246.425, 135.815 274.254 L 135.500 298.552 132.203 305.244 C 130.390 308.924, 126.799 314.043, 124.223 316.619 C 119.676 321.166, 109.298 326.998, 105.750 326.999 C 104.154 327, 104 328.453, 104 343.500 L 104 360 134.134 360 C 153.821 360, 165.589 360.396, 168.078 361.141 C 173.600 362.796, 178.913 367.617, 181.619 373.429 C 183.763 378.033, 183.981 379.858, 183.990 393.250 L 184 408 192.500 408 C 200.087 408, 201 407.802, 201 406.160 C 201 402.702, 207.147 392.011, 211.824 387.334 C 214.393 384.765, 219.421 381.277, 222.997 379.582 L 229.500 376.500 256 376.500 L 282.500 376.500 289.003 379.582 C 292.579 381.277, 297.607 384.765, 300.176 387.334 C 304.853 392.011, 311 402.702, 311 406.160 C 311 407.800, 311.908 408, 319.344 408 L 327.687 408 329.403 399.268 C 336.327 364.030, 364.030 336.327, 399.268 329.403 L 408 327.687 408 311.344 C 408 296.140, 407.872 295, 406.160 295 C 402.721 295, 392.366 289.036, 387.510 284.259 C 384.753 281.546, 381.346 276.705, 379.587 273 L 376.500 266.500 376.500 240 L 376.500 213.500 379.582 206.997 C 381.277 203.421, 384.765 198.393, 387.334 195.824 C 392.011 191.147, 402.702 185, 406.160 185 C 407.872 185, 408 183.856, 408 168.500 L 408 152 368 152 L 328 152 328 128 L 328 104 319.500 104 C 311.913 104, 311 104.198, 311 105.840 C 311 109.279, 305.036 119.634, 300.259 124.490 C 297.546 127.247, 292.705 130.654, 289 132.413 L 282.500 135.500 258.228 135.815 C 230.428 136.175, 227.167 135.630, 217.177 128.960 C 210.352 124.402, 203.640 115.422, 201.735 108.300 L 200.585 104 192.380 104 L 184.176 104 183.518 108.250 M 382 120 L 360.662 136 416 136 L 471.338 136 450 120 L 428.662 104 416 104 L 403.338 104 382 120 M 236.156 153.479 C 224.475 156.119, 219.228 157.976, 209.333 162.974 C 187.342 174.081, 172.099 189.807, 161.447 212.377 C 154.113 227.918, 152.534 235.647, 152.534 256 C 152.534 276.353, 154.113 284.082, 161.447 299.623 C 175.476 329.348, 198.854 348.581, 232 357.665 C 237.086 359.059, 242.307 359.446, 256 359.443 C 276.371 359.439, 284.154 357.853, 299.623 350.553 C 312.125 344.652, 320.064 339.094, 329.579 329.579 C 339.094 320.064, 344.652 312.125, 350.553 299.623 C 357.855 284.149, 359.440 276.371, 359.440 256 C 359.440 240.900, 359.125 237.334, 357.149 230 C 354.435 219.930, 347.933 205.757, 341.953 196.877 C 336.445 188.698, 323.302 175.555, 315.123 170.047 C 306.420 164.186, 292.143 157.590, 282.500 154.975 C 272.038 152.137, 245.837 151.291, 236.156 153.479 M 251.312 169.953 C 248.869 171.058, 245.795 173.650, 243.936 176.173 C 240.447 180.910, 234.477 192.896, 233.439 197.250 L 232.783 200 256 200 L 279.217 200 278.561 197.250 C 277.532 192.936, 271.566 180.927, 268.145 176.286 C 263.035 169.352, 257.360 167.217, 251.312 169.953 M 217.751 177.482 C 209.164 181.729, 199.862 188.424, 193.538 194.910 L 188.575 200 201.647 200 L 214.719 200 216.893 193.375 C 218.089 189.732, 220.412 184.041, 222.055 180.730 C 223.698 177.418, 224.917 174.584, 224.764 174.431 C 224.611 174.278, 221.455 175.651, 217.751 177.482 M 287 174.454 C 287 174.641, 288.335 177.485, 289.966 180.773 C 291.597 184.061, 293.911 189.732, 295.107 193.375 L 297.281 200 310.357 200 L 323.432 200 317.966 194.426 C 311.962 188.302, 299.177 179.402, 291.750 176.176 C 289.137 175.041, 287 174.266, 287 174.454 M 403.415 204.479 C 398.396 207.474, 394.437 213.034, 393.076 219 C 391.755 224.787, 391.740 255.162, 393.055 260.865 C 394.430 266.825, 398.924 273.033, 403.878 275.814 L 408 278.128 408 263.064 L 408 248 416 248 L 424 248 424 263.064 L 424 278.128 428.038 275.858 C 437.672 270.444, 440 263.466, 440 240 C 440 216.534, 437.672 209.556, 428.038 204.142 L 424 201.872 424 216.936 L 424 232 416.026 232 L 408.052 232 407.776 217.021 L 407.500 202.042 403.415 204.479 M 176.017 220.461 C 173.153 227.141, 170.328 236.843, 169.525 242.750 L 168.812 248 188.192 248 L 207.572 248 208.790 234.250 C 209.461 226.688, 210.284 219.488, 210.621 218.250 L 211.233 216 194.581 216 L 177.929 216 176.017 220.461 M 227.077 222.477 C 226.457 226.040, 225.668 233.240, 225.324 238.477 L 224.698 248 256 248 L 287.302 248 286.676 238.477 C 286.332 233.240, 285.543 226.040, 284.923 222.477 L 283.795 216 256 216 L 228.205 216 227.077 222.477 M 301.379 218.250 C 301.716 219.488, 302.539 226.688, 303.210 234.250 L 304.428 248 323.808 248 L 343.188 248 342.475 242.750 C 341.672 236.843, 338.847 227.141, 335.983 220.461 L 334.071 216 317.419 216 L 300.767 216 301.379 218.250 M 83.415 236.479 C 78.396 239.474, 74.437 245.034, 73.076 251 C 71.755 256.787, 71.740 287.162, 73.055 292.865 C 74.430 298.825, 78.924 305.033, 83.878 307.814 L 88 310.128 88 295.064 L 88 280 96 280 L 104 280 104 295.064 L 104 310.128 108.038 307.858 C 117.672 302.444, 120 295.466, 120 272 C 120 248.534, 117.672 241.556, 108.038 236.142 L 104 233.872 104 248.936 L 104 264 96.026 264 L 88.052 264 87.776 249.021 L 87.500 234.042 83.415 236.479 M 169.407 269.011 C 170.155 274.646, 173.146 284.842, 176.017 291.539 L 177.929 296 194.581 296 L 211.233 296 210.621 293.750 C 210.284 292.512, 209.461 285.313, 208.790 277.750 L 207.572 264 188.157 264 L 168.742 264 169.407 269.011 M 225.324 273.523 C 225.668 278.760, 226.457 285.960, 227.077 289.523 L 228.205 296 256.103 296 C 271.446 296, 284.014 295.663, 284.032 295.250 C 284.049 294.837, 284.715 290, 285.512 284.500 C 286.309 279, 286.970 272.137, 286.981 269.250 L 287 264 255.849 264 L 224.698 264 225.324 273.523 M 303.210 277.750 C 302.539 285.313, 301.716 292.512, 301.379 293.750 L 300.767 296 317.419 296 L 334.071 296 335.983 291.539 C 338.847 284.859, 341.672 275.157, 342.475 269.250 L 343.188 264 323.808 264 L 304.428 264 303.210 277.750 M 194.034 317.574 C 200.038 323.698, 212.823 332.598, 220.250 335.824 C 222.863 336.959, 225 337.734, 225 337.546 C 225 337.359, 223.665 334.515, 222.034 331.227 C 220.403 327.939, 218.089 322.268, 216.893 318.625 L 214.719 312 201.643 312 L 188.568 312 194.034 317.574 M 233.439 314.750 C 234.478 319.107, 240.448 331.091, 243.944 335.837 C 245.914 338.512, 248.836 340.925, 251.569 342.134 C 255.970 344.080, 256.030 344.080, 260.431 342.134 C 263.164 340.925, 266.086 338.512, 268.056 335.837 C 271.552 331.091, 277.522 319.107, 278.561 314.750 L 279.217 312 256 312 L 232.783 312 233.439 314.750 M 295.107 318.625 C 293.911 322.268, 291.597 327.939, 289.966 331.227 C 288.335 334.515, 287 337.359, 287 337.546 C 287 337.734, 289.137 336.959, 291.750 335.824 C 299.177 332.598, 311.962 323.698, 317.966 317.574 L 323.432 312 310.357 312 L 297.281 312 295.107 318.625 M 406.539 345.066 C 382.643 348.734, 363.474 362.249, 352.472 383.185 C 342.060 402.999, 342.109 429.094, 352.596 449.050 C 355.135 453.883, 356.819 456, 358.124 456 C 359.920 456, 360 454.629, 360 424 L 360 392 376 392 L 392 392 392 376 L 392 360 416 360 L 440 360 440 384 L 440 408 456 408 L 472 408 472 432 C 472 455.217, 472.064 456, 473.971 456 C 475.452 456, 476.937 453.945, 479.932 447.750 C 485.050 437.164, 487.184 427.885, 487.234 416 C 487.346 389.072, 472.851 365.102, 448.815 352.472 C 436.882 346.202, 419.256 343.114, 406.539 345.066 M 29.020 377.273 C 24.121 379.774, 23.970 381.038, 24.244 417.223 C 24.562 459.184, 22.592 455.361, 44.145 455.824 L 59.241 456.148 82.367 471.574 C 95.087 480.058, 106.491 487, 107.711 487 C 111.256 487, 112 483.986, 112 469.614 L 112 456.096 137.474 455.798 C 162.458 455.506, 162.992 455.456, 165.224 453.222 L 167.500 450.944 167.500 416 L 167.500 381.056 165.223 378.778 L 162.945 376.500 97.223 376.253 C 45.765 376.060, 30.962 376.281, 29.020 377.273 M 408 416 L 408 456 416 456 L 424 456 424 416 L 424 376 416 376 L 408 376 408 416 M 40 400 L 40 408 80 408 L 120 408 120 400 L 120 392 80 392 L 40 392 40 400 M 136 400 L 136 408 144 408 L 152 408 152 400 L 152 392 144 392 L 136 392 136 400 M 233.954 393.361 C 228.121 394.934, 223.011 398.856, 220.142 403.962 L 217.872 408 232.936 408 L 248 408 248 416 L 248 424 232.936 424 L 217.872 424 220.142 428.038 C 225.556 437.672, 232.534 440, 256 440 C 279.466 440, 286.444 437.672, 291.858 428.038 L 294.128 424 279.064 424 L 264 424 264 416 L 264 408 279.064 408 L 294.128 408 291.858 403.962 C 288.903 398.703, 283.848 394.927, 277.592 393.304 C 271.084 391.616, 240.275 391.656, 233.954 393.361 M 376 432 L 376 456 384 456 L 392 456 392 432 L 392 408 384 408 L 376 408 376 432 M 40 432 L 40 440 96 440 L 152 440 152 432 L 152 424 96 424 L 40 424 40 432 M 440 440 L 440 456 448 456 L 456 456 456 440 L 456 424 448 424 L 440 424 440 440 M 375.056 474.564 C 380.559 478.662, 391.975 483.790, 399.528 485.557 C 408.410 487.636, 423.521 487.653, 432.319 485.593 C 440.007 483.793, 451.779 478.547, 456.944 474.619 L 460.389 472 416 472 L 371.611 472 375.056 474.564" stroke="none" id="tool_gradient_color" fill-rule="evenodd"/></svg>