<svg xmlns="http://www.w3.org/2000/svg" viewBox="0 0 486 398" version="1.1"><defs><linearGradient id="gradientColor" x1="0%" y1="0%" x2="0%" y2="100%"><stop offset="0%" style="stop-color:rgb(255, 255, 255);stop-opacity:1" /><stop offset="100%" style="stop-color:rgb(255, 0, 0);stop-opacity:1" /></linearGradient></defs><path d="M 50.691 8.501 C 32.280 13.562, 16.922 29.503, 12.537 48.103 C 10.264 57.748, 10.264 340.252, 12.537 349.897 C 16.979 368.741, 32.371 384.554, 51.131 389.547 C 59.183 391.690, 432.817 391.690, 440.869 389.547 C 459.629 384.554, 475.021 368.741, 479.463 349.897 C 481.736 340.252, 481.736 57.748, 479.463 48.103 C 475.021 29.259, 459.629 13.446, 440.869 8.453 C 433.174 6.405, 58.148 6.451, 50.691 8.501 M 55.365 30.084 C 50.521 31.496, 42.911 37.046, 39.309 41.794 C 34.021 48.765, 33 54.005, 33 74.182 L 33 92 246.075 92 L 459.150 92 458.825 72.250 C 458.508 52.993, 458.431 52.359, 455.720 46.839 C 452.667 40.623, 447.415 35.328, 440.795 31.793 L 436.500 29.500 247.500 29.335 C 135.779 29.237, 57.218 29.544, 55.365 30.084 M 60.378 50.398 C 56.042 52.339, 54 55.676, 54 60.821 C 54 72.796, 71.185 75.061, 74.972 63.585 C 76.403 59.250, 75.530 55.882, 72.133 52.627 C 68.761 49.397, 64.443 48.578, 60.378 50.398 M 103.500 49.954 C 100.865 51.044, 97.402 54.932, 96.543 57.766 C 96.165 59.012, 96.370 61.592, 97 63.500 C 100.826 75.094, 118 72.759, 118 60.646 C 118 55.569, 115.872 52.262, 111.401 50.394 C 107.660 48.831, 106.387 48.760, 103.500 49.954 M 145.315 50.464 C 141.648 52.058, 139 56.498, 139 61.050 C 139 63.299, 139.973 65.173, 142.400 67.600 C 145.187 70.387, 146.557 71, 150 71 C 153.443 71, 154.813 70.387, 157.600 67.600 C 160.027 65.173, 161 63.299, 161 61.050 C 161 56.386, 158.324 52.033, 154.466 50.421 C 150.326 48.692, 149.379 48.696, 145.315 50.464 M 33.234 229.750 L 33.500 345.500 36.280 351.161 C 39.333 357.377, 44.585 362.672, 51.205 366.207 L 55.500 368.500 246 368.500 L 436.500 368.500 440.795 366.207 C 447.415 362.672, 452.667 357.377, 455.720 351.161 L 458.500 345.500 458.766 229.750 L 459.033 114 246 114 L 32.967 114 33.234 229.750 M 271.577 169.118 C 268.163 171.803, 202.998 301.641, 203.004 305.747 C 203.014 313.420, 211.083 318.663, 218.264 315.663 C 221.825 314.175, 222.909 312.176, 255.466 247.068 C 277.898 202.207, 289 178.979, 289 176.903 C 289 174.707, 288.006 172.806, 285.600 170.400 C 281.441 166.241, 275.881 165.733, 271.577 169.118 M 156.500 178.401 C 152.347 180.340, 98.348 234.819, 97.006 238.424 C 96.407 240.032, 96.178 242.534, 96.496 243.984 C 96.873 245.700, 107.452 256.975, 126.826 276.310 C 153.650 303.079, 156.898 306, 159.838 306 C 164.677 306, 168.952 303.359, 170.635 299.330 C 173.472 292.541, 172.649 291.368, 146.905 265.483 L 123.018 241.465 146.110 218.483 C 159.090 205.564, 169.839 194.031, 170.658 192.146 C 172.508 187.885, 171.668 184.014, 168.165 180.658 C 164.770 177.406, 160.430 176.566, 156.500 178.401 M 327.500 177.954 C 324.865 179.044, 321.402 182.932, 320.543 185.766 C 319.030 190.753, 321.746 194.262, 345.487 217.987 L 368.982 241.466 345.095 265.483 C 319.351 291.368, 318.528 292.541, 321.365 299.330 C 324.047 305.749, 331.701 307.823, 337.679 303.750 C 342.266 300.624, 394.320 247.279, 395.288 244.711 C 397.266 239.465, 395.493 237.202, 366.648 208.143 C 351.160 192.540, 337.053 179.160, 335.282 178.393 C 331.675 176.831, 330.390 176.759, 327.500 177.954" stroke="none" id="tool_gradient_color" fill="url(#gradientColor)" fill-rule="evenodd"/></svg>