<svg xmlns="http://www.w3.org/2000/svg" viewBox="0 0 512 512" version="1.1"><path d="M 178.275 1.539 C 163.460 5.529, 149.218 17.339, 142.747 31 C 140.793 35.125, 138.700 40.885, 138.097 43.799 C 137.437 46.989, 137 61.616, 137 80.549 L 137 112 102.401 112 C 63.703 112, 62.568 112.175, 59.512 118.615 C 57.326 123.223, 58.911 128.365, 63.353 131.074 C 66.298 132.869, 68.761 132.993, 101.750 132.996 L 137 133 137 148.500 L 137 164 102.401 164 C 63.703 164, 62.568 164.175, 59.512 170.615 C 57.326 175.223, 58.911 180.365, 63.353 183.074 C 66.298 184.869, 68.761 184.993, 101.750 184.996 L 137 185 137 200.500 L 137 216 102.401 216 C 63.703 216, 62.568 216.175, 59.512 222.615 C 57.326 227.223, 58.911 232.365, 63.353 235.074 C 66.298 236.869, 68.761 236.993, 101.750 236.996 L 137 237 137 252.500 L 137 268 102.401 268 C 63.703 268, 62.568 268.175, 59.512 274.615 C 57.326 279.223, 58.911 284.365, 63.353 287.074 C 66.298 288.870, 68.761 288.993, 101.766 288.996 L 137.033 289 136.766 315.671 L 136.500 342.343 130.512 343.702 C 105.786 349.316, 87.827 370.757, 85.398 397.563 C 84.760 404.602, 84.544 405.119, 81.437 407.039 C 76.102 410.336, 67.708 420.125, 63.740 427.676 C 46.402 460.670, 64.324 501.035, 100.495 510.457 C 105.701 511.813, 123.467 511.998, 246.960 511.983 C 398.722 511.964, 393.423 512.140, 406.965 506.670 C 446.599 490.661, 465.408 445.791, 449.082 406.198 C 440.288 384.873, 422.591 369.218, 398.965 361.865 C 392.827 359.954, 389.242 359.537, 378.791 359.521 L 366.082 359.500 364.394 355 C 355.106 330.242, 336.768 309.007, 312.976 295.459 C 302.791 289.660, 295.557 290.751, 293.010 298.471 C 291.211 303.921, 293.959 308.677, 301.118 312.500 C 314.816 319.815, 327.285 331.302, 336.029 344.661 C 341.060 352.347, 346.416 364.518, 345.453 366.076 C 345.129 366.600, 342.982 367.986, 340.682 369.156 C 326.653 376.292, 310 395.454, 310 404.460 C 310 406.262, 311.207 408.407, 313.528 410.728 C 316.689 413.889, 317.473 414.200, 321.067 413.718 C 325.976 413.059, 327.181 412.097, 332.024 404.965 C 352.088 375.420, 392.619 371.362, 417.578 396.400 C 429.837 408.698, 434.669 421.430, 433.743 438.996 C 432.457 463.378, 417.223 482.172, 392.505 489.869 C 388.099 491.241, 371.360 491.465, 252.599 491.745 C 171.439 491.936, 114.980 491.686, 110.876 491.117 C 97.509 489.264, 87.024 481.859, 81.318 470.239 C 78.798 465.106, 78.500 463.444, 78.500 454.500 C 78.500 445.752, 78.834 443.787, 81.170 438.804 C 84.403 431.907, 91.073 425.010, 97.814 421.594 C 100.558 420.204, 103.798 417.814, 105.016 416.283 C 107.014 413.770, 107.171 412.741, 106.640 405.679 C 105.102 385.239, 115.202 369.776, 133.579 364.434 C 140.397 362.452, 150.525 362.925, 156.616 365.509 C 161.556 367.605, 166.373 367.641, 169.481 365.604 C 170.821 364.726, 173.955 359.906, 176.446 354.893 C 186.155 335.354, 200.156 321.026, 218.706 311.644 C 225.802 308.055, 228 305.485, 228 300.776 C 228 295.636, 225.598 292.259, 220.951 290.867 C 217.419 289.809, 216.532 290, 209.512 293.334 C 191.821 301.736, 173.292 318.636, 163.250 335.533 L 158 344.366 158.006 196.933 C 158.010 92.756, 158.334 48.337, 159.112 45.536 C 161.873 35.591, 171.154 25.947, 181.500 22.275 C 186.105 20.640, 191.984 20.500, 256 20.500 C 320.016 20.500, 325.895 20.640, 330.500 22.275 C 340.846 25.947, 350.127 35.591, 352.888 45.536 C 353.662 48.322, 353.992 86.659, 354 174.500 C 354.007 257.070, 354.360 300.757, 355.040 303.205 C 357.620 312.494, 369.530 313.828, 373.883 305.316 C 374.497 304.114, 375 299.952, 375 296.066 L 375 289 410.250 288.996 C 443.239 288.993, 445.702 288.869, 448.647 287.074 C 453.089 284.365, 454.674 279.223, 452.488 274.615 C 449.432 268.175, 448.297 268, 409.599 268 L 375 268 375 252.500 L 375 237 410.250 236.996 C 443.239 236.993, 445.702 236.869, 448.647 235.074 C 453.089 232.365, 454.674 227.223, 452.488 222.615 C 449.432 216.175, 448.297 216, 409.599 216 L 375 216 375 200.500 L 375 185 410.250 184.996 C 443.239 184.993, 445.702 184.869, 448.647 183.074 C 453.089 180.365, 454.674 175.223, 452.488 170.615 C 449.432 164.175, 448.297 164, 409.599 164 L 375 164 375 148.500 L 375 133 410.250 132.996 C 443.239 132.993, 445.702 132.869, 448.647 131.074 C 453.089 128.365, 454.674 123.223, 452.488 118.615 C 449.432 112.175, 448.297 112, 409.599 112 L 375 112 375 92.936 L 375 73.873 420.750 74.232 C 473.832 74.650, 472.599 74.454, 482.090 83.936 C 492.359 94.194, 491.500 80.081, 491.500 238.500 C 491.500 314.400, 491.140 378.602, 490.700 381.172 C 490.229 383.926, 488.201 388.441, 485.759 392.172 C 480.354 400.432, 480.097 404.910, 484.789 409.102 C 489.608 413.408, 494.528 413.139, 499.362 408.305 C 503.431 404.236, 509.571 392.806, 510.581 387.419 C 510.936 385.526, 511.626 383.731, 512.113 383.430 C 512.622 383.115, 513 321.529, 513 238.882 C 513 154.959, 512.629 95.112, 512.110 95.432 C 511.620 95.735, 510.930 94.443, 510.577 92.561 C 508.482 81.390, 496.685 66.290, 485.377 60.302 C 473.520 54.025, 473.273 54, 422.044 54 L 375.451 54 374.239 46.383 C 370.901 25.401, 354.015 6.885, 333.297 1.489 C 325.061 -0.656, 186.258 -0.611, 178.275 1.539 M 36 56.276 C 21.908 61.098, 11.573 70.016, 5.250 82.808 L 1.500 90.396 1.500 240 L 1.500 389.604 5.316 397.325 C 11.758 410.359, 25.413 421.969, 34.327 421.991 C 39.686 422.004, 44 417.682, 44 412.299 C 44 407.540, 41.992 404.547, 37.139 402.071 C 32.238 399.570, 25.363 392.023, 22.661 386.176 L 20.500 381.500 20.500 241 C 20.500 79.735, 19.633 94.202, 29.910 83.936 C 38.904 74.952, 39.818 74.765, 78.230 74.082 L 110.959 73.500 113.616 70.841 C 117.600 66.854, 117.380 60.622, 113.121 56.816 L 109.968 54 76.234 54.026 C 44.018 54.050, 42.208 54.152, 36 56.276 M 204.923 66.923 C 202.631 69.216, 202 70.742, 202 74 C 202 77.258, 202.631 78.784, 204.923 81.077 L 207.846 84 256 84 L 304.154 84 307.077 81.077 C 311.193 76.961, 311.193 71.039, 307.077 66.923 L 304.154 64 256 64 L 207.846 64 204.923 66.923 M 204.923 118.923 C 202.631 121.216, 202 122.742, 202 126 C 202 129.258, 202.631 130.784, 204.923 133.077 L 207.846 136 256 136 L 304.154 136 307.077 133.077 C 311.193 128.961, 311.193 123.039, 307.077 118.923 L 304.154 116 256 116 L 207.846 116 204.923 118.923 M 204.923 170.923 C 202.631 173.216, 202 174.742, 202 178 C 202 181.258, 202.631 182.784, 204.923 185.077 L 207.846 188 256 188 L 304.154 188 307.077 185.077 C 311.193 180.961, 311.193 175.039, 307.077 170.923 L 304.154 168 256 168 L 207.846 168 204.923 170.923 M 204.923 222.923 C 202.631 225.216, 202 226.742, 202 230 C 202 233.258, 202.631 234.784, 204.923 237.077 L 207.846 240 256 240 L 304.154 240 307.077 237.077 C 311.193 232.961, 311.193 227.039, 307.077 222.923 L 304.154 220 256 220 L 207.846 220 204.923 222.923 M 256.313 282.170 C 248.831 284.176, 246.510 293.356, 252.077 298.923 C 256.075 302.922, 261.472 303.156, 265.794 299.520 C 274.274 292.384, 267.110 279.276, 256.313 282.170 M 102.296 312.432 C 96.952 313.727, 91.202 317.358, 87.276 321.918 C 84.332 325.336, 81 334.195, 81 338.603 C 81 352.790, 99.100 354.205, 101.466 340.202 C 102.304 335.241, 105.249 332.536, 110.773 331.652 C 120.804 330.048, 122.804 316.323, 113.568 312.464 C 109.497 310.763, 109.182 310.762, 102.296 312.432 M 399.284 311.680 C 396.129 312.321, 392 317.620, 392 321.030 C 392 327.095, 395.747 330.911, 403.222 332.460 C 406.506 333.141, 410 336.660, 410 339.287 C 410 342.566, 412.984 347.672, 415.595 348.861 C 419.855 350.802, 423.724 350.218, 427.204 347.109 C 430.121 344.502, 430.431 343.689, 430.361 338.823 C 430.211 328.466, 423.379 318.103, 414.107 314.169 C 409.078 312.034, 402.764 310.974, 399.284 311.680 M 305.212 433.225 C 301.596 434.162, 298.010 438.933, 298.004 442.816 C 297.995 448.343, 302.627 452.944, 308.234 452.978 C 317.045 453.030, 321.695 441.968, 315.476 435.748 C 312.481 432.754, 309.683 432.066, 305.212 433.225" stroke="none" class="tool_gradient_color" fill-rule="evenodd"/></svg>