<svg xmlns="http://www.w3.org/2000/svg" viewBox="0 0 512 512" version="1.1"><defs><linearGradient id="gradientColor" x1="0%" y1="0%" x2="0%" y2="100%"><stop offset="0%" style="stop-color:rgb(255, 255, 255);stop-opacity:1" /><stop offset="100%" style="stop-color:rgb(255, 0, 0);stop-opacity:1" /></linearGradient></defs><path d="M 21.139 2.158 C 13.690 5.027, 4.931 13.896, 2.115 21.423 L -0 27.075 -0 179 L -0 330.925 2.122 336.712 C 3.697 341.007, 5.831 344.068, 10.397 348.579 C 21.043 359.099, 15.339 358.437, 98.250 358.773 L 170 359.063 170.015 415.782 C 170.031 477.477, 170.235 480.149, 175.691 490.174 C 179.373 496.938, 187.755 504.516, 195.741 508.299 L 202.500 511.500 341.500 511.500 L 480.500 511.500 487.274 508.291 C 491.481 506.299, 496.139 502.992, 499.565 499.565 C 502.992 496.139, 506.299 491.481, 508.291 487.274 L 511.500 480.500 512.120 395.500 C 512.461 348.750, 512.690 246.150, 512.629 167.500 C 512.536 48.681, 512.432 38.351, 512.009 106.411 C 511.580 175.403, 511.298 187.567, 510.222 183.540 C 506.425 169.340, 492.490 156.938, 477.040 154.008 C 474.118 153.453, 465.501 153, 457.892 153 L 444.057 153 443.778 89.250 L 443.500 25.500 440.830 19.804 C 437.578 12.866, 431.201 6.295, 424.500 2.976 L 419.500 0.500 223 0.297 C 26.607 0.094, 26.497 0.095, 21.139 2.158 M 32.621 17.714 C 31.081 18.109, 32.159 19.622, 38.598 26.098 L 46.453 34 222 34 L 397.547 34 405.361 26.140 C 412.654 18.804, 413.020 18.237, 410.838 17.653 C 408.134 16.929, 35.446 16.989, 32.621 17.714 M 0.487 179 C 0.487 263.425, 0.606 297.963, 0.750 255.750 C 0.894 213.538, 0.894 144.463, 0.750 102.250 C 0.606 60.038, 0.487 94.575, 0.487 179 M 17.653 33.162 C 16.826 36.254, 16.813 323.349, 17.640 325.505 C 18.149 326.831, 19.896 325.568, 26.140 319.360 L 34 311.547 34 179 L 34 46.453 26.140 38.639 C 18.804 31.346, 18.237 30.980, 17.653 33.162 M 417.727 38.772 L 410 46.544 410 99.772 L 410 153 418 153 L 426 153 426 92 C 426 58.450, 425.877 31, 425.727 31 C 425.576 31, 421.976 34.497, 417.727 38.772 M 52 151.746 L 52 251.492 98.750 204.787 C 134.174 169.397, 146.590 157.593, 150 156.063 C 153.216 154.620, 156.666 154.038, 162.090 154.022 C 168.550 154.003, 170.575 154.447, 175.686 157.001 C 178.989 158.652, 182.480 160.873, 183.443 161.937 C 185.166 163.841, 185.258 163.825, 189.202 160.968 C 191.407 159.372, 195.751 157.038, 198.855 155.782 L 204.500 153.500 298.250 153.221 L 392 152.941 392 102.471 L 392 52 222 52 L 52 52 52 151.746 M 94.500 70 C 67.025 79.181, 59.025 114.783, 80.023 134.425 C 82.796 137.018, 87.637 140.346, 90.782 141.820 C 95.850 144.195, 97.693 144.499, 107 144.494 C 116.499 144.488, 118.053 144.217, 123.297 141.649 C 130.691 138.028, 138.015 130.707, 141.652 123.301 C 144.234 118.042, 144.500 116.518, 144.500 107 C 144.500 97.701, 144.193 95.846, 141.820 90.782 C 138.104 82.854, 131.050 75.642, 123.260 71.807 C 114.791 67.638, 103.662 66.939, 94.500 70 M 295 68.876 C 289.243 70.770, 283.993 74.201, 280.122 78.599 C 277.855 81.174, 276 83.691, 276 84.192 C 276 84.692, 274.313 85.806, 272.250 86.667 C 262.032 90.932, 256 99.864, 256 110.728 C 256 121.176, 260.329 128.648, 269.246 133.589 L 274.500 136.500 304.807 136.804 C 340.902 137.167, 343.336 136.759, 351.031 129.064 C 354.503 125.592, 356.290 122.763, 357.425 118.941 C 359.378 112.365, 359.396 109.690, 357.529 103.432 C 354.622 93.690, 345.698 86.340, 335.498 85.288 C 330.711 84.794, 329.699 84.319, 328.502 82.003 C 326.689 78.499, 321.058 73.583, 315.722 70.848 C 311.152 68.505, 299.497 67.396, 295 68.876 M 96.907 88.327 C 82.708 95.823, 82.388 117.448, 96.369 124.695 C 105.388 129.369, 114.141 128.106, 121.124 121.124 C 128.069 114.178, 129.370 105.356, 124.754 96.500 C 119.755 86.909, 106.797 83.105, 96.907 88.327 M 295.898 88.287 C 293.728 89.747, 292.032 92.005, 291.204 94.537 C 289.478 99.816, 287.186 101.941, 282.440 102.664 C 276.928 103.504, 274 106.431, 274 111.102 C 274 113.965, 274.625 115.346, 276.635 116.927 C 279.159 118.913, 280.454 119, 307.524 119 C 339.249 119, 339.510 118.943, 340.649 111.823 C 341.140 108.760, 340.808 107.718, 338.664 105.573 C 336.409 103.318, 335.252 102.998, 329.295 102.985 C 320.327 102.966, 318.073 101.693, 314.779 94.786 C 310.607 86.040, 303.085 83.450, 295.898 88.287 M 157.500 172.146 C 156.400 172.743, 132.213 196.465, 103.750 224.862 L 52 276.493 52 291.746 L 52 307 110.956 307 L 169.912 307 170.229 247.250 C 170.522 192.123, 170.688 187.129, 172.384 182.701 C 174.115 178.179, 174.123 177.794, 172.520 176.022 C 168.670 171.768, 161.572 169.936, 157.500 172.146 M 205.718 172.430 C 197.689 175.310, 192.295 180.706, 189.437 188.718 C 188.555 191.191, 188.073 197.431, 188.044 206.750 L 188 221 341.634 221 L 495.268 221 494.780 205.750 C 494.446 195.288, 493.815 189.378, 492.771 186.927 C 490.651 181.947, 485.442 176.285, 480.595 173.691 L 476.500 171.500 343 171.286 C 232.709 171.110, 208.842 171.309, 205.718 172.430 M 211 187.689 C 205.800 189.673, 203.425 194.688, 205.422 199.467 C 209.115 208.307, 222 206.079, 222 196.601 C 222 190.842, 215.832 185.845, 211 187.689 M 245 187.685 C 238.787 190.043, 236.892 197.983, 241.455 202.545 C 246.966 208.057, 256 204.128, 256 196.220 C 256 190.516, 249.937 185.812, 245 187.685 M 278.357 187.970 C 269.710 191.546, 272.193 205, 281.500 205 C 289.271 205, 293.132 195.811, 287.673 190.311 C 285.080 187.699, 281.305 186.751, 278.357 187.970 M 320.359 188.414 C 314.460 191.039, 313.773 199.626, 319.159 203.399 C 321.073 204.739, 324.752 205, 341.768 205 C 362.012 205, 362.100 204.990, 364.545 202.545 C 367.822 199.269, 367.840 194.089, 364.589 190.306 L 362.177 187.500 342.839 187.258 C 328.019 187.073, 322.766 187.343, 320.359 188.414 M 188 355.318 C 188 484.527, 187.686 478.326, 194.620 486.001 C 196.549 488.136, 200.236 490.922, 202.814 492.192 L 207.500 494.500 340.500 494.500 C 447.160 494.500, 474.227 494.242, 477.171 493.199 C 483.692 490.887, 488.597 486.522, 491.641 480.323 L 494.500 474.500 494.774 356.750 L 495.048 239 341.524 239 L 188 239 188 355.318 M 206.974 258.527 C 201.699 264.143, 205.521 273, 213.220 273 C 218.390 273, 222 269.505, 222 264.500 C 222 256.758, 212.270 252.890, 206.974 258.527 M 241.455 258.455 L 239 260.909 239 367 L 239 473.091 241.455 475.545 C 243.149 477.240, 245.021 478, 247.500 478 C 249.979 478, 251.851 477.240, 253.545 475.545 L 256 473.091 256 367 L 256 260.909 253.545 258.455 C 250.206 255.115, 244.794 255.115, 241.455 258.455 M 275.455 258.455 C 273.760 260.149, 273 262.021, 273 264.500 C 273 266.979, 273.760 268.851, 275.455 270.545 L 277.909 273 350 273 L 422.091 273 424.545 270.545 C 425.895 269.195, 427 266.923, 427 265.496 C 427 262.195, 424.559 257.429, 422.455 256.621 C 421.565 256.280, 388.678 256, 349.373 256 L 277.909 256 275.455 258.455 M 207.463 292.278 C 203.716 295.501, 203.631 301.085, 207.273 304.727 C 212.903 310.357, 222 306.448, 222 298.399 C 222 290.972, 213.260 287.292, 207.463 292.278 M 292.455 292.455 C 289.178 295.731, 289.160 300.911, 292.412 304.694 L 294.824 307.500 321.662 307.822 C 339.351 308.035, 349.776 307.766, 352.244 307.034 C 359.189 304.974, 360.919 296.441, 355.288 292.012 C 352.859 290.101, 351.274 290, 323.820 290 L 294.909 290 292.455 292.455 M 377.589 293.077 C 376.165 294.769, 375 297.041, 375 298.126 C 375 301.663, 377.856 305.754, 381.119 306.892 C 386.132 308.639, 434.149 308.382, 438.452 306.585 C 444.538 304.042, 445.960 297.232, 441.364 292.636 L 438.727 290 409.453 290 L 380.178 290 377.589 293.077 M 208.656 325.133 C 207.642 325.722, 206.167 327.750, 205.377 329.640 C 201.519 338.874, 213.830 346.117, 220.016 338.253 C 225.952 330.706, 216.952 320.311, 208.656 325.133 M 275.455 326.455 C 272.004 329.905, 272.062 335.770, 275.580 339.076 L 278.160 341.500 331.581 341.775 C 389.907 342.076, 389.879 342.079, 392.043 336.387 C 393.620 332.240, 393.154 330.001, 390.077 326.923 L 387.154 324 332.531 324 L 277.909 324 275.455 326.455 M 412.712 326.012 C 409.376 328.636, 408.434 333.005, 410.389 336.786 C 412.890 341.622, 415.714 342.157, 436.946 341.812 L 456.177 341.500 458.589 338.694 C 461.220 335.632, 461.752 330.562, 459.718 327.913 C 457.039 324.424, 454.329 324, 434.701 324 C 416.745 324, 415.076 324.153, 412.712 326.012 M 38.500 333 L 30.547 341 100.273 341 L 170 341 170 333 L 170 325 108.227 325 L 46.453 325 38.500 333 M 209.206 359.048 C 203.391 361.381, 203.295 371.550, 209.059 374.530 C 213.268 376.707, 215.817 376.337, 219.077 373.077 C 226.435 365.719, 218.980 355.125, 209.206 359.048 M 301.712 360.012 C 296.566 364.060, 297.695 372.388, 303.727 374.887 C 305.782 375.738, 319.952 375.980, 355.862 375.778 L 405.174 375.500 407.587 372.694 C 410.924 368.814, 410.741 364.587, 407.077 360.923 L 404.154 358 354.212 358 C 305.683 358, 304.197 358.057, 301.712 360.012 M 208.856 393.516 C 201.013 397.777, 204.819 410, 213.988 410 C 215.010 410, 217.231 408.835, 218.923 407.411 C 223.117 403.882, 223.177 399.023, 219.077 394.923 C 215.874 391.720, 212.913 391.312, 208.856 393.516 M 276.077 394.589 C 271.182 398.708, 271.982 405.799, 277.684 408.837 C 279.286 409.690, 298.722 410, 350.511 410 L 421.154 410 424.077 407.077 C 428.007 403.147, 428.007 398.853, 424.077 394.923 L 421.154 392 350.154 392 L 279.153 392 276.077 394.589 M 209.303 427.158 C 208.094 427.764, 206.393 429.759, 205.523 431.592 C 204.125 434.539, 204.109 435.325, 205.386 438.382 C 207.958 444.536, 214.743 445.984, 219.364 441.364 C 226.149 434.578, 217.859 422.874, 209.303 427.158 M 295.357 426.992 C 289.733 429.261, 288.269 436.996, 292.636 441.364 L 295.273 444 324.002 444 C 351.140 444, 352.870 443.890, 355.253 442.016 C 358.428 439.518, 359.466 435.538, 357.917 431.799 C 355.648 426.322, 353.724 425.994, 324.300 426.063 C 309.560 426.098, 296.536 426.516, 295.357 426.992 M 379.704 427.572 C 374.403 430.492, 373.580 436.734, 377.923 441.077 L 380.846 444 408.876 444 C 427.289 444, 437.742 443.619, 439.343 442.890 C 444.271 440.644, 445.410 433.752, 441.588 429.306 L 439.176 426.500 410.838 426.266 C 386.890 426.068, 382.067 426.271, 379.704 427.572 M 210.500 460.970 C 204.308 463.428, 202.633 471.567, 207.463 475.722 C 213.260 480.708, 222 477.028, 222 469.601 C 222 463.613, 215.718 458.898, 210.500 460.970 M 286.421 461.419 C 280.549 463.976, 279.630 471.991, 284.747 476.016 C 287.198 477.944, 288.940 478, 346.046 478 L 404.822 478 407.411 474.923 C 411.609 469.934, 410.315 463.865, 404.538 461.452 C 399.600 459.388, 291.154 459.358, 286.421 461.419" stroke="none" class="tool_gradient_color" fill="url(#gradientColor)" fill-rule="evenodd"/></svg>