<svg xmlns="http://www.w3.org/2000/svg" viewBox="0 0 512 512" version="1.1"><path d="M 346 9.411 C 315.842 14.774, 289.383 28.958, 269.104 50.632 C 264.685 55.355, 259.141 62.081, 256.785 65.578 L 252.500 71.937 140.116 71.968 C 54.556 71.992, 26.750 72.292, 23.616 73.222 C 18.204 74.830, 10.830 82.204, 9.222 87.616 C 7.517 93.357, 7.439 418.396, 9.141 424.078 C 10.796 429.600, 15.617 434.913, 21.429 437.619 L 26.500 439.980 170.563 439.990 L 314.627 440 317.429 447.250 C 322.296 459.844, 327.604 467.945, 337.797 478.330 C 366.624 507.702, 412.726 512.623, 447.772 490.070 C 462.368 480.677, 475.590 464.706, 481.921 448.824 C 487.688 434.355, 488.001 430.717, 487.990 378.292 L 487.980 330.500 485.619 325.429 C 482.913 319.617, 477.600 314.796, 472.078 313.141 C 467.108 311.652, 459.277 311.759, 455.504 313.367 C 452.771 314.533, 452.348 314.441, 450.681 312.322 C 449.676 311.044, 446.862 308.831, 444.427 307.404 L 440 304.810 440.032 282.155 L 440.063 259.500 446.782 255.029 C 462.812 244.361, 482.916 220.410, 491.316 201.970 C 500.866 181.009, 503.510 168.172, 503.465 143 C 503.433 125.252, 503.189 122.542, 500.754 112.833 C 487.975 61.883, 450.337 24.100, 399.690 11.381 C 391.105 9.225, 386.664 8.763, 371.500 8.450 C 359.348 8.198, 351.063 8.510, 346 9.411 M 356 25.072 C 342.093 26.472, 328.725 30.393, 315.500 36.950 C 302.002 43.643, 294.787 48.751, 284.280 59.053 C 273.925 69.206, 267.730 77.821, 260.949 91.500 C 244.331 125.022, 244.331 162.978, 260.949 196.500 C 272.749 220.301, 290.169 238.170, 313 249.893 C 321.949 254.488, 333.434 258.857, 340.750 260.451 L 344 261.159 344 251.740 L 344 242.321 338.173 237.796 C 330.986 232.215, 324.638 222.909, 321.926 213.982 C 320.045 207.788, 319.900 205.111, 320.187 181.862 C 320.493 157.058, 320.558 156.363, 323.134 150.250 L 325.768 144 323.134 137.750 C 320.558 131.637, 320.493 130.942, 320.187 106.138 C 319.828 77.115, 320.622 72.474, 327.830 61.458 C 332.336 54.572, 335.530 51.438, 342.500 47.065 C 360.460 35.797, 385.487 38.256, 401.386 52.851 C 406.071 57.152, 411.921 66.928, 414.098 74.096 C 415.950 80.194, 416.099 82.981, 415.813 106.138 C 415.507 130.942, 415.442 131.637, 412.866 137.750 L 410.232 144 412.866 150.250 C 415.442 156.363, 415.507 157.058, 415.813 181.862 C 416.100 205.111, 415.955 207.788, 414.074 213.982 C 411.362 222.909, 405.014 232.215, 397.827 237.796 L 392 242.321 392 251.740 L 392 261.159 395.250 260.451 C 408.288 257.611, 427.966 248.435, 439.233 239.942 C 447.260 233.890, 458.289 222.796, 464.525 214.500 C 471.346 205.424, 480.558 186.066, 483.463 174.700 C 488.665 154.355, 488.673 133.819, 483.487 113.327 C 480.496 101.507, 471.327 82.428, 464.021 72.816 C 445.981 49.085, 420.154 32.628, 392.310 27.122 C 380.047 24.698, 367.021 23.962, 356 25.072 M 362.132 57.056 C 355.178 58.457, 349.387 61.776, 344.593 67.108 C 337.352 75.161, 336.500 78.994, 336.500 103.500 C 336.500 115.050, 336.843 125.724, 337.262 127.221 L 338.023 129.941 342.762 126.935 C 353.129 120.357, 369.244 118.114, 381.068 121.603 C 384.056 122.484, 386.638 123.334, 386.806 123.492 C 386.974 123.650, 385.666 127.224, 383.898 131.436 C 381.404 137.376, 380.327 138.955, 379.092 138.477 C 367.394 133.955, 353.242 137.488, 344.614 147.084 C 337.748 154.721, 336.783 158.522, 336.255 180 C 335.632 205.335, 337.391 213.499, 345.243 221.708 L 348.311 224.916 351.406 222.303 C 361.348 213.909, 374.678 213.931, 384.660 222.359 L 387.821 225.027 391.346 220.908 C 398.973 211.999, 400.359 205.263, 399.766 180 C 399.527 169.825, 398.996 160.745, 398.586 159.822 C 397.925 158.332, 397.321 158.475, 393.171 161.108 C 386.328 165.450, 377.092 168, 368.210 168 C 359.903 168, 349 165.450, 349 163.507 C 349 162.830, 350.372 159.250, 352.050 155.550 C 354.479 150.192, 355.445 148.958, 356.800 149.481 C 367.888 153.766, 382.130 150.634, 390.356 142.102 C 398.633 133.517, 400.377 125.698, 399.745 100 C 399.191 77.439, 398.241 74.096, 390.064 65.910 C 382.470 58.308, 372.154 55.038, 362.132 57.056 M 29.020 89.284 C 24.181 91.733, 24.030 93.006, 24.015 131.750 L 24 168 129.107 168 C 228.821 168, 234.176 167.910, 233.482 166.250 C 231.809 162.251, 231.726 133.588, 233.358 123.285 C 234.926 113.387, 239.807 96.280, 242.642 90.750 L 244.051 88 137.776 88.015 C 54.539 88.026, 30.962 88.302, 29.020 89.284 M 55 105.314 C 50.147 106.852, 42.725 114.556, 41.222 119.616 C 37.437 132.362, 42.362 144.466, 53.429 149.619 C 58.477 151.970, 58.674 151.980, 96 151.968 C 131.594 151.957, 133.729 151.852, 138 149.916 C 144.048 147.174, 146.813 144.458, 149.623 138.500 C 155.749 125.509, 149.058 109.030, 136.078 105.141 C 130.928 103.598, 59.936 103.749, 55 105.314 M 61 121.294 C 57.225 123.204, 55.564 127.318, 57.195 130.721 C 58.867 134.207, 62.395 135.967, 67.750 135.985 L 72 136 72 128 L 72 120 67.750 120.015 C 65.412 120.023, 62.375 120.599, 61 121.294 M 88 128 L 88 136 96 136 L 104 136 104 128 L 104 120 96 120 L 88 120 88 128 M 120 128 L 120 136.248 125.559 135.787 C 132.169 135.239, 135.333 132.717, 135.333 128 C 135.333 123.283, 132.169 120.761, 125.559 120.213 L 120 119.752 120 128 M 24.238 301.472 L 24.500 418.945 26.778 421.222 L 29.055 423.500 170.528 423.760 L 312 424.020 311.980 414.260 C 311.946 397.684, 310.871 393.239, 302.933 376.862 C 295.912 362.374, 295.771 361.932, 296.177 355.554 C 296.686 347.574, 300.259 341.836, 306.907 338.327 C 314.899 334.108, 328.827 335.726, 339.250 342.084 L 344 344.982 344 311.562 L 344 278.142 338.443 276.988 C 330.450 275.329, 317.083 270.661, 308.489 266.527 C 277.668 251.703, 249.661 220.308, 239.549 189.250 L 237.839 184 130.907 184 L 23.976 184 24.238 301.472 M 124.156 201.479 C 112.475 204.119, 107.228 205.976, 97.333 210.974 C 75.342 222.081, 60.099 237.807, 49.447 260.377 C 42.113 275.918, 40.534 283.647, 40.534 304 C 40.534 324.353, 42.113 332.082, 49.447 347.623 C 63.476 377.348, 86.854 396.581, 120 405.665 C 125.086 407.059, 130.307 407.446, 144 407.443 C 164.371 407.439, 172.154 405.853, 187.623 398.553 C 200.125 392.652, 208.064 387.094, 217.579 377.579 C 227.094 368.064, 232.652 360.125, 238.553 347.623 C 245.855 332.149, 247.440 324.371, 247.440 304 C 247.440 288.900, 247.125 285.334, 245.149 278 C 242.435 267.930, 235.933 253.757, 229.953 244.877 C 224.445 236.698, 211.302 223.555, 203.123 218.047 C 194.420 212.186, 180.143 205.590, 170.500 202.975 C 160.038 200.137, 133.837 199.291, 124.156 201.479 M 139.312 217.953 C 136.869 219.058, 133.795 221.650, 131.936 224.173 C 128.447 228.910, 122.477 240.896, 121.439 245.250 L 120.783 248 144 248 L 167.217 248 166.561 245.250 C 165.532 240.936, 159.566 228.927, 156.145 224.286 C 151.035 217.352, 145.360 215.217, 139.312 217.953 M 105.751 225.482 C 97.164 229.729, 87.862 236.424, 81.538 242.910 L 76.575 248 89.647 248 L 102.719 248 104.893 241.375 C 106.089 237.732, 108.412 232.041, 110.055 228.730 C 111.698 225.418, 112.917 222.584, 112.764 222.431 C 112.611 222.278, 109.455 223.651, 105.751 225.482 M 175 222.454 C 175 222.641, 176.335 225.485, 177.966 228.773 C 179.597 232.061, 181.911 237.732, 183.107 241.375 L 185.281 248 198.357 248 L 211.432 248 205.966 242.426 C 199.962 236.302, 187.177 227.402, 179.750 224.176 C 177.137 223.041, 175 222.266, 175 222.454 M 365.020 233.292 C 359.918 235.858, 360.031 233.911, 360.015 319.750 L 360 400 352.116 400 L 344.232 400 343.812 386.750 C 343.353 372.245, 341.648 366.405, 336.196 360.657 C 331.331 355.526, 319.661 351.042, 315.415 352.671 C 311.436 354.198, 311.816 356.663, 317.894 368.789 C 326.417 385.791, 327.755 391.182, 328.368 411 C 328.756 423.522, 329.382 429.267, 330.965 434.829 C 339.903 466.235, 367.158 487.080, 399.500 487.243 C 411.756 487.305, 420.711 485.282, 431.500 480.015 C 446.240 472.819, 457.752 461.117, 464.650 446.319 C 471.345 431.956, 471.482 430.611, 471.491 379.279 L 471.500 333.058 469.306 330.862 C 466.431 327.986, 461.571 327.985, 458.694 330.860 C 456.535 333.018, 456.495 333.586, 456.212 366.527 L 455.923 400 447.996 400 L 440.070 400 439.785 362.527 C 439.503 325.464, 439.476 325.029, 437.306 322.860 C 434.430 319.986, 429.570 319.986, 426.694 322.860 C 424.524 325.029, 424.497 325.464, 424.215 362.527 L 423.930 400 415.997 400 L 408.064 400 407.782 358.527 C 407.502 317.343, 407.485 317.039, 405.306 314.860 C 403.987 313.542, 401.869 312.667, 400 312.667 C 398.131 312.667, 396.013 313.542, 394.694 314.860 C 392.515 317.039, 392.498 317.343, 392.218 358.527 L 391.936 400 383.985 400 L 376.034 400 375.767 318.528 C 375.505 238.542, 375.463 237.020, 373.500 235.132 C 370.699 232.439, 367.915 231.835, 365.020 233.292 M 64.017 268.461 C 61.153 275.141, 58.328 284.843, 57.525 290.750 L 56.812 296 76.192 296 L 95.572 296 96.790 282.250 C 97.461 274.688, 98.284 267.488, 98.621 266.250 L 99.233 264 82.581 264 L 65.929 264 64.017 268.461 M 115.077 270.477 C 114.457 274.040, 113.668 281.240, 113.324 286.477 L 112.698 296 144 296 L 175.302 296 174.676 286.477 C 174.332 281.240, 173.543 274.040, 172.923 270.477 L 171.795 264 144 264 L 116.205 264 115.077 270.477 M 189.379 266.250 C 189.716 267.488, 190.539 274.688, 191.210 282.250 L 192.428 296 211.808 296 L 231.188 296 230.475 290.750 C 229.672 284.843, 226.847 275.141, 223.983 268.461 L 222.071 264 205.419 264 L 188.767 264 189.379 266.250 M 414 272.052 C 409.875 273.596, 403.238 275.610, 399.250 276.530 L 392 278.201 392 287.398 L 392 296.595 398.417 296.186 C 403.707 295.849, 405.796 296.218, 410.310 298.284 C 413.322 299.663, 416.803 302.167, 418.046 303.849 C 419.879 306.328, 420.656 306.719, 422.153 305.918 C 423.844 305.013, 424 303.409, 424 286.965 C 424 273.194, 423.708 269.029, 422.750 269.123 C 422.063 269.191, 418.125 270.509, 414 272.052 M 57.407 317.011 C 58.155 322.646, 61.146 332.842, 64.017 339.539 L 65.929 344 82.581 344 L 99.233 344 98.621 341.750 C 98.284 340.512, 97.461 333.313, 96.790 325.750 L 95.572 312 76.157 312 L 56.742 312 57.407 317.011 M 113.324 321.523 C 113.668 326.760, 114.457 333.960, 115.077 337.523 L 116.205 344 144.103 344 C 159.446 344, 172.014 343.663, 172.032 343.250 C 172.049 342.837, 172.715 338, 173.512 332.500 C 174.309 327, 174.970 320.137, 174.981 317.250 L 175 312 143.849 312 L 112.698 312 113.324 321.523 M 191.210 325.750 C 190.539 333.313, 189.716 340.512, 189.379 341.750 L 188.767 344 205.419 344 L 222.071 344 223.983 339.539 C 226.847 332.859, 229.672 323.157, 230.475 317.250 L 231.188 312 211.808 312 L 192.428 312 191.210 325.750 M 82.034 365.574 C 88.038 371.698, 100.823 380.598, 108.250 383.824 C 110.862 384.959, 113 385.734, 113 385.546 C 113 385.359, 111.665 382.515, 110.034 379.227 C 108.403 375.939, 106.089 370.268, 104.893 366.625 L 102.719 360 89.643 360 L 76.568 360 82.034 365.574 M 121.439 362.750 C 122.478 367.107, 128.448 379.091, 131.944 383.837 C 133.914 386.512, 136.836 388.925, 139.569 390.134 C 143.970 392.080, 144.030 392.080, 148.431 390.134 C 151.164 388.925, 154.086 386.512, 156.056 383.837 C 159.552 379.091, 165.522 367.107, 166.561 362.750 L 167.217 360 144 360 L 120.783 360 121.439 362.750 M 183.107 366.625 C 181.911 370.268, 179.597 375.939, 177.966 379.227 C 176.335 382.515, 175 385.359, 175 385.546 C 175 385.734, 177.137 384.959, 179.750 383.824 C 187.177 380.598, 199.962 371.698, 205.966 365.574 L 211.432 360 198.357 360 L 185.281 360 183.107 366.625" stroke="none" class="tool_gradient_color" fill-rule="evenodd"/></svg>