<svg xmlns="http://www.w3.org/2000/svg" viewBox="0 0 512 512" version="1.1"><defs><linearGradient id="gradientColor" x1="0%" y1="0%" x2="0%" y2="100%"><stop offset="0%" style="stop-color:rgb(255, 255, 255);stop-opacity:1" /><stop offset="100%" style="stop-color:rgb(255, 0, 0);stop-opacity:1" /></linearGradient></defs><path d="M 29.281 25.970 C 18.647 28.497, 8.080 37.328, 3.180 47.782 L 0.500 53.500 0.500 220.500 L 0.500 387.500 3.180 393.218 C 6.922 401.202, 13.945 408.355, 21.873 412.259 L 28.457 415.500 138.082 415.767 L 247.708 416.034 258.517 445.267 C 264.463 461.345, 270.212 476.431, 271.293 478.791 C 273.589 483.802, 277.177 486, 283.061 486 C 287.066 486, 287.750 485.479, 301.403 472.028 L 315.584 458.055 328.542 471.097 C 342.304 484.948, 345.074 487, 350 487 C 354.805 487, 357.747 484.945, 368.177 474.303 C 383.467 458.702, 383.288 457.146, 363.946 437.514 L 350.055 423.416 362.597 410.958 C 369.495 404.106, 375.782 397.285, 376.569 395.800 C 380.146 389.049, 376.882 381.771, 368.836 378.551 C 351.008 371.418, 235.545 329, 233.956 329 C 227.510 329, 220.979 335.317, 221.034 341.500 C 221.049 343.150, 225.707 356.994, 231.387 372.263 L 241.713 400.027 135.942 399.763 L 30.172 399.500 25.851 396.463 C 20.358 392.602, 17.434 388.250, 16.075 381.914 C 15.341 378.490, 15 337.146, 15 251.451 L 15 126 256 126 L 497 126 497 251.451 C 497 337.146, 496.659 378.490, 495.925 381.914 C 494.566 388.249, 491.642 392.602, 486.151 396.463 L 481.832 399.500 440.328 400 L 398.824 400.500 396.320 403.413 C 393.350 406.868, 393.703 411.419, 397.164 414.290 C 399.175 415.959, 402.186 416.061, 441.434 415.790 L 483.547 415.500 490.129 412.259 C 498.179 408.294, 505.219 401.049, 508.631 393.218 C 510.001 390.073, 511.545 386.719, 512.061 385.764 C 513.389 383.307, 513.328 54.679, 512 55.500 C 511.450 55.840, 511 55.263, 511 54.219 C 511 50.236, 504.837 40.052, 499.445 35.124 C 491.182 27.572, 485.420 25.709, 468.799 25.216 C 455.203 24.814, 455.079 24.830, 452.549 27.360 C 449.794 30.115, 449.233 34.418, 451.282 37.087 C 453.717 40.259, 456.896 41, 468.184 41.028 C 481.491 41.061, 486.388 42.888, 491.658 49.782 C 496.213 55.742, 497 61.234, 497 87.049 L 497 110 256 110 L 15 110 15 87.049 C 15 74.234, 15.482 61.850, 16.092 59.006 C 17.480 52.533, 22.219 46.304, 28 43.353 L 32.500 41.056 226.500 41.013 C 380.835 40.979, 421.011 40.712, 423 39.706 C 426.575 37.898, 428.289 33.891, 426.971 30.424 C 424.795 24.699, 438.319 25.058, 227.500 25.134 C 120.250 25.173, 31.052 25.549, 29.281 25.970 M 0.488 221 C 0.488 312.025, 0.606 349.262, 0.750 303.750 C 0.894 258.237, 0.894 183.762, 0.750 138.250 C 0.606 92.737, 0.488 129.975, 0.488 221 M 57.301 63.080 C 54.302 64.564, 52.515 66.370, 51.051 69.395 C 48.487 74.691, 48.488 76.312, 51.060 81.624 C 56.195 92.232, 71.381 92.145, 76.443 81.479 C 79.910 74.173, 76.537 65.632, 68.993 62.614 C 63.764 60.522, 62.356 60.578, 57.301 63.080 M 100.458 62.832 C 87.712 68.774, 90.409 87.407, 104.343 89.668 C 109.037 90.430, 115.924 87.091, 118.439 82.835 C 125.422 71.013, 112.867 57.046, 100.458 62.832 M 143.020 62.698 C 130.307 69.282, 133.551 87.914, 147.712 89.642 C 155.436 90.585, 163.004 83.633, 162.996 75.602 C 162.987 65.144, 152 58.047, 143.020 62.698 M 71.822 175.376 C 64.587 178.361, 58.974 182.814, 55.128 188.620 C 48.973 197.913, 48.883 198.730, 49.207 242.639 L 49.500 282.500 52.927 288.821 C 58.509 299.117, 67.635 305.845, 78.921 307.985 C 87.073 309.531, 102.570 309.274, 105.928 307.537 C 110.730 305.054, 111.487 299.396, 107.545 295.455 C 105.214 293.123, 104.494 293, 93.160 293 C 82.041 293, 80.864 292.810, 75.880 290.206 C 71.987 288.172, 69.710 286.084, 67.515 282.537 L 64.500 277.662 64.168 244.081 C 63.780 204.966, 64.155 201.957, 70.228 195.369 C 77.459 187.523, 68.208 188, 213.239 188 C 302.814 188, 343.432 188.332, 346.436 189.088 C 351.812 190.442, 357.441 194.984, 360.029 200.057 C 361.884 203.693, 362 206.073, 362 240.492 C 362 268.897, 361.699 277.783, 360.653 280.282 C 358.822 284.655, 351.976 290.635, 347.321 291.928 C 344.741 292.644, 309.794 292.991, 239.705 292.994 L 135.909 293 133.455 295.455 C 129.027 299.882, 131.081 306.995, 137.225 308.510 C 138.476 308.819, 186.774 308.943, 244.553 308.786 L 349.605 308.500 357.249 304.722 C 365.887 300.452, 370.822 295.491, 374.875 287 L 377.500 281.500 377.500 240.500 L 377.500 199.500 374.778 193.962 C 371.302 186.892, 364.097 179.687, 357.033 176.218 L 351.500 173.500 214.500 173.266 L 77.500 173.033 71.822 175.376 M 128.405 206.100 C 126.939 207.715, 126.385 210.233, 126 217.017 L 125.500 225.834 119 221.955 C 111.408 217.424, 107.315 216.971, 104.174 220.314 C 101.757 222.887, 101.308 227.716, 103.250 230.245 C 103.938 231.140, 107.593 233.649, 111.374 235.821 L 118.247 239.771 113.374 242.549 C 103.869 247.967, 102 249.783, 102 253.596 C 102 257.723, 105.675 262, 109.220 262 C 110.492 262, 114.612 260.200, 118.377 258 C 122.142 255.800, 125.397 254, 125.611 254 C 125.825 254, 126 257.397, 126 261.550 C 126 269.426, 127.583 274.242, 130.545 275.379 C 133.796 276.626, 137.147 275.944, 139.545 273.545 C 141.769 271.322, 142 270.285, 142 262.545 C 142 257.845, 142.259 254, 142.575 254 C 142.892 254, 146.180 255.800, 149.883 258 C 153.586 260.200, 157.578 262, 158.752 262 C 162.244 262, 166.333 257.777, 166.333 254.171 C 166.333 250.123, 164.191 247.838, 156.214 243.377 L 149.740 239.756 156.760 235.863 C 164.470 231.587, 165.701 230.474, 166.018 227.500 C 166.428 223.640, 165.982 221.982, 164 220 C 160.918 216.918, 156.382 217.533, 149 222.034 L 142.500 225.997 142 217.098 C 141.406 206.526, 139.863 204, 134 204 C 131.523 204, 129.684 204.690, 128.405 206.100 M 207.861 205.911 C 205.755 207.616, 205.463 208.792, 205.154 216.805 L 204.809 225.789 198.054 221.894 C 194.206 219.675, 189.976 218, 188.223 218 C 182.751 218, 178.946 225.742, 182.282 230.087 C 182.952 230.959, 186.513 233.404, 190.196 235.519 C 193.879 237.634, 196.688 239.696, 196.438 240.101 C 196.187 240.506, 193.067 242.468, 189.504 244.461 C 182.655 248.291, 181 250.241, 181 254.480 C 181 257.650, 185.096 262, 188.081 262 C 189.276 262, 193.525 260.194, 197.524 257.987 L 204.794 253.974 205.147 262.407 C 205.452 269.682, 205.833 271.194, 207.924 273.420 C 211.059 276.756, 215.285 276.806, 218.545 273.545 C 220.769 271.322, 221 270.285, 221 262.545 C 221 257.845, 221.262 254, 221.582 254 C 221.902 254, 224.892 255.599, 228.228 257.554 C 236.935 262.657, 239.240 262.914, 242.960 259.194 C 244.632 257.522, 246 255.280, 246 254.212 C 246 251.096, 242.376 247.342, 235.966 243.818 C 232.685 242.014, 230 240.231, 230 239.855 C 230 239.480, 232.856 237.575, 236.347 235.623 C 244.107 231.283, 245.400 229.805, 245.400 225.278 C 245.400 221.170, 242.275 218, 238.225 218 C 236.820 218, 232.370 219.812, 228.335 222.026 L 221 226.052 221 217.200 C 221 209.241, 220.767 208.129, 218.686 206.174 C 215.808 203.471, 211.019 203.355, 207.861 205.911 M 287.174 206.314 C 285.284 208.327, 285 209.771, 285 217.384 L 285 226.140 277.627 222.070 C 273.572 219.832, 269.172 218, 267.849 218 C 262.069 218, 258.285 224.734, 261.397 229.484 C 262.263 230.805, 265.903 233.526, 269.486 235.529 C 273.069 237.533, 275.990 239.471, 275.977 239.836 C 275.964 240.201, 272.843 242.249, 269.041 244.388 C 261.042 248.886, 258.970 252.100, 260.964 256.914 C 262.350 260.258, 266.828 262.507, 270.060 261.481 C 271.274 261.096, 274.871 259.255, 278.052 257.390 C 281.234 255.526, 284.098 254, 284.418 254 C 284.738 254, 285 257.845, 285 262.545 C 285 270.285, 285.231 271.322, 287.455 273.545 C 290.715 276.806, 294.941 276.756, 298.076 273.420 C 300.167 271.194, 300.548 269.682, 300.853 262.407 L 301.206 253.974 308.476 257.987 C 312.475 260.194, 316.724 262, 317.919 262 C 320.904 262, 325 257.650, 325 254.480 C 325 250.241, 323.345 248.291, 316.496 244.461 C 312.933 242.468, 309.802 240.489, 309.538 240.062 C 309.274 239.635, 311.292 238.070, 314.022 236.584 C 324.959 230.632, 327.380 226.296, 322.927 220.635 C 319.970 216.876, 316.059 217.217, 307.850 221.949 L 301 225.899 301 219.099 C 301 211.302, 299.594 206.388, 296.961 204.979 C 293.779 203.276, 289.477 203.863, 287.174 206.314 M 453.833 224.713 L 432.969 245.427 424.234 236.765 C 414.347 226.960, 411.865 225.596, 407.356 227.492 C 403.973 228.915, 403 230.646, 403 235.243 C 403 237.838, 404.907 240.250, 415.133 250.595 C 427.481 263.084, 431.187 265.676, 435.231 264.651 C 436.479 264.335, 448.413 253.125, 461.750 239.741 C 484.238 217.174, 486 215.150, 486 211.877 C 486 207.322, 482.641 204, 478.034 204 C 475.030 204, 472.613 206.068, 453.833 224.713 M 239.453 348.733 C 239.826 349.705, 249.837 376.600, 261.699 408.500 C 273.561 440.400, 283.447 466.703, 283.668 466.952 C 283.890 467.200, 290.473 461.013, 298.298 453.202 C 310.949 440.573, 312.897 439, 315.885 439 C 318.879 439, 320.953 440.687, 334.910 454.473 L 350.575 469.947 356.273 464.248 L 361.972 458.550 346.486 442.954 C 332.569 428.939, 331 427.013, 331 423.942 C 331 420.881, 332.479 419.043, 345.202 406.298 C 353.013 398.473, 359.200 391.907, 358.952 391.707 C 358.584 391.410, 280.181 362.196, 247.137 350.043 C 239.938 347.395, 238.868 347.213, 239.453 348.733" stroke="none" class="tool_gradient_color" fill="url(#gradientColor)" fill-rule="evenodd"/></svg>