<svg xmlns="http://www.w3.org/2000/svg" viewBox="0 0 512 512" version="1.1"><defs><linearGradient id="gradientColor" x1="0%" y1="0%" x2="0%" y2="100%"><stop offset="0%" style="stop-color:rgb(0, 133, 121);stop-opacity:1" /><stop offset="100%" style="stop-color:rgb(255, 0, 0);stop-opacity:1" /></linearGradient></defs><path d="M 16.215 1.257 C 11.577 2.743, 4.541 9.250, 2.084 14.327 L 0 18.631 0.022 204.566 C 0.043 382.477, 0.123 390.674, 1.871 394.522 C 4.263 399.788, 9.379 404.815, 14.989 407.412 C 19.429 409.467, 20.891 409.508, 108.500 410 L 197.500 410.500 204.034 414.215 C 219.329 422.912, 233.644 428.353, 251.435 432.232 C 265.932 435.392, 296.960 435.388, 311.259 432.223 C 330.617 427.938, 349.630 420.275, 363.903 411.005 L 370.306 406.846 379.153 415.652 C 387.841 424.300, 388 424.545, 388 429.279 C 388 431.930, 388.641 435.314, 389.424 436.800 C 390.207 438.285, 406.294 454.855, 425.174 473.623 C 456.901 505.162, 459.938 507.906, 465.288 509.873 C 478.491 514.726, 492.374 511.786, 502.080 502.080 C 511.790 492.370, 514.730 478.478, 509.866 465.288 C 507.925 460.023, 505.395 457.146, 481.862 433.454 L 455.991 407.409 461.266 401.954 C 464.534 398.576, 467.010 394.933, 467.771 392.384 C 469.549 386.428, 469.562 22.633, 467.784 16.616 C 466.161 11.123, 457.877 2.839, 452.384 1.216 C 446.896 -0.405, 21.278 -0.366, 16.215 1.257 M 22.465 17.947 C 17.227 20.083, 17.520 13.146, 17.234 141.403 L 16.968 260.499 57.762 219.750 C 97.569 179.986, 98.651 179, 102.467 179 C 106.200 179, 107.204 179.822, 124.647 197.174 C 142.186 214.620, 142.955 215.248, 143.859 212.872 C 145.695 208.041, 154.205 194.525, 160.418 186.570 C 183.673 156.795, 217.896 136.273, 254.849 129.944 C 267.781 127.729, 290.732 127.320, 302.202 129.099 L 309.288 130.199 336.101 103.399 C 360.502 79.010, 363.215 76.600, 366.261 76.600 C 368.347 76.600, 370.927 77.605, 373.103 79.265 C 375.025 80.731, 393.067 98.596, 413.197 118.965 C 433.327 139.334, 450.067 156, 450.398 156 C 450.729 156, 451 125.695, 451 88.655 C 451 21.461, 450.995 21.306, 448.895 19.405 C 446.841 17.546, 441.734 17.495, 235.645 17.309 C 119.515 17.203, 23.584 17.490, 22.465 17.947 M 81.191 44.025 C 71.216 46.638, 64.649 50.383, 57.405 57.590 C 50.045 64.912, 45.611 73.388, 43.330 84.500 C 38.098 109.986, 55.032 136.824, 80.535 143.467 C 108.051 150.634, 136.285 134.095, 143.643 106.500 C 145.430 99.798, 145.348 87.758, 143.467 80.535 C 138.763 62.475, 122.817 47.400, 104.257 43.467 C 95.352 41.579, 90.034 41.708, 81.191 44.025 M 85.734 61.088 C 76.369 63.294, 67.940 70.335, 63.294 79.832 C 60.975 84.571, 60.524 86.791, 60.516 93.495 C 60.508 100.217, 60.968 102.501, 63.389 107.747 C 66.536 114.569, 72.208 120.479, 79.151 124.170 C 82.856 126.140, 84.981 126.484, 93.500 126.491 C 102.099 126.499, 104.197 126.157, 108.474 124.052 C 114.818 120.931, 120.931 114.818, 124.052 108.474 C 126.157 104.197, 126.499 102.099, 126.491 93.500 C 126.484 85.063, 126.131 82.840, 124.235 79.278 C 116.461 64.673, 101.174 57.450, 85.734 61.088 M 348.039 116.460 C 337.894 126.617, 329.797 135.093, 330.047 135.295 C 330.296 135.498, 333.200 136.715, 336.500 138 C 357.006 145.984, 374.323 157.298, 390.045 172.982 C 411.545 194.431, 425.381 219.916, 432.217 250.662 C 435.195 264.056, 435.440 295.791, 432.671 309.464 C 428.829 328.432, 420.551 349.238, 411.011 363.903 L 406.846 370.306 415.652 379.153 C 424.147 387.688, 424.618 388, 428.994 388 C 431.619 388, 435.101 388.842, 437.261 390 C 442.018 392.550, 445.057 392.530, 448.365 389.927 L 451 387.855 451 285.173 L 451 182.491 408.743 140.243 L 366.485 97.994 348.039 116.460 M 272 145.599 C 259.403 147.058, 251.622 148.463, 244.095 150.638 C 200.353 163.275, 165.184 197.520, 151.653 240.648 C 143.366 267.063, 143.666 298.142, 152.462 324.539 C 167.638 370.084, 206.106 404.198, 254 414.585 C 265.776 417.139, 289.305 417.595, 302.500 415.524 C 353.060 407.591, 394.333 372.475, 410.479 323.651 C 415.041 309.854, 417.001 297.202, 416.996 281.574 C 416.986 248.219, 406.600 219.416, 385.398 193.942 C 365.513 170.050, 338.095 153.964, 307.039 147.967 C 297.471 146.119, 278.550 144.841, 272 145.599 M 258.500 164.013 C 229.425 169.972, 204.733 185.194, 187.069 208.049 C 174.980 223.691, 166.869 242.280, 163.368 262.364 C 161.065 275.575, 161.940 297.191, 165.299 310.074 C 180 366.453, 229.941 403.483, 287.500 400.684 C 340.722 398.096, 384.552 361.650, 397.762 309 C 400.043 299.910, 400.403 296.351, 400.448 282.500 C 400.504 265.128, 399.469 257.879, 394.927 243.854 C 381.536 202.503, 345.860 171.625, 302.140 163.545 C 290.653 161.422, 270.064 161.643, 258.500 164.013 M 265 180.637 C 222.568 188.708, 190.279 219.849, 181.799 260.881 C 179.139 273.750, 179.682 295.510, 182.961 307.500 C 185.534 316.909, 191.264 329.538, 196.658 337.690 C 201.468 344.959, 212.720 356.894, 220.176 362.633 C 248.125 384.149, 287.784 388.972, 321.466 374.950 C 349.660 363.213, 372.070 336.941, 380.131 306.175 C 382.766 296.121, 383.698 276.641, 382.039 266.291 C 375.658 226.464, 348.155 195.045, 309.500 183.426 C 301.558 181.039, 298.561 180.688, 284 180.441 C 274.925 180.288, 266.375 180.376, 265 180.637 M 268 196.693 C 254.020 199.043, 237.576 206.546, 226.644 215.564 C 217.262 223.303, 215.756 227.910, 220.923 233.077 C 225.481 237.634, 228.526 237.059, 237.155 230.008 C 249.168 220.192, 264.190 214.052, 276.282 214.015 C 282.027 213.997, 287.441 211.913, 288.920 209.150 C 290.783 205.669, 290.196 201.105, 287.545 198.455 C 285.355 196.264, 284.305 196.015, 277.795 196.136 C 273.783 196.211, 269.375 196.461, 268 196.693 M 59.710 242.790 L 16.929 285.580 17.214 336.377 L 17.500 387.174 20.306 389.587 L 23.112 392 98.768 392 L 174.425 392 169.890 387.250 C 133.295 348.915, 119.119 292.261, 133.215 240.680 L 135.352 232.860 118.922 216.430 L 102.492 199.999 59.710 242.790 M 389.900 390.100 L 384.300 395.848 391.657 403.156 L 399.014 410.464 404.748 404.731 L 410.481 398.997 402.991 391.675 L 395.500 384.352 389.900 390.100 M 416.995 417.505 L 405.522 429.010 436.011 459.608 C 466.727 490.433, 470.982 493.956, 477.500 493.956 C 484.968 493.956, 492.525 487.703, 493.683 480.565 C 495.113 471.752, 495.227 471.902, 461.202 437.750 C 443.805 420.288, 429.322 406, 429.019 406 C 428.716 406, 423.305 411.177, 416.995 417.505" stroke="none" class="tool_gradient_color" fill="url(#gradientColor)" fill-rule="evenodd"/></svg>