<svg xmlns="http://www.w3.org/2000/svg" viewBox="0 0 512 512" version="1.1"><defs><linearGradient id="gradientColor" x1="0%" y1="0%" x2="0%" y2="100%"><stop offset="0%" style="stop-color:rgb(0, 133, 121);stop-opacity:1" /><stop offset="100%" style="stop-color:rgb(255, 0, 0);stop-opacity:1" /></linearGradient></defs><path d="M 233 1.431 C 200.971 7.165, 175.733 20.182, 153.458 42.458 C 136.403 59.513, 125.524 77.133, 117.999 99.888 C 111.950 118.182, 111 126.154, 111 158.631 L 111 186.909 107.250 187.495 C 88.080 190.490, 75.202 201.038, 69.895 218.091 C 68.222 223.463, 68 227.514, 68 252.589 L 68 281 45.682 281 C 18.084 281, 14.927 281.699, 7.324 289.497 C 4.153 292.748, 1.734 296.296, 1.080 298.652 C 0.390 301.137, 0.013 319.507, 0.015 350.500 L 0.020 398.500 2.351 403.507 C 3.634 406.261, 6.346 409.975, 8.379 411.759 C 15.450 417.968, 17.102 418.296, 43.685 418.771 L 67.869 419.203 68.201 449.352 C 68.510 477.523, 68.674 479.848, 70.694 484.814 C 75.404 496.389, 85.342 505.819, 97.225 509.991 C 102.863 511.969, 105.275 512, 256 512 C 406.725 512, 409.137 511.969, 414.775 509.991 C 426.658 505.819, 436.596 496.389, 441.306 484.814 C 443.326 479.848, 443.490 477.523, 443.799 449.352 L 444.131 419.203 468.315 418.771 C 494.863 418.297, 496.556 417.963, 503.564 411.810 C 505.564 410.053, 508.506 405.923, 510.101 402.631 L 513 396.646 513 348.264 C 513 319.121, 512.635 300.108, 512.081 300.450 C 511.576 300.762, 510.852 299.603, 510.473 297.875 C 510.076 296.070, 507.595 292.490, 504.641 289.461 C 497.077 281.704, 493.889 281, 466.318 281 L 444 281 444 252.589 C 444 227.514, 443.778 223.463, 442.105 218.091 C 436.809 201.072, 423.893 190.473, 404.843 187.513 L 401.186 186.944 400.721 154.722 C 400.318 126.726, 399.988 121.385, 398.208 114 C 391.327 85.446, 378.629 62.545, 358.542 42.458 C 337.999 21.915, 314.080 8.912, 285 2.478 C 274.803 0.222, 243.298 -0.412, 233 1.431 M 245.833 18.129 C 196.643 21.351, 152.786 55.034, 135.645 102.756 C 130.112 118.159, 128.920 127.164, 128.296 158.250 L 127.719 187 144.860 187 L 162 187 162 161.088 C 162 142.870, 162.420 132.997, 163.415 127.838 C 170.256 92.366, 195.187 65.059, 230.500 54.364 C 238.735 51.870, 240.903 51.638, 256 51.638 C 271.098 51.638, 273.265 51.870, 281.500 54.365 C 316.733 65.038, 341.760 92.448, 348.585 127.838 C 349.580 132.997, 350 142.870, 350 161.088 L 350 187 367.130 187 L 384.259 187 383.736 159.250 C 383.164 128.914, 382.047 119.906, 376.984 104.793 C 365.898 71.702, 341.763 44.639, 309.900 29.570 C 290.040 20.177, 269.787 16.560, 245.833 18.129 M 239.500 70.406 C 224.477 73.838, 211.927 81.128, 200.804 92.885 C 192.079 102.107, 187.841 108.981, 183.635 120.739 L 180.500 129.500 180.181 158.250 L 179.863 187 256 187 L 332.137 187 331.819 158.250 L 331.500 129.500 328.365 120.739 C 323.862 108.153, 319.696 101.696, 309.500 91.500 C 299.237 81.237, 292.726 77.056, 280.261 72.725 C 272.574 70.055, 269.906 69.642, 258.500 69.358 C 249.959 69.146, 243.442 69.505, 239.500 70.406 M 103 206.537 C 96.854 208.445, 91.684 212.986, 88.590 219.195 L 86 224.393 86 252.696 L 86 281 256 281 L 426 281 426 252.696 L 426 224.393 423.421 219.218 C 420.378 213.110, 414.745 208.330, 408.313 206.394 C 401.407 204.315, 109.714 204.452, 103 206.537 M 108.026 222.260 C 102.691 224.164, 102.031 226.531, 102.015 243.827 L 102 259.154 104.923 262.077 C 108.587 265.740, 112.813 265.924, 116.694 262.588 C 119.390 260.272, 119.513 259.760, 119.841 249.588 L 120.182 239 130.136 239 C 139.372 239, 140.268 238.823, 142.545 236.545 C 145.996 233.095, 145.938 227.230, 142.421 223.924 C 139.972 221.622, 139.129 221.488, 125.671 221.260 C 116.347 221.102, 110.312 221.444, 108.026 222.260 M 20.306 301.413 L 17.500 303.825 17.211 347.850 C 16.894 396.044, 17.087 397.942, 22.517 400.006 C 26.119 401.376, 485.881 401.376, 489.483 400.006 C 494.913 397.942, 495.106 396.044, 494.789 347.850 L 494.500 303.825 491.694 301.413 L 488.888 299 256 299 L 23.112 299 20.306 301.413 M 0.463 350 C 0.463 377.225, 0.592 388.363, 0.749 374.750 C 0.906 361.137, 0.906 338.863, 0.749 325.250 C 0.592 311.637, 0.463 322.775, 0.463 350 M 64.384 316.412 C 60.785 318.005, 59 322.068, 59 328.670 L 59 333.042 52.261 328.521 C 44.268 323.159, 40.561 322.712, 36.636 326.636 C 33.837 329.436, 33.196 333.629, 35.040 337.075 C 35.612 338.144, 39.706 341.446, 44.138 344.413 L 52.195 349.808 44.347 355.087 C 34.941 361.414, 34.073 362.431, 34.032 367.161 C 34.007 370.043, 34.655 371.373, 37.077 373.411 C 38.769 374.835, 41.170 376, 42.413 376 C 43.656 376, 47.784 373.995, 51.586 371.545 L 58.500 367.090 59.100 373.071 C 59.869 380.731, 62.597 384, 68.220 384 C 74.323 384, 77 380.660, 77 373.045 C 77 369.720, 77.250 367, 77.555 367 C 77.860 367, 80.726 368.777, 83.923 370.948 C 87.121 373.119, 90.873 375.181, 92.261 375.529 C 95.731 376.400, 100.441 373.763, 101.959 370.098 C 104.079 364.980, 102.310 362.123, 93.227 356 C 88.740 352.975, 85.053 350.219, 85.034 349.876 C 85.016 349.533, 88.557 346.917, 92.905 344.062 C 101.299 338.552, 103.614 335.294, 102.445 330.638 C 101.588 327.223, 97.502 324, 94.029 324 C 92.532 324, 88.244 325.987, 84.414 328.456 L 77.500 332.911 77 326.481 C 76.274 317.149, 71.439 313.290, 64.384 316.412 M 158.476 316.396 C 154.697 318.042, 153 321.660, 153 328.068 L 153 333.042 146.261 328.521 C 138.324 323.197, 134.246 322.664, 130.455 326.455 C 128.694 328.215, 128 330.003, 128 332.780 C 128 337.255, 129.133 338.503, 139.347 345.271 L 146.193 349.809 138.347 355.087 C 128.941 361.414, 128.073 362.431, 128.032 367.161 C 128.007 370.043, 128.655 371.373, 131.077 373.411 C 132.769 374.835, 135.170 376, 136.413 376 C 137.656 376, 141.784 373.995, 145.586 371.544 L 152.500 367.088 153 372.965 C 153.643 380.519, 156.537 384, 162.174 384 C 168.333 384, 170.643 380.761, 171.236 371.294 L 171.500 367.088 178.414 371.544 C 182.216 373.995, 186.176 376, 187.213 376 C 190.561 376, 194.684 373.176, 196.010 369.975 C 198.055 365.038, 195.652 361.318, 186.620 355.442 C 182.443 352.724, 179.020 350.239, 179.013 349.920 C 179.006 349.600, 182.590 346.915, 186.978 343.953 C 196.124 337.778, 197.826 334.912, 195.562 329.495 C 192.690 322.620, 187.434 322.322, 178.219 328.514 L 171.500 333.029 171.239 328.264 C 170.826 320.732, 170.160 319.068, 166.723 316.973 C 162.963 314.680, 162.490 314.647, 158.476 316.396 M 251.704 316.596 C 248.284 318.450, 247 321.588, 247 328.086 L 247 333.042 240.261 328.521 C 232.324 323.197, 228.246 322.664, 224.455 326.455 C 223.105 327.805, 221.948 329.717, 221.885 330.705 C 221.500 336.703, 223.151 338.909, 232.665 345.107 C 236.149 347.378, 239 349.589, 239 350.021 C 239 350.454, 235.456 353.081, 231.124 355.860 C 222.945 361.106, 222 362.260, 222 367 C 222 371.199, 222.924 372.909, 226.072 374.537 C 230.369 376.759, 232.084 376.380, 239.586 371.544 L 246.500 367.088 246.764 371.294 C 247.343 380.538, 249.860 384, 256 384 C 262.140 384, 264.657 380.538, 265.236 371.294 L 265.500 367.088 272.414 371.544 C 279.670 376.221, 281.730 376.746, 285.316 374.837 C 288.581 373.098, 289.933 370.874, 289.968 367.184 C 290.015 362.265, 288.834 360.785, 280.559 355.401 C 276.416 352.705, 273.020 350.209, 273.013 349.854 C 273.006 349.499, 275.358 347.699, 278.241 345.854 C 287.732 339.780, 290 337.271, 290 332.851 C 290 329.999, 289.321 328.230, 287.545 326.455 C 283.754 322.664, 279.676 323.197, 271.739 328.521 L 265 333.042 265 328.086 C 265 321.477, 263.696 318.411, 260.093 316.548 C 256.428 314.653, 255.275 314.660, 251.704 316.596 M 345.277 316.973 C 341.840 319.068, 341.174 320.732, 340.761 328.264 L 340.500 333.029 333.781 328.514 C 326.578 323.674, 322.944 322.950, 319.159 325.601 C 315.884 327.895, 314.713 331.600, 316.016 335.548 C 316.832 338.021, 319.012 340.069, 325.046 344.030 C 329.421 346.902, 332.994 349.533, 332.987 349.876 C 332.980 350.219, 329.580 352.709, 325.431 355.408 C 316.501 361.218, 314.341 364.473, 316.026 369.579 C 317.187 373.098, 321.147 376, 324.787 376 C 325.824 376, 329.784 373.995, 333.586 371.544 L 340.500 367.088 340.764 371.294 C 341.357 380.761, 343.667 384, 349.826 384 C 355.463 384, 358.357 380.519, 359 372.965 L 359.500 367.088 366.414 371.544 C 370.216 373.995, 374.344 376, 375.587 376 C 376.830 376, 379.231 374.835, 380.923 373.411 C 383.345 371.373, 383.993 370.043, 383.968 367.161 C 383.927 362.434, 383.056 361.413, 373.697 355.117 L 365.894 349.868 372.197 345.831 C 381.888 339.625, 384 337.287, 384 332.767 C 384 330.004, 383.303 328.212, 381.545 326.455 C 377.754 322.664, 373.676 323.197, 365.739 328.521 L 359 333.042 359 327.971 C 359 321.523, 356.936 317.522, 352.881 316.108 C 348.817 314.692, 349.064 314.663, 345.277 316.973 M 411.589 370.077 C 410.165 371.769, 409 374.209, 409 375.500 C 409 376.791, 410.165 379.231, 411.589 380.923 L 414.178 384 443.634 384 L 473.091 384 475.545 381.545 C 477.240 379.851, 478 377.979, 478 375.500 C 478 373.021, 477.240 371.149, 475.545 369.455 L 473.091 367 443.634 367 L 414.178 367 411.589 370.077 M 86.194 448.250 C 86.531 480.453, 86.461 480.063, 93.164 486.905 C 94.999 488.778, 98.525 491.253, 101 492.405 L 105.500 494.500 256 494.500 L 406.500 494.500 411 492.405 C 413.475 491.253, 417.001 488.778, 418.836 486.905 C 425.539 480.063, 425.469 480.453, 425.806 448.250 L 426.111 419 256 419 L 85.889 419 86.194 448.250" stroke="none" class="tool_gradient_color" fill="url(#gradientColor)" fill-rule="evenodd"/></svg>