<svg xmlns="http://www.w3.org/2000/svg" viewBox="0 0 512 512" version="1.1"><defs><linearGradient id="gradientColor" x1="0%" y1="0%" x2="0%" y2="100%"><stop offset="0%" style="stop-color:rgb(0, 133, 121);stop-opacity:1" /><stop offset="100%" style="stop-color:rgb(255, 0, 0);stop-opacity:1" /></linearGradient></defs><path d="" stroke="none" fill="currentColor" fill-rule="evenodd"/><path d="M 107.174 2.314 C 105.080 4.543, 105 5.427, 105 26.260 L 105 47.892 82.912 48.196 L 60.823 48.500 58.412 51.306 L 56 54.112 56.032 258.306 C 56.057 417.243, 56.334 462.852, 57.282 464.087 C 60.305 468.025, 59.610 468, 167.135 468 L 271.401 468 292.450 488.816 C 315.317 511.428, 316.207 512.023, 327.116 511.978 C 337.536 511.936, 337.180 512.240, 397.122 452.207 C 447.454 401.798, 452.899 396.031, 454.372 391.572 C 456.442 385.305, 456.437 379.640, 454.357 373.533 C 453.099 369.841, 450.284 366.196, 442.357 357.990 L 432 347.271 432 200.906 L 432 54.541 404.730 27.270 L 377.459 0 243.404 0 L 109.349 0 107.174 2.314 M 121 31.986 L 121 47.972 224.493 48.236 L 327.987 48.500 355.493 75.993 L 383 103.486 383 201.005 L 383 298.523 399 314.500 L 415 330.477 415 198.791 L 415 67.106 392.412 66.803 L 369.823 66.500 367.412 63.694 C 365.018 60.909, 365 60.723, 365 38.444 L 365 16 243 16 L 121 16 121 31.986 M 382 39.268 L 382 50 392.500 50 C 398.275 50, 403 49.879, 403 49.732 C 403 49.585, 398.275 44.755, 392.500 39 L 382 28.536 382 39.268 M 73 258 L 73 451 163.731 451 L 254.461 451 194.873 391.250 C 138.356 334.580, 135.216 331.242, 133.942 326.500 C 132.786 322.198, 132.915 315.291, 134.865 277 C 136.211 250.549, 137.707 229.961, 138.553 226.241 C 142.596 208.451, 153.652 198.027, 172.215 194.502 C 176.222 193.741, 198.888 192.131, 222.584 190.924 C 264.043 188.812, 265.872 188.796, 271.084 190.494 C 276.163 192.148, 279.318 195.066, 321.750 237.344 L 367 282.430 367 198.715 L 367 115 344.582 115 C 332.252 115, 321.435 114.720, 320.545 114.379 C 316.634 112.878, 316 108.997, 316 86.550 L 316 65 194.500 65 L 73 65 73 258 M 333 88 L 333 99 344.233 99 L 355.466 99 344.500 88 C 338.469 81.950, 333.414 77, 333.267 77 C 333.120 77, 333 81.950, 333 88 M 216.500 208.043 C 178.825 210.133, 175.716 210.407, 169.914 212.141 C 163.621 214.021, 157.503 220.438, 155.580 227.174 C 154.136 232.230, 150 297.670, 150 315.455 L 150 322.504 236.250 408.622 C 283.688 455.987, 323.313 495.019, 324.306 495.360 C 325.299 495.701, 327.549 495.356, 329.306 494.593 C 331.113 493.808, 355.616 470.036, 385.750 439.831 C 438.186 387.272, 439 386.396, 439 382.485 C 439 378.553, 438.128 377.641, 352.744 292.256 L 266.487 206 257.494 206.134 C 252.547 206.208, 234.100 207.067, 216.500 208.043 M 184 227.592 C 171.589 232.959, 166.006 248.284, 172.052 260.390 C 183.249 282.810, 217.064 274.888, 216.978 249.865 C 216.943 239.570, 211.648 231.249, 202.782 227.551 C 198.090 225.594, 188.572 225.615, 184 227.592 M 190.851 243.203 C 189.333 243.717, 187.672 245.379, 186.961 247.095 C 183.440 255.595, 195.859 260.954, 199.838 252.652 C 202.600 246.890, 197.086 241.092, 190.851 243.203 M 290.500 263.978 C 289.400 264.446, 270.163 283.218, 247.750 305.693 C 209.601 343.948, 207.002 346.778, 207.032 350.028 C 207.084 355.690, 211.683 359.668, 216.861 358.531 C 220.379 357.758, 301.945 276.378, 302.115 273.472 C 302.367 269.160, 301.785 267.406, 299.389 265.250 C 296.799 262.920, 293.946 262.511, 290.500 263.978 M 294.194 348.250 C 271.853 370.502, 253.171 389.915, 252.414 391.665 C 251.367 394.083, 251.300 395.562, 252.127 397.936 C 253.403 401.594, 255.635 403, 260.171 403 C 263.188 403, 267.081 399.393, 305.237 361.237 C 343.289 323.185, 347 319.182, 347 316.191 C 347 311.567, 343.232 308, 338.348 308 C 334.755 308, 332.982 309.616, 294.194 348.250 M 338.407 394.120 C 301.080 431.446, 296 436.891, 296 439.575 C 296 444.707, 301.883 449.128, 306.678 447.600 C 307.680 447.280, 327.152 428.360, 349.950 405.555 C 389.057 366.435, 391.400 363.889, 391.400 360.523 C 391.400 356.213, 388.820 353.314, 384.153 352.381 C 380.846 351.719, 380.396 352.130, 338.407 394.120" stroke="none" class="tool_gradient_color" fill="url(#gradientColor)" fill-rule="evenodd"/></svg>