<svg xmlns="http://www.w3.org/2000/svg" viewBox="0 0 512 512" version="1.1"><defs><linearGradient id="gradientColor" x1="0%" y1="0%" x2="0%" y2="100%"><stop offset="0%" style="stop-color:rgb(0, 133, 121);stop-opacity:1" /><stop offset="100%" style="stop-color:rgb(255, 0, 0);stop-opacity:1" /></linearGradient></defs><path d="M 54 21.078 C 36.125 29.335, 20.938 36.831, 20.250 37.736 C 18.478 40.070, 18.702 43.427, 20.750 45.234 C 21.712 46.083, 36.796 53.356, 54.269 61.396 L 86.039 76.015 283.427 75.757 L 480.814 75.500 484.657 72.449 C 486.771 70.771, 489.625 67.171, 491 64.449 C 493.398 59.701, 493.500 58.747, 493.500 41 L 493.500 22.500 490.514 17.108 C 488.740 13.905, 485.928 10.657, 483.587 9.108 L 479.646 6.500 283.073 6.283 L 86.500 6.066 54 21.078 M 94 41 L 94 64 264 64 L 434 64 434 41 L 434 18 264 18 L 94 18 94 41 M 446 41 L 446 64 461.045 64 C 475.686 64, 476.157 63.934, 478.545 61.545 C 480.966 59.125, 481 58.845, 481 41.469 L 481 23.846 478.077 20.923 L 475.154 18 460.577 18 L 446 18 446 41 M 60.820 31.344 C 49.996 36.380, 40.925 40.725, 40.662 41 C 40.398 41.275, 49.592 45.843, 61.091 51.152 L 82 60.804 82 41.402 C 82 30.731, 81.662 22.042, 81.250 22.094 C 80.838 22.145, 71.644 26.308, 60.820 31.344 M 144.500 34.983 C 138.450 36.600, 131.827 38.184, 129.782 38.501 C 123.155 39.530, 120.810 44.810, 125.082 49.082 C 127.635 51.635, 131.885 51.227, 147.855 46.898 C 153.710 45.310, 160.263 44.009, 162.417 44.006 C 164.572 44.003, 171.547 45.426, 177.917 47.169 C 192.866 51.259, 200.175 51.345, 213 47.580 C 227.683 43.270, 231.616 43.204, 245.033 47.038 C 260.184 51.368, 267.555 51.385, 282.423 47.128 C 288.431 45.408, 295.144 44, 297.341 44 C 299.537 44, 306.547 45.426, 312.917 47.169 C 328.155 51.338, 334.845 51.338, 350.083 47.169 C 356.453 45.426, 363.463 44, 365.659 44 C 367.856 44, 374.344 45.295, 380.077 46.878 C 397.939 51.811, 403.271 51.752, 404.562 46.608 C 405.596 42.489, 404.213 40.126, 400.190 39.137 C 369.543 31.605, 370.105 31.705, 362.211 32.323 C 357.970 32.655, 350.698 34.068, 346.051 35.463 C 335.169 38.731, 327.818 38.729, 316.949 35.455 C 312.302 34.056, 304.900 32.652, 300.500 32.337 C 293.537 31.837, 290.961 32.176, 280.629 34.958 C 266.363 38.800, 260.503 38.734, 245.077 34.559 C 232.640 31.193, 224.557 31.408, 211.051 35.463 C 200.150 38.737, 192.812 38.731, 181.949 35.442 C 168.791 31.458, 158.169 31.328, 144.500 34.983 M 84.216 124.884 C 76.648 127.507, 72.359 131.485, 68.455 139.500 L 66.020 144.500 66.086 272 C 66.135 366.975, 66.452 400.312, 67.326 402.684 C 69.532 408.666, 74.489 414.427, 80.061 417.484 C 85.247 420.328, 86.201 420.491, 100.550 420.984 C 112.775 421.403, 116.117 421.839, 118.348 423.304 C 122.131 425.788, 124.992 430.817, 124.996 434.988 C 124.998 436.907, 121.386 452.773, 116.969 470.246 C 108.435 504.004, 108.329 505.069, 113.315 506.926 C 114.517 507.374, 116.274 507.456, 117.221 507.109 C 118.167 506.761, 139.470 487.807, 164.559 464.989 C 189.649 442.170, 211.374 422.958, 212.838 422.295 C 214.868 421.376, 245.813 421.080, 343.212 421.045 C 469.580 421, 470.983 420.978, 476.420 418.944 C 482.724 416.585, 490.030 409.296, 492.184 403.215 C 493.246 400.217, 493.500 374.782, 493.500 271.500 L 493.500 143.500 490.814 138.410 C 487.819 132.733, 482.803 127.880, 477.213 125.248 C 473.724 123.605, 461.912 123.486, 281.500 123.276 C 97.638 123.062, 89.276 123.130, 84.216 124.884 M 89.185 135.984 C 85.112 136.955, 81.193 140.443, 79.371 144.718 C 78.234 147.386, 78 169.224, 78 272.582 L 78 397.228 80.184 401.114 C 83.774 407.501, 88.194 408.996, 103.566 409.022 C 114.401 409.040, 117.230 409.374, 121 411.079 C 130.847 415.531, 136.978 424.898, 136.984 435.500 C 136.986 439.512, 135.216 448.362, 131.642 462.206 C 126.751 481.152, 126.479 482.767, 128.446 481.206 C 129.627 480.268, 146.902 464.650, 166.833 446.500 C 190.443 425, 204.715 412.720, 207.786 411.263 L 212.500 409.026 341 409.011 C 484.414 408.995, 473.768 409.529, 478.730 402.102 L 481 398.704 480.996 272.102 C 480.993 148.300, 480.949 145.429, 479.040 142.299 C 477.967 140.538, 475.606 138.288, 473.794 137.299 C 470.659 135.587, 461.392 135.493, 281.500 135.347 C 177.550 135.263, 91.008 135.550, 89.185 135.984 M 110.655 166.829 C 108.469 169.244, 108.552 173.284, 110.829 175.345 C 112.515 176.871, 125.677 177, 279.829 177 L 447 177 449.087 174.913 C 451.453 172.547, 451.054 168.388, 448.254 166.250 C 446.960 165.262, 411.648 165, 279.464 165 C 118.798 165, 112.246 165.071, 110.655 166.829 M 112.280 206.020 C 107.807 207.820, 108.138 214.990, 112.783 216.905 C 114.761 217.721, 160.632 217.954, 281.338 217.763 L 447.177 217.500 449.088 215.139 C 451.614 212.021, 451.500 210.409, 448.545 207.455 L 446.091 205 280.295 205.063 C 185.455 205.100, 113.550 205.509, 112.280 206.020 M 110.655 247.829 C 108.293 250.439, 108.566 254.582, 111.223 256.443 C 113.212 257.837, 130.876 258, 280.031 258 C 411.761 258, 446.960 257.738, 448.254 256.750 C 451.054 254.612, 451.453 250.453, 449.087 248.087 L 447 246 279.655 246 C 118.804 246, 112.246 246.071, 110.655 247.829 M 111 288 C 108.504 290.496, 108.429 294.173, 110.829 296.345 C 112.515 297.871, 125.708 298, 280.272 298 L 447.887 298 449.443 295.777 C 451.579 292.728, 451.406 291.315, 448.545 288.455 L 446.091 286 279.545 286 C 114.333 286, 112.984 286.016, 111 288 M 110.658 328.826 C 108.429 331.288, 108.567 334.567, 111.003 337.003 C 112.993 338.993, 114.088 339.004, 280.145 338.753 L 447.284 338.500 449.372 335.704 C 451.301 333.121, 451.344 332.703, 449.941 330.204 L 448.423 327.500 280.369 327.247 C 118.557 327.004, 112.254 327.062, 110.658 328.826 M 111.227 368.554 C 108.477 370.480, 108.273 375.032, 110.832 377.348 C 112.525 378.880, 125.398 378.987, 280.544 378.753 L 448.423 378.500 449.941 375.796 C 451.344 373.297, 451.301 372.879, 449.372 370.296 L 447.284 367.500 280.369 367.247 C 130.517 367.020, 113.226 367.154, 111.227 368.554" stroke="none" id="tool_gradient_color" fill="url(#gradientColor)" fill-rule="evenodd"/></svg>