<svg xmlns="http://www.w3.org/2000/svg" viewBox="0 0 512 512" version="1.1"><defs><linearGradient id="gradientColor" x1="0%" y1="0%" x2="0%" y2="100%"><stop offset="0%" style="stop-color:rgb(0, 133, 121);stop-opacity:1" /><stop offset="100%" style="stop-color:rgb(255, 0, 0);stop-opacity:1" /></linearGradient></defs><path d="M 15.500 2.353 C 9.485 5.160, 3.889 11.099, 1.608 17.096 C 0.107 21.044, -0.037 26.786, 0.217 72.500 C 0.533 129.482, 0.207 126.818, 7.816 134.535 C 13.994 140.801, 18.673 142.323, 33.250 142.810 L 46 143.236 46 163.483 L 46 183.730 33.750 184.204 C 24.003 184.582, 20.478 185.131, 16.500 186.891 C 10.017 189.758, 5.337 194.272, 2.387 200.500 L 0.020 205.500 0.020 256 L 0.020 306.500 2.387 311.500 C 5.337 317.728, 10.017 322.242, 16.500 325.109 C 20.478 326.869, 24.003 327.418, 33.750 327.796 L 46 328.270 46 348.517 L 46 368.764 33.250 369.190 C 18.673 369.677, 13.994 371.199, 7.816 377.465 C 0.207 385.182, 0.533 382.518, 0.217 439.500 C -0.037 485.214, 0.107 490.956, 1.608 494.904 C 3.889 500.901, 9.485 506.840, 15.500 509.647 L 20.500 511.980 256 511.968 C 490.681 511.956, 491.516 511.949, 496 509.921 C 502.210 507.114, 506.684 502.561, 510.101 495.573 L 513 489.646 513 439.264 C 513 409.941, 512.627 389.113, 512.107 389.434 C 511.615 389.738, 510.907 388.766, 510.533 387.275 C 509.529 383.275, 504.516 376.921, 499.938 373.847 C 494.687 370.320, 488.153 369, 475.951 369 L 466 369 466 348.635 L 466 328.270 478.250 327.712 C 484.988 327.405, 492.222 326.583, 494.326 325.886 C 500.081 323.978, 506.761 317.526, 510.085 310.663 L 513 304.646 513 254.156 C 513 226.387, 512.709 203.958, 512.353 204.313 C 511.998 204.669, 510.712 202.814, 509.497 200.192 C 506.889 194.562, 499.707 187.898, 494.326 186.114 C 492.222 185.417, 484.988 184.595, 478.250 184.288 L 466 183.730 466 163.483 L 466 143.236 478.750 142.810 C 488.880 142.472, 492.425 141.959, 496 140.318 C 502.056 137.537, 506.660 132.734, 510.124 125.583 L 513 119.646 513 69.156 C 513 41.387, 512.702 18.965, 512.338 19.329 C 511.974 19.693, 510.823 18.081, 509.781 15.746 C 507.202 9.966, 502.486 5.222, 496.500 2.387 L 491.500 0.020 256 0.020 L 20.500 0.020 15.500 2.353 M 23.333 15.093 C 19.029 16.345, 15.251 21.121, 14.503 26.255 C 14.162 28.590, 14.023 50.300, 14.192 74.500 C 14.535 123.512, 14.478 123.101, 21.357 126.365 C 24.515 127.864, 44.087 128, 256 128 C 467.913 128, 487.485 127.864, 490.643 126.365 C 497.614 123.057, 497.500 123.980, 497.500 70.956 C 497.500 18.626, 497.711 20.477, 491.280 16.264 C 488.730 14.593, 476.438 14.491, 257.544 14.336 C 119.107 14.238, 25.231 14.541, 23.333 15.093 M 0.465 71 C 0.465 99.325, 0.593 110.913, 0.749 96.750 C 0.906 82.588, 0.906 59.413, 0.749 45.250 C 0.593 31.088, 0.465 42.675, 0.465 71 M 61.365 41.089 C 53.074 43.492, 43.378 53.378, 41.034 61.818 C 39.030 69.032, 39.748 77.964, 42.859 84.540 C 48.266 95.969, 58.898 102.485, 72 102.400 C 80.258 102.346, 86.873 99.505, 93.195 93.295 C 108.689 78.076, 104.246 52.182, 84.540 42.859 C 79.585 40.515, 77.242 40.018, 71.500 40.091 C 67.650 40.140, 63.089 40.589, 61.365 41.089 M 148.275 41.654 C 145.951 42.477, 141.763 45.206, 138.969 47.718 C 122.044 62.935, 125.269 88.713, 145.382 98.972 C 151.294 101.988, 153.141 102.444, 159.422 102.444 C 182.729 102.444, 198.105 77.928, 187.689 57.373 C 184.443 50.967, 176.406 43.667, 170.316 41.592 C 164.549 39.627, 153.914 39.657, 148.275 41.654 M 218.405 42.103 C 216.654 44.036, 216.476 46.275, 216.201 69.777 C 215.881 97.150, 216.257 99.885, 220.615 101.870 C 222.414 102.690, 256.505 103, 344.912 103 C 466.638 103, 466.732 102.998, 469.365 100.927 L 472 98.855 472 71.427 C 472 45.333, 471.903 43.903, 470 42 C 468.022 40.022, 466.667 40, 344.155 40 L 220.310 40 218.405 42.103 M 66.791 54.957 C 59.349 57.286, 54.800 63.299, 54.709 70.929 C 54.511 87.422, 75.738 94.015, 85 80.338 C 88.676 74.910, 88.544 66.713, 84.698 61.671 C 80.289 55.890, 72.792 53.079, 66.791 54.957 M 155 55.159 C 150.990 56.303, 146.513 60.175, 144.300 64.414 C 142.156 68.522, 142.988 76.770, 145.970 80.958 C 148.596 84.646, 154.996 87.956, 159.500 87.956 C 164.004 87.956, 170.404 84.646, 173.030 80.958 C 176.081 76.673, 176.843 68.532, 174.600 64.193 C 170.675 56.604, 162.745 52.949, 155 55.159 M 231 71 L 231 88 344.500 88 L 458 88 458 71 L 458 54 344.500 54 L 231 54 231 71 M 61 163.500 L 61 184 256 184 L 451 184 451 163.500 L 451 143 256 143 L 61 143 61 163.500 M 22.071 200.752 C 20.185 201.713, 17.710 203.770, 16.571 205.323 C 14.544 208.086, 14.500 209.175, 14.500 256 C 14.500 302.825, 14.544 303.914, 16.571 306.677 C 17.710 308.230, 20.185 310.287, 22.071 311.248 C 25.306 312.898, 38.528 312.997, 256 312.997 C 473.472 312.997, 486.694 312.898, 489.929 311.248 C 491.815 310.287, 494.290 308.230, 495.429 306.677 C 497.456 303.914, 497.500 302.825, 497.500 256 C 497.500 209.175, 497.456 208.086, 495.429 205.323 C 494.290 203.770, 491.815 201.713, 489.929 200.752 C 486.694 199.102, 473.472 199.003, 256 199.003 C 38.528 199.003, 25.306 199.102, 22.071 200.752 M 0.465 256 C 0.465 284.325, 0.593 295.913, 0.749 281.750 C 0.906 267.588, 0.906 244.413, 0.749 230.250 C 0.593 216.088, 0.465 227.675, 0.465 256 M 65.344 225.020 C 56.081 226.900, 48.091 232.797, 43.446 241.181 C 40.765 246.022, 40.500 247.353, 40.500 256 C 40.500 264.647, 40.765 265.978, 43.446 270.819 C 55.996 293.474, 88.267 292.550, 99.686 269.208 C 103.656 261.096, 103.656 250.904, 99.686 242.792 C 93.411 229.965, 78.640 222.321, 65.344 225.020 M 153.920 225.038 C 144.389 226.593, 136.239 232.797, 131.264 242.283 C 128.906 246.778, 128.528 248.676, 128.528 256 C 128.528 263.324, 128.906 265.222, 131.264 269.717 C 137.286 281.199, 147.002 287.222, 159.500 287.222 C 171.992 287.222, 182.535 280.597, 188.122 269.236 C 191.455 262.459, 191.455 249.541, 188.122 242.764 C 181.780 229.867, 168.023 222.737, 153.920 225.038 M 221.357 224.985 C 216.253 227.060, 216 228.531, 216 256.167 L 216 281.888 218.413 284.694 L 220.827 287.500 344.308 287.500 C 464.334 287.500, 467.849 287.447, 469.895 285.595 C 471.938 283.746, 472 282.880, 472 256 C 472 229.120, 471.938 228.254, 469.895 226.405 C 467.852 224.556, 464.212 224.494, 345.645 224.307 C 278.064 224.201, 222.543 224.503, 221.357 224.985 M 64.421 240.896 C 50.847 247.061, 51.338 265.917, 65.217 271.470 C 71.758 274.087, 77.428 272.835, 82.641 267.622 C 89.500 260.763, 89.770 252.072, 83.345 244.960 C 78.002 239.046, 71.547 237.660, 64.421 240.896 M 154.914 239.912 C 144.726 243.172, 140.089 254.375, 144.969 263.939 C 149.243 272.316, 160.663 275.136, 168.721 269.804 C 178.303 263.462, 178.505 248.653, 169.094 242.455 C 165.053 239.793, 158.793 238.671, 154.914 239.912 M 231 256 L 231 273 344.500 273 L 458 273 458 256 L 458 239 344.500 239 L 231 239 231 256 M 61 348.500 L 61 369 256 369 L 451 369 451 348.500 L 451 328 256 328 L 61 328 61 348.500 M 21.198 385.673 C 14.397 389.024, 14.500 388.175, 14.500 441.044 C 14.500 493.374, 14.289 491.523, 20.720 495.736 C 23.272 497.409, 35.472 497.500, 256 497.500 C 476.528 497.500, 488.728 497.409, 491.280 495.736 C 497.711 491.523, 497.500 493.374, 497.500 441.044 C 497.500 388.020, 497.614 388.943, 490.643 385.635 C 487.485 384.136, 467.931 384.002, 255.849 384.023 C 44.211 384.044, 24.219 384.184, 21.198 385.673 M 0.465 441 C 0.465 469.325, 0.593 480.913, 0.749 466.750 C 0.906 452.588, 0.906 429.413, 0.749 415.250 C 0.593 401.088, 0.465 412.675, 0.465 441 M 64.500 409.894 C 54.197 412.665, 46.652 418.928, 42.517 428.141 C 40.058 433.621, 39.811 435.144, 40.209 442.388 C 40.725 451.771, 42.921 456.921, 49 463 C 55.079 469.079, 60.229 471.275, 69.612 471.791 C 76.870 472.189, 78.374 471.944, 83.912 469.459 C 104.085 460.406, 108.892 434.123, 93.195 418.705 C 90.613 416.168, 86.404 413.170, 83.843 412.041 C 78.616 409.737, 69.037 408.674, 64.500 409.894 M 151.929 410.312 C 133.332 415.550, 123.620 433.991, 130.124 451.712 C 132.894 459.258, 141.451 467.943, 148.473 470.336 C 154.643 472.438, 164.264 472.470, 170.316 470.408 C 176.406 468.333, 184.443 461.033, 187.689 454.627 C 192.965 444.214, 191.606 431.178, 184.234 421.500 C 177.187 412.249, 162.774 407.258, 151.929 410.312 M 220.321 410.189 C 216.282 412.141, 215.885 415.229, 216.201 442.223 C 216.476 465.725, 216.654 467.964, 218.405 469.897 L 220.310 472 344.155 472 C 466.667 472, 468.022 471.978, 470 470 C 471.903 468.097, 472 466.667, 472 440.573 L 472 413.145 469.365 411.073 C 466.731 409.001, 466.692 409, 344.615 409.068 C 261.260 409.114, 221.808 409.470, 220.321 410.189 M 64.223 425.604 C 57.216 429.179, 52.995 437.700, 54.869 444.487 C 57.082 452.504, 62.968 457.196, 70.929 457.291 C 87.312 457.487, 94.028 436.268, 80.484 427.100 C 75.909 424.003, 68.667 423.337, 64.223 425.604 M 152.401 425.905 C 146.872 428.417, 143.744 433.040, 143.209 439.495 C 141.686 457.862, 166.063 464.315, 174.601 447.804 C 176.843 443.468, 176.080 435.326, 173.030 431.042 C 170.404 427.354, 164.004 424.044, 159.500 424.044 C 157.850 424.044, 154.655 424.882, 152.401 425.905 M 231 441 L 231 458 344.500 458 L 458 458 458 441 L 458 424 344.500 424 L 231 424 231 441" stroke="none" class="tool_gradient_color" fill="url(#gradientColor)" fill-rule="evenodd"/></svg>