<svg xmlns="http://www.w3.org/2000/svg" viewBox="0 0 512 512" version="1.1"><path d="M 225 1.508 C 189.329 5.893, 149.128 20.096, 120 38.603 C 97.374 52.979, 71.609 75.992, 55.737 96 C 31.674 126.333, 13.865 163.641, 5.584 201.066 C -1.170 231.586, -1.925 270.096, 3.624 301 C 7.211 320.972, 16.678 351.281, 20.678 355.597 C 23.241 358.363, 27.490 358.746, 30.698 356.499 C 34.485 353.846, 34.367 350.366, 30.084 338.357 C 27.900 332.237, 25.405 324.493, 24.538 321.147 C 23.671 317.802, 22.695 314.262, 22.370 313.282 C 22.044 312.302, 23.965 313.835, 26.639 316.689 C 47.130 338.563, 79.112 357.125, 119.418 370.540 L 132.500 374.894 134.824 381.697 C 142.278 403.517, 146.030 413.052, 152.463 426.523 C 163.705 450.062, 174.208 465.551, 189.283 480.824 C 198.831 490.496, 199.268 490.397, 178.142 483.354 C 127.640 466.519, 79.885 428.858, 52.612 384.357 C 47.107 375.373, 45.569 374, 41.018 374 C 36.423 374, 34 376.632, 34 381.623 C 34 385.244, 46.212 404.298, 56.974 417.468 C 94.188 463.011, 146.955 495.201, 203.500 506.855 C 237.638 513.891, 277.041 513.753, 310.694 506.480 C 336.459 500.911, 366.727 488.727, 390.014 474.549 C 420.394 456.052, 449.858 427.463, 470.450 396.500 C 491.203 365.294, 507.764 319.246, 510.642 284.746 C 511 280.451, 511.677 276.700, 512.146 276.410 C 512.616 276.119, 513 266.432, 513 254.882 C 513 243.332, 512.614 234.121, 512.141 234.413 C 511.669 234.704, 510.992 231.456, 510.637 227.194 C 508.493 201.486, 498.868 169.067, 485.344 142 C 471.612 114.516, 457.756 95.438, 435.594 73.500 C 415.088 53.201, 395.708 39.417, 368.949 26.097 C 343.234 13.297, 315.128 4.958, 286.006 1.488 C 270.877 -0.314, 239.738 -0.304, 225 1.508 M 240 17.600 C 209.409 25.765, 180.100 58.081, 160.733 105 C 155.938 116.617, 150.857 131.190, 151.408 131.742 C 151.658 131.991, 154.132 131.708, 156.907 131.113 C 164.945 129.389, 169 131.988, 169 138.862 C 169 143.085, 165.475 145.474, 156.240 147.511 C 151.983 148.450, 147.845 149.576, 147.043 150.014 C 146.208 150.471, 144.674 154.903, 143.448 160.405 L 141.309 170 194.654 170 L 248 170 248 153.500 L 248 137 239.250 137.036 C 234.438 137.055, 226 137.485, 220.500 137.991 C 192.850 140.535, 193.451 140.541, 190.591 137.682 C 187.391 134.482, 187.287 130.940, 190.289 127.450 C 192.400 124.996, 193.567 124.685, 205.227 123.471 C 212.184 122.747, 224.653 121.832, 232.938 121.437 L 248 120.721 248 68.360 C 248 27.104, 247.735 16.014, 246.750 16.066 C 246.063 16.102, 243.025 16.792, 240 17.600 M 264 68.272 L 264 120.702 278.250 121.398 C 303.370 122.623, 324.835 125.179, 347.338 129.622 C 354.399 131.016, 360.372 131.961, 360.611 131.722 C 360.850 131.483, 359.635 127.286, 357.910 122.394 C 336.552 61.804, 304.062 23.852, 267.250 16.491 L 264 15.841 264 68.272 M 189.500 24.690 C 112.718 47.450, 52.286 105.538, 28.011 179.916 C 20.804 201.996, 20.675 201.298, 30.218 191.844 C 51.297 170.963, 80.738 154.334, 119.418 141.460 L 132.500 137.106 134.824 130.303 C 142.285 108.461, 146.030 98.950, 152.466 85.500 C 163.973 61.448, 174.008 46.638, 189.224 31.250 C 193.711 26.712, 196.733 23.047, 195.941 23.104 C 195.148 23.161, 192.250 23.875, 189.500 24.690 M 322.776 31.250 C 345.811 54.546, 360.325 80.975, 377.176 130.303 L 379.500 137.106 392.582 141.460 C 431.262 154.334, 460.703 170.963, 481.782 191.844 C 491.325 201.298, 491.196 201.996, 483.989 179.916 C 463.830 118.149, 418.260 66.801, 358.315 38.307 C 348.064 33.434, 319.099 23, 315.824 23 C 315.161 23, 318.289 26.712, 322.776 31.250 M 264 153.343 L 264 170 317.346 170 L 370.691 170 368.552 160.405 C 367.317 154.866, 365.798 150.483, 364.957 150.035 C 362.916 148.947, 341.471 144.373, 329.500 142.471 C 312.947 139.841, 295.364 138.049, 279.250 137.349 L 264 136.687 264 153.343 M 114.077 160.077 C 61.744 179.148, 25.729 209.244, 17.571 240.724 C 16.707 244.060, 16 247.061, 16 247.394 C 16 247.727, 36.025 248, 60.500 248 L 105 248 105.010 218.750 C 105.019 190.142, 105.071 189.389, 107.374 184.444 C 109.990 178.826, 117.021 172.160, 121.228 171.310 C 122.728 171.007, 124.351 170.251, 124.834 169.629 C 125.753 168.449, 128.375 156.035, 127.819 155.496 C 127.644 155.325, 121.460 157.387, 114.077 160.077 M 384 155.863 C 384 158.161, 386.417 168.655, 387.171 169.629 C 387.652 170.251, 389.272 171.007, 390.772 171.310 C 394.979 172.160, 402.010 178.826, 404.626 184.444 C 406.929 189.389, 406.981 190.142, 406.990 218.750 L 407 248 451.500 248 C 475.975 248, 496 247.727, 496 247.394 C 496 247.061, 495.294 244.063, 494.430 240.731 C 487.340 213.369, 458.447 186.279, 416.261 167.443 C 404.040 161.986, 384 154.793, 384 155.863 M 126.329 186.458 C 124.585 187.216, 122.672 188.744, 122.079 189.853 C 120.568 192.676, 120.570 319.328, 122.080 322.150 C 124.750 327.138, 120.942 327, 256 327 C 391.058 327, 387.250 327.138, 389.920 322.150 C 391.432 319.325, 391.432 192.675, 389.920 189.850 C 387.249 184.859, 391.093 184.997, 255.782 185.039 C 150.698 185.072, 128.968 185.310, 126.329 186.458 M 333.871 203.017 C 317.236 205.828, 307.768 216.071, 307.787 231.237 C 307.804 245.602, 313.299 252.169, 333.653 262.153 C 347.925 269.154, 352 272.874, 352 278.900 C 352 286.556, 346.099 290.494, 335.627 289.827 C 329.110 289.412, 328.855 289.291, 318.081 281.458 C 313.980 278.476, 311.599 278.898, 307.750 283.288 C 295.445 297.323, 326.666 313.598, 351.298 305.990 C 367.722 300.917, 375.694 284.802, 370.474 267.226 C 367.440 257.008, 359.528 250.116, 342.403 242.773 C 332.013 238.318, 327.600 234.422, 327.600 229.707 C 327.600 225.277, 329.819 222.671, 334.882 221.153 C 340.766 219.391, 345.314 219.750, 354.172 222.678 C 361.475 225.091, 362.524 225.215, 364.794 223.928 C 366.179 223.143, 367.894 220.812, 368.604 218.750 C 371.370 210.719, 366.434 205.802, 353.246 203.451 C 344.720 201.931, 340.819 201.843, 333.871 203.017 M 146.544 205.365 L 144 207.909 144 254.373 C 144 279.928, 144.280 301.565, 144.621 302.455 C 146.030 306.127, 150.291 307.001, 166.700 306.984 C 189.657 306.962, 199.248 304.022, 205.418 295.118 C 210.511 287.768, 211.196 284.129, 211.738 261.500 C 212.677 222.324, 209.693 213.237, 193.445 205.795 C 188.948 203.735, 186.713 203.498, 168.794 203.175 L 149.089 202.820 146.544 205.365 M 229.235 203.982 C 227.990 204.512, 226.527 206.113, 225.985 207.538 C 224.712 210.886, 224.660 298.975, 225.929 302.312 C 227.666 306.881, 236.266 308.355, 241.734 305.021 L 244.968 303.049 245.234 275.605 L 245.500 248.161 259.782 274.936 C 267.637 289.663, 275.062 302.643, 276.282 303.782 C 280.569 307.783, 289.134 307.866, 293.056 303.944 C 294.926 302.074, 295 300.218, 295 255.111 C 295 200.306, 295.607 203.500, 285.193 203.500 C 280.729 203.500, 278.680 203.980, 277.121 205.391 C 275.114 207.207, 275.021 208.343, 274.766 234.218 L 274.500 261.154 261.500 235.996 C 254.350 222.159, 247.127 209.231, 245.450 207.267 C 242.753 204.111, 241.768 203.658, 236.950 203.358 C 233.952 203.171, 230.481 203.452, 229.235 203.982 M 164 255 L 164 289 173.250 288.996 C 183.669 288.992, 188.142 287.210, 190.179 282.250 C 191.761 278.399, 192.484 242.119, 191.151 233.470 C 190.259 227.687, 189.556 226.032, 187.022 223.750 C 184.121 221.138, 183.469 221, 173.984 221 L 164 221 164 255 M 0.425 256 C 0.425 267.825, 0.569 272.663, 0.746 266.750 C 0.923 260.837, 0.923 251.162, 0.746 245.250 C 0.569 239.338, 0.425 244.175, 0.425 256 M 16 264.606 C 16 264.939, 16.707 267.940, 17.571 271.276 C 25.729 302.756, 61.744 332.852, 114.077 351.923 C 121.460 354.613, 127.644 356.675, 127.819 356.504 C 128.375 355.965, 125.753 343.551, 124.834 342.371 C 124.351 341.749, 122.728 340.993, 121.228 340.690 C 117.021 339.840, 109.990 333.174, 107.374 327.556 C 105.071 322.611, 105.019 321.858, 105.010 293.250 L 105 264 60.500 264 C 36.025 264, 16 264.273, 16 264.606 M 406.990 293.250 C 406.981 321.858, 406.929 322.611, 404.626 327.556 C 402.010 333.174, 394.979 339.840, 390.772 340.690 C 389.272 340.993, 387.649 341.749, 387.166 342.371 C 386.247 343.551, 383.625 355.965, 384.181 356.504 C 384.356 356.675, 390.540 354.613, 397.923 351.923 C 450.256 332.852, 486.271 302.756, 494.429 271.276 C 495.293 267.940, 496 264.939, 496 264.606 C 496 264.273, 475.975 264, 451.500 264 L 407 264 406.990 293.250 M 486.838 315.013 C 482.900 320.353, 468.193 332.693, 456.552 340.425 C 438.433 352.461, 417.997 362.081, 392.582 370.540 L 379.500 374.894 377.176 381.697 C 370.469 401.332, 366.466 411.534, 364.826 413.174 C 360.724 417.276, 352 413.835, 352 408.116 C 352 406.875, 354.047 400.214, 356.549 393.312 C 359.050 386.411, 360.890 380.557, 360.637 380.304 C 360.384 380.050, 354.399 380.984, 347.338 382.378 C 324.835 386.821, 303.370 389.377, 278.250 390.602 L 264 391.298 264 443.649 C 264 472.442, 264.273 496, 264.606 496 C 264.939 496, 267.950 495.290, 271.298 494.423 C 293.184 488.752, 312.620 472.870, 330.831 445.780 C 336.606 437.189, 338.747 435.566, 343.057 436.513 C 346.597 437.290, 349 440.426, 349 444.268 C 349 449.251, 336.766 466.238, 323.085 480.250 C 318.386 485.063, 315.101 489, 315.785 489 C 319.092 489, 348.004 478.595, 358.315 473.693 C 413.449 447.486, 457.279 401.046, 479.302 345.500 C 483.327 335.349, 490.280 312.947, 489.613 312.280 C 489.373 312.040, 488.124 313.269, 486.838 315.013 M 143.448 351.595 C 144.683 357.134, 146.202 361.517, 147.043 361.965 C 149.027 363.022, 170.348 367.616, 182 369.497 C 197.872 372.058, 216.694 373.974, 232.750 374.661 L 248 375.313 248 358.657 L 248 342 194.654 342 L 141.309 342 143.448 351.595 M 264 358.657 L 264 375.313 279.250 374.661 C 295.306 373.974, 314.128 372.058, 330 369.497 C 341.652 367.616, 362.973 363.022, 364.957 361.965 C 365.798 361.517, 367.317 357.134, 368.552 351.595 L 370.691 342 317.346 342 L 264 342 264 358.657 M 151 380.516 C 151 380.800, 153.073 386.762, 155.606 393.766 C 176.379 451.193, 208.931 488.347, 244.750 495.509 L 248 496.159 248 443.732 L 248 391.304 234.250 390.635 C 209.239 389.416, 183.267 386.298, 162.640 382.037 C 152.089 379.857, 151 379.715, 151 380.516" stroke="none" class="tool_gradient_color" fill-rule="evenodd"/></svg>