<svg xmlns="http://www.w3.org/2000/svg" viewBox="0 0 512 512" version="1.1"><defs><linearGradient id="gradientColor" x1="0%" y1="0%" x2="0%" y2="100%"><stop offset="0%" style="stop-color:rgb(0, 133, 121);stop-opacity:1" /><stop offset="100%" style="stop-color:rgb(255, 0, 0);stop-opacity:1" /></linearGradient></defs><path d="M 24 1.148 C 14.102 3.867, 3.203 15.399, 0.982 25.500 C 0.197 29.070, -0.028 88.419, 0.197 233 L 0.511 435.500 2.780 442.826 C 13.133 476.251, 36.753 499.689, 69.711 509.242 L 77.500 511.500 282.500 511.500 L 487.500 511.500 492.500 509 C 495.250 507.625, 499.525 504.475, 502 502 C 504.475 499.525, 507.625 495.250, 509 492.500 C 511.472 487.556, 511.507 487.123, 512.139 454 C 512.490 435.575, 512.717 331.625, 512.643 223 L 512.509 25.500 512 188.500 C 511.720 278.150, 511.376 350.825, 511.236 350 C 510.554 345.992, 505.712 337.716, 501.833 333.926 C 499.450 331.599, 495.025 328.526, 492 327.097 L 486.500 324.500 404.046 324.227 L 321.592 323.955 391.624 253.727 C 457.190 187.978, 461.834 183.094, 464.439 177.127 C 468.046 168.868, 468.238 159.327, 464.975 150.500 C 462.871 144.810, 460.355 142.091, 416.232 97.829 C 385.722 67.223, 368.122 50.299, 365.103 48.662 C 358.758 45.220, 349.771 43.716, 343.106 44.980 C 331.141 47.249, 332.957 45.637, 258.273 120.256 L 188.045 190.422 187.773 107.961 L 187.500 25.500 184.903 20 C 181.506 12.807, 175.184 6.447, 168.155 3.151 L 162.500 0.500 95 0.343 C 54.356 0.248, 26.107 0.569, 24 1.148 M 30.218 18.154 C 24.056 19.559, 19.450 24.513, 18.054 31.239 C 17.261 35.062, 17.028 92.093, 17.232 232.536 L 17.518 428.500 19.758 436.500 C 29.516 471.345, 58.580 494.002, 93.655 494.110 C 127.448 494.213, 156.604 472.499, 167.316 439.248 L 169.490 432.500 169.760 231.162 L 170.029 29.823 167.896 26.030 C 166.716 23.928, 163.921 21.179, 161.632 19.868 L 157.500 17.500 96 17.339 C 58.962 17.242, 32.797 17.566, 30.218 18.154 M 0.490 228.500 C 0.490 339.600, 0.607 384.902, 0.750 329.170 C 0.893 273.439, 0.893 182.539, 0.750 127.170 C 0.607 71.802, 0.490 117.400, 0.490 228.500 M 36.636 36.636 L 34 39.273 34 85.213 L 34 131.154 36.948 134.102 L 39.896 137.050 94.535 136.775 L 149.174 136.500 151.587 133.694 L 154 130.888 154 85.521 L 154 40.153 151.411 37.077 L 148.822 34 94.047 34 L 39.273 34 36.636 36.636 M 52 85.500 L 52 119 94 119 L 136 119 136 85.500 L 136 52 94 52 L 52 52 52 85.500 M 342 63.581 C 339.749 64.547, 311.643 91.922, 263.250 140.283 L 188 215.482 188 235.461 L 188 255.440 224.500 292.027 C 258.201 325.809, 261 328.876, 261 332.022 C 261 335.162, 258.426 338.008, 228.270 368.215 C 197.143 399.395, 195.360 401, 191.860 401 L 188.179 401 187.812 416.750 C 187.610 425.412, 187.491 432.610, 187.549 432.743 C 187.606 432.877, 246.401 373.908, 318.204 301.700 C 441.098 178.113, 448.796 170.168, 449.462 166.228 C 450.914 157.629, 451.028 157.769, 403.638 110.144 C 374.076 80.435, 358.179 65.169, 355.500 63.916 C 350.689 61.664, 346.696 61.565, 342 63.581 M 343.500 83.890 C 341.850 84.925, 326.947 99.436, 310.382 116.136 C 289.638 137.049, 280.115 147.330, 279.786 149.166 C 279.524 150.632, 279.868 153.107, 280.552 154.666 C 281.235 156.224, 298.616 174.262, 319.178 194.750 C 355.837 231.278, 356.639 232, 360.551 232 C 364.457 232, 365.226 231.313, 397.270 199.215 C 431.009 165.419, 431.491 164.816, 428.895 159.684 C 427.323 156.576, 356.056 85.165, 352.800 83.435 C 349.210 81.527, 347.101 81.630, 343.500 83.890 M 324.743 127.757 L 301.001 151.514 330.758 181.258 L 360.514 211.002 384.500 187 L 408.486 162.999 378.999 133.499 C 362.782 117.275, 349.281 104, 348.999 104 C 348.716 104, 337.801 114.691, 324.743 127.757 M 39.357 153.992 C 33.953 156.172, 34 155.721, 34 205.268 L 34 251.091 36.455 253.545 L 38.909 256 93.705 255.968 C 151.528 255.935, 150.326 256.029, 152.837 251.316 C 154.303 248.562, 154.495 162.432, 153.043 158.613 C 150.912 153.007, 150.773 152.994, 93.800 153.063 C 65.035 153.098, 40.536 153.516, 39.357 153.992 M 228.740 197.750 C 211.748 214.662, 197.205 229.715, 196.422 231.200 C 193.051 237.601, 192.420 236.798, 232.250 276.769 C 252.738 297.329, 270.715 314.792, 272.200 315.575 C 273.686 316.359, 275.920 317, 277.165 317 C 278.804 317, 288.489 307.956, 312.215 284.270 C 344.358 252.181, 345 251.462, 345 247.535 C 345 243.597, 344.352 242.881, 306.735 205.265 L 268.471 167 264.053 167 L 259.636 167 228.740 197.750 M 52 205 L 52 239 94 239 L 136 239 136 205 L 136 171 94 171 L 52 171 52 205 M 240.498 212.002 L 216.510 236.006 246.255 265.751 L 276 295.495 300.002 271.493 L 324.004 247.491 294.245 217.745 L 264.486 187.998 240.498 212.002 M 36.636 275.636 L 34 278.273 34 324.081 L 34 369.888 36.413 372.694 L 38.827 375.500 93.886 375.500 L 148.944 375.500 151.222 373.223 L 153.500 370.946 153.788 326.223 C 153.946 301.625, 153.828 280.500, 153.526 279.278 C 153.223 278.055, 151.996 276.143, 150.799 275.028 C 148.668 273.042, 147.489 273, 93.948 273 L 39.273 273 36.636 275.636 M 188 328.597 C 188 373.554, 188.117 376.796, 189.791 378.311 C 191.478 379.837, 192.990 378.525, 215.536 355.964 L 239.490 331.995 213.745 306.250 L 188 280.505 188 328.597 M 52 324.500 L 52 358 94 358 L 136 358 136 324.500 L 136 291 94 291 L 52 291 52 324.500 M 295.500 350 L 287.547 358 319.208 358 C 336.948 358, 351.977 358.421, 353.387 358.957 C 359.080 361.122, 359.076 361.077, 358.775 419.587 L 358.500 473.174 355.694 475.587 L 352.888 478 306.899 478 L 260.909 478 258.455 475.545 L 256 473.091 256 431.318 L 256 389.544 247.500 398 L 239 406.456 239 439.592 L 239 472.727 236.364 475.364 L 233.727 478 200.704 478 L 167.681 478 162.090 483.273 C 159.016 486.173, 154.710 489.998, 152.522 491.773 L 148.544 495 312.223 495 C 427.160 495, 477.424 494.674, 481.014 493.904 C 488.054 492.394, 492.464 487.898, 493.957 480.710 C 494.728 476.992, 494.986 456.620, 494.787 414.912 L 494.500 354.500 492.132 350.368 C 490.827 348.091, 488.073 345.285, 485.996 344.118 C 482.236 342.005, 482.033 342, 392.840 342 L 303.453 342 295.500 350 M 378.306 360.413 L 375.500 362.826 375.225 417.465 L 374.950 472.104 377.898 475.052 L 380.846 478 426.787 478 L 472.727 478 475.364 475.364 L 478 472.727 478 417.953 L 478 363.178 474.923 360.589 L 471.847 358 426.479 358 L 381.112 358 378.306 360.413 M 273 418 L 273 460 307 460 L 341 460 341 418 L 341 376 307 376 L 273 376 273 418 M 393 418 L 393 460 426.500 460 L 460 460 460 418 L 460 376 426.500 376 L 393 376 393 418 M 85 393.534 C 74.189 396.524, 64.449 405.819, 61.001 416.434 C 60.298 418.597, 59.746 423.322, 59.773 426.934 C 59.874 440.368, 66.721 451.276, 78.782 457.213 C 84.746 460.149, 86.367 460.500, 93.979 460.500 C 101.106 460.500, 103.424 460.067, 108.148 457.852 C 124.255 450.301, 132.146 431.075, 125.932 414.525 C 119.928 398.536, 101.354 389.011, 85 393.534 M 87.481 411.338 C 85.821 412.092, 83.039 414.330, 81.299 416.312 C 72.454 426.386, 78.914 441.665, 92.495 442.791 C 109.666 444.215, 116.837 423.180, 102.763 412.672 C 99.465 410.210, 91.497 409.515, 87.481 411.338 M 203 442.500 L 185.521 460 203.261 460 L 221 460 221 442.500 C 221 432.875, 220.883 425, 220.739 425 C 220.596 425, 212.613 432.875, 203 442.500" stroke="none" class="tool_gradient_color" fill="url(#gradientColor)" fill-rule="evenodd"/></svg>