<svg xmlns="http://www.w3.org/2000/svg" width="18" height="18" viewBox="0 0 18 18">
  <g id="dropbox" transform="translate(0 -0.5)">
    <path id="Path_12" data-name="Path 12" d="M12,3.646,17.622,7l3.856-2.982L15.9.5Z" transform="translate(-3.478)" fill="#1976d2"/>
    <path id="Path_13" data-name="Path 13" d="M9.479,3.648,5.577.5,0,4.017,3.857,7Z" transform="translate(0 0)" fill="#1976d2"/>
    <path id="Path_14" data-name="Path 14" d="M9,12.084l3.7,3.146L18,11.712,14.338,8.729,9,12.083,3.661,8.729,0,11.712,5.3,15.23Z" transform="translate(0 -1.822)" fill="#1976d2"/>
    <path id="Path_15" data-name="Path 15" d="M15.392,18.276V16.6l-1.6,1.1h0c-.6.416-.875-.423-3.845-2.845C6.925,17.322,6.7,18.105,6.1,17.7L4.5,16.6v1.678l5.456,3.407Z" transform="translate(-0.946 -3.183)" fill="#1976d2"/>
  </g>
</svg>
