<svg xmlns="http://www.w3.org/2000/svg" viewBox="0 0 512 512" version="1.1"><defs><linearGradient id="gradientColor" x1="0%" y1="0%" x2="0%" y2="100%"><stop offset="0%" style="stop-color:rgb(255, 255, 255);stop-opacity:1" /><stop offset="100%" style="stop-color:rgb(255, 0, 0);stop-opacity:1" /></linearGradient></defs><path d="M 210.239 1.666 C 206.988 2.976, 206.499 6.575, 206 32.835 L 205.500 59.171 192 63.599 C 184.575 66.034, 172.516 71.021, 165.203 74.682 L 151.907 81.338 133.143 62.669 C 115.167 44.783, 114.215 44, 110.444 44 C 106.611 44, 105.681 44.827, 75.254 75.298 C 44.962 105.632, 44 106.715, 44 110.488 C 44 114.202, 44.854 115.239, 62.641 133.115 L 81.281 151.850 74.656 165.175 C 71.012 172.504, 66.037 184.575, 63.601 192 L 59.171 205.500 32.835 206 C 6.036 206.509, 3 206.952, 1.618 210.554 C 0.572 213.280, 0.908 299.959, 1.972 301.948 C 2.507 302.947, 3.744 304.155, 4.722 304.632 C 5.700 305.110, 18.351 305.725, 32.835 306 L 59.171 306.500 63.601 320 C 66.037 327.425, 71.012 339.496, 74.656 346.825 L 81.281 360.150 62.641 378.885 C 44.854 396.761, 44 397.798, 44 401.512 C 44 405.285, 44.962 406.368, 75.254 436.702 C 105.681 467.173, 106.611 468, 110.444 468 C 114.215 468, 115.167 467.217, 133.143 449.331 L 151.907 430.662 165.203 437.318 C 172.516 440.979, 184.575 445.966, 192 448.401 L 205.500 452.829 206 479.165 C 206.275 493.649, 206.890 506.300, 207.368 507.278 C 207.845 508.256, 209.053 509.493, 210.052 510.028 C 212.493 511.334, 299.507 511.334, 301.948 510.028 C 302.947 509.493, 304.155 508.256, 304.632 507.278 C 305.110 506.300, 305.725 493.649, 306 479.165 L 306.500 452.829 320 448.399 C 327.425 445.963, 339.496 440.988, 346.825 437.344 L 360.150 430.719 378.885 449.359 C 396.761 467.146, 397.798 468, 401.512 468 C 405.285 468, 406.368 467.038, 436.702 436.746 C 467.173 406.319, 468 405.389, 468 401.556 C 468 397.785, 467.217 396.833, 449.331 378.857 L 430.662 360.093 437.318 346.797 C 440.979 339.484, 445.966 327.425, 448.401 320 L 452.829 306.500 479.165 306 C 505.964 305.491, 509 305.048, 510.382 301.446 C 511.189 299.344, 511.189 212.656, 510.382 210.554 C 509 206.952, 505.964 206.509, 479.165 206 L 452.829 205.500 448.399 192 C 445.963 184.575, 440.988 172.504, 437.344 165.175 L 430.719 151.850 449.359 133.115 C 467.194 115.190, 468 114.211, 468 110.458 C 468 106.645, 467.127 105.663, 436.732 75.268 C 406.337 44.873, 405.355 44, 401.542 44 C 397.789 44, 396.810 44.806, 378.885 62.641 L 360.150 81.281 346.825 74.656 C 339.496 71.012, 327.425 66.037, 320 63.601 L 306.500 59.171 306 32.835 C 305.725 18.351, 305.110 5.700, 304.632 4.722 C 304.155 3.744, 302.947 2.507, 301.948 1.972 C 300.093 0.979, 212.667 0.688, 210.239 1.666 M 223.797 43.974 C 223.441 75.091, 224.510 72.792, 208.361 77.158 C 193.732 81.112, 178.325 87.475, 163.884 95.524 C 154.242 100.898, 151.388 102.064, 149.207 101.523 C 147.554 101.112, 139.675 94.068, 128.965 83.425 C 119.320 73.841, 111.059 66, 110.605 66 C 110.151 66, 99.773 76.071, 87.542 88.380 L 65.304 110.761 83.079 128.630 C 93.986 139.595, 101.114 147.546, 101.525 149.207 C 102.065 151.386, 100.893 154.250, 95.524 163.884 C 87.475 178.325, 81.112 193.732, 77.158 208.361 C 72.792 224.510, 75.091 223.441, 43.974 223.797 L 18 224.095 18 256 L 18 287.905 43.974 288.203 C 75.091 288.559, 72.792 287.490, 77.158 303.639 C 81.112 318.268, 87.475 333.675, 95.524 348.116 C 100.893 357.750, 102.065 360.614, 101.525 362.793 C 101.114 364.454, 93.986 372.405, 83.079 383.370 L 65.304 401.239 87.542 423.620 C 99.773 435.929, 110.151 446, 110.605 446 C 111.059 446, 119.320 438.159, 128.965 428.575 C 139.675 417.932, 147.554 410.888, 149.207 410.477 C 151.388 409.936, 154.242 411.102, 163.884 416.476 C 178.325 424.525, 193.732 430.888, 208.361 434.842 C 224.510 439.208, 223.441 436.909, 223.797 468.026 L 224.095 494 256 494 L 287.905 494 288.203 468.026 C 288.559 436.909, 287.490 439.208, 303.639 434.842 C 318.268 430.888, 333.675 424.525, 348.116 416.476 C 357.750 411.107, 360.614 409.935, 362.793 410.475 C 364.456 410.887, 372.443 418.054, 383.500 429.057 L 401.500 446.970 424.237 424.256 L 446.974 401.542 429.062 383.521 C 418.084 372.477, 410.889 364.452, 410.477 362.793 C 409.936 360.613, 411.103 357.756, 416.476 348.116 C 424.525 333.675, 430.888 318.268, 434.842 303.639 C 439.208 287.490, 436.909 288.559, 468.026 288.203 L 494 287.905 494 256 L 494 224.095 468.026 223.797 C 436.909 223.441, 439.208 224.510, 434.842 208.361 C 430.888 193.732, 424.525 178.325, 416.476 163.884 C 411.107 154.250, 409.935 151.386, 410.475 149.207 C 410.887 147.544, 418.054 139.557, 429.057 128.500 L 446.970 110.500 424.256 87.763 L 401.542 65.026 383.521 82.938 C 372.477 93.916, 364.452 101.111, 362.793 101.523 C 360.613 102.064, 357.756 100.897, 348.116 95.524 C 333.675 87.475, 318.268 81.112, 303.639 77.158 C 287.490 72.792, 288.559 75.091, 288.203 43.974 L 287.905 18 256 18 L 224.095 18 223.797 43.974 M 239.500 116.623 C 222.350 119.218, 207.322 123.810, 193.861 130.569 C 155.062 150.049, 128.399 184.346, 118.832 227.081 C 115.719 240.990, 115.484 269.725, 118.376 283 C 130.789 339.976, 172.024 381.211, 229 393.624 C 242.275 396.516, 271.010 396.281, 284.919 393.168 C 340.510 380.723, 381.352 339.331, 393.624 283 C 396.250 270.943, 396.250 241.057, 393.624 229 C 381.514 173.416, 341.404 132.159, 287 119.328 C 278.510 117.326, 273.245 116.787, 259.500 116.511 C 250.150 116.323, 241.150 116.374, 239.500 116.623 M 232.500 135.981 C 210.837 140.343, 192.281 149.423, 176.222 163.522 C 148.428 187.923, 134 219.524, 134 256 C 134 286.406, 144.071 313.623, 163.522 335.778 C 187.849 363.488, 219.660 378, 256.075 378 C 286.317 378, 313.707 367.855, 335.778 348.478 C 363.464 324.172, 378 292.335, 378 256 C 378 241.935, 376.322 230.858, 372.318 218.500 C 360.392 181.685, 331.797 152.669, 295 140.042 C 277.133 133.911, 251.162 132.223, 232.500 135.981 M 264.257 196.250 C 262.728 197.894, 258.238 213.182, 247.582 253.027 C 239.562 283.017, 233 308.800, 233 310.322 C 233 317.032, 243.102 320.753, 247.734 315.750 C 249.248 314.115, 253.807 298.604, 264.412 259 C 272.439 229.025, 279.005 203.242, 279.003 201.705 C 278.996 194.966, 268.917 191.238, 264.257 196.250 M 178.274 229.274 C 156.897 250.651, 155 252.829, 155 256 C 155 259.171, 156.897 261.349, 178.274 282.726 C 199.244 303.697, 201.874 306, 204.851 306 C 209.367 306, 214 301.386, 214 296.887 C 214 293.984, 211.914 291.524, 195.285 274.810 L 176.569 256 195.285 237.190 C 214.955 217.420, 215.558 216.513, 212.890 210.657 C 212.279 209.317, 210.683 207.721, 209.343 207.110 C 203.325 204.368, 202.816 204.731, 178.274 229.274 M 302.364 207.170 C 301.189 207.738, 299.727 209.304, 299.114 210.649 C 296.442 216.514, 297.040 217.415, 316.715 237.190 L 335.431 256 316.715 274.810 C 297.045 294.580, 296.442 295.487, 299.110 301.343 C 299.721 302.683, 301.317 304.279, 302.657 304.890 C 308.675 307.632, 309.184 307.269, 333.726 282.726 C 355.103 261.349, 357 259.171, 357 256 C 357 252.829, 355.103 250.651, 333.726 229.274 C 309.019 204.567, 308.498 204.199, 302.364 207.170" stroke="none" class="tool_gradient_color" fill="url(#gradientColor)" fill-rule="evenodd"/></svg>