<svg xmlns="http://www.w3.org/2000/svg" viewBox="0 0 512 512" version="1.1"><defs><linearGradient id="gradientColor" x1="0%" y1="0%" x2="0%" y2="100%"><stop offset="0%" style="stop-color:rgb(255, 255, 255);stop-opacity:1" /><stop offset="100%" style="stop-color:rgb(255, 0, 0);stop-opacity:1" /></linearGradient></defs><path d="" stroke="none" fill="currentColor" fill-rule="evenodd"/><path d="M 225.287 1.866 C 213.063 6.090, 201.965 17.090, 198.346 28.571 L 196.635 34 176.567 34.006 C 165.530 34.009, 154.919 34.450, 152.986 34.987 C 143.302 37.678, 132.894 47.230, 129.960 56.121 C 129.013 58.989, 127.969 60.214, 126.082 60.672 C 120.091 62.123, 112.723 66.178, 107.895 70.682 C 101.799 76.367, 98.553 81.227, 95.728 88.894 C 93.816 94.083, 93.631 97.201, 93.237 130.776 C 92.756 171.782, 93.406 179.875, 97.951 189.397 C 102.848 199.657, 113.939 209.022, 124.594 211.891 C 128.065 212.825, 128.864 213.559, 129.928 216.783 C 131.717 222.202, 137.196 229.351, 142.200 232.793 C 150.191 238.290, 154.059 239, 176.035 239 L 196 239 196 251.500 L 196 264 164.210 264 C 139.258 264, 131.188 264.321, 126.693 265.492 C 108.983 270.105, 96.532 283.831, 94.031 301.500 C 92.786 310.290, 92.718 464.803, 93.954 474.399 C 95.848 489.098, 105.208 501.887, 118.777 508.315 L 125.500 511.500 256 511.500 L 386.500 511.500 393.223 508.315 C 406.792 501.887, 416.152 489.098, 418.046 474.399 C 419.256 465.004, 419.192 311.470, 417.973 302 C 415.656 283.990, 403.297 270.178, 385.307 265.492 C 380.812 264.321, 372.742 264, 347.790 264 L 316 264 316 251.500 L 316 239 335.965 239 C 357.941 239, 361.809 238.290, 369.800 232.793 C 374.778 229.369, 380.281 222.208, 382.047 216.858 C 383.119 213.610, 383.919 212.933, 388.387 211.491 C 391.199 210.584, 395.306 208.795, 397.514 207.517 C 403.482 204.061, 411.771 194.767, 414.609 188.350 C 418.503 179.545, 419.231 169.328, 418.761 130.103 C 418.368 97.221, 418.177 94.072, 416.271 88.894 C 413.448 81.228, 410.202 76.368, 404.105 70.682 C 399.323 66.221, 392.024 62.184, 386 60.668 C 384.165 60.206, 382.877 58.590, 381.159 54.593 C 377.905 47.023, 373.233 41.946, 365.826 37.930 L 359.500 34.500 337.411 34.183 L 315.323 33.866 313.633 28.504 C 310.047 17.128, 299.110 6.339, 286.775 2.009 C 281.611 0.197, 278.575 0.003, 255.775 0.033 C 234.083 0.061, 229.761 0.321, 225.287 1.866 M 234.326 17.994 C 226.758 19.581, 219.809 24.717, 216.388 31.250 L 214.949 34 256 34 L 297.051 34 295.612 31.250 C 293.325 26.881, 287.881 21.865, 283 19.628 C 278.996 17.792, 276.294 17.540, 258.500 17.342 C 247.500 17.219, 236.622 17.513, 234.326 17.994 M 154.149 53.689 C 152.306 54.601, 149.606 57.149, 148.149 59.351 L 145.500 63.354 145.500 136.500 L 145.500 209.646 148.161 213.667 C 153.347 221.503, 145.943 221, 256 221 C 366.057 221, 358.653 221.503, 363.839 213.667 L 366.500 209.646 366.500 137.073 C 366.500 68.145, 366.406 64.311, 364.627 60.730 C 363.596 58.657, 361.346 55.957, 359.627 54.730 L 356.500 52.500 257 52.265 C 166.044 52.050, 157.212 52.172, 154.149 53.689 M 179.453 69.316 C 170.994 72.603, 165.284 78.574, 163.023 86.500 C 162.218 89.320, 161.973 104.806, 162.191 139 L 162.500 187.500 165.200 192.094 C 166.686 194.620, 169.491 197.900, 171.435 199.382 C 178.979 205.137, 176.922 205, 255.948 205 C 337.237 205, 334.431 205.229, 341.911 197.971 C 349.885 190.232, 349.465 193.393, 349.786 138.618 C 350.036 95.995, 349.868 89.119, 348.475 84.925 C 346.631 79.372, 341.154 73.287, 335.457 70.462 C 331.643 68.571, 328.811 68.493, 257 68.316 C 201.628 68.180, 181.718 68.437, 179.453 69.316 M 122.169 81.992 C 117.053 85.698, 113.416 91.106, 112.074 97 C 110.718 102.952, 110.718 170.048, 112.074 176 C 112.637 178.475, 114.210 182.191, 115.568 184.258 C 117.889 187.788, 125.274 194, 127.150 194 C 127.618 194, 128 168.125, 128 136.500 C 128 104.875, 127.618 79, 127.150 79 C 126.683 79, 124.441 80.347, 122.169 81.992 M 384 136.500 C 384 168.125, 384.383 194, 384.852 194 C 386.722 194, 392.594 189.244, 395.616 185.282 C 397.409 182.930, 399.296 178.848, 399.908 175.994 C 401.321 169.405, 401.336 103.192, 399.926 97 C 399.363 94.525, 397.790 90.809, 396.432 88.742 C 394.111 85.212, 386.726 79, 384.850 79 C 384.382 79, 384 104.875, 384 136.500 M 182.174 88.314 C 180.007 90.622, 180 90.776, 180 136.640 L 180 182.651 182.314 184.826 L 184.629 187 256.140 187 L 327.651 187 329.826 184.686 C 331.993 182.378, 332 182.224, 332 136.360 L 332 90.349 329.686 88.174 L 327.371 86 255.860 86 L 184.349 86 182.174 88.314 M 198.923 104.923 C 196.204 107.643, 196 108.377, 196 115.469 C 196 122.228, 196.278 123.369, 198.455 125.545 C 201.906 128.997, 207.770 128.938, 211.076 125.419 C 213.225 123.132, 213.500 121.930, 213.500 114.833 C 213.500 107.301, 213.334 106.684, 210.694 104.413 C 206.814 101.076, 202.587 101.259, 198.923 104.923 M 301.306 104.413 C 298.666 106.684, 298.500 107.301, 298.500 114.833 C 298.500 121.930, 298.775 123.132, 300.924 125.419 C 304.230 128.938, 310.094 128.997, 313.545 125.545 C 315.722 123.369, 316 122.228, 316 115.469 C 316 108.377, 315.796 107.643, 313.077 104.923 C 309.413 101.259, 305.186 101.076, 301.306 104.413 M 226.500 137.208 C 216.668 142.846, 224.506 159.764, 240.562 167.560 C 245.832 170.119, 247.569 170.444, 256 170.444 C 264.431 170.444, 266.168 170.119, 271.438 167.560 C 287.160 159.926, 295.573 142.451, 285.928 137.463 C 280.284 134.544, 278.221 135.690, 269.525 146.568 C 262.549 155.295, 249.451 155.295, 242.475 146.568 C 234.008 135.976, 231.356 134.423, 226.500 137.208 M 214 251.500 L 214 264 256 264 L 298 264 298 251.500 L 298 239 256 239 L 214 239 214 251.500 M 129.994 282.927 C 125.167 284.410, 121.319 286.904, 117.731 290.876 C 110.819 298.527, 111 295.927, 111 387.632 C 111 443.328, 111.353 471.546, 112.092 474.994 C 113.536 481.727, 118.300 487.802, 125.036 491.500 L 130.500 494.500 256 494.500 L 381.500 494.500 386.964 491.500 C 393.700 487.802, 398.464 481.727, 399.908 474.994 C 400.647 471.546, 401 443.328, 401 387.632 C 401 295.914, 401.182 298.528, 394.262 290.868 C 392.268 288.661, 388.806 285.875, 386.568 284.678 L 382.500 282.500 257.500 282.328 C 188.750 282.234, 131.372 282.503, 129.994 282.927 M 138.459 299.880 C 134.083 301.867, 129.318 306.850, 128.468 310.327 C 128.176 311.522, 128.064 347.410, 128.218 390.078 L 128.500 467.657 131.194 471.188 C 136.765 478.491, 127.770 478, 256 478 C 384.230 478, 375.235 478.491, 380.806 471.188 L 383.500 467.657 383.782 390.078 C 383.936 347.410, 383.824 311.522, 383.532 310.327 C 382.682 306.850, 377.917 301.867, 373.541 299.880 C 369.697 298.133, 363.980 298.044, 256 298.044 C 148.020 298.044, 142.303 298.133, 138.459 299.880 M 145 388 L 145 460 256 460 L 367 460 367 388 L 367 316 256 316 L 145 316 145 388 M 168.270 332.703 C 162.365 333.844, 159.991 343.081, 164.455 347.545 C 166.519 349.610, 167.869 350, 172.955 350 L 179 350 179 373.045 L 179 396.091 181.455 398.545 C 184.905 401.996, 190.770 401.938, 194.076 398.422 C 196.475 395.869, 196.503 395.611, 196.802 372.922 L 197.105 350 202.417 350 C 210.941 350, 215.708 344.538, 212.965 337.916 C 210.864 332.843, 207.135 331.985, 187.849 332.136 C 178.307 332.211, 169.496 332.466, 168.270 332.703 M 235.242 333.494 C 232.074 334.871, 230 338.217, 230 341.952 C 230 342.954, 233.428 349, 237.617 355.387 L 245.234 367 237.617 378.613 C 233.428 385, 230 391.097, 230 392.163 C 230 394.898, 232.624 399.642, 234.545 400.379 C 237.668 401.577, 242.642 400.982, 244.577 399.179 C 245.652 398.178, 248.490 394.353, 250.883 390.679 C 253.277 387.006, 255.579 384, 256 384 C 256.421 384, 258.723 387.006, 261.117 390.679 C 263.510 394.353, 266.348 398.178, 267.423 399.179 C 269.358 400.982, 274.332 401.577, 277.455 400.379 C 279.376 399.642, 282 394.898, 282 392.163 C 282 391.097, 278.572 385, 274.383 378.613 L 266.766 367 274.383 355.387 C 278.572 349, 282 342.954, 282 341.952 C 282 338.108, 279.935 334.871, 276.592 333.474 C 270.968 331.124, 267.993 332.871, 261.954 342.070 C 259.091 346.431, 256.411 350, 256 350 C 255.589 350, 252.909 346.431, 250.046 342.070 C 246.299 336.363, 243.979 333.840, 241.771 333.070 C 240.083 332.481, 238.656 332.018, 238.601 332.039 C 238.545 332.061, 237.034 332.715, 235.242 333.494 M 303.337 333.565 C 297.454 336.542, 296.635 343.994, 301.747 348.016 C 303.544 349.429, 305.798 350, 309.583 350 L 314.895 350 315.198 372.922 C 315.497 395.611, 315.525 395.869, 317.924 398.422 C 321.230 401.938, 327.095 401.996, 330.545 398.545 L 333 396.091 333 373.045 L 333 350 339.045 350 C 344.131 350, 345.481 349.610, 347.545 347.545 C 350.822 344.269, 350.840 339.089, 347.588 335.306 L 345.177 332.500 325.838 332.232 C 309.717 332.009, 305.974 332.231, 303.337 333.565 M 164.455 420.455 C 161.177 423.732, 161.160 428.912, 164.413 432.694 L 166.827 435.500 256 435.500 L 345.173 435.500 347.587 432.694 C 350.840 428.912, 350.823 423.732, 347.545 420.455 L 345.091 418 256 418 L 166.909 418 164.455 420.455" stroke="none" class="tool_gradient_color" fill="url(#gradientColor)" fill-rule="evenodd"/></svg>