
<svg xmlns="http://www.w3.org/2000/svg" width="512" height="512" viewBox="0 0 512 512" version="1.1">
<path d="M 15.500 4.553 C 10.285 6.435, 3.522 13.911, 2.140 19.321 C 0.498 25.751, 1.104 76.830, 2.835 77.899 C 3.570 78.352, 4.132 79.011, 4.085 79.362 C 3.824 81.317, 4.357 82.202, 8.039 85.921 C 11.488 89.405, 12.802 90.256, 14.250 89.947 C 14.387 89.917, 16.128 90.573, 18.118 91.405 C 21.007 92.612, 25.835 92.874, 42.118 92.708 L 62.500 92.500 62.236 157.138 L 61.971 221.776 56.486 225.554 C 53.469 227.632, 50.999 229.595, 50.999 229.916 C 50.998 230.237, 49.873 231.807, 48.499 233.406 C 47.124 235.004, 46 236.916, 46 237.656 C 46 238.395, 45.602 239, 45.117 239 C 44.631 239, 43.910 240.012, 43.514 241.250 C 43.118 242.487, 42.633 243.950, 42.436 244.500 C 38.403 255.750, 40.551 271.086, 47.151 278.159 C 48.609 279.721, 49.618 281, 49.393 281 C 49.167 281, 50.273 282.350, 51.850 284 C 53.426 285.650, 55.230 287, 55.858 287 C 56.486 287, 57 287.367, 57 287.815 C 57 288.934, 63.837 292.125, 67.500 292.715 C 69.150 292.981, 71.175 293.547, 72 293.974 C 75.011 295.531, 86.379 294.272, 92.497 291.704 C 99.569 288.734, 108.419 281.202, 110.815 276.111 L 112.515 272.500 151.780 272.238 L 191.045 271.977 191.652 275.009 C 191.985 276.677, 192.650 278.284, 193.129 278.580 C 193.608 278.876, 194 279.991, 194 281.059 C 194 282.127, 194.450 283, 195 283 C 195.550 283, 196 283.900, 196 285 C 196 286.100, 196.406 287, 196.902 287 C 197.398 287, 198.243 288.237, 198.779 289.750 C 199.315 291.262, 200.951 293.778, 202.413 295.341 C 203.876 296.903, 205.783 299.266, 206.652 300.591 C 207.520 301.916, 208.745 303, 209.374 303 C 210.004 303, 211.081 303.900, 211.768 305 C 212.455 306.100, 213.651 307, 214.425 307 C 215.200 307, 215.983 307.337, 216.167 307.750 C 217.400 310.525, 227.723 315.809, 237.500 318.670 L 240.500 319.548 240.762 355.702 L 241.025 391.857 238.762 392.630 C 237.518 393.054, 236.275 393.429, 236 393.462 C 234.200 393.681, 229 396.399, 229 397.121 C 229 397.605, 228.361 398, 227.580 398 C 226.799 398, 223.879 400.559, 221.091 403.687 C 216.214 409.160, 215.493 410.731, 211.425 424.750 C 211.147 425.709, 204.996 426, 185.031 426 L 159 426 159 398.149 C 159 371.508, 158.319 364, 155.902 364 C 155.406 364, 155 363.399, 155 362.665 C 155 361.287, 149.012 355.391, 148.985 356.742 C 148.976 357.159, 148.639 357.049, 148.235 356.498 C 147.831 355.948, 146.195 354.823, 144.600 353.998 C 142.118 352.716, 133.036 352.500, 81.600 352.500 C 48.545 352.500, 19.912 352.791, 17.970 353.147 C 10.827 354.457, 3.018 360.956, 1.253 367.060 C 0.864 368.402, 0.414 396.777, 0.251 430.115 C -0.032 488.066, 0.040 490.927, 1.879 495.217 C 4.008 500.185, 10.501 506.038, 15.899 507.855 C 19.834 509.180, 141 509.532, 141 508.218 C 141 507.788, 142.166 507.340, 143.590 507.222 C 147.235 506.920, 151.450 503.652, 155.248 498.184 L 158.500 493.500 158.836 467.250 L 159.172 441 186.135 441 L 213.098 441 214.947 445.131 C 218.120 452.218, 225.329 459.507, 232.732 463.113 C 238.217 465.785, 240.808 466.423, 247.031 466.633 C 254.769 466.894, 264.796 464.795, 266.235 462.614 C 266.639 462.001, 266.976 461.878, 266.985 462.339 C 266.993 462.800, 268.306 462.125, 269.902 460.839 C 271.498 459.553, 274.198 457.437, 275.902 456.137 C 277.606 454.838, 279 453.206, 279 452.510 C 279 451.814, 279.666 450.692, 280.479 450.017 C 282.351 448.463, 285 443.208, 285 441.046 C 285 440.141, 285.481 438.919, 286.068 438.332 C 287.496 436.904, 287.492 422.788, 286.062 420.116 C 285.439 418.952, 285.145 418, 285.409 418 C 285.981 418, 281.984 408.719, 281.102 408 C 280.765 407.725, 279.242 405.827, 277.718 403.783 C 274.836 399.914, 264.744 393.355, 260.487 392.583 C 259.137 392.339, 257.576 391.856, 257.016 391.510 C 255.826 390.774, 255.563 321.040, 256.750 320.931 C 258.371 320.782, 263.706 320.087, 267.696 319.506 C 273.010 318.731, 282.658 314.968, 288.687 311.318 C 294.501 307.799, 306.156 296.657, 308.894 292 C 312.983 285.045, 316.009 279.024, 315.794 278.270 C 315.674 277.847, 316.124 276.510, 316.796 275.301 C 317.467 274.091, 318.136 271.616, 318.284 269.801 L 318.551 266.500 370.175 266.241 L 421.798 265.982 422.899 269.140 C 423.515 270.908, 424 279.056, 424 287.649 L 424 303 387.750 303.077 C 367.813 303.119, 350.770 303.295, 349.877 303.469 C 346.373 304.152, 341.177 307.230, 338.363 310.289 C 332.358 316.816, 332.129 318.186, 332.041 348.157 C 331.965 374.199, 332.063 375.690, 334.087 379.500 C 336.622 384.271, 342.051 389.673, 345.798 391.153 C 347.345 391.764, 355.516 392.201, 364.908 392.174 C 379.671 392.132, 381.508 391.937, 383.221 390.224 C 386.174 387.270, 385.860 382.137, 382.552 379.291 C 379.924 377.030, 379.151 376.923, 366.516 377.058 C 353.058 377.202, 349.804 376.539, 348.603 373.407 C 348.255 372.500, 347.937 360.464, 347.896 346.661 L 347.822 321.564 351.161 319.771 C 354.280 318.096, 358.989 317.981, 422.705 318.016 L 490.910 318.053 493.886 320.558 L 496.863 323.062 496.961 344.921 C 497.078 371.039, 496.689 374.365, 493.335 375.893 C 491.687 376.644, 476.746 377.087, 447.480 377.254 C 399.506 377.526, 401.548 377.232, 400.554 384.002 C 400.175 386.587, 400.570 388.132, 402.067 389.919 C 403.989 392.212, 404.612 392.326, 414.047 392.116 L 424 391.894 424 411.972 L 424 432.050 421.250 433.077 C 415.357 435.277, 409.815 438.319, 409.312 439.628 C 409.023 440.383, 408.213 441, 407.513 441 C 405.608 441, 398.313 451.154, 396.174 456.783 C 393.950 462.638, 393.363 475.306, 395.119 479.560 C 395.786 481.177, 396.409 482.725, 396.503 483 C 398.466 488.769, 399.927 491.397, 402.927 494.555 C 408.269 500.177, 414.723 504.600, 418.635 505.321 C 419.661 505.510, 422.371 506.196, 424.658 506.846 C 430.270 508.441, 439.947 507.578, 444.925 505.038 C 447.166 503.895, 449.014 503.306, 449.032 503.730 C 449.049 504.153, 449.724 503.626, 450.532 502.559 C 451.339 501.491, 452 500.924, 452 501.299 C 452 502.222, 455.528 499.325, 460.143 494.614 C 462.237 492.476, 463.739 490.386, 463.481 489.969 C 463.223 489.551, 463.585 488.990, 464.285 488.721 C 466.604 487.831, 470.039 475.028, 469.578 469 C 468.957 460.905, 468.772 460.158, 465.320 451.877 C 463.220 446.836, 452.772 436.620, 448.500 435.431 C 447.400 435.125, 445.600 434.493, 444.500 434.028 C 443.400 433.562, 441.703 432.926, 440.729 432.614 C 439.100 432.092, 438.979 430.453, 439.229 412.273 L 439.500 392.500 468.140 392.332 C 491.867 392.194, 497.297 391.898, 499.790 390.609 C 503.487 388.697, 509.821 381.450, 510.787 378.027 C 511.179 376.637, 511.766 401.375, 512.091 433 C 512.541 476.739, 512.603 470.636, 512.350 407.500 C 512.168 361.850, 511.746 322.930, 511.412 321.012 C 511.078 319.093, 510.174 316.304, 509.403 314.813 C 507.823 311.757, 502.023 306.015, 500.500 305.998 C 499.950 305.993, 498.238 305.329, 496.695 304.525 C 494.400 303.328, 488.904 303.102, 466.445 303.281 L 439 303.500 438.886 286.500 C 438.823 277.150, 438.628 268.297, 438.452 266.828 C 437.683 260.413, 432.088 254.001, 425.110 251.539 C 421.404 250.231, 413.135 250, 370.124 250 L 319.500 250 319.253 247.250 C 319.116 245.738, 318.956 243.487, 318.897 242.250 C 318.837 241.012, 318.359 240, 317.835 240 C 317.311 240, 317.160 239.550, 317.500 239 C 317.840 238.450, 317.767 237.438, 317.338 236.750 C 316.909 236.063, 316.420 234.615, 316.252 233.534 C 316.084 232.452, 315.284 230.556, 314.473 229.319 C 313.663 228.082, 313 226.380, 313 225.535 C 313 224.691, 312.550 224, 312 224 C 311.450 224, 311 223.429, 311 222.732 C 311 219.376, 293.844 201, 290.712 201 C 290.116 201, 288.700 200.130, 287.564 199.067 C 285.400 197.041, 276 192.644, 276 193.658 C 276 193.981, 275.345 193.701, 274.544 193.036 C 273.743 192.372, 272.649 192.099, 272.113 192.430 C 271.577 192.762, 270.856 192.575, 270.510 192.016 C 270.165 191.457, 269.009 191, 267.941 191 C 266.143 191, 266 190.227, 266 180.500 L 266 170 284 169.875 C 303.385 169.740, 303.015 169.758, 304.500 168.873 C 305.050 168.545, 306.637 168.006, 308.027 167.675 C 311.547 166.837, 317.340 161.241, 319.429 156.660 C 320.878 153.480, 321.188 149.773, 321.231 135.107 C 321.285 116.279, 321.015 114.934, 316.128 109.670 C 313.822 107.186, 306.333 102.912, 303.500 102.463 C 302.950 102.376, 294.232 102.236, 284.126 102.152 L 265.752 102 266.213 96.441 C 266.679 90.826, 268.785 87.374, 272 86.957 C 272.825 86.851, 290.225 86.816, 310.668 86.882 L 347.835 87 348.211 114.750 C 348.558 140.324, 348.751 142.858, 350.678 147.064 C 352.954 152.030, 357.628 156.519, 362.768 158.672 C 365.421 159.784, 377.756 160.030, 428.394 159.978 C 462.692 159.942, 491.071 159.596, 491.460 159.207 C 491.849 158.818, 492.467 158.462, 492.833 158.416 C 497.655 157.810, 505.412 149.898, 507.013 143.952 C 507.621 141.696, 507.902 117.338, 507.749 80.302 C 507.545 31.196, 507.251 20.007, 506.128 18.653 C 505.373 17.744, 505.077 17, 505.471 17 C 505.864 17, 504.328 14.781, 502.057 12.068 C 494.981 3.617, 497.535 3.882, 426.888 4.251 C 393.124 4.428, 364.478 4.869, 363.229 5.233 C 358.385 6.642, 350.352 14.143, 351.573 16.118 C 351.873 16.603, 351.719 17, 351.231 17 C 349.120 17, 348 28.119, 348 49.076 L 348 71 309.250 71.078 C 266.808 71.162, 264.586 71.429, 258.119 77.222 C 252.669 82.104, 251.207 86.307, 251.064 97.500 L 251 102.500 229.250 102.304 C 210.522 102.136, 207.014 102.346, 204 103.814 C 199.156 106.174, 196 108.332, 196 109.282 C 196 109.723, 195.087 111.063, 193.972 112.261 C 190.858 115.603, 190.281 119.223, 190.182 136.079 C 190.107 148.616, 190.414 152.375, 191.753 155.329 C 192.668 157.348, 193.773 159, 194.208 159 C 194.644 159, 195 159.610, 195 160.355 C 195 161.932, 200.493 166.785, 203.712 168.051 C 207.637 169.596, 211.157 169.834, 231.250 169.918 L 251 170 251 179.858 L 251 189.715 244.915 190.351 C 241.568 190.701, 238.306 191.314, 237.665 191.715 C 237.024 192.115, 235.600 192.569, 234.500 192.723 C 231.795 193.104, 218 200.187, 218 201.196 C 218 201.638, 217.500 202, 216.889 202 C 214.721 202, 206.424 209.868, 202.505 215.641 C 200.317 218.864, 198.206 221.737, 197.814 222.028 C 196.582 222.940, 193.113 231.373, 193.627 232.206 C 193.897 232.643, 193.604 233, 192.976 233 C 192.347 233, 192.035 233.562, 192.282 234.250 C 192.528 234.938, 192.303 236.329, 191.780 237.342 C 190.546 239.737, 189.387 247.191, 189.114 254.500 L 189.001 257.500 152.751 257 L 116.500 256.500 116.193 252.250 C 116.023 249.912, 115.489 248, 115.005 248 C 114.520 248, 114.176 247.212, 114.239 246.250 C 114.622 240.430, 104.347 227.258, 96.168 223.086 C 93.876 221.916, 92 221.249, 92 221.602 C 92 221.956, 91.333 221.692, 90.519 221.015 C 89.704 220.339, 86.666 219.497, 83.769 219.143 L 78.500 218.500 78.242 155.750 L 77.985 93 117.742 92.962 C 157.434 92.925, 165.203 92.590, 165.835 90.889 C 166.020 90.393, 166.561 90.229, 167.039 90.524 C 168.676 91.536, 179.507 81.629, 178.516 80.025 C 178.167 79.461, 178.304 79, 178.819 79 C 180.912 79, 181.865 69.555, 181.937 48.104 C 182.013 25.038, 181.463 20.572, 177.652 13.352 C 176.078 10.371, 170.428 5.256, 169.349 5.835 C 169.005 6.020, 168.352 5.570, 167.899 4.835 C 167.233 3.758, 159.525 3.500, 128.073 3.500 C 92.386 3.500, 88.925 3.647, 87.336 5.236 C 84.886 7.685, 85.114 13.114, 87.777 15.777 C 89.930 17.930, 90.366 17.955, 125.597 18.025 C 152.271 18.078, 161.547 18.404, 162.462 19.319 C 165.608 22.465, 165.939 25.168, 166.036 48.489 C 166.133 71.771, 166.092 72.273, 163.893 74.614 L 161.651 77 91.365 77 L 21.078 77 19.039 74.811 C 17.099 72.729, 17 71.401, 17 47.486 C 17 22.701, 17.032 22.319, 19.250 20.267 C 21.383 18.293, 22.673 18.179, 44 18.074 L 66.500 17.963 68.750 15.426 C 71.534 12.286, 71.598 9.648, 68.979 5.970 L 66.958 3.132 43.229 3.121 C 25.044 3.112, 18.565 3.447, 15.500 4.553 M 366.849 20.921 L 364.500 22.822 364 80.161 C 363.566 129.894, 363.699 137.863, 365 140.234 C 365.825 141.738, 367.110 143.205, 367.857 143.494 C 369.767 144.234, 487.330 144.194, 489.261 143.453 C 490.132 143.119, 491.113 142.149, 491.439 141.298 C 491.766 140.447, 492.033 113.631, 492.033 81.707 L 492.033 23.664 489.871 21.363 L 487.709 19.062 428.454 19.040 C 371.692 19.020, 369.099 19.099, 366.849 20.921 M 393 36.716 C 389.248 38.112, 388.190 40.891, 388.893 47.509 C 389.237 50.751, 393.003 51.099, 427.436 51.068 C 446.303 51.051, 462.586 50.716, 463.620 50.324 C 464.654 49.933, 466.063 49.056, 466.750 48.377 C 468.339 46.808, 468.407 40, 466.833 40 C 466.192 40, 465.960 39.707, 466.318 39.349 C 466.676 38.991, 466.188 38.105, 465.234 37.381 C 463.875 36.348, 456.050 36.074, 429 36.111 C 410.025 36.137, 393.825 36.409, 393 36.716 M 390.941 76.249 C 389.752 77.211, 388.570 79.559, 388.313 81.467 C 387.940 84.231, 388.368 85.458, 390.414 87.505 L 392.982 90.073 428.435 89.786 L 463.888 89.500 466.069 87.158 C 467.268 85.869, 468.250 83.802, 468.250 82.563 C 468.250 79.917, 465.268 75.012, 463.635 74.973 C 463.011 74.958, 446.885 74.845, 427.800 74.723 C 396.049 74.519, 392.917 74.649, 390.941 76.249 M 392.347 113.582 C 386.885 116.308, 386.946 124.029, 392.453 126.974 C 393.854 127.723, 405.513 127.979, 429.393 127.784 L 464.286 127.500 466.268 124.844 C 469.067 121.093, 468.803 117.254, 465.555 114.463 L 462.860 112.147 429.180 112.078 C 400.446 112.019, 395.037 112.240, 392.347 113.582 M 211.088 117.727 C 206.102 118.667, 205.517 120.357, 205.275 134.530 C 205.050 147.693, 205.906 152.344, 208.758 153.454 C 209.451 153.723, 230.601 153.996, 255.758 154.060 L 301.500 154.177 304.250 151.526 C 306.915 148.957, 307 148.543, 306.989 138.187 C 306.974 123.490, 306.395 120.665, 302.990 118.653 C 300.493 117.178, 295.520 117.015, 256.846 117.136 C 233.006 117.211, 212.414 117.477, 211.088 117.727 M 242.932 206.626 C 240.128 207.245, 236.634 208.317, 235.167 209.009 C 233.700 209.701, 231.393 210.770, 230.039 211.384 C 227.668 212.460, 215.120 224.348, 211.927 228.544 C 210.109 230.934, 208.615 234.181, 208.841 235.250 C 208.929 235.662, 208.550 236, 208 236 C 207.450 236, 207.076 236.338, 207.168 236.750 C 207.481 238.144, 205.779 245.018, 205.002 245.499 C 204.578 245.761, 204.359 250.593, 204.515 256.238 C 204.728 263.935, 205.315 267.687, 206.864 271.250 C 208 273.863, 208.687 276, 208.392 276 C 208.097 276, 208.788 277.186, 209.927 278.635 C 211.067 280.084, 212 281.884, 212 282.635 C 212 283.386, 212.525 284, 213.167 284 C 213.808 284, 214.088 284.245, 213.788 284.545 C 213.134 285.199, 223.263 294.806, 227.500 297.550 C 230.310 299.369, 235.560 302.055, 237.250 302.536 C 237.662 302.654, 238.113 302.841, 238.250 302.952 C 238.503 303.155, 239.088 303.312, 244.500 304.620 C 246.150 305.020, 250.665 305.292, 254.534 305.227 C 260.593 305.124, 263.954 304.611, 272 302.562 C 276.351 301.453, 283.635 296.461, 289.531 290.547 C 297.415 282.637, 299.553 278.843, 303.647 265.500 C 305.794 258.499, 302.665 236.265, 299.019 232.619 C 298.458 232.058, 298 230.955, 298 230.167 C 298 229.379, 297.070 227.928, 295.934 226.943 C 294.798 225.958, 294.011 224.930, 294.184 224.660 C 294.358 224.389, 292.363 222.061, 289.750 219.485 C 287.137 216.910, 284.993 215.184, 284.985 215.651 C 284.976 216.118, 284.639 215.990, 284.235 215.366 C 282.700 212.997, 272.057 208.149, 264.926 206.571 C 256.977 204.812, 251.081 204.827, 242.932 206.626 M 248 226.866 C 239.621 229.030, 231.914 235.453, 227.443 244 C 224.874 248.911, 224.877 262.139, 227.447 266.987 C 233.270 277.967, 242.856 284.285, 253.643 284.251 C 261.287 284.227, 269.358 281.631, 271.922 278.372 C 272.993 277.011, 274.236 275.968, 274.684 276.055 C 275.719 276.256, 282.225 266.892, 281.532 266.199 C 281.249 265.916, 281.487 265.118, 282.061 264.426 C 284.548 261.430, 282.872 245.549, 279.519 240.336 C 276.673 235.913, 270.928 231.019, 266.055 228.867 C 261.365 226.796, 252.204 225.780, 248 226.866 M 71.250 234.731 C 70.013 234.955, 69 235.527, 69 236.002 C 69 236.477, 68.156 237.133, 67.125 237.460 C 65.409 238.005, 57.477 245, 58.575 245 C 58.837 245, 58.329 246.396, 57.447 248.103 C 55.957 250.983, 55.326 258.527, 56.284 262 C 58.260 269.163, 65.435 277.195, 70.740 278.182 C 71.158 278.260, 72.976 278.656, 74.780 279.063 C 82.123 280.719, 96.406 273.795, 97.830 267.888 C 98.012 267.135, 98.657 266.212, 99.264 265.837 C 99.902 265.442, 100.381 262.046, 100.400 257.784 C 100.427 251.434, 100.031 249.725, 97.544 245.456 C 93.094 237.819, 88.298 234.925, 79.500 234.567 C 76.200 234.433, 72.487 234.507, 71.250 234.731 M 250 242.188 C 244.604 244.188, 240.561 250.173, 240.669 256 C 240.745 260.085, 245.327 267, 247.958 267 C 248.531 267, 249 267.362, 249 267.804 C 249 269.312, 256.939 269.083, 260.027 267.486 C 265.136 264.844, 267.239 262.059, 267.785 257.212 C 268.887 247.440, 258.806 238.924, 250 242.188 M 17.456 370.453 L 15.003 372.906 15.252 430.848 C 15.489 486.234, 15.584 488.884, 17.405 490.895 C 19.301 492.990, 19.583 493, 79.481 493 L 139.651 493 141.849 490.661 L 144.046 488.322 143.976 430.482 L 143.905 372.641 141.401 370.321 L 138.897 368 79.403 368 L 19.909 368 17.456 370.453 M 0.470 431.500 C 0.470 465.050, 0.596 478.630, 0.750 461.678 C 0.903 444.726, 0.903 417.276, 0.749 400.678 C 0.595 384.080, 0.470 397.950, 0.470 431.500 M 42.206 386.568 C 40.974 387.431, 40.226 388.556, 40.542 389.068 C 40.859 389.581, 40.686 390, 40.159 390 C 38.263 390, 39.627 396.280, 41.928 398.143 C 44.065 399.873, 46.606 400, 79.120 400 L 114.018 400 117.009 397.142 C 120.592 393.718, 120.779 391.217, 117.718 387.656 L 115.436 385 79.941 385 C 49.319 385, 44.138 385.215, 42.206 386.568 M 242.500 407.354 C 233.899 412.148, 231.982 413.746, 229.951 417.812 C 226.604 424.515, 226.018 431.551, 228.355 437 C 229.416 439.475, 230.783 441.831, 231.392 442.235 C 232.002 442.639, 232.057 442.976, 231.513 442.985 C 230.970 442.993, 232.942 444.725, 235.894 446.834 C 240.380 450.038, 242.174 450.705, 246.807 450.893 C 249.856 451.016, 252.609 451.144, 252.925 451.177 C 253.241 451.210, 253.838 451.127, 254.250 450.993 C 254.662 450.860, 255.338 450.677, 255.750 450.587 C 257.918 450.116, 264 446.650, 264 445.886 C 264 445.399, 264.675 445, 265.500 445 C 266.325 445, 266.890 444.663, 266.756 444.250 C 266.622 443.837, 267.509 441.894, 268.726 439.930 C 272.042 434.584, 272.709 426.385, 270.273 420.912 C 268.257 416.384, 262.962 410, 261.221 410 C 260.684 410, 259.759 409.414, 259.164 408.698 C 258.570 407.982, 256.312 407.291, 254.145 407.164 C 251.979 407.036, 248.923 406.776, 247.354 406.585 C 245.784 406.395, 243.600 406.741, 242.500 407.354 M 44 424.167 C 44 424.808, 43.715 425.049, 43.367 424.701 C 43.019 424.353, 41.881 425.153, 40.838 426.479 C 38.571 429.361, 39.019 433.438, 41.899 436.120 C 43.759 437.854, 46.087 437.952, 80.081 437.733 C 115.121 437.507, 116.318 437.436, 117.391 435.500 C 118.001 434.400, 118.859 433.235, 119.299 432.911 C 120.692 431.883, 119.142 426.568, 116.919 424.750 C 114.970 423.157, 111.611 423, 79.389 423 C 53.093 423, 44 423.300, 44 424.167 M 424.233 448.437 C 422.436 449.252, 420.817 449.824, 420.636 449.709 C 420.455 449.594, 418.138 451.637, 415.489 454.250 C 412.839 456.863, 411.025 459, 411.458 459 C 411.891 459, 411.696 459.661, 411.026 460.469 C 410.355 461.277, 409.634 464.881, 409.424 468.478 C 409.126 473.574, 409.475 475.843, 411.005 478.759 C 415.427 487.182, 423.157 492.369, 430.864 492.085 C 438.159 491.816, 441.429 491.212, 441.812 490.063 C 442.007 489.478, 442.738 489, 443.437 489 C 445.084 489, 450.063 484.396, 449.272 483.605 C 448.939 483.272, 449.192 483, 449.833 483 C 450.475 483, 451 482.363, 451 481.583 C 451 480.804, 451.471 480.010, 452.046 479.818 C 452.967 479.511, 453.779 475.918, 454.376 469.500 C 454.990 462.906, 448.695 452.854, 442.106 449.905 C 435.989 447.168, 428.407 446.545, 424.233 448.437 M 41.545 463.545 C 38.508 466.583, 38.374 468.462, 40.900 472.604 C 42.152 474.657, 43.887 475.927, 46.022 476.354 C 47.797 476.709, 63.158 477, 80.157 477 C 116.938 477, 118.555 476.667, 119.539 468.889 C 119.822 466.653, 119.278 465.187, 117.508 463.417 L 115.091 461 79.591 461 L 44.091 461 41.545 463.545" stroke="none" fill="url(#gradientColor)" fill-rule="evenodd"/></svg>