<svg xmlns="http://www.w3.org/2000/svg" viewBox="0 0 512 512" version="1.1"><defs><linearGradient id="gradientColor" x1="0%" y1="0%" x2="0%" y2="100%"><stop offset="0%" style="stop-color:rgb(0, 133, 121);stop-opacity:1" /><stop offset="100%" style="stop-color:rgb(255, 0, 0);stop-opacity:1" /></linearGradient></defs><path d="M 14.500 1.903 C 12.300 2.925, 8.834 5.503, 6.799 7.631 C -0.502 15.263, -0 5.449, 0 140.500 C 0 241.379, 0.234 262.624, 1.375 265.355 C 3.540 270.537, 9.038 276.109, 14.493 278.649 L 19.500 280.980 173.500 280.980 L 327.500 280.980 332.500 278.617 C 338.509 275.776, 342.184 272.043, 344.919 266 C 346.932 261.554, 346.956 260.065, 346.978 141.116 C 346.994 51.684, 346.698 19.723, 345.824 16.807 C 344.280 11.654, 338.062 4.692, 332.673 2.084 L 328.369 -0 173.434 0.022 C 24.549 0.043, 18.344 0.116, 14.500 1.903 M 428.500 1.890 C 426.300 2.905, 423.418 4.911, 422.096 6.347 C 419.514 9.150, 366.831 130.918, 367.636 132.220 C 367.901 132.649, 376.191 133, 386.059 133 L 404 133 404 198.500 L 404 264 413.006 264 L 422.013 264 421.756 189.750 L 421.500 115.500 407.389 115 L 393.278 114.500 413.622 67.052 C 424.812 40.956, 434.599 18.972, 435.372 18.199 C 438.958 14.613, 440.154 16.819, 461.087 65.629 C 472.314 91.808, 481.650 113.626, 481.833 114.114 C 482.017 114.603, 475.851 115, 468.083 115 L 454 115 454 156.500 L 454 198 462.500 198 L 471 198 471 165.500 L 471 133 489.500 133 C 500.021 133, 508 132.605, 508 132.085 C 508 131.582, 496.271 103.794, 481.936 70.335 C 465.157 31.172, 454.916 8.488, 453.186 6.658 C 446.956 0.068, 436.728 -1.907, 428.500 1.890 M 19.455 19.455 L 17 21.909 17 43.955 L 17 66 173.500 66 L 330 66 330 43.955 L 330 21.909 327.545 19.455 L 325.091 17 173.500 17 L 21.909 17 19.455 19.455 M 33 41.500 L 33 50 41.500 50 L 50 50 50 41.500 L 50 33 41.500 33 L 33 33 33 41.500 M 66 41.500 L 66 50 74.500 50 L 83 50 83 41.500 L 83 33 74.500 33 L 66 33 66 41.500 M 99 41.500 L 99 50 107.500 50 L 116 50 116 41.500 L 116 33 107.500 33 L 99 33 99 41.500 M 17 170.889 C 17 255.933, 17.062 258.855, 18.912 261.139 L 20.823 263.500 171.662 263.763 C 278.035 263.949, 323.272 263.708, 325.120 262.946 C 326.561 262.351, 328.249 260.749, 328.870 259.385 C 329.682 257.603, 330 232.448, 330 169.953 L 330 83 173.500 83 L 17 83 17 170.889 M 33 173.500 L 33 248 107.500 248 L 182 248 182 173.500 L 182 99 107.500 99 L 33 99 33 173.500 M 198 107.500 L 198 116 206.500 116 L 215 116 215 107.500 L 215 99 206.500 99 L 198 99 198 107.500 M 231 107.500 L 231 116 272.500 116 L 314 116 314 107.500 L 314 99 272.500 99 L 231 99 231 107.500 M 50 173.500 L 50 231 107.500 231 L 165 231 165 173.500 L 165 116 107.500 116 L 50 116 50 173.500 M 198 140.500 L 198 149 256 149 L 314 149 314 140.500 L 314 132 256 132 L 198 132 198 140.500 M 198 173.500 L 198 182 256 182 L 314 182 314 173.500 L 314 165 256 165 L 198 165 198 173.500 M 198 206.500 L 198 215 239.500 215 L 281 215 281 206.500 L 281 198 239.500 198 L 198 198 198 206.500 M 297 206.500 L 297 215 305.500 215 L 314 215 314 206.500 L 314 198 305.500 198 L 297 198 297 206.500 M 454 223 L 454 232 462.500 232 L 471 232 471 223 L 471 214 462.500 214 L 454 214 454 223 M 198 239.500 L 198 248 256 248 L 314 248 314 239.500 L 314 231 256 231 L 198 231 198 239.500 M 454 278.520 L 454 309.041 450.250 307.146 C 444.965 304.475, 431.293 300.010, 426.285 299.319 L 422.069 298.738 421.785 289.119 L 421.500 279.500 413 279.500 L 404.500 279.500 404.213 288.149 L 403.925 296.799 379.213 297.244 C 356.615 297.651, 353.669 297.911, 344.794 300.276 C 309.563 309.665, 281.398 335.768, 270.101 369.500 L 267.087 378.500 256 378.500 L 244.913 378.500 241.899 369.500 C 230.611 335.796, 202.713 309.915, 167.206 300.209 C 157.603 297.584, 157.143 297.556, 124 297.556 C 90.675 297.556, 90.448 297.570, 80.500 300.273 C 38.658 311.640, 7.766 345.816, 0.965 388.264 C -0.941 400.158, 0.219 421.197, 3.420 432.794 C 8.505 451.218, 17.568 466.652, 31.458 480.542 C 45.442 494.526, 60.698 503.447, 79.728 508.768 L 89.500 511.500 124 511.500 C 156.703 511.500, 158.926 511.383, 166.677 509.247 C 203.383 499.135, 230.974 473.301, 242.501 438.250 L 245.214 430 256 430 L 266.786 430 269.499 438.250 C 281.026 473.301, 308.617 499.135, 345.323 509.247 C 353.074 511.383, 355.297 511.500, 388 511.500 C 422.343 511.500, 422.543 511.488, 432 508.831 C 469.795 498.212, 498.645 469.454, 508.576 432.500 C 509.907 427.550, 510.996 422.289, 510.997 420.809 C 510.999 419.329, 511.450 417.840, 512 417.500 C 512.587 417.137, 513 411.303, 513 403.382 C 513 395.938, 512.608 390.124, 512.126 390.422 C 511.646 390.719, 510.949 388.676, 510.579 385.882 C 509.624 378.683, 505.365 365.703, 501.266 357.500 C 495.499 345.958, 489.134 337.181, 479.821 327.930 L 471 319.168 471 283.584 L 471 248 462.500 248 L 454 248 454 278.520 M 94.539 315.061 C 74.669 318.127, 56.073 327.810, 42.432 342.194 C 24.503 361.099, 16.196 382.859, 17.310 408 C 17.933 422.066, 20.514 432.372, 26.451 444.500 C 37.668 467.416, 59.402 485.257, 84.500 492.152 C 91.594 494.101, 95.566 494.396, 119.584 494.757 C 141.285 495.083, 148.507 494.846, 155.923 493.567 C 173.462 490.540, 188.952 482.789, 201.742 470.640 C 210.922 461.920, 216.676 454.004, 221.885 442.928 C 228.363 429.157, 228.563 429.999, 218.817 430.004 L 210.500 430.007 208.653 434.499 C 201.933 450.840, 186.320 466.258, 169.256 473.405 C 157.386 478.377, 152.572 478.969, 123.910 478.985 C 93.259 479.002, 87.691 478.107, 73 470.800 C 66.090 467.363, 62.716 464.788, 54.964 457.036 C 47.217 449.289, 44.634 445.905, 41.196 439 C 34.751 426.056, 32.671 416.296, 33.222 401.577 C 33.747 387.523, 36.437 378.078, 43.212 366.500 C 49.138 356.372, 61.516 344.479, 71.500 339.320 C 87.577 331.013, 90.599 330.500, 123.500 330.500 C 156.237 330.500, 159.280 330.953, 173.500 337.942 C 188.325 345.229, 201.569 358.703, 207.712 372.750 L 210.445 379 218.790 379 C 228.460 379, 228.201 379.823, 222.474 367.308 C 213.395 347.464, 198.853 332.635, 179.354 323.334 C 163.028 315.546, 158.380 314.748, 127.500 314.424 C 112.650 314.269, 97.818 314.555, 94.539 315.061 M 358.039 315.118 C 328.474 319.575, 302.213 339.579, 289.526 367.308 C 283.799 379.823, 283.540 379, 293.210 379 L 301.555 379 304.288 372.750 C 310.431 358.703, 323.675 345.229, 338.500 337.942 C 352.720 330.953, 355.763 330.500, 388.500 330.500 C 416.115 330.500, 417.858 330.612, 425 332.843 C 449.429 340.475, 467.361 357.691, 475.680 381.500 C 478.266 388.902, 478.473 390.621, 478.452 404.500 C 478.432 418.097, 478.178 420.248, 475.740 427.500 C 471.805 439.206, 466.588 447.423, 457.006 457.006 C 447.452 466.559, 439.260 471.771, 427.500 475.776 L 419.500 478.500 388 478.500 L 356.500 478.500 348.500 475.692 C 328.618 468.714, 312.317 454.261, 304.435 436.623 L 301.500 430.054 293.183 430.027 C 283.436 429.995, 283.636 429.154, 290.115 442.928 C 302.809 469.916, 327.102 488.566, 356.077 493.567 C 363.493 494.846, 370.715 495.083, 392.416 494.757 C 423.447 494.291, 428.464 493.403, 444.500 485.543 C 467.452 474.294, 485.225 452.649, 492.161 427.500 C 495.305 416.099, 495.299 393.109, 492.148 381.554 C 483.443 349.626, 457.889 324.878, 424.871 316.397 C 417.268 314.444, 368.680 313.514, 358.039 315.118 M 98 348.009 C 71.968 352.488, 52.395 374.060, 50.297 400.583 C 48.488 423.450, 61.402 445.875, 82.128 455.856 C 93.900 461.526, 99.612 462.258, 128.187 461.758 C 150.260 461.372, 153.073 461.126, 158.723 459.084 C 170.256 454.916, 181.965 445.755, 188.161 436.054 C 189.722 433.609, 191 431.337, 191 431.004 C 191 430.672, 188.412 429.852, 185.250 429.182 C 170.244 426.003, 161.749 411.584, 166.176 396.807 C 168.527 388.960, 178.968 380.112, 186 380.007 C 191.191 379.929, 191.592 378.598, 188.076 373.118 C 180.455 361.243, 166.138 351.618, 151.471 348.511 C 143.904 346.909, 106.443 346.557, 98 348.009 M 360.072 348.503 C 345.704 351.731, 331.397 361.473, 323.924 373.118 C 320.408 378.598, 320.809 379.929, 326 380.007 C 332.899 380.110, 342.723 388.122, 345.457 395.876 C 350.690 410.715, 342.150 425.920, 326.750 429.182 C 323.587 429.852, 321 430.672, 321 431.004 C 321 431.337, 322.278 433.609, 323.839 436.054 C 330.035 445.755, 341.744 454.916, 353.277 459.084 C 358.927 461.126, 361.740 461.372, 383.813 461.758 C 412.388 462.258, 418.100 461.526, 429.872 455.856 C 450.598 445.875, 463.512 423.450, 461.703 400.583 C 459.870 377.413, 444.962 358.095, 422.880 350.276 C 415.811 347.774, 414.468 347.651, 391 347.361 C 372.369 347.132, 364.960 347.405, 360.072 348.503 M 0.395 404.500 C 0.396 412.200, 0.553 415.218, 0.743 411.206 C 0.934 407.195, 0.932 400.895, 0.741 397.206 C 0.549 393.518, 0.393 396.800, 0.395 404.500 M 184.455 399.455 C 181.346 402.563, 181.332 406.111, 184.413 409.694 L 186.827 412.500 256 412.500 L 325.173 412.500 327.587 409.694 C 330.668 406.111, 330.654 402.563, 327.545 399.455 L 325.091 397 256 397 L 186.909 397 184.455 399.455" stroke="none" class="tool_gradient_color" fill="url(#gradientColor)" fill-rule="evenodd"/></svg>