<svg xmlns="http://www.w3.org/2000/svg" viewBox="0 0 512 512" version="1.1"><path d="M 310.418 0.969 C 306.959 2.368, 303.244 7.650, 301.500 13.646 C 299.620 20.115, 298.156 23.251, 288.267 42 C 280.671 56.404, 278 64.514, 278 73.184 C 278 77.878, 279.621 86.286, 281.434 91 C 281.930 92.288, 279.799 92.535, 266.374 92.747 C 205.582 93.705, 147.134 117.949, 105.460 159.494 C 73.969 190.888, 55.722 225.883, 47.840 270 C 45.804 281.396, 46.083 318.909, 48.294 331 C 64.702 420.742, 139.681 488.864, 238.067 503.419 C 253.053 505.635, 260.594 505.678, 262.936 503.558 C 266.691 500.159, 266.301 493.302, 262.229 491.122 C 261.202 490.573, 255.443 489.606, 249.431 488.973 C 206.918 484.499, 169.157 469.632, 135.500 444.115 C 126.555 437.334, 108.609 419.587, 101.507 410.500 C 82.767 386.522, 71.088 361.840, 64.837 333 C 62.832 323.748, 62.561 319.707, 62.561 299 C 62.561 272.414, 63.722 264.673, 70.969 242.901 C 91.673 180.705, 147.807 131.776, 218.122 114.635 C 237.040 110.024, 249.857 108.578, 272.202 108.538 L 292.904 108.500 296.702 112.187 C 298.791 114.215, 303.133 117.454, 306.351 119.383 C 311.878 122.697, 312.222 123.131, 312.539 127.196 C 312.724 129.563, 316.199 143.598, 320.261 158.385 L 327.647 185.270 325.823 188.846 C 323.428 193.544, 323.522 196.778, 326.354 207.069 C 329.912 220.003, 333.028 223.596, 341.770 224.850 L 346.305 225.500 349.604 239.500 C 351.418 247.200, 352.925 253.830, 352.951 254.233 C 352.978 254.636, 350.637 256.161, 347.750 257.622 C 333.708 264.724, 323.566 273.746, 318.005 284.081 C 314.850 289.947, 314.551 291.232, 314.533 299 C 314.516 306.443, 314.871 308.180, 317.383 312.965 C 323.634 324.873, 333.397 333.264, 351.500 342.286 C 362.849 347.943, 374.130 355.672, 376.454 359.383 C 377.183 360.547, 379.680 369.825, 382.003 380 C 384.326 390.175, 388.037 404.800, 390.250 412.500 L 394.274 426.500 392.053 433 C 384.997 453.655, 369.444 469.301, 348.376 476.937 C 335.224 481.704, 318.448 485.791, 304.692 487.581 C 297.987 488.454, 291.049 489.792, 289.276 490.555 C 283.949 492.848, 283.542 500.344, 288.567 503.636 C 290.836 505.123, 292.173 505.169, 301.301 504.076 C 322.793 501.504, 351.014 494.047, 364.065 487.491 C 377.286 480.850, 391.949 467.331, 399.078 455.210 L 402.657 449.126 407.510 459.813 C 414.589 475.404, 429.214 502.265, 432.850 506.356 C 438.378 512.576, 449.679 513.858, 457.160 509.113 C 464.703 504.330, 466 500.387, 466 482.239 C 466 449.345, 461.383 416.992, 451.852 383.102 C 447.791 368.663, 443.307 364.824, 436.635 370.073 C 433.382 372.631, 433.219 376.255, 435.958 385.145 C 444.829 413.934, 449.990 448.698, 449.997 479.715 C 450 493.357, 449.814 495.029, 448.196 495.895 C 447.204 496.426, 445.883 496.546, 445.262 496.162 C 442.183 494.259, 422.471 456.122, 415.694 438.956 C 406.987 416.904, 403.678 404.096, 378.929 296.655 C 366.515 242.761, 362.015 221.609, 362.854 221.090 C 364.957 219.790, 382.039 215.706, 382.682 216.349 C 383.028 216.694, 392.438 246.054, 403.594 281.593 C 414.751 317.131, 424.651 347.061, 425.594 348.104 C 428.264 351.055, 434.337 350.659, 436.927 347.365 C 438.067 345.916, 438.992 344.003, 438.983 343.115 C 438.973 342.227, 432.746 321.700, 425.145 297.500 L 411.324 253.500 417.202 250.338 C 440.243 237.940, 453.219 211.041, 448.622 185.205 C 446.925 175.666, 443.075 166.872, 437.149 159 C 429.491 148.828, 405.295 130.480, 387.477 121.335 C 381.084 118.053, 379.922 117.052, 379.419 114.397 C 379.097 112.690, 378.019 110.054, 377.025 108.538 C 375.241 105.819, 375.255 105.722, 378.064 101.141 C 388.903 83.464, 389.120 60.034, 378.596 43.583 C 374.028 36.441, 367.443 30.935, 353.820 22.862 C 342.959 16.426, 337.090 12.316, 326.172 3.496 C 322.562 0.579, 321.070 0.011, 317.172 0.063 C 314.603 0.098, 311.563 0.506, 310.418 0.969 M 314.730 23.834 C 313.229 28.050, 308.427 37.990, 304.059 45.921 C 299.691 53.853, 295.583 62.569, 294.931 65.290 C 291.121 81.171, 300.393 98.763, 317.125 107.398 L 322.500 110.172 340.989 105.010 C 351.158 102.171, 360.082 99.347, 360.821 98.734 C 363.048 96.885, 367.953 86.347, 369.626 79.813 C 372.809 67.388, 368.556 52.974, 359.522 45.571 C 357.092 43.580, 350.468 39.202, 344.802 35.842 C 331.823 28.147, 326.548 24.533, 321.479 19.869 L 317.459 16.168 314.730 23.834 M 344.057 120.404 C 335.563 122.744, 328.476 125.073, 328.306 125.581 C 327.953 126.641, 341.535 176.868, 342.412 177.746 C 342.873 178.207, 376.854 169.479, 377.634 168.699 C 377.920 168.413, 364.067 117.918, 363.411 116.856 C 362.572 115.499, 360.452 115.888, 344.057 120.404 M 249.174 128.028 C 236.849 129.815, 225.269 138.644, 219.295 150.808 C 216.774 155.942, 216.500 157.528, 216.500 167 C 216.500 176.472, 216.774 178.058, 219.295 183.192 C 227.374 199.643, 244.038 208.580, 261.494 205.824 C 277.498 203.297, 289.452 192.192, 293.581 176.015 C 300.410 149.260, 277.025 123.989, 249.174 128.028 M 389.088 149.750 C 390.699 155.662, 392.456 162.075, 392.992 164 C 393.618 166.246, 395.041 168.106, 396.963 169.192 C 400.995 171.469, 403.457 175.800, 405.931 184.970 C 409.405 197.843, 408.456 203.006, 401.572 208.680 L 398.102 211.540 402.177 224.520 C 404.418 231.659, 406.399 237.667, 406.580 237.871 C 407.228 238.602, 415.567 233.135, 419.205 229.596 C 430.547 218.561, 435.903 202.382, 433.043 187.791 C 430.491 174.764, 424.340 166.046, 409.603 154.567 C 402.050 148.684, 387.774 139, 386.655 139 C 386.382 139, 387.477 143.838, 389.088 149.750 M 247.707 144.556 C 242.159 146.327, 235.784 152.189, 233.523 157.599 C 232.685 159.604, 232.004 164.002, 232.009 167.372 C 232.036 184.844, 250.325 195.997, 265.910 188.046 C 279.643 181.040, 283.306 162.985, 273.252 151.857 C 266.417 144.292, 256.984 141.596, 247.707 144.556 M 153.329 169.888 C 134.175 176.952, 123.316 196.253, 127.420 215.938 C 135.353 253.983, 186.699 260.302, 203.291 225.275 C 206.269 218.987, 206.500 217.745, 206.500 208 C 206.500 198.345, 206.252 196.977, 203.418 190.997 C 199.470 182.667, 192.333 175.530, 184.003 171.582 C 178.372 168.913, 176.226 168.465, 168 168.241 C 160.645 168.040, 157.332 168.412, 153.329 169.888 M 364.500 188.767 C 351.300 192.356, 340.319 195.445, 340.098 195.632 C 339.252 196.345, 343.279 209.002, 344.361 209.031 C 344.987 209.048, 355.962 206.270, 368.750 202.857 C 394.878 195.885, 393.355 196.985, 390.189 187.371 L 388.500 182.242 364.500 188.767 M 161.500 183.888 C 145.386 188.066, 137.619 205.576, 145.514 219.927 C 150.243 228.523, 160.487 233.890, 169.743 232.622 C 180.655 231.126, 189.633 222.307, 191.463 211.287 C 192.985 202.126, 186.769 190.474, 177.963 185.981 C 173.660 183.786, 165.764 182.782, 161.500 183.888 M 119 262.394 C 98.244 268.201, 85 285.622, 85 307.121 C 85 347.345, 132.388 367.755, 162.041 340.301 C 172.892 330.256, 178.522 314.403, 176.206 300.422 C 173.963 286.889, 164.311 272.753, 153.174 266.691 C 143.367 261.354, 129.122 259.562, 119 262.394 M 350.224 274.120 C 343.137 278.251, 334.326 286.441, 331.942 291.113 C 325.632 303.482, 334.235 315.560, 358.306 328.127 C 365.288 331.772, 371 334.222, 371 333.570 C 371 332.919, 367.850 318.776, 364 302.142 C 360.150 285.508, 357 271.696, 357 271.449 C 357 270.490, 355.301 271.160, 350.224 274.120 M 117.200 280.058 C 106.755 285.277, 100.605 295.263, 100.605 307 C 100.605 324.458, 114.970 337.860, 132.500 336.757 C 143.993 336.033, 152.754 330.273, 157.710 320.182 C 163.596 308.195, 160.517 293.027, 150.388 284.111 C 144.768 279.163, 138.559 277, 129.982 277 C 124.552 277, 122.187 277.566, 117.200 280.058 M 170.329 361.877 C 151.928 368.704, 141.533 385.855, 144.159 405.053 C 147.079 426.406, 168.363 442.075, 189.187 438.202 C 206.194 435.040, 218.105 423.606, 221.536 407.149 C 225.191 389.620, 216.405 371.755, 200.207 363.781 C 194.592 361.017, 192.460 360.537, 184.602 360.269 C 177.518 360.027, 174.353 360.383, 170.329 361.877 M 171.738 378.572 C 165.962 381.579, 161.603 387.319, 159.989 394.045 C 154.693 416.122, 182.527 432.361, 198.834 416.707 C 208.279 407.641, 209.212 393.707, 201.036 383.840 C 194.396 375.827, 181.474 373.504, 171.738 378.572 M 267 390.317 C 255.136 393.014, 244.371 401.707, 239.180 412.782 C 236.807 417.846, 236.500 419.701, 236.500 429 C 236.500 438.590, 236.755 440.020, 239.439 445.500 C 243.186 453.151, 250.837 460.802, 258.500 464.558 C 264.035 467.272, 265.353 467.500, 275.500 467.500 C 285.657 467.500, 286.939 467.278, 292.230 464.597 C 311.126 455.026, 319.313 434.275, 311.954 414.607 C 305.306 396.839, 285.466 386.119, 267 390.317 M 267.627 406.468 C 257.785 409.977, 251.994 418.297, 252.009 428.907 C 252.017 434.340, 252.528 436.388, 254.914 440.548 C 263.197 454.989, 282.366 456.737, 293.232 444.042 C 301.631 434.230, 300.976 421.567, 291.598 412.418 C 284.392 405.387, 276.297 403.378, 267.627 406.468" stroke="none" class="tool_gradient_color" fill-rule="evenodd"/></svg>