<svg xmlns="http://www.w3.org/2000/svg" viewBox="0 0 512 512" version="1.1"><defs><linearGradient id="gradientColor" x1="0%" y1="0%" x2="0%" y2="100%"><stop offset="0%" style="stop-color:rgb(0, 133, 121);stop-opacity:1" /><stop offset="100%" style="stop-color:rgb(255, 0, 0);stop-opacity:1" /></linearGradient></defs><path d="M 44.500 17.397 C 33.299 20.964, 24.523 28.571, 19.582 38.997 L 16.500 45.500 16.500 232 L 16.500 418.500 19.582 425.003 C 23.549 433.373, 30.672 440.483, 38.997 444.381 C 44.386 446.905, 47.066 447.495, 54.636 447.827 L 63.771 448.229 64.173 457.364 C 64.505 464.934, 65.095 467.614, 67.619 473.003 C 71.517 481.328, 78.627 488.451, 86.997 492.418 L 93.500 495.500 280 495.500 L 466.500 495.500 473.003 492.418 C 481.333 488.470, 488.470 481.333, 492.418 473.003 L 495.500 466.500 495.500 280 L 495.500 93.500 492.418 86.997 C 488.451 78.627, 481.328 71.517, 473.003 67.619 C 467.614 65.095, 464.934 64.505, 457.364 64.173 L 448.229 63.771 447.827 54.636 C 447.495 47.066, 446.905 44.386, 444.381 38.997 C 440.483 30.672, 433.373 23.549, 425.003 19.582 L 418.500 16.500 233.500 16.311 C 86.003 16.161, 47.689 16.381, 44.500 17.397 M 49.713 33.422 C 43.474 35.100, 38.121 39.524, 35.006 45.577 C 32.734 49.991, 32.470 51.807, 32.142 65.220 L 31.782 80 232 80 L 432.218 80 431.858 65.220 C 431.528 51.724, 431.275 50.010, 428.944 45.480 C 425.747 39.268, 419.627 34.515, 412.994 33.092 C 405.028 31.384, 56.115 31.701, 49.713 33.422 M 64 56 L 64 64 72 64 L 80 64 80 56 L 80 48 72 48 L 64 48 64 56 M 96 56 L 96 64 104 64 L 112 64 112 56 L 112 48 104 48 L 96 48 96 56 M 128 56 L 128 64 136 64 L 144 64 144 56 L 144 48 136 48 L 128 48 128 56 M 448 103.855 L 448 128 464 128 L 480 128 480 116.049 C 480 101.300, 478.744 95.131, 474.649 89.762 C 470.333 84.103, 464.054 81.056, 455.179 80.312 L 448 79.710 448 103.855 M 32.235 254.777 L 32.500 413.554 35.055 418.518 C 38.253 424.732, 44.373 429.485, 51.006 430.908 C 58.183 432.447, 405.817 432.447, 412.994 430.908 C 419.627 429.485, 425.747 424.732, 428.945 418.519 L 431.500 413.556 431.784 351.528 L 432.067 289.500 390.784 330.500 L 349.500 371.500 311.958 385.750 C 291.310 393.587, 273.051 400, 271.382 400 C 267.540 400, 264 396.381, 264 392.451 C 264 390.846, 270.412 372.650, 278.250 352.016 L 292.500 314.500 362.250 244.484 L 432 174.467 432 135.234 L 432 96 231.985 96 L 31.970 96 32.235 254.777 M 66.174 130.314 C 64.011 132.618, 64 132.842, 64 176.140 L 64 219.651 66.314 221.826 L 68.629 224 136.140 224 L 203.651 224 205.826 221.686 C 207.989 219.382, 208 219.158, 208 175.860 L 208 132.349 205.686 130.174 L 203.371 128 135.860 128 L 68.349 128 66.174 130.314 M 240 144 L 240 152 248 152 L 256 152 256 144 L 256 136 248 136 L 240 136 240 144 M 272 144 L 272 152 336 152 L 400 152 400 144 L 400 136 336 136 L 272 136 272 144 M 80 176 L 80 208 136 208 L 192 208 192 176 L 192 144 136 144 L 80 144 80 176 M 448 157.762 L 448 171.523 464 187.500 L 480 203.477 480 173.738 L 480 144 464 144 L 448 144 448 157.762 M 240 176 L 240 184 312 184 L 384 184 384 176 L 384 168 312 168 L 240 168 240 176 M 430.497 200.004 L 419.521 211.013 436.259 227.752 L 452.998 244.491 464.002 233.487 L 475.005 222.483 458.239 205.739 L 441.472 188.994 430.497 200.004 M 240 208 L 240 216 296 216 L 352 216 352 208 L 352 200 296 200 L 240 200 240 208 M 359.727 270.773 L 311.970 318.538 317.501 324.001 L 323.033 329.464 370.760 281.737 L 418.488 234.010 412.987 228.508 L 407.485 223.007 359.727 270.773 M 463.771 257.738 L 448.042 273.500 447.771 346 L 447.500 418.500 444.418 425.003 C 440.470 433.333, 433.333 440.470, 425.003 444.418 L 418.500 447.500 249.106 447.761 L 79.712 448.023 80.313 455.190 C 81.394 468.088, 88.223 476.662, 99.229 478.941 C 102.951 479.712, 156.955 479.954, 283.027 479.766 L 461.554 479.500 466.518 476.945 C 472.848 473.688, 477.531 467.589, 478.936 460.771 C 479.689 457.121, 479.943 422.675, 479.762 348.738 L 479.500 241.976 463.771 257.738 M 382.015 293.485 L 334.538 340.970 340 346.500 L 345.462 352.030 393.217 304.283 L 440.973 256.535 435.770 251.268 C 432.909 248.370, 430.326 246, 430.030 246 C 429.734 246, 408.127 267.368, 382.015 293.485 M 64 264 L 64 272 72 272 L 80 272 80 264 L 80 256 72 256 L 64 256 64 264 M 96 264 L 96 272 200 272 L 304 272 304 264 L 304 256 200 256 L 96 256 96 264 M 64 296 L 64 304 168 304 L 272 304 272 296 L 272 288 168 288 L 64 288 64 296 M 64 328 L 64 336 152 336 L 240 336 240 328 L 240 320 152 320 L 64 320 64 328 M 300.438 341.580 L 297.674 349.160 306.257 357.743 L 314.840 366.326 322.420 363.562 C 326.589 362.041, 330 360.541, 330 360.228 C 330 359.439, 304.653 334.026, 303.851 334.012 C 303.495 334.005, 301.959 337.411, 300.438 341.580 M 64 360 L 64 368 152 368 L 240 368 240 360 L 240 352 152 352 L 64 352 64 360 M 288.789 371.714 C 287.857 374.306, 287.218 376.551, 287.370 376.703 C 287.632 376.965, 296.031 373.975, 296.927 373.301 C 297.425 372.926, 291.902 367, 291.055 367 C 290.741 367, 289.721 369.121, 288.789 371.714 M 64 392 L 64 400 152 400 L 240 400 240 392 L 240 384 152 384 L 64 384 64 392" stroke="none" class="tool_gradient_color" fill="url(#gradientColor)" fill-rule="evenodd"/></svg>