<svg xmlns="http://www.w3.org/2000/svg" viewBox="0 0 512 512" version="1.1"><defs><linearGradient id="gradientColor" x1="0%" y1="0%" x2="0%" y2="100%"><stop offset="0%" style="stop-color:rgb(255, 255, 255);stop-opacity:1" /><stop offset="100%" style="stop-color:rgb(255, 0, 0);stop-opacity:1" /></linearGradient></defs><path d="M 75 2.132 C 41.037 11.238, 13.312 39.230, 3.820 74 C 1.790 81.436, 1.507 84.690, 1.557 100 C 1.610 116.158, 1.826 118.190, 4.367 126.500 C 9.704 143.950, 17.814 157.739, 29.946 169.987 C 38.397 178.519, 45.906 183.930, 57 189.482 C 61.125 191.546, 64.644 193.363, 64.819 193.520 C 64.995 193.677, 63.763 199.361, 62.083 206.153 C 54.004 238.798, 54.004 271.202, 62.083 303.847 C 63.763 310.639, 64.995 316.323, 64.819 316.480 C 64.644 316.637, 61.125 318.454, 57 320.518 C 30.914 333.572, 12.874 355.188, 4.438 383.500 C 0.832 395.603, -0.050 416.116, 2.461 429.475 C 4.381 439.687, 9.324 453.324, 12.118 456.118 C 14.701 458.701, 20.410 458.590, 23.096 455.904 C 25.743 453.257, 25.354 449.633, 21.176 438 C 8.250 402.016, 22.817 360.426, 55.780 339.205 C 82.210 322.189, 117.090 321.563, 144.440 337.612 C 155.124 343.881, 168.267 357, 174.386 367.500 C 187.662 390.283, 189.727 418.947, 179.812 442.790 C 171.984 461.614, 157.317 477.448, 139.500 486.313 C 109.497 501.240, 75.538 497.795, 48.525 477.082 C 44.162 473.737, 39.620 471, 38.431 471 C 37.242 471, 35.084 471.933, 33.635 473.073 C 31.612 474.664, 31 476.030, 31 478.956 C 31 482.108, 31.665 483.368, 34.846 486.241 C 45.097 495.503, 61.400 504.194, 76 508.180 C 83.436 510.210, 86.690 510.493, 102 510.443 C 118.158 510.390, 120.190 510.174, 128.500 507.633 C 145.950 502.296, 159.739 494.186, 171.987 482.054 C 180.706 473.418, 186.435 465.385, 191.828 454.234 L 195.590 446.455 203.545 448.690 C 221.035 453.604, 235.172 455.396, 256.500 455.400 C 278.248 455.404, 285.775 454.540, 305.264 449.799 C 312.283 448.091, 318.146 446.875, 318.291 447.097 C 318.436 447.319, 320.494 451.403, 322.864 456.173 C 336.363 483.338, 362.939 503.266, 394.080 509.576 C 406.430 512.079, 427.431 511.153, 439.500 507.575 C 475.003 497.048, 501.098 470.306, 510.060 435.265 C 512.874 424.261, 512.846 396.606, 510.009 385.775 C 502.647 357.670, 483.894 334.345, 458.078 321.186 L 448.486 316.297 450.704 308.398 C 460.294 274.241, 459.944 231.700, 449.795 198.089 L 448.463 193.677 457.982 188.894 C 483.811 175.912, 502.917 152.195, 510.067 124.236 C 512.843 113.384, 512.839 85.599, 510.060 74.735 C 505.503 56.917, 496.801 41.691, 483.570 28.383 C 470.976 15.716, 457.131 7.574, 439.638 2.547 C 431.596 0.236, 429.092 0, 412.576 0 C 397.377 0, 393.068 0.342, 386.438 2.074 C 376.868 4.576, 364.549 10.207, 355.881 16.045 C 342.263 25.215, 327.878 42.153, 321.280 56.786 C 319.863 59.929, 318.589 62.644, 318.449 62.819 C 318.309 62.995, 312.639 61.763, 305.847 60.083 C 273.202 52.004, 240.798 52.004, 208.153 60.083 C 201.361 61.763, 195.677 62.995, 195.520 62.819 C 195.363 62.644, 193.546 59.125, 191.482 55 C 178.431 28.919, 156.480 10.602, 128.638 2.560 C 120.496 0.208, 118.263 0.005, 101.138 0.061 C 85.755 0.111, 81.190 0.472, 75 2.132 M 91.472 15.042 C 71.834 17.610, 55.107 25.765, 41.436 39.436 C 18.485 62.388, 10.719 95.472, 21.047 126.299 C 30.704 155.124, 54.971 176.488, 84.942 182.551 C 91.304 183.838, 96.230 184.124, 104.942 183.714 C 118.124 183.092, 124.630 181.549, 137.806 175.920 C 146.193 172.337, 147.377 172.071, 149.797 173.231 C 153.649 175.078, 155.271 178.925, 153.880 182.916 C 153.010 185.411, 151.355 186.802, 146.137 189.426 C 130.950 197.063, 112.748 200.728, 95.500 199.623 C 90 199.270, 84.353 198.726, 82.951 198.413 C 80.458 197.856, 80.345 198.077, 77.703 208.672 C 73.029 227.417, 72.497 232.301, 72.552 256 C 72.599 276.441, 72.847 279.644, 75.262 291 C 79.003 308.589, 80.152 311.554, 83.118 311.280 C 97.045 309.994, 107.766 309.882, 115.052 310.947 C 167.104 318.558, 204.880 364.372, 201.611 415.925 C 201.242 421.741, 200.841 427.622, 200.720 428.994 C 200.512 431.355, 201.052 431.630, 210.942 434.200 C 240.172 441.793, 273.774 441.795, 303.058 434.206 L 313.500 431.500 313 427 C 312.725 424.525, 312.536 416.200, 312.581 408.500 C 312.680 391.158, 314.785 382.220, 322.472 366.500 C 337.278 336.220, 365.296 315.868, 398.948 310.947 C 406.265 309.877, 416.271 309.981, 430.994 311.280 C 433.355 311.488, 433.630 310.948, 436.200 301.058 C 444.297 269.890, 443.743 232.807, 434.736 203 C 433.573 199.150, 433.024 198.532, 430.938 198.720 C 416.612 200.013, 406.250 200.120, 398.948 199.053 C 365.301 194.133, 337.297 173.793, 322.465 143.500 C 314.722 127.688, 312.630 118.816, 312.558 101.500 C 312.526 93.800, 312.725 85.524, 313 83.108 C 313.497 78.741, 313.477 78.708, 309.500 77.318 C 307.300 76.550, 299.875 74.724, 293 73.262 C 281.644 70.847, 278.441 70.599, 258 70.552 C 234.319 70.497, 229.413 71.030, 210.740 75.685 L 199.980 78.368 200.740 83.434 C 202.239 93.428, 201.385 114.913, 199.157 123.242 C 195.204 138.018, 187.185 154.217, 179.935 162.070 C 175.749 166.605, 171.330 167.330, 168.025 164.025 C 163.939 159.939, 164.335 157.692, 170.876 147.864 C 181.095 132.509, 186 116.788, 186 99.392 C 186 55.979, 153.781 20.006, 110.454 15.042 C 100.579 13.911, 100.121 13.911, 91.472 15.042 M 403 14.985 C 369.348 19.206, 342.720 40.933, 331.895 73 C 329.082 81.336, 328.633 84.155, 328.236 96 C 327.855 107.341, 328.119 110.908, 329.885 118.301 C 335.749 142.852, 352.418 164.129, 374.500 175.249 C 395.549 185.849, 423.024 186.863, 444.720 177.841 C 468.201 168.076, 486.299 147.987, 494.156 122.965 C 496.224 116.379, 496.497 113.557, 496.477 99 C 496.455 82.998, 496.356 82.213, 493.185 73 C 485.227 49.872, 468.281 31.207, 446.425 21.497 C 434.269 16.097, 415.991 13.356, 403 14.985 M 417.372 42.212 C 412.025 43.934, 404.876 50.184, 401.599 56 C 398.601 61.321, 398.489 61.963, 398.156 75.750 L 397.812 90 391.361 90 C 385.844 90, 384.553 90.356, 382.455 92.455 C 379.752 95.157, 379.271 99.457, 381.363 102.211 C 383.221 104.655, 387.373 106, 393.065 106 L 398 106 398 128.453 C 398 143.011, 398.397 151.778, 399.130 153.385 C 400.733 156.905, 405.184 158.581, 408.870 157.054 C 413.584 155.101, 414 152.791, 414 128.566 L 414 106.226 421.121 105.823 C 427.406 105.468, 428.520 105.096, 430.621 102.655 C 433.670 99.109, 433.644 95.553, 430.545 92.455 C 428.404 90.313, 427.192 90, 421.045 90 L 414 90 414 77.904 C 414 68.502, 414.364 65.192, 415.636 63.040 C 418.220 58.665, 421.997 57, 429.339 57 C 436.525 57, 440.651 55.824, 442.637 53.211 C 444.729 50.457, 444.248 46.157, 441.545 43.455 C 439.273 41.182, 438.401 41.008, 429.795 41.102 C 424.683 41.158, 419.092 41.658, 417.372 42.212 M 112.500 53.884 C 101.811 56.691, 91 67.913, 91 76.202 C 91 77.885, 90.546 78.062, 87.750 77.466 C 80.737 75.971, 73.425 71.563, 66.771 64.819 C 59.396 57.345, 55.831 56.169, 52.041 59.959 C 48.601 63.399, 45.638 75.399, 45.612 86 C 45.577 99.881, 49.410 110.065, 58.298 119.707 C 60.495 122.091, 62.027 124.306, 61.702 124.631 C 61.378 124.956, 58.049 125.431, 54.306 125.687 C 45.469 126.291, 42.443 127.516, 40.964 131.086 C 38.379 137.329, 42.424 141.257, 56.677 146.343 C 89.532 158.067, 124.603 144.936, 139.053 115.500 C 143.613 106.211, 145.658 98.853, 146.615 88.296 C 147.164 82.240, 147.964 79.642, 150.660 75.164 C 156.203 65.960, 157.306 59.779, 154.034 56.267 C 150.671 52.657, 148.399 52.590, 142.021 55.909 L 136.122 58.979 131.221 56.517 C 125.899 53.844, 117.273 52.631, 112.500 53.884 M 113.270 70.483 C 108.719 72.461, 106.008 77.361, 106.004 83.615 C 106.001 87.272, 105.409 89.482, 103.927 91.365 C 102.056 93.744, 101.207 93.999, 95.177 93.988 C 84.986 93.970, 73.766 90.320, 64.097 83.878 L 60.695 81.610 61.212 88.056 C 62.212 100.505, 68.643 109.878, 80.678 116.423 C 89.614 121.284, 90.085 127.253, 81.974 132.854 L 78.500 135.253 85.725 134.622 C 112.535 132.279, 131 110.923, 131 82.257 C 131 76.451, 130.727 75.568, 128.333 73.644 C 122.137 68.663, 118.980 68, 113.270 70.483 M 306.122 178.750 C 304.967 179.713, 303.667 182.300, 303.233 184.500 C 302.453 188.453, 302.289 188.578, 289.258 195.124 C 282.005 198.767, 269.643 203.897, 261.786 206.525 L 247.500 211.302 222.331 211.081 L 197.162 210.859 193.090 214.537 C 187.316 219.754, 186.809 222.612, 187.181 247.862 C 187.469 267.419, 187.695 269.837, 189.523 273 C 192.045 277.364, 198.921 281, 204.651 281 C 208.875 281, 208.878 281.003, 209.400 285.250 C 209.687 287.587, 210.405 299.164, 210.994 310.976 C 212.149 334.121, 212.719 336.389, 217.693 337.638 C 220.999 338.468, 225.078 336.337, 226.643 332.964 C 227.740 330.600, 227.402 317.621, 225.519 289.750 L 224.928 281 231.399 281 C 234.958 281, 239.019 280.563, 240.423 280.029 C 242.360 279.293, 245.037 279.655, 251.504 281.529 C 262.014 284.575, 266.079 284.675, 268.545 281.950 C 271.153 279.068, 270.996 273.225, 268.252 271.003 C 267.070 270.046, 261.582 267.966, 256.055 266.381 L 246.008 263.500 246.004 245.719 C 246.001 232.348, 246.310 227.849, 247.250 227.581 C 260.928 223.681, 283.019 215.712, 291.750 211.527 L 303 206.135 303 245.567 C 303 267.255, 302.754 285, 302.454 285 C 302.154 285, 299.795 283.875, 297.212 282.500 C 294.629 281.125, 291.353 280, 289.932 280 C 284.731 280, 281.304 286.963, 284.014 292.026 C 284.571 293.068, 289.017 295.980, 293.892 298.498 C 302.293 302.837, 302.788 303.275, 303.363 306.870 C 304.508 314.029, 311.457 316.737, 316.508 311.992 L 319 309.651 319 245.961 C 319 183.040, 318.975 182.238, 316.927 179.635 C 314.447 176.482, 309.345 176.064, 306.122 178.750 M 203 245.500 L 203 265 216.500 265 L 230 265 230 245.500 L 230 226 216.500 226 L 203 226 203 245.500 M 394.500 327.660 C 363.079 334.379, 337.527 359.702, 329.885 391.699 C 327.068 403.490, 327.589 423.814, 330.982 434.500 C 342.756 471.585, 374.490 495.225, 412.500 495.225 C 449.512 495.225, 480.996 472.502, 493.175 437 C 496.314 427.852, 496.435 426.908, 496.467 411.500 C 496.504 393.467, 495.385 387.663, 489.446 375.089 C 477.956 350.763, 455.479 332.863, 429.792 327.584 C 420.247 325.622, 403.864 325.658, 394.500 327.660 M 373.010 358.316 C 368.260 359.828, 361.398 366.905, 360.081 371.649 C 359.411 374.060, 359.017 388.958, 359.028 411.500 C 359.046 451.239, 359.174 452.149, 365.624 458.197 C 371.680 463.876, 372.685 464, 412.500 464 C 452.315 464, 453.320 463.876, 459.376 458.197 C 465.849 452.127, 465.956 451.354, 465.956 410.500 C 465.956 376.642, 465.799 373.154, 464.107 369.429 C 461.890 364.547, 456.303 359.707, 451.078 358.141 C 445.932 356.600, 377.922 356.751, 373.010 358.316 M 80.378 370.461 C 73.965 373.203, 74 372.985, 74 409.707 L 74 442.968 76.918 446.234 C 79.398 449.010, 80.486 449.488, 84.168 449.418 C 87.880 449.348, 92.417 447.057, 115.853 433.419 C 135.602 421.927, 143.595 416.751, 144.603 414.801 C 146.815 410.523, 146.339 406.395, 143.250 403.076 C 140.285 399.890, 90.133 370.654, 86 369.702 C 84.625 369.386, 82.095 369.727, 80.378 370.461 M 376.571 374.571 C 375.203 375.940, 375 380.633, 375 410.871 C 375 436.549, 375.313 445.913, 376.200 446.800 C 377.920 448.520, 447.080 448.520, 448.800 446.800 C 449.688 445.912, 450 436.430, 450 410.335 C 450 376.493, 449.922 375.029, 448.066 374.035 C 446.841 373.380, 433.658 373, 412.137 373 C 382.567 373, 377.938 373.204, 376.571 374.571 M 402.252 390.104 C 394.287 394.047, 389.800 401.600, 389.800 411.063 C 389.800 431.404, 415.266 441.295, 429.136 426.342 C 433.367 421.780, 435.208 417.170, 435.266 410.990 C 435.356 401.410, 429.895 392.958, 421.282 389.348 C 416.343 387.279, 407.229 387.641, 402.252 390.104 M 89 409.465 C 89 420.759, 89.240 430, 89.533 430 C 90.342 430, 125.123 409.782, 124.790 409.505 C 124.300 409.097, 93.645 391.373, 91.250 390.113 L 89 388.930 89 409.465 M 409.851 404.203 C 408.333 404.717, 406.672 406.379, 405.961 408.095 C 402.482 416.494, 414.430 421.832, 418.897 413.874 C 421.994 408.357, 416.123 402.080, 409.851 404.203" stroke="none" class="tool_gradient_color" fill="url(#gradientColor)" fill-rule="evenodd"/></svg>