<svg xmlns="http://www.w3.org/2000/svg" viewBox="0 0 512 512" version="1.1"><defs><linearGradient id="gradientColor" x1="0%" y1="0%" x2="0%" y2="100%"><stop offset="0%" style="stop-color:rgb(255, 255, 255);stop-opacity:1" /><stop offset="100%" style="stop-color:rgb(255, 0, 0);stop-opacity:1" /></linearGradient></defs><path d="M 54 1.988 C 27.927 8.914, 8.485 28.664, 1.885 54.930 C 0.130 61.912, -0.151 65.349, 0.246 74.930 C 1.075 94.897, 7.252 109.157, 21.047 122.953 C 29.769 131.674, 38.194 136.941, 49.500 140.738 C 56.699 143.156, 58.951 143.427, 72 143.447 C 85.328 143.468, 87.147 143.244, 94.500 140.677 C 116.801 132.892, 133.422 116.240, 140.812 94.278 C 143.157 87.309, 143.429 84.992, 143.429 72 C 143.429 59.008, 143.157 56.691, 140.812 49.722 C 133.412 27.730, 116.051 10.394, 94.278 3.255 C 83.377 -0.320, 64.880 -0.901, 54 1.988 M 193.054 1.728 C 187.018 3.859, 179.781 11.260, 177.667 17.463 C 176.199 21.772, 176 28.283, 176 72 C 176 128.746, 175.908 128.003, 183.952 136.048 C 192.554 144.650, 179.479 144, 344 144 C 508.521 144, 495.446 144.650, 504.048 136.048 C 512.092 128.003, 512 128.746, 512 72 C 512 15.254, 512.092 15.997, 504.048 7.952 C 495.439 -0.656, 508.598 -0.010, 343.572 0.079 C 213.529 0.149, 197.012 0.330, 193.054 1.728 M 63.951 17.035 C 42.884 20.235, 25.424 35.349, 18.937 56 C 16.434 63.970, 16.209 77.868, 18.447 86.267 C 20.007 92.123, 24.260 101.424, 25.816 102.386 C 26.286 102.677, 27.462 101.246, 28.430 99.207 C 31.252 93.258, 36.839 86.526, 42.367 82.413 C 45.190 80.312, 47.617 78.531, 47.759 78.454 C 47.901 78.378, 46.563 75.495, 44.785 72.048 C 41.976 66.601, 41.551 64.778, 41.541 58.140 C 41.527 49.225, 43.654 43.603, 49.477 37.157 C 61.228 24.150, 82.772 24.150, 94.523 37.157 C 100.346 43.603, 102.473 49.225, 102.459 58.140 C 102.449 64.788, 102.025 66.598, 99.196 72.084 C 96.737 76.851, 96.256 78.564, 97.222 79.106 C 103.527 82.643, 110.739 90.374, 114.998 98.162 L 117.826 103.334 119.921 99.917 C 126.062 89.900, 128.707 72.542, 126.047 59.726 C 120.384 32.447, 91.812 12.804, 63.951 17.035 M 200.094 17.306 C 198.220 17.963, 195.745 19.770, 194.594 21.323 C 192.537 24.096, 192.500 24.999, 192.500 72 C 192.500 119.001, 192.537 119.904, 194.594 122.677 C 195.745 124.230, 198.220 126.037, 200.094 126.694 C 205.014 128.418, 482.986 128.418, 487.906 126.694 C 489.780 126.037, 492.255 124.230, 493.406 122.677 C 495.463 119.904, 495.500 119.001, 495.500 72 C 495.500 24.999, 495.463 24.096, 493.406 21.323 C 492.255 19.770, 489.780 17.963, 487.906 17.306 C 482.986 15.582, 205.014 15.582, 200.094 17.306 M 65.241 45.995 C 55.807 51.747, 55.807 64.253, 65.241 70.005 C 71.600 73.883, 79.849 71.576, 84.005 64.759 C 87.883 58.400, 85.576 50.151, 78.759 45.995 C 74.604 43.461, 69.396 43.461, 65.241 45.995 M 226.174 66.314 C 223.195 69.486, 223.261 74.957, 226.314 77.826 L 228.629 80 344.140 80 L 459.651 80 461.826 77.686 C 464.805 74.514, 464.739 69.043, 461.686 66.174 L 459.371 64 343.860 64 L 228.349 64 226.174 66.314 M 60.357 91.082 C 50.766 94.770, 42.551 104.511, 40.531 114.587 C 39.943 117.525, 40.194 117.824, 45.706 120.749 C 54.334 125.326, 62.288 127.311, 72 127.311 C 81.712 127.311, 89.666 125.326, 98.294 120.749 C 103.806 117.824, 104.057 117.525, 103.469 114.587 C 99.651 95.540, 78.604 84.065, 60.357 91.082 M 193.054 177.728 C 187.018 179.859, 179.781 187.260, 177.667 193.463 C 176.199 197.772, 176 204.283, 176 248 C 176 304.746, 175.908 304.003, 183.952 312.048 C 192.554 320.650, 179.479 320, 344 320 C 508.561 320, 495.442 320.654, 504.071 312.024 C 512.220 303.875, 512.172 304.255, 512.178 248.016 C 512.184 191.765, 512.231 192.136, 504.071 183.976 C 495.435 175.340, 508.638 175.990, 343.572 176.079 C 213.529 176.149, 197.012 176.330, 193.054 177.728 M 200.094 193.306 C 198.220 193.963, 195.745 195.770, 194.594 197.323 C 192.537 200.096, 192.500 200.999, 192.500 248 C 192.500 295.001, 192.537 295.904, 194.594 298.677 C 195.745 300.230, 198.220 302.037, 200.094 302.694 C 205.014 304.418, 482.986 304.418, 487.906 302.694 C 489.780 302.037, 492.255 300.230, 493.406 298.677 C 495.463 295.904, 495.500 295.001, 495.500 248 C 495.500 200.999, 495.463 200.096, 493.406 197.323 C 492.255 195.770, 489.780 193.963, 487.906 193.306 C 482.986 191.582, 205.014 191.582, 200.094 193.306 M 28.734 211.024 C 18.870 213.516, 8.624 221.840, 3.896 231.205 C 1.208 236.532, 1 237.757, 1 248.312 C 1 258.958, 1.192 260.064, 4.018 265.720 C 11.091 279.875, 25.965 288.133, 41.733 286.661 C 50.195 285.870, 57.723 282.321, 64.470 275.940 C 69.795 270.903, 75 262.433, 75 258.804 C 75 257.186, 76.030 257, 85 257 L 95 257 95 264.077 C 95 270.565, 95.243 271.397, 97.923 274.077 C 101.492 277.645, 104.940 277.816, 108.669 274.608 C 111.171 272.456, 111.489 271.453, 111.834 264.608 C 112.120 258.962, 112.577 257, 113.609 257 C 114.716 257, 115 259.339, 115 268.453 C 115 280.845, 115.889 284.173, 119.657 285.890 C 123.552 287.664, 125.951 287.203, 129.077 284.077 C 131.981 281.172, 132 281.078, 132 269.209 L 132 257.263 136.240 256.695 C 141.301 256.016, 144 253.165, 144 248.500 C 144 246.697, 143.140 244.159, 142.090 242.861 L 140.179 240.500 107.988 240 L 75.797 239.500 73.960 234.657 C 68.639 220.630, 55.438 211.161, 40.195 210.438 C 35.963 210.238, 30.806 210.501, 28.734 211.024 M 226.008 214.492 C 222.559 218.163, 223.072 221.741, 228.333 230.716 C 230.900 235.094, 233 238.974, 233 239.338 C 233 239.702, 228.353 240, 222.674 240 C 213.174 240, 212.175 240.185, 210.174 242.314 C 207.195 245.486, 207.261 250.957, 210.314 253.826 C 212.378 255.764, 213.733 256, 222.814 256 C 228.417 256, 233 256.298, 233 256.662 C 233 257.026, 230.900 260.906, 228.333 265.284 C 225.695 269.785, 223.667 274.498, 223.667 276.130 C 223.667 280.379, 227.501 284, 232 284 C 236.398 284, 238.249 282.182, 243.450 272.750 C 245.497 269.038, 247.545 266, 248 266 C 248.455 266, 250.503 269.038, 252.550 272.750 C 257.751 282.182, 259.602 284, 264 284 C 268.499 284, 272.333 280.379, 272.333 276.130 C 272.333 274.498, 270.305 269.785, 267.667 265.284 C 265.100 260.906, 263 257.026, 263 256.662 C 263 256.298, 267.647 256, 273.326 256 C 282.826 256, 283.825 255.815, 285.826 253.686 C 288.805 250.514, 288.739 245.043, 285.686 242.174 C 283.622 240.236, 282.267 240, 273.186 240 C 267.583 240, 263.005 239.662, 263.011 239.250 C 263.017 238.838, 265.037 235.125, 267.500 231 C 272.493 222.636, 273.195 218.195, 270.025 215.025 C 264.518 209.518, 259.110 211.771, 253.309 221.991 C 250.970 226.110, 248.644 229.619, 248.140 229.787 C 247.636 229.955, 245.537 227.034, 243.476 223.296 C 238.248 213.816, 236.403 212, 232 212 C 229.401 212, 227.674 212.718, 226.008 214.492 M 322.008 214.492 C 318.559 218.163, 319.072 221.741, 324.333 230.716 C 326.900 235.094, 329 238.974, 329 239.338 C 329 239.702, 324.353 240, 318.674 240 C 309.174 240, 308.175 240.185, 306.174 242.314 C 303.195 245.486, 303.261 250.957, 306.314 253.826 C 308.378 255.764, 309.733 256, 318.814 256 C 324.417 256, 329 256.298, 329 256.662 C 329 257.026, 326.900 260.906, 324.333 265.284 C 321.695 269.785, 319.667 274.498, 319.667 276.130 C 319.667 280.379, 323.501 284, 328 284 C 332.398 284, 334.249 282.182, 339.450 272.750 C 341.497 269.038, 343.545 266, 344 266 C 344.455 266, 346.503 269.038, 348.550 272.750 C 353.751 282.182, 355.602 284, 360 284 C 364.499 284, 368.333 280.379, 368.333 276.130 C 368.333 274.498, 366.305 269.785, 363.667 265.284 C 361.100 260.906, 359 257.026, 359 256.662 C 359 256.298, 363.647 256, 369.326 256 C 378.826 256, 379.825 255.815, 381.826 253.686 C 384.805 250.514, 384.739 245.043, 381.686 242.174 C 379.622 240.236, 378.267 240, 369.186 240 C 363.583 240, 359.005 239.662, 359.011 239.250 C 359.017 238.838, 361.037 235.125, 363.500 231 C 368.493 222.636, 369.195 218.195, 366.025 215.025 C 360.518 209.518, 355.110 211.771, 349.309 221.991 C 346.970 226.110, 344.644 229.619, 344.140 229.787 C 343.636 229.955, 341.537 227.034, 339.476 223.296 C 334.248 213.816, 332.403 212, 328 212 C 325.401 212, 323.674 212.718, 322.008 214.492 M 418.008 214.492 C 414.559 218.163, 415.072 221.741, 420.333 230.716 C 422.900 235.094, 425 238.974, 425 239.338 C 425 239.702, 420.353 240, 414.674 240 C 405.174 240, 404.175 240.185, 402.174 242.314 C 399.195 245.486, 399.261 250.957, 402.314 253.826 C 404.378 255.764, 405.733 256, 414.814 256 C 420.417 256, 425 256.298, 425 256.662 C 425 257.026, 422.900 260.906, 420.333 265.284 C 417.695 269.785, 415.667 274.498, 415.667 276.130 C 415.667 280.379, 419.501 284, 424 284 C 428.398 284, 430.249 282.182, 435.450 272.750 C 437.497 269.038, 439.545 266, 440 266 C 440.455 266, 442.503 269.038, 444.550 272.750 C 449.751 282.182, 451.602 284, 456 284 C 460.499 284, 464.333 280.379, 464.333 276.130 C 464.333 274.498, 462.305 269.785, 459.667 265.284 C 457.100 260.906, 455 257.026, 455 256.662 C 455 256.298, 459.647 256, 465.326 256 C 474.826 256, 475.825 255.815, 477.826 253.686 C 480.805 250.514, 480.739 245.043, 477.686 242.174 C 475.622 240.236, 474.267 240, 465.186 240 C 459.583 240, 455.005 239.662, 455.011 239.250 C 455.017 238.838, 457.037 235.125, 459.500 231 C 464.493 222.636, 465.195 218.195, 462.025 215.025 C 456.518 209.518, 451.110 211.771, 445.309 221.991 C 442.970 226.110, 440.644 229.619, 440.140 229.787 C 439.636 229.955, 437.537 227.034, 435.476 223.296 C 430.248 213.816, 428.403 212, 424 212 C 421.401 212, 419.674 212.718, 418.008 214.492 M 28.309 229.533 C 19.600 233.873, 14.993 243.521, 17.106 252.996 C 18.251 258.126, 19.802 260.807, 23.741 264.463 C 32.577 272.663, 48.164 271.279, 55.119 261.677 C 61.041 253.502, 61.244 244.541, 55.693 236.334 C 49.473 227.139, 38.556 224.427, 28.309 229.533 M 60.920 354.010 C 36.801 359.944, 16.381 377.061, 6.343 399.759 C -0.064 414.245, -1.834 434.790, 1.959 450.614 C 9.083 480.326, 31.674 502.917, 61.386 510.041 C 69.274 511.932, 74.696 511.986, 256 511.986 C 437.304 511.986, 442.726 511.932, 450.614 510.041 C 455.076 508.971, 461.308 506.954, 464.461 505.559 C 487.033 495.577, 505.134 473.714, 510.047 450.500 C 510.745 447.200, 511.695 444.073, 512.158 443.550 C 513.291 442.271, 513.246 418.730, 512.112 419.431 C 511.624 419.733, 510.933 418.072, 510.578 415.740 C 508.681 403.281, 500.633 387.889, 490.279 376.913 C 479.284 365.258, 466.230 357.703, 450.614 353.959 C 442.720 352.067, 437.420 352.016, 255.500 352.079 C 76.509 352.142, 68.175 352.225, 60.920 354.010 M 72 368.987 C 57.078 371.015, 46.594 376.312, 35.453 387.453 C 22.527 400.379, 16.821 413.792, 16.714 431.500 C 16.646 442.773, 18.123 449.222, 23.241 460 C 28.946 472.013, 39.987 483.054, 52 488.759 C 67.252 496.002, 52.064 495.500, 256 495.500 C 459.936 495.500, 444.748 496.002, 460 488.759 C 466.874 485.494, 470.039 483.171, 476.547 476.611 C 489.677 463.376, 495.246 450.089, 495.246 432 C 495.246 413.874, 489.660 400.566, 476.547 387.453 C 467.929 378.835, 459.436 373.661, 448.500 370.368 C 442.817 368.657, 432.853 368.553, 260 368.400 C 159.625 368.311, 75.025 368.575, 72 368.987 M 272.306 422.216 L 250.010 444.431 233.687 428.216 C 215.560 410.209, 214.309 409.537, 208.923 414.923 C 203.391 420.455, 203.865 421.245, 226.218 443.694 C 244.950 462.507, 246.697 464, 249.993 464 C 253.314 464, 255.290 462.255, 279.775 437.707 C 308.664 408.742, 308.757 408.603, 303.077 402.923 C 297.488 397.334, 296.919 397.691, 272.306 422.216 M 0.385 432 C 0.385 438.875, 0.545 441.688, 0.740 438.250 C 0.936 434.813, 0.936 429.188, 0.740 425.750 C 0.545 422.313, 0.385 425.125, 0.385 432" stroke="none" class="tool_gradient_color" fill="url(#gradientColor)" fill-rule="evenodd"/></svg>