<svg xmlns="http://www.w3.org/2000/svg" viewBox="0 0 512 512" version="1.1"><defs><linearGradient id="gradientColor" x1="0%" y1="0%" x2="0%" y2="100%"><stop offset="0%" style="stop-color:rgb(0, 133, 121);stop-opacity:1" /><stop offset="100%" style="stop-color:rgb(255, 0, 0);stop-opacity:1" /></linearGradient></defs><path d="M 107.792 70.719 L 62 116.471 62 233.164 C 62 361.648, 61.566 353, 68.015 353 C 74.354 353, 74 359.837, 74 237.277 L 74 126 105.864 126 C 123.388 126, 140.151 125.547, 143.114 124.993 C 149.953 123.714, 155.806 119.647, 159 113.956 L 161.500 109.500 161.797 73.750 L 162.094 38 270.958 38 L 379.822 38 382.411 41.077 L 385 44.153 385 99.854 C 385 162.488, 384.762 160.397, 391.822 159.805 C 398.199 159.270, 398.050 160.819, 397.761 98 C 397.504 42.319, 397.469 41.442, 395.347 37.500 C 392.853 32.865, 389.917 29.990, 385 27.367 C 381.651 25.580, 376.593 25.489, 267.542 25.233 L 153.584 24.967 107.792 70.719 M 115.506 79.994 L 82.511 113 112.740 113 L 142.968 113 146.014 110.250 L 149.059 107.500 148.779 77.244 L 148.500 46.987 115.506 79.994 M 290.490 56.016 C 277.370 58.625, 267.984 63.793, 258 73.904 C 246.095 85.961, 240.900 98.732, 240.875 116 C 240.842 138.402, 253.106 158.589, 273.051 168.966 C 313.380 189.947, 361.103 161.272, 361.068 116.079 C 361.064 110.732, 360.390 103.960, 359.543 100.751 C 353.794 78.967, 335.140 61.103, 313.315 56.479 C 305.971 54.923, 296.913 54.739, 290.490 56.016 M 286.270 70.086 C 273.187 74.232, 260.829 85.901, 255.995 98.676 C 254.721 102.043, 253.572 107.875, 253.272 112.500 C 252.336 126.916, 257.015 139.206, 267.379 149.556 C 286.936 169.088, 318.047 168.229, 336.655 147.644 C 341.629 142.142, 346.325 133.167, 347.850 126.250 L 348.787 122 323.894 122 C 300.333 122, 298.893 121.893, 297 120 C 295.107 118.107, 295 116.667, 295 93 C 295 73.637, 294.718 68.013, 293.750 68.056 C 293.063 68.087, 289.697 69.001, 286.270 70.086 M 307 88.921 L 307 110 328.067 110 C 347.646 110, 349.101 109.876, 348.659 108.250 C 344.526 93.039, 339.645 84.968, 330.272 77.850 C 324.402 73.392, 317.189 70.039, 310.250 68.542 L 307 67.841 307 88.921 M 90.055 157.657 C 87.971 160.306, 88.034 162.987, 90.245 165.750 C 91.009 166.706, 99.189 167, 124.967 167 C 156.367 167, 158.804 166.874, 160.345 165.171 C 162.570 162.712, 162.432 159.432, 160 157 C 158.081 155.081, 156.667 155, 125.073 155 L 92.145 155 90.055 157.657 M 180.223 156.557 C 177.478 158.479, 177.274 163.033, 179.829 165.345 C 181.277 166.655, 183.764 167, 191.772 167 C 201.091 167, 202.009 166.825, 203.443 164.777 C 205.538 161.786, 205.403 159.403, 203 157 C 201.287 155.287, 199.667 155, 191.723 155 C 184.944 155, 181.846 155.419, 180.223 156.557 M 387 171 C 385.255 172.745, 385 174.333, 385 183.458 L 385 193.917 343.750 194.208 L 302.500 194.500 296.554 197.419 C 288.702 201.275, 282.568 207.580, 278.674 215.799 L 275.500 222.500 275.178 249.178 C 274.866 275.052, 274.919 275.919, 276.928 277.928 C 279.786 280.786, 283.415 280.559, 285.927 277.365 C 287.899 274.859, 288 273.508, 288 249.681 C 288 221.321, 288.396 219.489, 296.017 212.604 C 303.580 205.771, 301.296 205.923, 392.085 206.227 C 473.220 206.499, 473.514 206.507, 477.513 208.649 C 482.614 211.381, 486.619 215.386, 489.351 220.487 L 491.500 224.500 491.767 337.936 C 492.070 466.740, 492.550 458.561, 484.191 466.884 C 481.344 469.719, 477.882 472.036, 475.384 472.778 C 472.284 473.698, 450.940 473.995, 388.884 473.978 C 296.887 473.954, 302.532 474.378, 295.077 466.923 C 287.640 459.486, 288.046 464.683, 288.022 376.684 C 288 297.571, 287.894 294.964, 284.600 292.765 C 282.567 291.407, 279.016 291.984, 277 294 C 275.034 295.966, 275 297.333, 275 374.290 C 275 460.259, 274.963 459.674, 281.021 469 L 283.945 473.500 246.076 474 C 210.635 474.468, 208.073 474.622, 206.104 476.405 C 203.231 479.006, 203.455 482.426, 206.662 484.949 L 209.323 487.042 342.412 486.771 L 475.500 486.500 482.225 483.314 C 490.291 479.493, 496.828 473.088, 500.692 465.218 L 503.500 459.500 503.500 340.500 L 503.500 221.500 500.840 215.825 C 497.116 207.882, 490.970 201.603, 483.146 197.750 L 476.548 194.500 437.274 194.206 L 398 193.913 398 184.091 C 398 175.669, 397.705 173.894, 395.927 171.635 C 393.437 168.468, 389.791 168.209, 387 171 M 90.455 183.455 C 89.105 184.805, 88 186.625, 88 187.500 C 88 188.375, 89.105 190.195, 90.455 191.545 L 92.909 194 125.455 194 C 156.667 194, 158.082 193.918, 160 192 C 162.016 189.984, 162.593 186.433, 161.235 184.400 C 159.176 181.317, 155.755 181, 124.520 181 L 92.909 181 90.455 183.455 M 182 181.694 C 177.826 183.186, 176.747 188.747, 180 192 C 181.705 193.705, 183.333 194, 191.045 194 C 199.316 194, 200.301 193.790, 202.545 191.545 C 203.895 190.195, 205 188.375, 205 187.500 C 205 186.625, 203.895 184.805, 202.545 183.455 C 200.318 181.227, 199.325 181.007, 191.795 181.079 C 187.233 181.122, 182.825 181.399, 182 181.694 M 90.524 209.358 C 89.367 210.205, 88.667 211.955, 88.667 214 C 88.667 219.962, 88.898 220, 125.536 220 C 156.385 220, 158.805 219.873, 160.345 218.171 C 162.531 215.756, 162.448 211.716, 160.171 209.655 C 158.547 208.185, 154.647 208, 125.362 208 C 99.152 208, 92.001 208.279, 90.524 209.358 M 179.655 209.829 C 177.469 212.244, 177.552 216.284, 179.829 218.345 C 181.265 219.645, 183.733 220, 191.329 220 C 199.667 220, 201.276 219.724, 203 218 C 204.100 216.900, 205 215.100, 205 214 C 205 212.900, 204.100 211.100, 203 210 C 201.271 208.271, 199.667 208, 191.155 208 C 182.887 208, 181.045 208.293, 179.655 209.829 M 308 227 C 306.092 228.908, 306 230.333, 306 257.889 C 306 284.842, 306.128 286.937, 307.911 289.139 L 309.823 291.500 386.661 291.791 C 428.923 291.951, 464.948 291.821, 466.718 291.502 C 473.103 290.350, 473 290.898, 473 258.084 C 473 230.509, 472.865 228.188, 471.171 226.655 C 469.502 225.144, 462.403 225, 389.671 225 C 311.333 225, 309.967 225.033, 308 227 M 319 258 L 319 279 390 279 L 461 279 461 258 L 461 237 390 237 L 319 237 319 258 M 193 241.658 C 188.491 243.377, 187.760 248.879, 191.635 251.927 C 193.697 253.550, 195.707 254, 200.882 254 L 207.494 254 185.275 276.220 L 163.055 298.439 152.177 287.720 C 144.371 280.027, 140.614 277, 138.872 277 C 137.035 277, 130.566 282.898, 112.223 301.297 C 98.900 314.660, 88 326.381, 88 327.342 C 88 329.600, 92.396 334, 94.651 334 C 95.610 334, 105.868 324.565, 117.447 313.033 L 138.500 292.066 149.092 302.533 C 157.642 310.983, 160.242 313, 162.584 313 C 165.040 313, 169.282 309.205, 190.243 288.258 L 215 263.515 215 269.686 C 215 276.677, 216.476 279, 220.916 279 C 226.318 279, 227 276.910, 227 260.362 C 227 249.015, 226.656 244.912, 225.583 243.441 C 224.303 241.688, 222.726 241.480, 209.333 241.293 C 201.175 241.179, 193.825 241.344, 193 241.658 M 308.073 312.635 C 306.176 315.045, 306 316.601, 306 330.912 C 306 343.452, 306.309 346.996, 307.557 348.777 C 309.083 350.956, 309.533 351, 330.500 351 C 351.467 351, 351.917 350.956, 353.443 348.777 C 354.693 346.993, 355 343.435, 355 330.732 C 355 308.756, 356.494 310, 330.118 310 L 310.145 310 308.073 312.635 M 368.223 311.557 C 366.071 313.064, 366 313.667, 366 330.485 C 366 344.945, 366.263 348.121, 367.571 349.429 C 368.900 350.757, 372.374 351, 390.015 351 C 410.450 351, 410.919 350.953, 412.443 348.777 C 413.697 346.987, 414 343.391, 414 330.277 C 414 308.418, 415.855 310, 390.223 310 C 373.941 310, 370.052 310.275, 368.223 311.557 M 427 312 C 425.158 313.842, 425 315.333, 425 330.845 C 425 345.894, 425.195 347.866, 426.829 349.345 C 428.405 350.772, 431.486 351, 449.174 351 C 467.780 351, 469.844 350.830, 471.345 349.171 C 472.746 347.624, 473 344.781, 473 330.671 C 473 308.339, 474.929 310, 449 310 C 430.333 310, 428.867 310.133, 427 312 M 319 331 L 319 339 330.500 339 L 342 339 342 331 L 342 323 330.500 323 L 319 323 319 331 M 378 331 L 378 339 390 339 L 402 339 402 331 L 402 323 390 323 L 378 323 378 331 M 437 331 L 437 339 449 339 L 461 339 461 331 L 461 323 449 323 L 437 323 437 331 M 144.500 332.592 C 131.168 335.557, 118.637 342.050, 108.418 351.289 L 103.336 355.884 74.918 356.192 C 36.059 356.613, 37 355.998, 37 380.950 L 37 396 27.250 396.004 C 19.344 396.007, 16.894 396.377, 14.299 397.960 C 8.403 401.554, 7.813 404.068, 8.342 423.326 C 8.602 432.772, 8.803 440.950, 8.790 441.500 C 8.777 442.050, 8.573 450.288, 8.337 459.807 C 7.936 475.968, 8.045 477.336, 9.973 480.457 C 14.126 487.175, 11.942 487.002, 92.270 486.980 C 134.602 486.969, 167.338 486.550, 171.356 485.969 C 191.655 483.035, 211.591 471.224, 223.400 455.136 C 234.878 439.500, 240.571 417.780, 238.039 399.285 C 233.762 368.045, 212.965 343.596, 182.500 333.993 C 173.166 331.051, 154.520 330.364, 144.500 332.592 M 154 343.637 C 130.572 347.058, 112.120 359.855, 102.214 379.552 C 97.132 389.659, 95.599 396.315, 95.548 408.500 C 95.468 427.355, 101.433 441.670, 114.962 455.091 C 128.564 468.586, 144.726 474.698, 164.365 473.776 C 181.257 472.982, 194.659 467.098, 206.620 455.223 C 213.875 448.020, 219.901 438.374, 223.003 429 C 226.096 419.649, 226.772 404.566, 224.546 394.560 C 220.019 374.213, 204.250 355.645, 184.980 347.969 C 175.722 344.282, 162.371 342.415, 154 343.637 M 147.272 353.437 C 131.179 357.336, 116.949 369.054, 109.548 384.500 C 93.526 417.939, 113.169 456.840, 150 464.610 C 162.735 467.297, 180.238 464.619, 183.613 459.468 C 185.684 456.307, 184.718 452.284, 181.541 450.837 C 179.686 449.992, 177.651 450.143, 172.639 451.500 C 167.933 452.774, 163.798 453.135, 157.633 452.812 C 150.388 452.431, 148.035 451.827, 141.803 448.747 C 118.420 437.191, 109.655 410.673, 121.664 387.820 C 130.367 371.258, 149.734 361.666, 167.912 364.915 C 182.519 367.525, 194.065 376.283, 200.761 389.831 C 203.905 396.192, 204.449 398.356, 204.811 405.938 C 205.470 419.706, 201.983 429.323, 192.434 440.075 C 189.995 442.820, 188 445.666, 188 446.399 C 188 448.832, 192.088 453, 194.474 453 C 197.423 453, 204.977 445.454, 209.478 438.012 C 229.275 405.279, 211.107 362.311, 173.745 353.502 C 166.234 351.731, 154.432 351.702, 147.272 353.437 M 308.455 364.455 C 306.054 366.855, 306 367.259, 306 382.844 C 306 405.078, 304.128 403.500, 330.500 403.500 C 356.872 403.500, 355 405.078, 355 382.844 C 355 360.770, 356.445 362, 330.500 362 C 311.033 362, 310.894 362.016, 308.455 364.455 M 368.223 363.557 C 366.067 365.066, 366 365.652, 366 382.934 C 366 398.291, 366.229 400.945, 367.654 402.128 C 368.935 403.191, 373.862 403.500, 389.549 403.500 C 415.987 403.500, 414 405.172, 414 382.918 L 414 366.145 411.365 364.073 C 408.908 362.140, 407.440 362, 389.588 362 C 373.881 362, 370.046 362.279, 368.223 363.557 M 427 364 C 425.158 365.842, 425.001 367.322, 425.015 382.750 C 425.024 391.962, 425.361 399.995, 425.765 400.600 C 427.674 403.459, 431.369 404, 449 404 C 466.631 404, 470.326 403.459, 472.235 400.600 C 472.639 399.995, 472.976 391.962, 472.985 382.750 C 473.005 360.326, 474.940 362, 449 362 C 430.333 362, 428.867 362.133, 427 364 M 158 369.289 C 156.195 370.199, 155.361 371.589, 155 374.292 C 154.620 377.137, 153.748 378.491, 151.366 379.932 C 142.818 385.107, 139.681 395.578, 144.002 404.505 C 146.770 410.223, 151.923 413.792, 159.030 414.916 C 166.724 416.132, 169.575 421.425, 165 426 C 160.864 430.136, 155.857 427.689, 153.892 420.571 C 152.715 416.309, 149.426 414.508, 145.528 415.989 C 138.712 418.581, 142.508 432.780, 151.278 437.500 C 154.366 439.162, 154.995 440.037, 154.997 442.679 C 155.001 446.628, 157.259 449, 161.015 449 C 164.390 449, 167 445.880, 167 441.845 C 167 440.050, 167.649 438.929, 168.922 438.525 C 172.094 437.518, 177.816 430.396, 179.007 425.973 C 181.568 416.464, 174.587 405.027, 165.271 403.467 C 158.574 402.347, 156.529 401.391, 155 398.670 C 153.664 396.291, 153.667 395.700, 155.031 393.250 C 157.923 388.057, 167 389.712, 167 395.432 C 167 400.392, 171.577 403.251, 176.495 401.364 C 181.484 399.449, 179.985 388.985, 173.841 382.841 C 171.729 380.729, 169.325 379, 168.500 379 C 167.458 379, 167 377.953, 167 375.573 C 167 373.061, 166.296 371.591, 164.365 370.073 C 161.286 367.651, 161.259 367.647, 158 369.289 M 49 382.500 L 49 396 66.341 396 L 83.682 396 84.862 390.750 C 85.511 387.863, 87.607 381.905, 89.521 377.510 C 91.434 373.116, 93 369.403, 93 369.260 C 93 369.117, 83.100 369, 71 369 L 49 369 49 382.500 M 319 383 L 319 391 330.500 391 L 342 391 342 383 L 342 375 330.500 375 L 319 375 319 383 M 378 383 L 378 391 390 391 L 402 391 402 383 L 402 375 390 375 L 378 375 378 383 M 437 383 L 437 391 449 391 L 461 391 461 383 L 461 375 449 375 L 437 375 437 383 M 20 421.500 L 20 435 53.500 435 C 71.925 435, 87 434.847, 87 434.660 C 87 434.473, 86.100 430.801, 85 426.500 C 83.900 422.199, 83 416.277, 83 413.340 L 83 408 51.500 408 L 20 408 20 421.500 M 310.315 414.977 C 306.556 416.544, 306 419.184, 306 435.480 C 306 457.177, 304.595 456, 330.500 456 C 356.445 456, 355 457.230, 355 435.156 C 355 413.072, 356.653 414.561, 331.840 414.283 C 321.203 414.164, 311.517 414.476, 310.315 414.977 M 369 415.293 L 366.500 416.557 366.218 434.529 C 365.947 451.859, 366.013 452.562, 368.079 454.250 C 369.955 455.782, 372.621 456, 389.476 456 C 407.441 456, 408.907 455.861, 411.365 453.927 L 414 451.855 414 435 L 414 418.145 411.365 416.073 C 408.912 414.143, 407.446 414.001, 390.115 414.015 C 377.127 414.025, 370.744 414.411, 369 415.293 M 428.500 415.163 C 427.400 415.804, 426.169 416.818, 425.765 417.415 C 425.361 418.012, 425.024 425.951, 425.015 435.059 C 425.004 447.801, 425.327 452.065, 426.419 453.559 C 427.747 455.375, 429.207 455.500, 449 455.500 C 468.793 455.500, 470.253 455.375, 471.581 453.559 C 473.629 450.758, 473.630 419.245, 471.582 416.441 C 470.273 414.648, 468.649 414.481, 450.332 414.249 C 436.619 414.075, 429.883 414.357, 428.500 415.163 M 319 435 L 319 443 330.500 443 L 342 443 342 435 L 342 427 330.500 427 L 319 427 319 435 M 378 435 L 378 443 390 443 L 402 443 402 435 L 402 427 390 427 L 378 427 378 435 M 437 435 L 437 443 449 443 L 461 443 461 435 L 461 427 449 427 L 437 427 437 435 M 20.667 447.667 C 20.300 448.033, 20 454.108, 20 461.167 L 20 474 68.750 473.966 L 117.500 473.933 113.500 470.782 C 107.430 466, 99.454 457.480, 95.871 451.951 L 92.663 447 56.998 447 C 37.383 447, 21.033 447.300, 20.667 447.667" stroke="none" class="tool_gradient_color" fill="url(#gradientColor)" fill-rule="evenodd"/></svg>