<svg xmlns="http://www.w3.org/2000/svg" viewBox="0 0 512 512" version="1.1"><path d="M 232.500 0.624 C 171.842 6.792, 116.726 32.780, 74.993 74.889 C 56.648 93.399, 39.996 115.244, 40.004 120.789 C 40.010 125.249, 43.420 129.745, 47.698 130.933 C 53.938 132.666, 86.771 131.992, 122.750 129.394 L 132 128.726 132 132.394 C 132 134.446, 131.449 136.242, 130.750 136.469 C 130.063 136.693, 123.349 137.318, 115.830 137.860 C 108.312 138.401, 101.229 139.342, 100.091 139.952 C 97.594 141.288, 95 146.022, 95 149.243 C 95 151.605, 174.767 389.828, 176.880 393.775 C 179.812 399.254, 187.860 400.793, 192.434 396.750 C 194.510 394.915, 200.059 379.322, 222.490 312.291 C 237.621 267.077, 250 228.863, 250 227.371 C 250 225.880, 244.336 209.549, 237.412 191.080 C 218.736 141.258, 219.192 142.356, 216.462 140.567 C 214.794 139.474, 209.614 138.585, 200.405 137.811 C 185.931 136.595, 185.215 136.264, 186.446 131.357 C 187.104 128.736, 187.155 128.723, 194.304 129.333 C 220.095 131.531, 252.076 132.229, 276.166 131.119 C 290.100 130.476, 304.694 129.677, 308.599 129.343 C 315.396 128.761, 315.723 128.833, 316.297 131.029 C 317.525 135.722, 315.823 136.707, 305.280 137.406 C 288.448 138.521, 286.023 139.003, 282.892 141.858 C 281.299 143.311, 279.773 145.850, 279.502 147.500 C 279.140 149.705, 290.232 183.356, 321.364 274.500 C 367.549 409.714, 365.269 404, 373.047 404 C 380.974 404, 380.995 403.958, 401.301 346.500 C 426.470 275.282, 429.356 264.060, 429.338 237.500 C 429.317 208.524, 424.751 193.733, 406.491 163.500 C 392.565 140.444, 388.638 130.700, 388.555 119 C 388.486 109.162, 391.042 102.231, 397.249 95.427 C 403.340 88.751, 409.241 85.979, 418.922 85.247 C 425.432 84.754, 426.861 84.293, 429.239 81.914 C 431.443 79.710, 432 78.238, 432 74.610 C 432 69.388, 430.643 67.740, 417.524 57.020 C 390.373 34.834, 353.259 16.184, 318.952 7.488 C 298.424 2.284, 286.051 0.806, 260.500 0.502 C 247.300 0.346, 234.700 0.400, 232.500 0.624 M 236 21.662 C 180.322 27.108, 131.504 49.406, 92.315 87.289 C 87.263 92.173, 80.364 99.512, 76.984 103.599 L 70.837 111.029 77.669 110.537 C 97.418 109.114, 134.141 107.804, 137.356 108.407 C 145.681 109.969, 152.029 119.111, 152.781 130.621 C 153.352 139.360, 151.305 146.285, 146.785 150.909 C 142.134 155.665, 139.011 156.926, 129.481 157.892 C 124.764 158.370, 120.711 158.956, 120.472 159.195 C 120.234 159.433, 134.740 203.367, 152.708 256.825 C 170.677 310.283, 185.675 353.679, 186.037 353.261 C 186.967 352.185, 228 229.400, 228 227.691 C 228 226.488, 203.392 160.003, 202.735 159.433 C 202.606 159.320, 197.438 158.739, 191.252 158.141 C 184.863 157.523, 178.642 156.349, 176.851 155.423 C 172.058 152.944, 168.098 148.042, 166.468 142.568 C 162.470 129.141, 167.142 115.029, 177.301 109.847 C 181.221 107.846, 182.403 107.755, 195.993 108.400 C 252.921 111.104, 248.687 111.105, 307.154 108.380 C 321.799 107.697, 321.810 107.699, 326.377 110.375 C 341.500 119.238, 341.314 147.187, 326.080 154.959 C 323.905 156.069, 318.481 157.382, 314.004 157.883 C 309.533 158.383, 305.620 159.046, 305.309 159.357 C 304.999 159.668, 320.173 205.169, 339.030 260.470 C 357.887 315.772, 373.436 360.897, 373.583 360.750 C 373.731 360.602, 379.674 344.061, 386.789 323.991 C 404.736 273.369, 408.232 259.055, 408.156 236.500 C 408.074 212.108, 404.225 200.280, 387.478 172.956 C 374.326 151.496, 368.204 136.139, 367.273 122.266 C 365.915 102.035, 375.445 82.809, 392.215 71.947 L 397.931 68.245 388.215 61.756 C 354.862 39.478, 321.335 27.062, 282.150 22.478 C 270.943 21.167, 245.635 20.720, 236 21.662 M 465.925 129.282 C 465.059 129.952, 463.570 131.699, 462.617 133.163 C 461.033 135.597, 460.983 137.065, 462.038 150.163 C 464.034 174.939, 460.355 202.394, 451.616 227.949 C 449.255 234.852, 429.700 291.362, 408.162 353.527 C 386.623 415.691, 369 467.824, 369 469.377 C 369 471.254, 370.139 473.339, 372.400 475.600 C 377.565 480.765, 380.589 480.321, 392.751 472.610 C 449.683 436.513, 489.996 380.020, 505.428 314.706 C 508.123 303.303, 511 285.185, 511 279.622 C 511 277.630, 511.450 276, 512 276 C 512.636 276, 512.994 268.260, 512.985 254.750 C 512.975 240.661, 512.643 234.005, 512 235 C 511.293 236.095, 511.026 235.316, 511.015 232.119 C 510.979 221.674, 505.643 195.257, 500.036 177.765 C 493.849 158.462, 481.821 132.389, 477.806 129.577 C 475.153 127.718, 468.171 127.545, 465.925 129.282 M 28.309 146.178 C 24.124 147.291, 22.143 150.309, 17.141 163.188 C 11.142 178.633, 6.231 196.424, 3.439 212.829 C 1.249 225.696, 1.001 230.036, 1.006 255.329 C 1.012 283.665, 1.683 291.878, 5.499 310.347 C 12.953 346.412, 32.944 388.105, 56.690 417.105 C 78.752 444.050, 108.071 468.091, 136.970 482.936 C 146.782 487.976, 147.465 488.177, 151.087 487.092 C 155.747 485.696, 159 481.786, 159 477.580 C 159 474.708, 44.015 157.797, 40.522 151.042 C 38.196 146.545, 33.683 144.747, 28.309 146.178 M 30.064 191 C 29.417 193.475, 28.490 196.850, 28.005 198.500 C 26.213 204.589, 23.068 222.828, 21.912 233.839 C 20.455 247.715, 21.254 277.490, 23.453 291.285 C 29.821 331.233, 45.678 368.619, 69.202 399.151 C 82.931 416.971, 104.745 437.603, 122.864 449.908 L 128.893 454.002 127.060 448.751 C 125.288 443.674, 34.122 194.053, 32.194 189 C 31.286 186.618, 31.185 186.713, 30.064 191 M 481.791 194 C 481.514 194.825, 480.277 200.675, 479.041 207 C 475.976 222.689, 474.046 228.554, 434.769 341.500 C 415.834 395.950, 400.479 440.677, 400.647 440.892 C 401.711 442.263, 424.605 420.489, 434.707 408.500 C 463.010 374.908, 481.341 334.799, 488.635 290.500 C 491.168 275.113, 491.227 238.054, 488.743 222.500 C 486.550 208.765, 482.460 192.002, 481.791 194 M 254.826 268.712 C 253.355 269.625, 251.624 271.525, 250.979 272.936 C 248.805 277.690, 176 490.041, 176 491.627 C 176 495.618, 179.234 499.923, 183.341 501.398 C 209.994 510.971, 254.217 514.630, 288.141 510.070 C 314.942 506.467, 342.250 499.040, 345.940 494.350 C 348.512 491.079, 348.562 486.542, 346.089 480.877 C 345.038 478.470, 327.467 430.600, 307.041 374.500 C 275.404 287.607, 269.464 272.093, 266.936 269.750 C 263.488 266.555, 258.932 266.165, 254.826 268.712 M 230.375 396.875 L 200.250 484.500 211.375 486.694 C 245.403 493.404, 279.852 492.321, 315.750 483.413 C 319.738 482.423, 323 481.267, 323 480.844 C 323 480.239, 264.645 319.884, 261.328 311.375 C 260.695 309.750, 253.417 329.853, 230.375 396.875 M 253.357 370.924 C 249.577 373.229, 246.459 381.262, 247.502 386.010 C 248.311 389.691, 253.670 394, 257.440 394 C 263.260 394, 267.216 389.938, 269.066 382.065 C 271.276 372.656, 261.679 365.849, 253.357 370.924 M 239.789 409.319 C 236.182 412.662, 218.521 465.632, 219.418 470.417 C 221.024 478.976, 232.800 481.381, 237.841 474.178 C 240.120 470.921, 257 420.521, 257 416.972 C 257 414.361, 254.748 410.411, 252.046 408.282 C 249.346 406.154, 242.587 406.726, 239.789 409.319" stroke="none" class="tool_gradient_color" fill-rule="evenodd"/></svg>