<svg xmlns="http://www.w3.org/2000/svg" viewBox="0 0 512 512" version="1.1"><path d="M 21.139 2.158 C 13.689 5.027, 4.931 13.897, 2.115 21.423 L -0 27.075 -0 179 L -0 330.925 2.122 336.712 C 3.697 341.007, 5.831 344.068, 10.397 348.579 C 20.938 358.995, 16.510 358.427, 89.750 358.772 L 153 359.071 153 415.399 C 153 449.054, 153.406 473.866, 154.008 477.040 C 156.187 488.534, 164.599 500.645, 174.386 506.381 C 184.552 512.338, 175.984 512.051, 335.051 511.763 L 480.500 511.500 487.274 508.291 C 491.481 506.299, 496.139 502.992, 499.565 499.565 C 502.992 496.139, 506.299 491.481, 508.291 487.274 L 511.500 480.500 512.120 395.500 C 512.461 348.750, 512.689 246.150, 512.626 167.500 C 512.550 73.636, 512.411 55.597, 512.219 115 L 511.927 205.500 509.894 199.579 C 507.432 192.409, 503.718 186.838, 497.708 181.298 C 487.367 171.767, 480.009 170.034, 449.775 170.015 L 427.051 170 426.775 97.750 L 426.500 25.500 423.852 19.852 C 420.626 12.971, 414.834 6.999, 407.784 3.284 L 402.500 0.500 214.500 0.297 C 26.689 0.094, 26.495 0.095, 21.139 2.158 M 31 17.922 C 26.214 18.867, 22.466 21.514, 19.768 25.853 C 17.653 29.253, 17.477 30.803, 17.158 48.750 L 16.816 68 212.908 68 L 409 68 409 48.950 C 409 28.344, 408.696 26.887, 403.339 21.808 C 401.778 20.328, 398.475 18.651, 396 18.083 C 390.896 16.910, 36.909 16.754, 31 17.922 M 0.487 179 C 0.487 263.425, 0.606 297.963, 0.750 255.750 C 0.894 213.538, 0.894 144.463, 0.750 102.250 C 0.606 60.038, 0.487 94.575, 0.487 179 M 36.455 36.455 C 33.238 39.671, 33.161 44.913, 36.278 48.537 C 41.479 54.584, 51.522 50.416, 51.292 42.306 C 51.079 34.808, 41.772 31.137, 36.455 36.455 M 70.636 36.636 C 66.016 41.257, 67.464 48.042, 73.618 50.614 C 82.871 54.480, 90.131 42.181, 82.253 35.984 C 78.648 33.149, 73.855 33.418, 70.636 36.636 M 105.201 36.028 C 100.445 40.458, 101.393 47.399, 107.142 50.255 C 111.640 52.489, 116.374 51.112, 118.530 46.941 C 120.625 42.890, 120.364 40.586, 117.411 37.077 C 114.226 33.292, 108.652 32.813, 105.201 36.028 M 309.455 36.455 C 304.988 40.921, 306.556 48.081, 312.548 50.585 C 316.891 52.399, 381.788 52.667, 386.881 50.892 C 390.144 49.754, 393 45.663, 393 42.126 C 393 41.041, 391.835 38.769, 390.411 37.077 L 387.822 34 349.866 34 L 311.909 34 309.455 36.455 M 17.024 204.750 C 17.037 272.427, 17.439 325.187, 17.957 327.423 C 18.996 331.900, 21.396 335.460, 25.385 338.438 C 28.094 340.462, 29.297 340.505, 90.573 340.772 L 153 341.044 153 333.068 L 153 325.092 126.021 324.796 L 99.042 324.500 96.598 322 C 92.825 318.141, 92.768 313.141, 96.455 309.455 L 98.909 307 125.955 307 L 153 307 153 299.060 L 153 291.119 126.021 290.810 L 99.042 290.500 96.598 288 C 92.826 284.141, 92.768 279.141, 96.455 275.455 L 98.909 273 125.955 273 L 153 273 153 264.500 L 153 256 126.056 256 C 99.435 256, 99.080 255.973, 96.456 253.716 C 92.958 250.707, 92.779 244.929, 96.074 241.421 L 98.349 239 125.674 239 L 153 239 153 230.500 L 153 222 125.955 222 L 98.909 222 96.455 219.545 C 92.768 215.859, 92.826 210.860, 96.598 207 L 99.042 204.500 126.574 204 L 154.106 203.500 156.476 197.665 C 162.369 183.156, 173.630 173.915, 188.960 171.008 C 192.322 170.370, 233.699 170, 301.636 170 L 409 170 409 128 L 409 86 213 86 L 17 86 17.024 204.750 M 45.747 103.984 C 42.572 106.482, 41.534 110.462, 43.083 114.201 C 44.997 118.822, 48.541 120, 60.527 120 C 70.939 120, 71.213 119.941, 74.077 117.077 C 76.072 115.082, 77 113.152, 77 111 C 77 108.848, 76.072 106.918, 74.077 104.923 C 71.187 102.033, 71.025 102, 59.712 102 C 49.814 102, 47.929 102.268, 45.747 103.984 M 98.315 103.007 C 94.603 104.503, 92.778 110.652, 94.621 115.455 C 96.304 119.841, 98.243 120, 150.027 120 L 199.154 120 202.077 117.077 C 206.007 113.147, 206.007 108.853, 202.077 104.923 L 199.154 102 149.827 102.063 C 122.697 102.098, 99.517 102.523, 98.315 103.007 M 47.302 137.012 C 44.208 138.258, 41.725 143.469, 42.513 147.061 C 43.759 152.730, 46.905 154, 59.712 154 C 71.025 154, 71.187 153.967, 74.077 151.077 C 76.072 149.082, 77 147.152, 77 145 C 77 142.848, 76.072 140.918, 74.077 138.923 C 71.196 136.042, 70.997 136.001, 60.327 136.063 C 54.372 136.098, 48.511 136.525, 47.302 137.012 M 98.500 137.144 C 97.400 137.751, 95.938 138.954, 95.250 139.815 C 93.359 142.185, 93.725 148.438, 95.911 151.139 L 97.823 153.500 169.833 153.769 L 241.844 154.039 244.649 151.625 C 248.332 148.457, 248.602 142.158, 245.200 138.755 L 242.945 136.500 171.723 136.269 C 121.209 136.106, 99.918 136.360, 98.500 137.144 M 269 137.294 C 263.472 140.090, 262.769 148.100, 267.712 151.988 C 270.013 153.798, 271.754 154, 285.070 154 C 293.210 154, 301.046 153.553, 302.483 153.006 C 308.589 150.685, 308.888 140.545, 302.941 137.470 C 299.201 135.535, 272.748 135.398, 269 137.294 M 326.923 138.923 C 324.928 140.918, 324 142.848, 324 145 C 324 147.152, 324.928 149.082, 326.923 151.077 L 329.846 154 353.473 154 C 382.377 154, 384 153.495, 384 144.507 C 384 142.017, 383.224 140.525, 380.923 138.589 L 377.847 136 353.846 136 L 329.846 136 326.923 138.923 M 46.888 171.455 C 41.460 174.498, 40.859 182.171, 45.747 186.016 C 47.914 187.720, 49.813 188, 59.201 188 C 70.111 188, 73.292 187.246, 75.718 184.087 C 77.752 181.438, 77.220 176.368, 74.589 173.306 C 72.240 170.573, 71.884 170.493, 60.839 170.245 C 52.357 170.055, 48.842 170.359, 46.888 171.455 M 97.069 172.750 C 92.813 176.700, 92.575 181.665, 96.455 185.545 C 98.858 187.949, 99.247 188, 115.031 188 L 131.154 188 134.077 185.077 C 137.154 181.999, 137.620 179.760, 136.043 175.613 C 134.282 170.981, 130.528 170, 114.565 170 C 100.095 170, 100.019 170.012, 97.069 172.750 M 188.718 189.437 C 183.426 191.325, 178.714 194.745, 176.053 198.627 C 170.908 206.137, 171.091 201.687, 171.044 320.250 C 171.020 381.163, 171.230 431, 171.512 431 C 171.794 431, 189.918 415.339, 211.787 396.198 C 238.191 373.089, 252.977 360.826, 255.796 359.698 C 265.394 355.858, 274.145 358.308, 284.969 367.865 C 288.561 371.036, 292.009 373.933, 292.631 374.301 C 293.276 374.683, 301.005 368.538, 310.631 359.989 C 319.909 351.749, 329.075 344.218, 331 343.254 C 335.779 340.859, 347.282 340.920, 351.852 343.364 C 353.695 344.350, 360.756 350.071, 367.544 356.078 C 374.331 362.085, 380.188 367, 380.558 367 C 380.929 367, 383.317 365.492, 385.866 363.648 C 391.308 359.712, 395.888 358, 400.971 358 C 409.644 358, 412.161 359.778, 448.563 391.634 C 467.778 408.449, 486.101 424.466, 489.279 427.227 L 495.058 432.248 494.779 319.874 L 494.500 207.500 492.192 202.814 C 490.922 200.236, 488.136 196.549, 486.001 194.620 C 478.251 187.619, 487.066 187.995, 332.068 188.044 C 217.550 188.080, 191.821 188.330, 188.718 189.437 M 47.337 205.606 C 41.458 208.505, 40.632 215.992, 45.747 220.016 C 47.942 221.742, 49.816 222, 60.180 222 C 71.493 222, 72.214 221.877, 74.545 219.545 C 79.012 215.079, 77.444 207.919, 71.452 205.415 C 66.732 203.444, 51.477 203.564, 47.337 205.606 M 245.251 231.545 C 237.741 233.567, 232.431 236.517, 226.774 241.808 C 204.294 262.835, 210.414 298.880, 238.741 312.299 C 245.010 315.268, 246.261 315.500, 256 315.500 C 265.739 315.500, 266.990 315.268, 273.259 312.299 C 301.586 298.880, 307.706 262.835, 285.226 241.808 C 274.337 231.623, 259.300 227.762, 245.251 231.545 M 44.974 241.527 C 43.424 243.178, 42.600 245.250, 42.600 247.500 C 42.600 249.750, 43.424 251.822, 44.974 253.473 C 47.266 255.912, 47.781 256, 59.720 256 C 71.521 256, 72.204 255.887, 74.545 253.545 C 76.240 251.851, 77 249.979, 77 247.500 C 77 245.021, 76.240 243.149, 74.545 241.455 C 72.204 239.113, 71.521 239, 59.720 239 C 47.781 239, 47.266 239.088, 44.974 241.527 M 245.500 250.383 C 236.372 254.699, 231.044 263.034, 231.044 273 C 231.044 286.866, 242.147 297.980, 256 297.980 C 269.846 297.980, 280.937 286.883, 280.968 273 C 281.009 254.765, 261.945 242.609, 245.500 250.383 M 344.056 266.790 C 339.989 270.857, 339.943 275.097, 343.923 279.077 C 345.906 281.059, 347.851 282, 349.969 282 C 354.128 282, 358 285.872, 358 290.031 C 358 294.183, 362.720 299, 366.788 299 C 371.226 299, 374.882 295.589, 375.661 290.721 C 376.492 285.521, 379.871 282, 384.031 282 C 386.149 282, 388.094 281.059, 390.077 279.077 C 393.742 275.412, 393.925 271.186, 390.585 267.306 C 388.472 264.851, 387.485 264.506, 382.695 264.551 C 378.798 264.587, 375.749 265.365, 372.110 267.253 L 367 269.904 362.237 267.433 C 359.617 266.074, 355.142 264.686, 352.293 264.348 C 347.468 263.777, 346.902 263.945, 344.056 266.790 M 45.190 275.298 C 44.002 276.562, 42.754 278.980, 42.416 280.671 C 41.918 283.161, 42.361 284.372, 44.748 287.044 C 47.566 290.197, 48.073 290.362, 56.289 290.794 C 67.006 291.356, 71.558 290.533, 74.612 287.479 C 77.884 284.207, 77.854 278.763, 74.545 275.455 C 72.204 273.113, 71.521 273, 59.720 273 C 48.107 273, 47.216 273.141, 45.190 275.298 M 413.888 299.458 C 412.451 300.262, 410.738 302.218, 410.080 303.806 C 407.612 309.764, 411.428 315.173, 418.948 316.376 C 423.470 317.099, 425.405 319.384, 426.425 325.207 C 428.118 334.873, 441.603 335.673, 443.531 326.222 C 444.850 319.760, 447.760 316.850, 454.222 315.531 C 460.770 314.195, 463.111 306.562, 458.583 301.306 C 456.444 298.822, 455.534 298.515, 450.649 298.628 C 446.700 298.719, 443.771 299.516, 440.346 301.430 L 435.561 304.105 430.530 301.610 C 424.029 298.386, 417.348 297.522, 413.888 299.458 M 45.712 309.012 C 40.054 313.462, 41.811 321.964, 48.821 324.064 C 50.980 324.711, 56.864 325.053, 62.403 324.853 C 71.671 324.518, 72.300 324.355, 74.588 321.694 C 77.882 317.862, 77.793 313.066, 74.364 309.636 C 71.815 307.088, 71.338 307, 59.998 307 C 49.760 307, 47.945 307.256, 45.712 309.012 M 335.306 362.250 C 333.170 364.038, 313.971 381.025, 292.643 400 C 271.314 418.975, 252.572 434.895, 250.992 435.377 C 245.202 437.146, 238.869 430.642, 240.409 424.507 C 240.772 423.060, 248.288 415.634, 259.257 405.886 C 269.290 396.968, 278.086 389.144, 278.802 388.498 C 279.842 387.560, 278.768 386.182, 273.472 381.662 C 269.401 378.186, 265.911 376, 264.434 376 C 262.698 376, 249.349 387.061, 216.460 415.750 L 170.892 455.500 171.245 466 C 171.650 478.018, 173.342 482.459, 179.618 487.970 C 187.667 495.037, 175.144 494.500, 332 494.500 C 445.639 494.500, 474.223 494.244, 477.171 493.199 C 488.449 489.200, 493.815 480.796, 494.714 465.719 L 495.278 456.266 449.427 416.133 C 414.674 385.713, 402.963 376.004, 401.038 376.015 C 399.174 376.026, 392.262 381.497, 375 396.627 C 329.801 436.243, 331.341 435, 327.438 435 C 322.438 435, 319 431.367, 319 426.082 C 319 422.101, 319.161 421.932, 343.094 400.917 C 362.870 383.552, 366.948 379.535, 365.844 378.503 C 353.609 367.057, 343.580 359, 341.569 359 C 340.260 359, 337.442 360.462, 335.306 362.250" stroke="none" class="tool_gradient_color" fill-rule="evenodd"/></svg>