<svg xmlns="http://www.w3.org/2000/svg" viewBox="0 0 512 512" version="1.1"><defs><linearGradient id="gradientColor" x1="0%" y1="0%" x2="0%" y2="100%"><stop offset="0%" style="stop-color:rgb(255, 255, 255);stop-opacity:1" /><stop offset="100%" style="stop-color:rgb(255, 0, 0);stop-opacity:1" /></linearGradient></defs><path d="M 39.804 11.929 C 28.766 15.458, 20.292 23.901, 16.297 35.351 C 14.597 40.221, 14.500 48.952, 14.500 196.500 L 14.500 352.500 16.821 358.247 C 19.858 365.768, 27.290 373.807, 34.659 377.540 L 40.500 380.500 102.740 380.779 L 164.980 381.058 169.178 386.779 C 182.702 405.208, 200.617 426.138, 224.458 451.364 C 244.146 472.197, 247.887 475, 256 475 C 263.967 475, 267.754 472.242, 285.625 453.425 C 310.220 427.529, 327.359 407.592, 342.919 386.779 L 347.197 381.058 409.348 380.779 L 471.500 380.500 477.281 377.571 C 488.576 371.848, 495.546 361.544, 497.144 348.207 C 497.682 343.713, 497.949 277.746, 497.783 190 L 497.500 39.500 495.298 34.122 C 490.587 22.621, 482.886 15.311, 471.864 11.881 C 466.028 10.064, 458.650 10.002, 255.661 10.054 C 55.212 10.105, 45.237 10.192, 39.804 11.929 M 44.096 23.154 C 39.845 24.382, 34.714 27.822, 32.012 31.258 C 27.182 37.398, 27 38.930, 27 73.468 L 27 106 256 106 L 485 106 484.978 73.250 C 484.958 43.631, 484.781 40.118, 483.121 36.500 C 480.885 31.625, 476.855 27.511, 471.513 24.649 L 467.500 22.500 257.500 22.335 C 122.392 22.230, 46.286 22.521, 44.096 23.154 M 70.999 45.250 C 58.190 52.942, 56.219 69.339, 66.833 79.908 C 74.208 87.251, 82.519 88.834, 91.571 84.619 C 113.485 74.415, 106.561 42.047, 82.456 42.009 C 77.404 42.002, 75.523 42.534, 70.999 45.250 M 135.252 44.104 C 127.498 47.942, 123 55.247, 123 64 C 123 81.127, 140.556 91.909, 155.753 84.116 C 172.461 75.548, 171.260 50.830, 153.782 43.549 C 148.453 41.329, 140.370 41.571, 135.252 44.104 M 245.840 47.887 C 235.327 54.554, 233.976 70.129, 243.166 78.702 C 249.031 84.173, 245.963 84.002, 337.718 83.978 C 418.108 83.957, 422.707 83.860, 426.500 82.104 C 437.281 77.113, 441.290 65.163, 435.761 54.498 C 433.913 50.933, 431.644 48.820, 427.300 46.621 C 424.422 45.163, 415.338 45, 337.245 45 L 250.392 45 245.840 47.887 M 75.763 56.344 C 67.354 64.137, 74.918 77.492, 85.721 73.927 C 89.477 72.687, 92.990 67.968, 92.996 64.154 C 93.010 55.797, 81.824 50.727, 75.763 56.344 M 137.923 56.923 C 133.830 61.016, 133.808 66.962, 137.872 71.026 C 141.626 74.780, 144.857 75.504, 149.394 73.609 C 156.458 70.657, 157.773 61.511, 151.850 56.527 C 147.512 52.877, 141.807 53.039, 137.923 56.923 M 251 59 C 248.220 61.780, 248.424 66.515, 251.455 69.545 L 253.909 72 337.320 72 C 420.190 72, 420.747 71.987, 423.365 69.927 C 426.667 67.330, 426.978 61.978, 424 59 C 422.032 57.032, 420.667 57, 337.500 57 C 254.333 57, 252.968 57.032, 251 59 M 27.238 235.914 L 27.500 353.828 30.528 358.136 C 32.193 360.506, 35.494 363.807, 37.863 365.472 L 42.171 368.500 99.177 368.774 C 130.530 368.925, 156.029 368.700, 155.841 368.274 C 155.654 367.848, 152.884 363.109, 149.687 357.743 C 131.724 327.589, 125.154 305.837, 127.042 282.776 C 128.594 263.824, 132.750 249.188, 141.218 232.853 C 159.188 198.193, 191.510 173.918, 231.040 165.393 C 242.683 162.882, 269.137 162.828, 280.692 165.291 C 307.059 170.912, 328.711 182.639, 347.500 201.475 C 362.594 216.606, 371.906 231.578, 378.508 251.329 C 385.204 271.357, 386.959 294.272, 383.047 310.589 C 379.679 324.634, 372.072 341.728, 361.365 359.308 C 358.414 364.152, 356 368.326, 356 368.582 C 356 368.838, 381.612 368.925, 412.915 368.774 L 469.829 368.500 474.137 365.472 C 476.506 363.807, 479.807 360.506, 481.472 358.136 L 484.500 353.828 484.762 235.914 L 485.024 118 256 118 L 26.976 118 27.238 235.914 M 50.571 139.571 C 48.239 141.904, 48.583 146.595, 51.223 148.443 C 53.136 149.784, 58.559 150, 90.268 150 L 127.091 150 129.608 147.483 C 131.459 145.632, 131.943 144.377, 131.440 142.733 C 129.952 137.879, 131 138, 90.449 138 C 56.959 138, 51.945 138.198, 50.571 139.571 M 386 142 C 384.090 143.910, 384 145.333, 384 173.777 C 384 206.615, 384.239 208, 389.902 208 C 395.895 208, 396 207.410, 396 173.728 C 396 143.225, 395.992 143.108, 393.777 141.557 C 390.786 139.462, 388.403 139.597, 386 142 M 417.250 141.495 C 415 143.113, 415 143.116, 415 173.985 C 415 207.895, 415.019 208, 421.015 208 C 425.803 208, 427 205.056, 427 193.277 L 427 183 435.351 183 C 448.944 183, 455.468 179.589, 459.747 170.242 C 463.604 161.816, 462.022 153.295, 455.364 146.636 C 450.002 141.275, 447.554 140.571, 433 140.211 C 421.783 139.933, 419.119 140.150, 417.250 141.495 M 427 161.397 L 427 171 434.550 171 C 443.700 171, 447.391 169.375, 448.947 164.661 C 450.245 160.728, 449.303 157.467, 446.010 154.500 C 444.250 152.913, 442.056 152.427, 435.396 152.147 L 427 151.795 427 161.397 M 50.655 164.829 C 48.469 167.244, 48.552 171.284, 50.829 173.345 C 52.426 174.790, 55.764 175, 77.174 175 C 99.655 175, 101.827 174.848, 103.345 173.171 C 105.531 170.756, 105.448 166.716, 103.171 164.655 C 101.574 163.210, 98.236 163, 76.826 163 C 54.345 163, 52.173 163.152, 50.655 164.829 M 240.500 176.056 C 198.254 181.764, 160.374 212.088, 146.054 251.664 C 139.058 270.999, 137.114 292.659, 140.953 308.500 C 147.350 334.897, 169.385 370.495, 205.112 412.149 C 222.671 432.621, 250.883 461.932, 253.710 462.642 C 255.124 462.997, 257.428 462.884, 258.830 462.391 C 261.717 461.375, 291.167 430.603, 307 412.056 C 339.089 374.468, 360.691 341.010, 369.145 315.800 C 374.884 298.688, 374.248 276.686, 367.419 256.127 C 353.980 215.668, 321.362 186.498, 279.487 177.492 C 270.653 175.592, 249.657 174.819, 240.500 176.056 M 238 217.045 C 212.119 223.723, 192.490 243.642, 185.885 269.930 C 184.131 276.909, 183.849 280.354, 184.244 289.930 C 185.060 309.687, 191.763 324.998, 205.508 338.500 C 219.076 351.828, 233.425 357.939, 253.070 358.754 C 262.623 359.150, 266.108 358.867, 273.070 357.128 C 323.939 344.425, 344.815 284.720, 313.057 242.768 C 296.221 220.528, 265.416 209.971, 238 217.045 M 241.800 228.488 C 220.158 233.966, 203.159 251.035, 197.472 273 C 195.219 281.703, 195.898 298.054, 198.857 306.320 C 205.028 323.558, 219.472 338.112, 236.277 344.024 C 244.936 347.070, 261.175 347.830, 270.012 345.602 C 297.100 338.773, 315.970 314.711, 315.970 287 C 315.970 261.396, 299.398 238.318, 275 229.945 C 266.686 227.092, 250.178 226.368, 241.800 228.488 M 175.531 445.086 C 161.743 448.490, 149.008 454.277, 144.109 459.365 C 139.925 463.710, 138.780 470.741, 141.425 475.854 C 143.402 479.678, 149.500 484.304, 157 487.670 C 177.242 496.756, 227.228 503.032, 268 501.607 C 332.207 499.364, 372 487.194, 372 469.800 C 372 458.189, 359.127 450.036, 331.260 443.999 C 321.759 441.940, 321.561 441.937, 319.051 443.803 C 315.857 446.179, 315.377 449.031, 317.703 451.805 C 319.006 453.359, 322.246 454.531, 329.500 456.071 C 341.317 458.580, 353.309 463.014, 357.500 466.424 C 361.489 469.671, 360.372 471.535, 351.947 475.691 C 325.431 488.772, 252.120 493.740, 199.829 485.999 C 169.782 481.551, 149.251 473.812, 152.588 468.191 C 154.471 465.021, 166.548 459.926, 180.056 456.604 C 191.780 453.721, 193.689 452.965, 194.979 450.695 C 196.332 448.314, 196.281 447.853, 194.381 445.296 C 193.237 443.758, 191.222 442.417, 189.901 442.316 C 188.580 442.214, 182.114 443.461, 175.531 445.086" stroke="none" class="tool_gradient_color" fill="url(#gradientColor)" fill-rule="evenodd"/></svg>