<svg xmlns="http://www.w3.org/2000/svg" viewBox="0 0 512 512" version="1.1"><defs><linearGradient id="gradientColor" x1="0%" y1="0%" x2="0%" y2="100%"><stop offset="0%" style="stop-color:rgb(255, 255, 255);stop-opacity:1" /><stop offset="100%" style="stop-color:rgb(255, 0, 0);stop-opacity:1" /></linearGradient></defs><path d="M 31 33.314 C 26.147 34.852, 18.725 42.556, 17.222 47.616 C 15.516 53.363, 15.437 426.389, 17.141 432.078 C 18.796 437.600, 23.617 442.913, 29.429 445.619 C 34.466 447.965, 34.743 447.981, 71.076 447.990 L 107.651 448 109.826 445.686 C 112.786 442.534, 112.739 437.042, 109.726 434.212 C 107.505 432.125, 106.626 432.069, 72.252 431.788 C 37.137 431.501, 37.048 431.495, 34.777 429.222 L 32.500 426.945 32.241 269.472 L 31.982 112 248 112 L 464.018 112 463.759 269.472 L 463.500 426.945 461.223 429.222 C 458.952 431.495, 458.863 431.501, 423.748 431.788 C 389.374 432.069, 388.495 432.125, 386.274 434.212 C 383.154 437.144, 383.173 442.875, 386.314 445.826 C 388.604 447.976, 389.025 448, 425.064 447.990 C 461.253 447.981, 461.534 447.964, 466.500 445.623 C 472.458 442.813, 475.174 440.048, 477.916 434 C 479.946 429.522, 479.956 428.592, 479.968 240 L 479.980 50.500 477.619 45.429 C 474.913 39.617, 469.600 34.796, 464.078 33.141 C 458.724 31.537, 36.074 31.705, 31 33.314 M 37.020 49.281 C 32.499 51.575, 32.031 54.051, 32.015 75.750 L 32 96 248.055 96 L 464.110 96 463.805 74.526 C 463.509 53.711, 463.430 52.981, 461.222 50.776 L 458.945 48.500 249.222 48.261 C 82.262 48.071, 38.994 48.278, 37.020 49.281 M 50.174 66.314 C 45.208 71.601, 48.870 80, 56.140 80 C 60.756 80, 64 76.640, 64 71.860 C 64 64.760, 55.019 61.157, 50.174 66.314 M 82.174 66.314 C 77.208 71.601, 80.870 80, 88.140 80 C 92.756 80, 96 76.640, 96 71.860 C 96 64.760, 87.019 61.157, 82.174 66.314 M 114.174 66.314 C 109.208 71.601, 112.870 80, 120.140 80 C 124.756 80, 128 76.640, 128 71.860 C 128 64.760, 119.019 61.157, 114.174 66.314 M 226.174 130.314 C 223.195 133.486, 223.261 138.957, 226.314 141.826 C 228.130 143.532, 229.853 144, 234.314 144 L 240 144 240 151.856 L 240 159.713 232.792 160.383 C 223.207 161.274, 208.941 164.306, 199.317 167.499 C 190.036 170.577, 173.602 178.471, 166.243 183.384 L 160.985 186.895 156.850 181.197 C 149.878 171.593, 148.048 170, 143.987 170 C 139.345 170, 136 173.311, 136 177.907 C 136 182.308, 150.952 203.193, 155.776 205.531 C 159.920 207.539, 161.383 207.049, 171.204 200.361 C 208.309 175.095, 252.536 169.736, 296 185.237 C 301.225 187.101, 306.400 188.440, 307.500 188.213 C 313.687 186.937, 316.119 179.028, 311.687 174.597 C 306.440 169.349, 272.919 160.021, 259.250 160.004 L 256 160 256 152 L 256 144 261.826 144 C 266.622 144, 268.035 143.591, 269.826 141.686 C 272.805 138.514, 272.739 133.043, 269.686 130.174 C 267.473 128.095, 266.516 128, 247.860 128 C 228.758 128, 228.303 128.049, 226.174 130.314 M 345.815 172.750 C 344.408 174.262, 340.048 179.946, 336.128 185.381 C 326.006 199.412, 326.042 199.706, 339.473 212.287 C 352.093 224.108, 361.004 235.724, 368.327 249.902 C 378.670 269.925, 383.126 288.599, 383.143 312 C 383.172 349.452, 370.125 380.892, 343.508 407.508 C 322.946 428.071, 298.911 440.690, 271 445.578 C 258.549 447.759, 237.451 447.759, 225 445.578 C 155.970 433.488, 106.571 369.437, 113.043 300.411 C 115.333 275.987, 122.443 256.087, 136.395 235.049 C 139.478 230.401, 142 225.529, 142 224.222 C 142 221.045, 136.841 216, 133.593 216 C 123.982 216, 104.666 252.655, 98.287 283 C 95.729 295.169, 95.744 328.952, 98.312 341 C 109.913 395.405, 146.724 437.754, 198.119 455.822 C 215.767 462.025, 225.347 463.500, 248 463.500 C 263.999 463.500, 270.366 463.102, 277 461.688 C 337.712 448.743, 382.459 405.107, 396.660 345 C 399.722 332.039, 400.904 306.467, 399.088 292.500 C 394.814 259.644, 380.406 230, 356.718 205.327 C 351.543 199.936, 349.077 196.652, 349.566 195.800 C 349.976 195.085, 352.491 191.520, 355.156 187.878 C 358.735 182.985, 360 180.353, 360 177.802 C 360 170.411, 350.981 167.199, 345.815 172.750 M 242.174 194.314 C 237.208 199.601, 240.870 208, 248.140 208 C 252.756 208, 256 204.640, 256 199.860 C 256 192.760, 247.019 189.157, 242.174 194.314 M 186.635 209.073 C 183.115 211.841, 182.956 217.671, 186.314 220.826 C 189.690 223.997, 195.244 223.777, 197.927 220.365 C 204.270 212.302, 194.698 202.730, 186.635 209.073 M 298.174 209.314 C 293.208 214.601, 296.870 223, 304.140 223 C 308.800 223, 312 219.645, 312 214.758 C 312 207.881, 302.890 204.295, 298.174 209.314 M 242.174 226.314 C 240.041 228.585, 240 229.200, 240 258.768 L 240 288.906 236.467 290.583 C 226.637 295.247, 221.618 308.318, 225.141 320.078 C 229.030 333.058, 245.509 339.749, 258.500 333.623 C 264.458 330.813, 267.174 328.048, 269.916 322 C 275.213 310.317, 269.352 294.126, 258.306 289.926 L 256 289.050 256 258.699 L 256 228.349 253.686 226.174 C 250.514 223.195, 245.043 223.261, 242.174 226.314 M 145.073 250.635 C 140.520 256.423, 143.960 264, 151.140 264 C 155.756 264, 159 260.640, 159 255.860 C 159 248.536, 149.521 244.980, 145.073 250.635 M 339.174 250.314 C 336.195 253.486, 336.261 258.957, 339.314 261.826 C 344.478 266.677, 353 263.136, 353 256.140 C 353 249.066, 343.935 245.247, 339.174 250.314 M 130.174 306.314 C 127.195 309.486, 127.261 314.957, 130.314 317.826 C 135.478 322.677, 144 319.136, 144 312.140 C 144 305.066, 134.935 301.247, 130.174 306.314 M 245.465 304.961 C 237.848 308.014, 239.844 319.333, 248 319.333 C 252.052 319.333, 255.333 316.052, 255.333 312 C 255.333 306.989, 249.963 303.158, 245.465 304.961 M 354.174 306.314 C 349.208 311.601, 352.870 320, 360.140 320 C 364.800 320, 368 316.645, 368 311.758 C 368 304.881, 358.890 301.295, 354.174 306.314 M 145.174 362.314 C 142.195 365.486, 142.261 370.957, 145.314 373.826 C 150.478 378.677, 159 375.136, 159 368.140 C 159 361.066, 149.935 357.247, 145.174 362.314 M 339.174 362.314 C 334.208 367.601, 337.870 376, 345.140 376 C 349.756 376, 353 372.640, 353 367.860 C 353 360.760, 344.019 357.157, 339.174 362.314 M 186.635 403.073 C 181.025 407.486, 184.573 417.008, 191.905 417.216 C 199.082 417.420, 202.695 408.604, 197.545 403.455 C 194.509 400.418, 190.201 400.267, 186.635 403.073 M 298.174 403.314 C 293.208 408.601, 296.870 417, 304.140 417 C 308.756 417, 312 413.640, 312 408.860 C 312 401.760, 303.019 398.157, 298.174 403.314 M 242.174 418.314 C 237.208 423.601, 240.870 432, 248.140 432 C 252.756 432, 256 428.640, 256 423.860 C 256 416.760, 247.019 413.157, 242.174 418.314" stroke="none" class="tool_gradient_color" fill="url(#gradientColor)" fill-rule="evenodd"/></svg>