<svg xmlns="http://www.w3.org/2000/svg" viewBox="0 0 512 512" version="1.1"><path d="" stroke="none" fill="currentColor" fill-rule="evenodd"/><path d="M 233 1.427 C 185.165 10.019, 146.258 39.014, 125.314 81.682 L 119.825 92.864 78.163 93.182 L 36.500 93.500 31.500 96.157 C 25.318 99.442, 21.726 103.156, 19.081 109 C 17.061 113.463, 17.044 114.742, 17.022 265.622 L 17 417.744 12.986 418.386 C 7.935 419.194, 1.394 425.385, 0.487 430.216 C 0.144 432.047, 0.006 444.109, 0.181 457.022 L 0.500 480.500 3.709 487.274 C 5.701 491.481, 9.008 496.139, 12.435 499.565 C 15.861 502.992, 20.519 506.299, 24.726 508.291 L 31.500 511.500 256 511.500 L 480.500 511.500 487.274 508.291 C 495.961 504.177, 504.053 496.182, 508.021 487.793 C 509.659 484.332, 510.999 480.739, 510.999 479.809 C 511 478.879, 511.450 477.840, 512 477.500 C 512.622 477.116, 513 467.803, 513 452.882 C 513 437.137, 512.656 429.095, 512 429.500 C 511.450 429.840, 511 429.416, 511 428.559 C 511 425.592, 503.321 419.075, 499.014 418.386 L 495 417.744 494.990 265.622 L 494.980 113.500 492.617 108.500 C 489.721 102.374, 486.050 98.821, 479.500 95.804 C 474.576 93.535, 473.873 93.495, 433.285 93.190 L 392.070 92.880 387.483 83.197 C 379.373 66.076, 369.449 52.376, 355.795 39.451 C 336.881 21.548, 313.359 9.032, 287 2.846 C 275.884 0.237, 244.253 -0.594, 233 1.427 M 246 18.165 C 202.628 21.202, 162.804 47.604, 142.797 86.585 C 133.033 105.611, 128.835 122.793, 128.771 144 C 128.682 173.253, 135.265 193.175, 154.544 222 C 211.615 307.329, 255.365 372, 256.019 372 C 256.719 372, 342.526 244.961, 361.363 216.038 C 378.441 189.816, 385.535 163.138, 382.999 134.671 C 380.213 103.389, 367.870 76.745, 346.062 54.938 C 319.310 28.186, 284.675 15.457, 246 18.165 M 183.500 86.208 C 178.411 89.126, 177.482 95.123, 181.412 99.694 C 183.712 102.370, 184.292 102.516, 193.912 102.844 L 204 103.187 204 153.594 L 204 204 195.968 204 C 187.180 204, 181.796 205.643, 180.080 208.850 C 178.217 212.331, 178.804 216.895, 181.455 219.545 L 183.909 222 213.031 222 L 242.154 222 245.077 219.077 C 248.337 215.817, 248.707 213.268, 246.530 209.059 C 244.580 205.288, 240.462 204, 230.351 204 L 222 204 222 153.500 L 222 103 231.050 103 C 241.199 103, 245.480 101.498, 247.043 97.387 C 248.620 93.240, 248.154 91.001, 245.077 87.923 L 242.154 85 213.827 85.030 C 194.403 85.051, 184.871 85.421, 183.500 86.208 M 266.923 87.923 L 264 90.846 264 153.500 L 264 216.154 266.923 219.077 C 271.023 223.177, 275.882 223.117, 279.411 218.923 L 282 215.847 282 189.423 L 282 163 295.750 162.980 C 319.978 162.945, 329.140 160.432, 338.418 151.278 C 341.126 148.606, 344.636 143.635, 346.380 140 C 349.232 134.059, 349.500 132.641, 349.500 123.500 C 349.500 115.217, 349.110 112.655, 347.231 108.580 C 342.388 98.078, 333.510 90.194, 322.760 86.848 C 317.694 85.272, 313.370 85, 293.334 85 L 269.846 85 266.923 87.923 M 282 124 L 282 145 297.057 145 C 314.261 145, 319.270 144.051, 324.408 139.815 C 330.072 135.146, 332.291 129.911, 331.810 122.353 C 331.315 114.588, 327.672 108.800, 321.093 105.327 C 316.969 103.150, 315.568 103, 299.343 103 L 282 103 282 124 M 39.500 112.155 C 34.794 114.728, 35 107.646, 35 267.191 L 35 418 43 418 L 51 418 51 279.460 C 51 143.422, 51.036 140.850, 52.977 137.044 C 54.065 134.913, 56.427 132.118, 58.227 130.834 C 61.418 128.558, 62.131 128.493, 86.750 128.202 L 112 127.904 112.016 125.202 C 112.024 123.716, 112.640 119.912, 113.384 116.750 L 114.737 111 78.119 111.030 C 53.551 111.051, 40.842 111.421, 39.500 112.155 M 398.397 114.750 C 398.759 116.813, 399.328 120.616, 399.661 123.203 L 400.267 127.905 425.384 128.203 C 449.863 128.492, 450.583 128.559, 453.773 130.834 C 455.573 132.118, 457.935 134.913, 459.023 137.044 C 460.964 140.850, 461 143.422, 461 279.460 L 461 418 469 418 L 477 418 477 267.582 C 477 184.852, 476.720 116.435, 476.379 115.545 C 474.752 111.306, 471.890 111, 433.919 111 L 397.738 111 398.397 114.750 M 69 281.480 L 69 418 256 418 L 443 418 443 281.480 L 443 144.959 422.250 145.230 L 401.500 145.500 400.823 155.500 C 400.001 167.653, 397.834 178.561, 393.885 190.437 C 387.458 209.764, 390.522 204.894, 299.277 340.764 C 264.476 392.585, 264.109 393.025, 255.790 392.984 C 247.586 392.943, 248.733 394.450, 187.543 303.306 C 154.104 253.497, 128.432 214.247, 125.734 208.806 C 117.303 191.801, 112.424 173.936, 111.177 155.500 L 110.500 145.500 89.750 145.230 L 69 144.959 69 281.480 M 0.432 454 C 0.432 467.475, 0.574 472.988, 0.747 466.250 C 0.920 459.512, 0.920 448.488, 0.747 441.750 C 0.574 435.012, 0.432 440.525, 0.432 454 M 17 444 L 17 452 65.577 452 L 114.154 452 117.077 454.923 C 120.319 458.165, 120.706 460.733, 118.575 464.855 C 115.942 469.947, 115.388 470, 64.821 470 L 17.737 470 18.287 474.101 C 19.568 483.651, 28.179 491.962, 38.886 493.983 C 42.430 494.652, 116.706 495, 256 495 C 395.294 495, 469.570 494.652, 473.114 493.983 C 483.821 491.962, 492.432 483.651, 493.713 474.101 L 494.263 470 447.179 470 C 396.612 470, 396.058 469.947, 393.425 464.855 C 391.294 460.733, 391.681 458.165, 394.923 454.923 L 397.846 452 446.423 452 L 495 452 495 444 L 495 436 420.710 436 L 346.420 436 341.460 446.154 C 334.860 459.665, 332.360 462.939, 325.923 466.500 L 320.500 469.500 256 469.500 L 191.500 469.500 186.077 466.500 C 179.640 462.939, 177.140 459.665, 170.540 446.154 L 165.580 436 91.290 436 L 17 436 17 444 M 186 436.529 C 186 438.369, 192.350 449.132, 194.200 450.428 C 196.180 451.815, 203.466 452, 256 452 C 308.534 452, 315.820 451.815, 317.800 450.428 C 319.650 449.132, 326 438.369, 326 436.529 C 326 436.238, 294.500 436, 256 436 C 217.500 436, 186 436.238, 186 436.529 M 138.923 454.923 C 135.670 458.177, 135.293 460.733, 137.453 464.909 C 139.454 468.778, 143.762 470.330, 151.042 469.803 C 155.773 469.461, 157.606 468.837, 159.467 466.933 C 163.175 463.140, 163.207 458.116, 159.545 454.455 C 157.369 452.278, 156.228 452, 149.469 452 C 142.377 452, 141.643 452.204, 138.923 454.923 M 352.455 454.455 C 348.793 458.116, 348.825 463.140, 352.533 466.933 C 354.394 468.837, 356.227 469.461, 360.958 469.803 C 368.238 470.330, 372.546 468.778, 374.547 464.909 C 376.707 460.733, 376.330 458.177, 373.077 454.923 C 370.357 452.204, 369.623 452, 362.531 452 C 355.772 452, 354.631 452.278, 352.455 454.455" stroke="none" class="tool_gradient_color" fill-rule="evenodd"/></svg>