<svg xmlns="http://www.w3.org/2000/svg" width="512" height="512" viewBox="0 0 512 512" version="1.1"><path d="M 337 25.698 C 337 28.711, 341.992 43.871, 345.566 51.714 C 352.305 66.501, 366.455 84.861, 378.403 94.317 C 382.600 97.639, 382.542 97.279, 377.738 90.187 C 372.683 82.723, 365.191 65.874, 362.536 56 C 361.131 50.775, 359.438 41.438, 358.774 35.250 L 357.566 24 347.283 24 C 338.275 24, 337 24.211, 337 25.698 M 457 172.875 L 457 202 450.961 202 C 435.732 202, 410.926 197.638, 393.742 191.938 C 375.651 185.937, 354.157 175.037, 340.293 164.833 C 337.429 162.725, 334.767 161, 334.379 161 C 333.990 161, 333.957 200.784, 334.305 249.408 C 334.944 338.623, 334.612 352.199, 331.410 367.860 C 320.402 421.698, 277.648 467.262, 224 482.331 C 209.502 486.403, 200.705 487.455, 181.500 487.414 C 165.877 487.381, 160.711 486.989, 152.435 485.206 C 132.714 480.957, 113.759 473.229, 98.827 463.348 C 94.797 460.682, 90.825 458.107, 90 457.625 C 86.510 455.590, 104.175 472.709, 111.500 478.461 C 149.004 507.912, 197.604 518.137, 244.299 506.403 C 308.302 490.319, 355.055 433.871, 358.518 368.500 C 358.838 362.450, 358.711 318.575, 358.235 271 C 357.760 223.425, 357.405 184.420, 357.447 184.322 C 357.489 184.223, 361.793 187.056, 367.012 190.617 C 378.498 198.453, 395.967 207.454, 409.500 212.508 C 429.074 219.818, 455.014 225, 472.034 225 L 480 225 480 185.649 L 480 146.297 471.750 145.695 C 467.212 145.363, 462.038 144.790, 460.250 144.421 L 457 143.750 457 172.875 M 205 238.966 C 205 267.233, 204.890 269.101, 203.250 268.605 C 193.389 265.617, 175.385 265.121, 165 267.550 C 142.176 272.890, 122.184 290.723, 113.792 313.227 C 111.179 320.236, 110.634 323.300, 110.229 333.279 C 109.938 340.459, 110.225 347.488, 110.964 351.279 C 114.363 368.719, 126.590 386.900, 141.406 396.543 C 143.004 397.583, 144.106 397.999, 143.855 397.467 C 135.183 379.083, 133.571 372.276, 134.278 357.025 C 135.036 340.672, 138.827 330.080, 148.551 317.144 C 166.013 293.914, 197.408 283.668, 226.750 291.623 L 229 292.233 229 251.710 L 229 211.188 224.250 210.628 C 221.637 210.320, 216.238 209.782, 212.250 209.432 L 205 208.797 205 238.966" stroke="none" fill="#f00145" fill-rule="evenodd"/><path d="M 278.743 198.250 C 278.469 359.653, 278.321 372.914, 276.729 378.112 C 269.127 402.929, 252.193 420.642, 228.500 428.557 C 201.258 437.658, 167.799 427.899, 149.972 405.653 C 147.124 402.098, 142.359 397.513, 139.383 395.464 C 119.619 381.852, 107.401 355.904, 109.401 331.791 C 111.931 301.279, 133.793 275.485, 164 267.370 C 172.552 265.073, 191.231 264.990, 199.250 267.215 L 205 268.810 205 239.255 L 205 209.700 194.250 210.324 C 160.462 212.283, 126.473 227.283, 101.299 251.345 C 82.262 269.541, 69.417 289.555, 61.499 313.356 C 55.531 331.297, 54.500 338.241, 54.500 360.500 C 54.500 377.786, 54.815 381.909, 56.824 390.881 C 59.979 404.970, 64.151 416.522, 70.505 428.760 C 75.367 438.124, 87.701 456.858, 89.070 456.958 C 89.384 456.981, 93.434 459.507, 98.070 462.571 C 142.810 492.136, 200.960 495.769, 249.500 472.031 C 291.592 451.445, 320.142 415.005, 331.244 367.694 C 333.365 358.657, 333.408 356.804, 333.738 259.246 L 334.073 159.991 339.287 163.793 C 361.820 180.225, 389.506 192.183, 418.344 197.940 C 427.941 199.856, 446.621 201.997, 453.750 201.999 L 457 202 457 173.200 L 457 144.401 447.250 141.707 C 434.882 138.291, 417.355 129.682, 407.221 122.046 C 402.899 118.789, 394.824 111.484, 389.276 105.812 C 383.728 100.140, 375.209 91.656, 370.345 86.957 C 354.111 71.278, 343.091 51.866, 337.016 28.250 L 335.923 24 307.481 24 L 279.038 24 278.743 198.250" stroke="none" fill="#010100" fill-rule="evenodd"/><path d="M 254.738 174.250 C 254.329 368.219, 254.966 352.202, 247.014 368.500 C 240.038 382.799, 228.909 393.938, 214.500 401.045 C 203.144 406.645, 195.564 408.392, 182.500 408.418 C 170.029 408.444, 160.930 406.563, 151.522 402.013 C 148.235 400.423, 145.428 399.239, 145.285 399.382 C 145.142 399.525, 147.473 402.609, 150.465 406.236 C 168.550 428.161, 201.486 437.582, 228.500 428.557 C 252.193 420.642, 269.127 402.929, 276.729 378.112 C 278.321 372.914, 278.469 359.653, 278.743 198.250 L 279.038 24 307.913 24 L 336.787 24 335.991 20.250 C 335.552 18.188, 334.887 13.013, 334.512 8.750 L 333.829 1 294.466 1 L 255.104 1 254.738 174.250 M 385.757 101.680 C 390.274 107.362, 401.662 118.052, 408.697 123.213 C 420.266 131.701, 439.802 140.482, 453.750 143.464 L 457 144.159 457 133.079 L 457 122 449.907 122 C 431.738 122, 408.269 114.333, 389.610 102.302 L 382.721 97.860 385.757 101.680 M 169.313 186.985 C 111.098 192.108, 60.827 229.252, 40.060 282.488 C 32.663 301.448, 29.697 317.268, 29.743 337.500 C 29.821 371.280, 39.775 401.032, 59.935 427.739 C 65.740 435.430, 81.187 451.413, 86 454.709 C 88.373 456.334, 88.347 456.219, 85.501 452.461 C 71.006 433.321, 61.993 413.965, 56.824 390.881 C 54.815 381.909, 54.500 377.786, 54.500 360.500 C 54.500 338.241, 55.531 331.297, 61.499 313.356 C 69.417 289.555, 82.262 269.541, 101.299 251.345 C 126.473 227.283, 160.462 212.283, 194.250 210.324 L 205 209.700 205 198.964 L 205 188.227 200.750 187.649 C 192.222 186.490, 178.282 186.196, 169.313 186.985" stroke="none" fill="#0bfbfb" fill-rule="evenodd"/><path d="M 369.500 87 C 371.648 89.200, 373.631 91, 373.906 91 C 374.181 91, 372.648 89.200, 370.500 87 C 368.352 84.800, 366.369 83, 366.094 83 C 365.819 83, 367.352 84.800, 369.500 87 M 178.250 265.728 C 180.313 265.944, 183.688 265.944, 185.750 265.728 C 187.813 265.513, 186.125 265.336, 182 265.336 C 177.875 265.336, 176.188 265.513, 178.250 265.728 M 129.437 287.250 L 126.500 290.500 129.750 287.563 C 132.779 284.825, 133.460 284, 132.687 284 C 132.515 284, 131.052 285.462, 129.437 287.250 M 334.442 313 C 334.442 329.225, 334.580 335.863, 334.748 327.750 C 334.916 319.637, 334.916 306.362, 334.748 298.250 C 334.580 290.137, 334.442 296.775, 334.442 313 M 109.336 337 C 109.336 341.125, 109.513 342.813, 109.728 340.750 C 109.944 338.688, 109.944 335.313, 109.728 333.250 C 109.513 331.188, 109.336 332.875, 109.336 337 M 170.250 487.689 C 171.213 487.941, 172.787 487.941, 173.750 487.689 C 174.713 487.438, 173.925 487.232, 172 487.232 C 170.075 487.232, 169.287 487.438, 170.250 487.689" stroke="none" fill="#480416" fill-rule="evenodd"/></svg>