<svg xmlns="http://www.w3.org/2000/svg" xmlns:xlink="http://www.w3.org/1999/xlink" width="50" height="50" viewBox="0 0 50 50">
  <defs>
    <clipPath id="clip-baidu">
      <rect width="50" height="50"/>
    </clipPath>
  </defs>
  <g id="baidu" clip-path="url(#clip-baidu)">
    <g id="Group_39" data-name="Group 39" transform="translate(-604.779 -411.628)">
      <g id="Group_37" data-name="Group 37">
        <g id="Group_36" data-name="Group 36">
          <rect id="Rectangle_11" data-name="Rectangle 11" width="50" height="50" rx="6" transform="translate(604.779 411.628)" fill="#fff"/>
        </g>
      </g>
      <g id="Group_38" data-name="Group 38">
        <path id="Path_27" data-name="Path 27" d="M620.819,437.384c3.043-.654,2.628-4.3,2.538-5.091-.149-1.227-1.592-3.369-3.549-3.2-2.464.219-2.824,3.779-2.824,3.779C616.65,434.522,617.781,438.039,620.819,437.384Z" fill="#2319dc"/>
        <path id="Path_28" data-name="Path 28" d="M633.713,431.565c2.248.295,3.689-2.1,3.978-3.922a4.092,4.092,0,0,0-2.747-4.289c-1.6-.367-3.587,2.187-3.767,3.853C630.959,429.245,631.467,431.277,633.713,431.565Z" fill="#2319dc"/>
        <path id="Path_29" data-name="Path 29" d="M624.051,443.711a2.562,2.562,0,0,0-.114,1.478,1.68,1.68,0,0,0,1.448,1.336h1.593V442.63h-1.706A1.86,1.86,0,0,0,624.051,443.711Z" fill="#2319dc"/>
        <path id="Path_30" data-name="Path 30" d="M626.47,431.281c1.68,0,3.038-1.936,3.038-4.328s-1.358-4.325-3.038-4.325-3.042,1.933-3.042,4.325S624.789,431.281,626.47,431.281Z" fill="#2319dc"/>
        <path id="Path_31" data-name="Path 31" d="M642.618,434.619c0-.869-.719-3.49-3.4-3.49s-3.042,2.473-3.042,4.221c0,1.668.14,3.994,3.475,3.921S642.618,435.495,642.618,434.619Z" fill="#2319dc"/>
        <path id="Path_32" data-name="Path 32" d="M639.218,442.251a30.917,30.917,0,0,1-5.505-5.6c-2.754-4.288-6.664-2.541-7.971-.364a18.09,18.09,0,0,1-3.618,3.926c-.292.359-4.2,2.469-3.332,6.323s3.915,3.778,3.915,3.778a17.127,17.127,0,0,0,4.848-.363,10.225,10.225,0,0,1,4.854.143s6.086,2.041,7.749-1.886S639.218,442.251,639.218,442.251ZM628.8,448.094h-3.956a3.464,3.464,0,0,1-2.476-1.708,4.521,4.521,0,0,1-.311-2.734,3.473,3.473,0,0,1,2.844-2.562h2.108V438.5l1.791.028Zm7.371-.027H631.62c-1.767-.456-1.85-1.71-1.85-1.71v-5.035l1.85-.03v4.525c.112.482.712.569.712.569h1.875v-5.064h1.965Z" fill="#2319dc"/>
      </g>
    </g>
  </g>
</svg>
