<svg xmlns="http://www.w3.org/2000/svg" xmlns:xlink="http://www.w3.org/1999/xlink" width="50" height="50" viewBox="0 0 50 50">
  <defs>
    <clipPath id="clip-sogou">
      <rect width="50" height="50"/>
    </clipPath>
  </defs>
  <g id="sogou" clip-path="url(#clip-sogou)">
    <g id="Group_35" data-name="Group 35" transform="translate(-604.779 -349.989)">
      <g id="Group_34" data-name="Group 34">
        <g id="Group_33" data-name="Group 33">
          <rect id="Rectangle_10" data-name="Rectangle 10" width="50" height="50" rx="6" transform="translate(604.779 349.989)" fill="#fff"/>
        </g>
      </g>
      <path id="Path_26" data-name="Path 26" d="M643.709,379.511a12.709,12.709,0,0,0-.428-1.548q-1.506-4.562-3.018-9.12c-.662-1.995-1.307-4-2-5.98a2.027,2.027,0,0,0-2.57-1.493c-.941.178-1.878.388-2.809.614-4.977,1.2-9.95,2.422-14.963,3.468a2.482,2.482,0,0,0-2.1,3.08c.135.852.409,1.67.62,2.5q.975,3.834,1.973,7.661,1,3.849,2.017,7.694a2.687,2.687,0,0,0,2.414,2.216c.323.037.649.044.953.063.2-.011.389-.015.572-.032,1.645-.158,3.277-.4,4.9-.7a42.542,42.542,0,0,0,8.872-2.61,14.834,14.834,0,0,0,4.482-2.685A3.212,3.212,0,0,0,643.709,379.511Zm-4.1-.388a9.516,9.516,0,0,1-3.972,2.944A23.2,23.2,0,0,1,626.247,384c-.934.012-1.865-.04-2.8-.052a.578.578,0,0,1-.641-.454c-.308-.906-.677-1.791-1.051-2.761a21.712,21.712,0,0,0,4.257.166,13.7,13.7,0,0,0,6.764-1.918,2.77,2.77,0,0,0,.644-.548c.452-.53.351-1-.294-1.268a5.038,5.038,0,0,0-1.867-.329c-1.319-.029-2.618.218-3.93.291a18.957,18.957,0,0,1-4.859-.143,3.64,3.64,0,0,1-3.1-2.249,4.244,4.244,0,0,1,.6-3.95,8.683,8.683,0,0,1,3.883-2.973,23.59,23.59,0,0,1,5.7-1.532,36.179,36.179,0,0,1,6.373-.512.49.49,0,0,1,.556.374c.275.8.588,1.586.906,2.37.117.29.05.358-.248.333a22.589,22.589,0,0,0-3.519.011,20.735,20.735,0,0,0-6.046,1.161,3.436,3.436,0,0,0-1.145.712,1,1,0,0,0,.377,1.827,5.4,5.4,0,0,0,2.174.244,51.413,51.413,0,0,1,5.465-.208,9.634,9.634,0,0,1,3.664.774A3.739,3.739,0,0,1,639.607,379.123Z" fill="#e83b28"/>
    </g>
  </g>
</svg>
