<svg xmlns="http://www.w3.org/2000/svg" xmlns:xlink="http://www.w3.org/1999/xlink" width="50" height="50" viewBox="0 0 50 50">
  <defs>
    <clipPath id="clip-tineye">
      <rect width="50" height="50"/>
    </clipPath>
  </defs>
  <g id="tineye" clip-path="url(#clip-tineye)">
    <g id="Group_32" data-name="Group 32" transform="translate(-604.779 -290.972)">
      <g id="Group_30" data-name="Group 30">
        <g id="Group_29" data-name="Group 29">
          <rect id="Rectangle_9" data-name="Rectangle 9" width="50" height="50" rx="6" transform="translate(604.779 290.972)" fill="#fff"/>
        </g>
      </g>
      <g id="Group_31" data-name="Group 31">
        <path id="path3251" d="M629.474,329.745a4.8,4.8,0,0,1-3.048-4.794c-.007-1.989.841-2.972,2.968-3.446,2.515-.559,4.106.2,5.2,2.5,1.157,2.424.812,4.895-.783,5.6a8.173,8.173,0,0,1-4.337.143Zm2.054-4.1c-.215-.8-.294-.645-.108.215.083.385.177.625.209.534A2.1,2.1,0,0,0,631.528,325.648Zm8.934-4.211c-.2-.115-.238-.309-.21-1.017a2.252,2.252,0,0,0-.581-1.82,10.675,10.675,0,0,0-3.5-3.23c-1.095-.575-1.03-.612-1.206.681-.228,1.663-1.283,3.4-2.263,3.723a4.688,4.688,0,0,1-2.7-.214c-.611-.316-1.282-.21-2.685.424a4.192,4.192,0,0,1-1.8.483c-1.367,0-1.905-.509-2.674-2.526a11.782,11.782,0,0,0-.68-1.574c-.326-.326-1.509.891-2.487,2.556-.5.847-.6,1.134-.532,1.492.083.444-.122,1.033-.359,1.033-.07,0-.115-.154-.1-.343.032-.415-.236-.487-.3-.081-.025.158-.1.252-.175.208-.223-.138-.143-.742.133-1.005a3.156,3.156,0,0,0,.5-1.082,13.766,13.766,0,0,1,1.825-3.639c.483-.633.5-.68.257-.865a3.137,3.137,0,0,0-.78-.359c-.6-.188-.644-.351-.233-.874.582-.74.866-.8,4.892-1.058a8.271,8.271,0,0,0,4.165-.965,13.676,13.676,0,0,1,3.767-1.15c1.6-.28,2.79.045,3.363.919.239.366.238.37-.343.9a1.929,1.929,0,0,0-.584.756c0,.123.205.328.456.456a14.741,14.741,0,0,1,3.26,2.464,9.758,9.758,0,0,1,1.964,3.641,1.567,1.567,0,0,0,.359.757,1.066,1.066,0,0,1,.07,1.308c-.162.134-.193.083-.175-.293.016-.344-.044-.47-.242-.51-.232-.048-.252.006-.169.45a1.539,1.539,0,0,1,.053.5A2.012,2.012,0,0,1,640.462,321.437Zm-12.785-3.212a1.576,1.576,0,0,0-.491-3.082,1.674,1.674,0,0,0-1.681,1.583c0,.768,1.159,1.775,1.8,1.562A1.4,1.4,0,0,1,627.677,318.225Zm-.911-.408c0-.172.09-.292.22-.292a.175.175,0,0,1,.175.233C627.093,318.11,626.766,318.158,626.766,317.817Zm.645.047c-.119-.311-.11-.339.11-.339s.4.34.262.476S627.5,318.094,627.411,317.864Zm-1.316-.361a.439.439,0,0,1,.313-.237c.16-.031.227.02.187.14a.435.435,0,0,1-.313.237C626.123,317.674,626.055,317.624,626.095,317.5Zm1.861-.031c-.159-.117-.2-.218-.1-.277.176-.109.594.029.594.2C628.447,317.615,628.206,317.655,627.956,317.472Zm-2.171-.718c0-.226.128-.259.479-.125s.262.335-.129.335C625.917,316.964,625.785,316.885,625.785,316.754Zm2.1.015c0-.183.285-.365.572-.365.218,0,.143.385-.093.475C628.02,317.012,627.886,316.981,627.886,316.769Zm-1.816-.569a.348.348,0,0,1-.079-.351c.125-.2.634.079.634.35s-.336.265-.555,0Zm1.461.055c-.051-.082.02-.273.156-.424.314-.346.571-.141.348.278C627.862,316.432,627.674,316.486,627.531,316.255Zm-.6-.159a.8.8,0,0,1-.168-.491c0-.443.392-.414.505.039C627.379,316.072,627.178,316.34,626.934,316.1Zm-4.44-4.4a3.44,3.44,0,0,1-1.611-.891c-1.318-1.395-1.443-1.65-1.115-2.265a6.2,6.2,0,0,0-.416-3.212c-.5-.426-.616-.818-.365-1.2a1.275,1.275,0,0,1,.431-.426.943.943,0,0,1,1.071.45c.134.294.111.415-.145.761a1.918,1.918,0,0,0-.223,1.591c.061.159.2.074.586-.349a4.407,4.407,0,0,1,1.005-.816,3.6,3.6,0,0,0,.85-.638c.535-.584,1.2-.793,2.762-.873,1.2-.061,1.489-.034,1.8.168a5.05,5.05,0,0,0,1.161.447,7.2,7.2,0,0,1,1.411.552,2.783,2.783,0,0,0,.653.308,4.1,4.1,0,0,0-.357-1.625.886.886,0,0,1-.25-1.487.746.746,0,0,1,1.09.062.787.787,0,0,1,.054,1.135c-.349.289-.209,2.177.2,2.758.878,1.232,1.1,2.5.556,3.185a7.31,7.31,0,0,1-1.926,1.155c-2.664,1.259-3.28,1.455-4.773,1.522A5.221,5.221,0,0,1,622.494,311.7Zm1.213-1.55c.486-.44.265-1.728-.395-2.309-.739-.65-1.45-.293-1.45.729C621.862,309.885,622.959,310.824,623.707,310.147Zm-1.4-.5c-.4-.4.037-1.165.462-.812a.617.617,0,0,1,.21.409c0,.229-.251.572-.42.572A.575.575,0,0,1,622.31,309.65Zm4.765.2c.919-1.058-.41-3.495-1.513-2.772-.7.456-.56,1.987.236,2.656C626.3,310.158,626.774,310.2,627.075,309.854Zm-1.425-.727c-.188-.349-.185-.369.069-.624.4-.4.9.1.621.625-.186.346-.505.346-.69,0Z" fill="#8ecee2"/>
        <path id="path3249" d="M629.68,329.8c-1.726-.465-2.818-1.842-3.2-4.035q-.644-3.71,3.394-4.338a4.078,4.078,0,0,1,3.183.59c1.776,1.287,2.739,4.66,1.85,6.48a2.722,2.722,0,0,1-.68.9A7.651,7.651,0,0,1,629.68,329.8Zm1.849-4.148c-.094-.393-.2-.684-.241-.645a2.136,2.136,0,0,0,.1.785c.1.394.2.685.242.646A2.13,2.13,0,0,0,631.529,325.651Zm8.908-4.283a1.008,1.008,0,0,1-.078-1.128c.1-.1,0-.431-.314-1.044a11.172,11.172,0,0,0-3.842-3.812c-.551-.287-1.031-.521-1.067-.521a2.43,2.43,0,0,0-.155.766,8.755,8.755,0,0,1-1.075,3.066,2.28,2.28,0,0,1-2.216,1.113,5.2,5.2,0,0,1-1.532-.256c-.768-.307-1.434-.206-2.847.432a3.135,3.135,0,0,1-2.871.216c-.688-.312-1.011-.8-1.6-2.414-.65-1.8-.651-1.8-1.451-1.093-1.148,1.011-2.426,3.111-2.27,3.732.107.426-.011.832-.27.932-.137.052-.188-.026-.17-.26.031-.409-.237-.474-.3-.073-.025.158-.1.252-.175.208-.224-.139-.142-.743.136-1.005a2.24,2.24,0,0,0,.433-.881,14.7,14.7,0,0,1,1.846-3.76l.576-.763-.335-.255a2.244,2.244,0,0,0-.72-.342c-.622-.139-.462-.718.346-1.243.463-.3,1.614-.465,4.4-.625l2.114-.121,1.809-.775a9.672,9.672,0,0,1,4.405-1.175c1.651-.1,2.056.02,2.7.782l.354.421-.618.617a2.776,2.776,0,0,0-.617.773c0,.086.331.323.736.526a9.227,9.227,0,0,1,4.9,5.444,4.871,4.871,0,0,0,.569,1.287.976.976,0,0,1,.217.759c-.054.561-.338.709-.33.172,0-.267-.075-.4-.261-.436-.233-.047-.255.009-.184.451.093.569.07.6-.24.285Zm-12.41-3.164c.92-.4,1.316-.85,1.9-2.166a4.521,4.521,0,0,1,.642-1.175c.065,0,.118-.079.119-.176a6.037,6.037,0,0,1,1.125-2.121,5.662,5.662,0,0,1,1.175-.943c.391-.229.617-.4.5-.388a1.016,1.016,0,0,1-.453-.077,3.9,3.9,0,0,0-2.349.82,5.462,5.462,0,0,0-1.3,1.567c-.994,1.656-1.107,1.765-1.636,1.581a1.942,1.942,0,0,0-1.715.288c-.288.233-.366.24-.7.068a4.052,4.052,0,0,1-.912-.852,4.613,4.613,0,0,0-2.785-1.729c-1.238,0-1.582.912-.434,1.151a3.81,3.81,0,0,1,2.106,1.25c.631.738.534.892-.158.252-.307-.284-.229-.164.191.294a12.33,12.33,0,0,1,1.066,1.331,2.512,2.512,0,0,0,1.584,1.31,2.9,2.9,0,0,0,2.027-.285Zm-1.261-.387c0-.172.09-.292.22-.292a.175.175,0,0,1,.175.233C627.093,318.11,626.766,318.158,626.766,317.817Zm.645.047c-.119-.311-.11-.339.11-.339s.4.34.262.476S627.5,318.094,627.411,317.864Zm-1.316-.361a.439.439,0,0,1,.313-.237c.16-.031.227.02.187.14a.435.435,0,0,1-.313.237C626.123,317.674,626.055,317.624,626.095,317.5Zm1.861-.031c-.159-.117-.2-.218-.1-.277.176-.109.594.029.594.2C628.447,317.615,628.206,317.655,627.956,317.472Zm-2.171-.718c0-.226.128-.259.479-.125s.262.335-.129.335C625.917,316.964,625.785,316.885,625.785,316.754Zm2.1.015c0-.183.285-.365.572-.365.218,0,.143.385-.093.475C628.02,317.012,627.886,316.981,627.886,316.769Zm-1.816-.569a.347.347,0,0,1-.081-.348c.113-.182.636.126.636.375S626.278,316.45,626.07,316.2Zm1.461.055c-.051-.082.02-.273.156-.424.314-.346.571-.141.348.278C627.862,316.432,627.674,316.486,627.531,316.255Zm-.6-.159c-.2-.2-.22-.624-.029-.743s.507.6.333.774C627.15,316.216,627.043,316.2,626.934,316.1Zm-4.652-1.158c0-.036-.142-.134-.315-.218-.3-.147-.3-.144-.044.065C622.209,315.014,622.282,315.045,622.282,314.938Zm1.471-2.964a6.721,6.721,0,0,1-2.791-1.115c-1.323-1.337-1.516-1.715-1.188-2.327a5.984,5.984,0,0,0-.416-3.2c-.5-.419-.623-.817-.371-1.2a1.275,1.275,0,0,1,.431-.426.943.943,0,0,1,1.071.45c.134.294.111.415-.145.761a2.175,2.175,0,0,0-.216,1.75c.071.186.137.149.345-.194a4.257,4.257,0,0,1,1.068-.953,6.167,6.167,0,0,0,1.08-.863c.419-.518,1.114-.729,2.7-.819,1.348-.076,1.493-.059,1.87.219a1.533,1.533,0,0,0,.6.3,7.216,7.216,0,0,1,2.225.859l.435.31-.095-.55c-.192-1.109-.25-1.319-.367-1.319-.254,0-.559-.46-.559-.843a.905.905,0,0,1,.872-.839,1.024,1.024,0,0,1,.809.865.979.979,0,0,1-.228.557,3.234,3.234,0,0,0,.089,2.534c.154.29.418.792.588,1.116a2.708,2.708,0,0,1,.112,2.287,27.352,27.352,0,0,1-4.922,2.359,10.51,10.51,0,0,1-2.995.284Zm-.054-1.751c.25-.25.286-.417.232-1.074a1.432,1.432,0,0,0-.575-1.245c-.584-.536-.778-.569-1.221-.21-.633.513-.3,2.059.549,2.589C623.173,310.586,623.346,310.576,623.7,310.223Zm-1.389-.573c-.4-.4.037-1.165.462-.812a.617.617,0,0,1,.21.409c0,.229-.251.572-.42.572A.575.575,0,0,1,622.31,309.65Zm4.819.154a2.1,2.1,0,0,0-.772-2.783c-.983-.407-1.6.752-1.078,2.012C625.7,310.031,626.587,310.4,627.129,309.8Zm-1.468-.655a.494.494,0,0,1,.4-.732c.3,0,.449.421.264.751A.351.351,0,0,1,625.661,309.149Z" fill="#79c3dd"/>
        <path id="path3247" d="M629.68,329.8c-1.726-.465-2.818-1.842-3.2-4.035q-.644-3.71,3.394-4.338a4.078,4.078,0,0,1,3.183.59c1.776,1.287,2.739,4.66,1.85,6.48a2.722,2.722,0,0,1-.68.9A7.651,7.651,0,0,1,629.68,329.8Zm1.849-4.148c-.094-.393-.2-.684-.241-.645a2.136,2.136,0,0,0,.1.785c.1.394.2.685.242.646A2.13,2.13,0,0,0,631.529,325.651Zm8.908-4.283a1.008,1.008,0,0,1-.078-1.128c.1-.1,0-.431-.314-1.044a11.128,11.128,0,0,0-3.867-3.825,5.921,5.921,0,0,0-1.059-.486c-.018.026-.1.474-.188,1a8.689,8.689,0,0,1-.6,1.891c-.73,1.561-1.3,1.995-2.624,1.995a3.016,3.016,0,0,1-2.159-.622,1.4,1.4,0,0,0-.731-.347c-.225.01-.188.047.144.143.668.193.67.359.007.465a8.794,8.794,0,0,0-1.661.578,5.3,5.3,0,0,1-1.544.478l-.473-.006.424-.184a2.626,2.626,0,0,0,.827-.73l.4-.546-.587.6a2.731,2.731,0,0,1-.728.6,2.863,2.863,0,0,1-.676-.273,6.523,6.523,0,0,1-2.337-2.772l-.484-1.034-.383.276c-1.217.877-2.81,3.324-2.63,4.041.107.426-.011.832-.27.932-.137.052-.188-.026-.17-.26.031-.409-.237-.474-.3-.073-.025.158-.1.252-.175.208-.224-.139-.142-.743.136-1.005a2.24,2.24,0,0,0,.433-.881,14.7,14.7,0,0,1,1.841-3.753c.331-.439.519-.809.447-.881a4.052,4.052,0,0,0-.68-.4l-.556-.278.631,0a3.548,3.548,0,0,1,2.872,1.346c.207.315.178.308-.378-.1-.625-.454-1.513-.882-1.616-.779-.032.032.068.1.223.148a2.506,2.506,0,0,1,1.229,1.633c.062.385.129.508.209.381s.119-.13.12-.022a5.811,5.811,0,0,0,1.534,1.689c.275.207.414.269.308.138-.249-.31-.218-.3.6.111a3.456,3.456,0,0,0,2.983.007,3.314,3.314,0,0,0,1.547-.994c.328-.358.6-.572.6-.475s.038.139.084.093a5.947,5.947,0,0,0,.213-1.228c.133-1.19.323-1.743.55-1.6.074.045.134-.065.134-.246a1.389,1.389,0,0,1,.234-.662c.129-.184.164-.291.078-.238a5.223,5.223,0,0,0-.67.942c-.282.466-.547.812-.589.771A4.835,4.835,0,0,1,631.5,313a5.057,5.057,0,0,1,2.114-1.622,2.407,2.407,0,0,1,1.99.1l.325.263-.45.512a2.267,2.267,0,0,0-.45.646,1.96,1.96,0,0,0,.736.5,9.227,9.227,0,0,1,4.9,5.444,4.871,4.871,0,0,0,.569,1.287.976.976,0,0,1,.217.759c-.054.561-.338.709-.33.172,0-.267-.075-.4-.261-.436-.233-.047-.255.009-.184.451.093.569.07.6-.24.285Zm-13.671-3.551c0-.172.09-.292.22-.292a.175.175,0,0,1,.175.233C627.093,318.11,626.766,318.158,626.766,317.817Zm.645.047c-.119-.311-.11-.339.11-.339s.4.34.262.476S627.5,318.094,627.411,317.864Zm-1.316-.361a.439.439,0,0,1,.313-.237c.16-.031.227.02.187.14a.435.435,0,0,1-.313.237C626.123,317.674,626.055,317.624,626.095,317.5Zm1.861-.031c-.159-.117-.2-.218-.1-.277.176-.109.594.029.594.2C628.447,317.615,628.206,317.655,627.956,317.472Zm-2.171-.718c0-.226.128-.259.479-.125s.262.335-.129.335C625.917,316.964,625.785,316.885,625.785,316.754Zm2.1.015c0-.183.285-.365.572-.365.218,0,.143.385-.093.475C628.02,317.012,627.886,316.981,627.886,316.769Zm-1.816-.569a.347.347,0,0,1-.081-.348c.113-.182.636.126.636.375S626.278,316.45,626.07,316.2Zm1.461.055c-.051-.082.02-.273.156-.424.314-.346.571-.141.348.278C627.862,316.432,627.674,316.486,627.531,316.255Zm-.6-.159c-.2-.2-.22-.624-.029-.743s.507.6.333.774C627.15,316.216,627.043,316.2,626.934,316.1Zm-1.272-.892a7.9,7.9,0,0,1-1.121-.933c-1-.961-1.751-1.51-2.068-1.51-.168,0-.2-.046-.1-.143a12.022,12.022,0,0,1,2.388-.262l2.246-.119,1.808-.775a9.589,9.589,0,0,1,4.33-1.168c1.68-.1,2.656.126,1.261.292a7.312,7.312,0,0,0-4.328,1.679,11.137,11.137,0,0,0-1.117,1.461c-.7,1.085-.957,1.277-1.7,1.277a2.385,2.385,0,0,0-.885.187.634.634,0,0,1-.711.014Zm-1.909-3.235a6.716,6.716,0,0,1-2.791-1.11c-1.323-1.337-1.516-1.715-1.188-2.327a5.984,5.984,0,0,0-.416-3.2c-.5-.419-.623-.817-.371-1.2a1.275,1.275,0,0,1,.431-.426.943.943,0,0,1,1.071.45c.134.294.111.415-.145.761a2.175,2.175,0,0,0-.216,1.75c.071.186.137.149.345-.194a4.257,4.257,0,0,1,1.068-.953,6.167,6.167,0,0,0,1.08-.863c.419-.518,1.114-.729,2.7-.819,1.314-.074,1.5-.054,1.84.2a3.772,3.772,0,0,0,1.08.452,7.538,7.538,0,0,1,1.45.579l.751.4-.09-.52c-.184-1.073-.245-1.29-.361-1.29-.254,0-.559-.46-.559-.843a.905.905,0,0,1,.872-.839,1.024,1.024,0,0,1,.809.865.979.979,0,0,1-.228.557,3.234,3.234,0,0,0,.089,2.534c.154.29.418.792.588,1.116a2.708,2.708,0,0,1,.112,2.287,27.862,27.862,0,0,1-4.734,2.292,10.1,10.1,0,0,1-3.183.346Zm3.013-1.007a9.666,9.666,0,0,0,2.072-.8,4.7,4.7,0,0,0-.964.21c-2.309.64-5.249.735-6.168.2a2.932,2.932,0,0,1-.79-.746c-.173-.257-.315-.4-.315-.318a2.936,2.936,0,0,0,1.031,1.182A7.557,7.557,0,0,0,626.766,310.962Zm-3.067-.739c.25-.25.286-.417.232-1.074a1.432,1.432,0,0,0-.575-1.245c-.584-.536-.778-.569-1.221-.21-.633.513-.3,2.059.549,2.589C623.173,310.586,623.346,310.576,623.7,310.223Zm-1.389-.573c-.4-.4.037-1.165.462-.812a.617.617,0,0,1,.21.409c0,.229-.251.572-.42.572A.575.575,0,0,1,622.31,309.65Zm4.819.154a2.1,2.1,0,0,0-.772-2.783c-.983-.407-1.6.752-1.078,2.012C625.7,310.031,626.587,310.4,627.129,309.8Zm-1.468-.655a.494.494,0,0,1,.4-.732c.3,0,.449.421.264.751A.351.351,0,0,1,625.661,309.149Zm4.424.428c.682-.4.918-.622,1-.946.1-.392.082-.427-.284-.468-.621-.069-.834-.757-.485-1.567.214-.494-1.917-1.472-3.413-1.567-.6-.038-.633-.018-.675.343s-.1.383-.641.383a15.544,15.544,0,0,0-1.9.224c-1.009.173-1.328.186-1.409.055-.161-.261-1.253.8-1.56,1.518a3.19,3.19,0,0,0-.242,1.122c.018.5.021.5.112-.116.18-1.224.684-1.683,2.3-2.1a23.127,23.127,0,0,1,5.206-.467l.7.071.009,1a2.352,2.352,0,0,0,.855,2.16l.381.278-.552.291c-.3.16-.495.294-.425.3a5.651,5.651,0,0,0,1.02-.516Z" fill="#6db4d1"/>
        <path id="path3245" d="M629.68,329.8c-1.726-.465-2.818-1.842-3.2-4.035q-.644-3.71,3.394-4.338a4.078,4.078,0,0,1,3.183.59c1.776,1.287,2.739,4.66,1.85,6.48a2.722,2.722,0,0,1-.68.9A7.651,7.651,0,0,1,629.68,329.8Zm1.849-4.148c-.094-.393-.2-.684-.241-.645a2.136,2.136,0,0,0,.1.785c.1.394.2.685.242.646A2.13,2.13,0,0,0,631.529,325.651Zm8.908-4.283a1.008,1.008,0,0,1-.078-1.128c.1-.1,0-.431-.314-1.044a10.826,10.826,0,0,0-3.962-3.867l-1.121-.574-.326.4a1,1,0,0,1-.653.4c-.762,0-1.413-1.548-1.068-2.538.225-.644.209-.649-.367-.116-.287.265-.413.351-.28.191a1.094,1.094,0,0,0,.242-.407c0-.232-.617.439-1.157,1.259s-.593.626-.08-.391c.848-1.68,3.1-2.755,4.231-2.016l.389.255-.374.346c-.286.265-.418.31-.562.19s-.16-.081-.022.289a1.522,1.522,0,0,0,.868.8,9.227,9.227,0,0,1,4.863,5.427,4.871,4.871,0,0,0,.569,1.287.976.976,0,0,1,.217.759c-.054.561-.338.709-.33.172,0-.267-.075-.4-.261-.436-.233-.047-.255.009-.184.451.093.569.07.6-.24.285Zm-21.753-.271c.032-.43-.241-.523-.3-.1-.025.174-.1.281-.175.237-.224-.139-.142-.743.136-1.005a2.24,2.24,0,0,0,.433-.881,14.7,14.7,0,0,1,1.839-3.75c.558-.74.574-.749.851-.5a2.59,2.59,0,0,1,.468.615c.177.342.153.386-.5.953-1.159,1-2.466,3.128-2.307,3.76.107.426-.011.832-.27.932C618.717,321.409,618.666,321.331,618.684,321.1Zm7.8-1.4c.8-.734.874-.771,1.575-.765a3.762,3.762,0,0,1,1.158.186l.42.18-.628.1a8.894,8.894,0,0,0-1.7.585C625.7,320.713,625.466,320.634,626.485,319.7Zm.281-1.88c0-.172.09-.292.22-.292a.175.175,0,0,1,.175.233C627.093,318.11,626.766,318.158,626.766,317.817Zm.645.047c-.119-.311-.11-.339.11-.339s.4.34.262.476S627.5,318.094,627.411,317.864Zm-1.316-.361a.439.439,0,0,1,.313-.237c.16-.031.227.02.187.14a.435.435,0,0,1-.313.237C626.123,317.674,626.055,317.624,626.095,317.5Zm1.861-.031c-.159-.117-.2-.218-.1-.277.176-.109.594.029.594.2C628.447,317.615,628.206,317.655,627.956,317.472Zm-2.171-.718c0-.226.128-.259.479-.125s.262.335-.129.335C625.917,316.964,625.785,316.885,625.785,316.754Zm2.1.015c0-.183.285-.365.572-.365.218,0,.143.385-.093.475C628.02,317.012,627.886,316.981,627.886,316.769Zm-1.816-.569a.347.347,0,0,1-.081-.348c.113-.182.636.126.636.375S626.278,316.45,626.07,316.2Zm1.461.055c-.051-.082.02-.273.156-.424.314-.346.571-.141.348.278C627.862,316.432,627.674,316.486,627.531,316.255Zm-.6-.159c-.2-.2-.22-.624-.029-.743s.507.6.333.774C627.15,316.216,627.043,316.2,626.934,316.1Zm-1.71-1.427a3.4,3.4,0,0,1-.77-.77,3.708,3.708,0,0,0-1.807-1.2c-.513-.156-.1-.222,2.115-.34l2.241-.118,1.808-.775c2.749-1.178,4.14-1.485,2.64-.582a6.987,6.987,0,0,0-2.549,2.262,9.467,9.467,0,0,1-1.174,1.338A3.389,3.389,0,0,1,625.224,314.669Zm-2.616-3.876a2,2,0,0,1-1.924-2.2,1.285,1.285,0,0,1,.5-1.24,2.966,2.966,0,0,1,1.457-.766,20.4,20.4,0,0,1,4.967-.523l1.051.045.086,1.059c.1,1.176.258,1.6.789,2.045l.357.3-.558.284a14.656,14.656,0,0,1-4.04,1A7.174,7.174,0,0,1,622.608,310.793Zm1.091-.57c.25-.25.286-.417.232-1.074a1.432,1.432,0,0,0-.575-1.245c-.584-.536-.778-.569-1.221-.21-.633.513-.3,2.059.549,2.589C623.173,310.586,623.346,310.576,623.7,310.223Zm-1.389-.573c-.4-.4.037-1.165.462-.812a.617.617,0,0,1,.21.409c0,.229-.251.572-.42.572A.575.575,0,0,1,622.31,309.65Zm4.819.154a2.1,2.1,0,0,0-.772-2.783c-.983-.407-1.6.752-1.078,2.012C625.7,310.031,626.587,310.4,627.129,309.8Zm-1.468-.655a.494.494,0,0,1,.4-.732c.3,0,.449.421.264.751A.351.351,0,0,1,625.661,309.149Zm-5.922.33c-.167-.368-.06-1.062.164-1.062.075,0,.138.174.139.386a3.361,3.361,0,0,0,.086.7C620.243,309.932,619.937,309.913,619.739,309.479Zm10.579-1.7a.716.716,0,0,1-.073-.816c.283-.784.094-3.162-.262-3.283a.887.887,0,0,1-.244-1.486.746.746,0,0,1,1.09.062.794.794,0,0,1,.051,1.142c-.432.478-.184,2.562.4,3.326a1.082,1.082,0,0,1,.085,1.249A.686.686,0,0,1,630.318,307.775Zm-10.461-.338c-.045-.193-.122-.713-.17-1.155-.058-.536-.17-.864-.335-.981a1.694,1.694,0,0,1-.421-.5.525.525,0,0,1,.056-.673,1.275,1.275,0,0,1,.431-.426.943.943,0,0,1,1.071.45c.135.3.11.416-.163.786s-.313.554-.253,1.293a4.639,4.639,0,0,1-.031,1.207l-.1.35Zm2.364-1.624a1.686,1.686,0,0,1,.762-1.481c.706-.526,3.578-.736,4.191-.307l.331.232-.47.154a1.415,1.415,0,0,0-.888,1.1c-.056.188-.229.246-.743.25a13.458,13.458,0,0,0-1.791.208c-.616.111-1.161.2-1.211.205S622.271,306.012,622.221,305.813Z" fill="#9f9f9f"/>
        <path id="path3243" d="M630.239,329.841a4.105,4.105,0,0,1-3.283-2.578,6.3,6.3,0,0,1-.332-3.638c.391-1.185,1.486-1.9,3.294-2.149a3.749,3.749,0,0,1,4.133,1.67c1.506,2.33,1.52,5.252.028,6.243-.422.28-.771.352-2.55.521A6.92,6.92,0,0,1,630.239,329.841Zm1.5-3.524c-.208-1.023-.368-1.506-.5-1.506s-.105.261.174,1.366C631.591,326.872,631.877,327,631.739,326.317Zm8.646-5.037a.831.831,0,0,1-.025-.96c.111-.206.065-.423-.2-.938a9.919,9.919,0,0,0-4.2-4.172l-.958-.481-.35.417a1.083,1.083,0,0,1-.677.417c-.76,0-1.411-1.549-1.066-2.538.225-.644.209-.649-.367-.116-.287.265-.413.351-.28.191a1.094,1.094,0,0,0,.242-.407c0-.232-.617.439-1.157,1.259s-.593.626-.08-.391c.848-1.68,3.1-2.755,4.231-2.016l.389.255-.374.346c-.286.265-.418.31-.562.19s-.16-.081-.022.289a1.417,1.417,0,0,0,.728.731,9.542,9.542,0,0,1,5.061,5.78,2.7,2.7,0,0,0,.505,1.024c.27.2.348,1.07.108,1.218-.078.049-.14-.063-.14-.255,0-.446-.378-.79-.5-.459a.978.978,0,0,0-.015.506c.082.314-.043.36-.293.11Zm-22.2-.052a.733.733,0,0,1,.155-.928,2.491,2.491,0,0,0,.5-1.02,12.955,12.955,0,0,1,1.777-3.622c.57-.77.6-.788.86-.551a2.561,2.561,0,0,1,.458.608c.179.344.159.384-.386.8-1.134.872-2.6,3.216-2.432,3.888.088.35-.111.9-.325.9-.064,0-.086-.158-.049-.35.048-.252.006-.351-.15-.351-.129,0-.236.148-.262.364C618.309,321.171,618.241,321.287,618.184,321.228Zm8.286-1.517c.8-.732.9-.785,1.546-.785a3.576,3.576,0,0,1,1.087.161l.395.161-.61.114a7.528,7.528,0,0,0-1.471.527,7.9,7.9,0,0,1-1.331.51C625.624,320.494,625.631,320.482,626.47,319.711Zm.358-1.778a.268.268,0,0,1,.062-.308c.114-.115.156-.074.156.152Q627.046,318.284,626.828,317.933Zm.638-.206c0-.12.063-.18.14-.132a.3.3,0,0,1,.14.218.136.136,0,0,1-.14.132C627.529,317.945,627.466,317.847,627.466,317.727Zm-1.229-.228c.07-.21.388-.325.388-.141,0,.075-.1.175-.221.222S626.2,317.6,626.237,317.5Zm1.649-.114c0-.077.091-.14.2-.14a.373.373,0,0,1,.289.14c.047.077-.043.14-.2.14S627.886,317.462,627.886,317.385Zm-2.031-.561c-.048-.077.043-.14.2-.14s.288.063.288.14-.091.14-.2.14A.369.369,0,0,1,625.855,316.824Zm2.031-.14c0-.077.162-.14.359-.14s.321.061.272.14a.468.468,0,0,1-.359.14C628.009,316.824,627.886,316.761,627.886,316.684Zm-1.684-.494c-.1-.117-.138-.252-.09-.3.1-.1.513.212.513.391S626.4,316.425,626.2,316.19Zm1.4-.036c0-.342.247-.541.436-.351.082.081.024.228-.152.388C627.614,316.441,627.606,316.44,627.606,316.154Zm-.7-.241c0-.115-.005-.255-.011-.311s.057-.124.14-.152.151.113.151.312-.063.362-.14.362S626.906,316.029,626.906,315.913Zm-1.349-1.2a2.92,2.92,0,0,1-1.074-.869,4.326,4.326,0,0,0-1.24-1.016l-.6-.272,2.239-.15a7.347,7.347,0,0,0,3.429-.676,18.124,18.124,0,0,1,3.433-1.268l.56-.1-.7.373a7.256,7.256,0,0,0-2.736,2.418c-.822,1.148-1.309,1.488-2.308,1.614A3.028,3.028,0,0,1,625.557,314.708Zm-2.949-3.915a2,2,0,0,1-1.924-2.194c0-.847.3-1.263,1.236-1.716a18.647,18.647,0,0,1,6.307-.788l.5.093v.909a2.491,2.491,0,0,0,.746,2.116l.359.283-.517.29a13.74,13.74,0,0,1-4.024,1.007A7.174,7.174,0,0,1,622.608,310.793Zm1.112-.519a1.959,1.959,0,0,0-.417-2.556c-1.334-1.049-2.192,1.005-.964,2.307C622.858,310.574,623.367,310.666,623.72,310.274Zm-1.428-.717c-.194-.363-.051-.719.29-.719a.421.421,0,0,1,.308.676C622.679,309.848,622.456,309.864,622.292,309.557Zm4.83.338c.837-.836.008-3.019-1.146-3.019-.575,0-.892.466-.892,1.311a2.051,2.051,0,0,0,.985,1.873C626.564,310.31,626.734,310.283,627.122,309.895Zm-1.42-.688c-.141-.368,0-.72.295-.72.215,0,.278.1.278.419C626.275,309.364,625.849,309.588,625.7,309.207Zm-5.954.23a.856.856,0,0,1,.009-.718c.193-.425.224-.385.331.434C620.185,309.893,619.985,310.06,619.748,309.437Zm10.6-1.611a.772.772,0,0,1-.022-1.027c.158-.225.17-.535.063-1.607-.123-1.232-.162-1.352-.546-1.654-.52-.409-.537-.888-.044-1.275.469-.369.55-.365.968.053s.434.688.048,1.074c-.262.261-.286.4-.205,1.156a4.283,4.283,0,0,0,.662,2.174,1.071,1.071,0,0,1,.091,1.249A.692.692,0,0,1,630.346,307.826ZM630,302.491c-.18-.18-.362-.041-.229.175a.173.173,0,0,0,.236.063C630.106,302.67,630.1,302.592,630,302.491Zm-10.16,4.567c-.217-1.609-.247-1.706-.584-1.927a.825.825,0,0,1,.51-1.477c.573,0,.924,1.033.478,1.4-.165.137-.208.445-.187,1.348C620.091,307.729,619.979,308.065,619.843,307.058Zm-.223-2.7c0-.165-.273-.342-.374-.241s.077.373.242.373A.133.133,0,0,0,619.62,304.362Zm2.647,1.423c-.162-.424.224-1.108.825-1.461.928-.547,3.723-.681,4.2-.2.217.217.208.233-.147.233a1.165,1.165,0,0,0-1.02.9c-.076.3-.186.355-.88.427-.436.045-1.255.164-1.821.264l-1.029.182Z" fill="#d46811"/>
        <path id="path3241" d="M630.239,329.841a4.105,4.105,0,0,1-3.283-2.578,6.3,6.3,0,0,1-.332-3.638c.391-1.185,1.486-1.9,3.294-2.149a3.749,3.749,0,0,1,4.133,1.67c1.506,2.33,1.52,5.252.028,6.243-.422.28-.771.352-2.55.521A6.92,6.92,0,0,1,630.239,329.841Zm1.5-3.524c-.208-1.023-.368-1.506-.5-1.506s-.105.261.174,1.366C631.591,326.872,631.877,327,631.739,326.317Zm8.646-5.037a.831.831,0,0,1-.025-.96c.111-.206.065-.423-.2-.938a9.919,9.919,0,0,0-4.2-4.172l-.958-.481-.35.417a1.083,1.083,0,0,1-.677.417c-.76,0-1.411-1.549-1.066-2.538.225-.644.209-.649-.367-.116-.287.265-.413.351-.28.191a1.094,1.094,0,0,0,.242-.407c0-.232-.617.439-1.157,1.259s-.593.626-.08-.391c.848-1.68,3.1-2.755,4.231-2.016l.389.255-.374.346c-.286.265-.418.31-.562.19s-.16-.081-.022.289a1.417,1.417,0,0,0,.728.731,9.542,9.542,0,0,1,5.061,5.78,2.7,2.7,0,0,0,.505,1.024c.27.2.348,1.07.108,1.218-.078.049-.14-.063-.14-.255,0-.446-.378-.79-.5-.459a.978.978,0,0,0-.015.506c.082.314-.043.36-.293.11Zm-22.2-.052a.733.733,0,0,1,.155-.928,2.491,2.491,0,0,0,.5-1.02,12.955,12.955,0,0,1,1.777-3.622c.57-.77.6-.788.86-.551a2.561,2.561,0,0,1,.458.608c.179.344.159.384-.386.8-1.134.872-2.6,3.216-2.432,3.888.088.35-.111.9-.325.9-.064,0-.086-.158-.049-.35.048-.252.006-.351-.15-.351-.129,0-.236.148-.262.364C618.309,321.171,618.241,321.287,618.184,321.228Zm8.286-1.517c.8-.732.9-.785,1.546-.785a3.576,3.576,0,0,1,1.087.161l.395.161-.61.114a7.528,7.528,0,0,0-1.471.527,7.9,7.9,0,0,1-1.331.51C625.624,320.494,625.631,320.482,626.47,319.711Zm-.926-5.278a2.357,2.357,0,0,1-.911-.709,3.074,3.074,0,0,0-1.65-1.1c-.2-.056.506-.14,1.681-.2a10.507,10.507,0,0,0,4.974-1.25c1.552-.686,2.214-.812,1.156-.221a7.707,7.707,0,0,0-2.444,2.4A2.49,2.49,0,0,1,625.544,314.433Zm-2.936-3.64a2,2,0,0,1-1.924-2.194c0-.847.3-1.263,1.236-1.716a18.647,18.647,0,0,1,6.307-.788l.5.093v.909a2.491,2.491,0,0,0,.746,2.116l.359.283-.517.29a13.74,13.74,0,0,1-4.024,1.007A7.174,7.174,0,0,1,622.608,310.793Zm1.112-.519a1.959,1.959,0,0,0-.417-2.556c-1.334-1.049-2.192,1.005-.964,2.307C622.858,310.574,623.367,310.666,623.72,310.274Zm-1.428-.717c-.194-.363-.051-.719.29-.719a.421.421,0,0,1,.308.676C622.679,309.848,622.456,309.864,622.292,309.557Zm4.83.338c.837-.836.008-3.019-1.146-3.019-.575,0-.892.466-.892,1.311a2.051,2.051,0,0,0,.985,1.873C626.564,310.31,626.734,310.283,627.122,309.895Zm-1.42-.688c-.141-.368,0-.72.295-.72.215,0,.278.1.278.419C626.275,309.364,625.849,309.588,625.7,309.207Zm6.221,1.216a.286.286,0,0,1,.269.011c.047.047-.036.08-.184.074-.163-.007-.2-.04-.085-.085Zm-12.175-.986a.856.856,0,0,1,.009-.718c.193-.425.224-.385.331.434C620.185,309.893,619.985,310.06,619.748,309.437Zm10.6-1.611a.772.772,0,0,1-.022-1.027c.154-.22.171-.526.078-1.446-.064-.642-.158-1.349-.207-1.573-.066-.3-.037-.407.113-.407s.227.273.3,1.046a4.183,4.183,0,0,0,.667,2.3,1.075,1.075,0,0,1,.089,1.249A.692.692,0,0,1,630.346,307.826Zm-10.437-.249a19.343,19.343,0,0,0-.371-2.292c-.064-.167-.01-.23.195-.23.255,0,.289.105.334,1.016a6.488,6.488,0,0,1-.047,1.366C619.967,307.629,619.917,307.692,619.909,307.577Zm2.233-2.027a2.407,2.407,0,0,1,.918-1.2c.916-.567,3.742-.72,4.233-.229.217.217.2.233-.277.233a.886.886,0,0,0-.836.415c-.3.383-.43.427-1.656.565-.732.083-1.568.188-1.857.234S622.142,305.605,622.142,305.55Z" fill="#5b5b5a"/>
        <path id="path3239" d="M629.708,329.724a3.969,3.969,0,0,1-2.317-1.738l-.253-.4.533.362c.533.361,1.583.724,1.714.592a3,3,0,0,0-.364-.955,6.333,6.333,0,0,1-.658-3.338c.059-.531.043-.7-.053-.56a.936.936,0,0,0-.143.42c0,.116-.252.315-.556.443a1.958,1.958,0,0,0-.839.7l-.286.468v-.673a3.085,3.085,0,0,1,2.046-3.242,7.365,7.365,0,0,1,3.754-.161,5.625,5.625,0,0,1,2.763,3.882,5.448,5.448,0,0,1-.255,3.018,2.052,2.052,0,0,1-1.707,1.168,11.888,11.888,0,0,1-3.379.011Zm1.847-1.362c.589-.184.7-.182,1.1.022a1.2,1.2,0,0,0,1.593-.25,4.225,4.225,0,0,0,.16-3.04c-.312-.939-.4-.844-.119.124.446,1.524.028,3.106-.848,3.211-.546.064-1.433-.847-1.55-1.594-.048-.3-.212-1.04-.366-1.635a4.476,4.476,0,0,1-.189-1.436c.049-.2.052-.354.007-.354s-.134.2-.2.455l-.118.455h-2.364l.01.981a3.965,3.965,0,0,0,1.1,2.841c.549.607.551.607,1.789.22Zm8.8-7.2a.819.819,0,0,1-.006-.718,1.133,1.133,0,0,0-.11-1.006,9.909,9.909,0,0,0-4.243-4.232l-.976-.491-.4.426c-.45.482-.65.52-1.1.208s-.389-.482.112-.482c.416,0,.42-.007.2-.339a2.04,2.04,0,0,1-.008-1.833c.224-.342.221-.35-.124-.35-.394,0-.474-.2-.131-.336a1.073,1.073,0,0,1,1.373.832,1.825,1.825,0,0,0,.827.649,14.407,14.407,0,0,1,3.376,2.574,11.237,11.237,0,0,1,1.573,3.117,3.031,3.031,0,0,0,.492,1.05c.279.266.359,1.006.123,1.151-.081.05-.14-.089-.14-.334,0-.49-.207-.672-.495-.433a.484.484,0,0,0-.119.5c.1.411-.022.435-.232.044Zm-22.2-.125c-.091-.289.132-.846.34-.846a2.847,2.847,0,0,0,.429-1.016c.49-1.624,1.939-4.168,2.374-4.168.061,0,.269.238.462.53l.351.53-.558.4c-1.164.837-2.637,3.264-2.525,4.163.038.308,0,.55-.1.613-.121.074-.142.019-.074-.2s.025-.325-.139-.388a.328.328,0,0,0-.388.464c.039.1.038.188,0,.188S618.2,321.184,618.15,321.033Zm8.251-1.2a2.145,2.145,0,0,1,2.153-.834c.826.1.857.271.077.417a5.368,5.368,0,0,0-1.157.42,7.622,7.622,0,0,1-1.146.463l-.507.14Zm-.857-5.4a2.312,2.312,0,0,1-.911-.714,3.719,3.719,0,0,0-1.16-.907l-.7-.329,1.4,0a9.441,9.441,0,0,0,4.45-.86,15.472,15.472,0,0,1,2.851-1.064,3.346,3.346,0,0,1-.717.435,7.351,7.351,0,0,0-2.407,2.361A2.49,2.49,0,0,1,625.544,314.433Zm.875-.635a2.823,2.823,0,0,1-.683-.329c-.075-.075-.2-.059-.3.038-.257.238.272.506.984.5l.561,0Zm-4.353-3.138a1.877,1.877,0,0,1-1.3-1.759,2.286,2.286,0,0,1,.117-1.123c.427-.8,2.32-1.28,5.564-1.415l2.137-.089v.826a3.181,3.181,0,0,0,.635,2.247l.333.333-.519.218a13.407,13.407,0,0,1-4.653.838,12.838,12.838,0,0,1-2.317-.076Zm1.819-.452a2.139,2.139,0,0,0-.752-2.685c-1.416-.831-2.061,1.81-.679,2.779A1.094,1.094,0,0,0,623.885,310.208Zm-1.6-.95c0-.319.064-.42.265-.42a.387.387,0,0,1,.346.21.427.427,0,0,1-.346.63C622.346,309.678,622.282,309.577,622.282,309.258Zm4.836.749a2.066,2.066,0,0,0-.534-3c-.6-.364-.748-.348-1.23.135a1.7,1.7,0,0,0-.142,2.059C625.646,310.159,626.574,310.55,627.118,310.007Zm-1.326-.81c-.244-.294-.124-.71.205-.71s.451.512.163.75C626.006,309.365,625.924,309.356,625.792,309.2Zm-5.947.4c-.1-.254-.117-1.118-.023-1.024a2.562,2.562,0,0,1,.218,1.246C619.98,309.819,619.892,309.719,619.845,309.6Zm10.6-1.635c-.368-.476-.335-1.137.05-.989.219.084.2-.45-.1-2.189-.166-.984-.163-1.411.012-1.411.077,0,.14.263.14.584a5.919,5.919,0,0,0,.569,2.65c.4.457.459.806.21,1.187S630.666,308.244,630.447,307.962Zm-10.556-.7c0-.1-.054-.632-.11-1.19-.079-.789-.062-1.016.079-1.016s.18.312.18,1.191a5.124,5.124,0,0,1-.07,1.191C619.932,307.437,619.9,307.358,619.891,307.261Zm2.391-1.883c0-.4.83-1.12,1.471-1.28a7.409,7.409,0,0,1,3.032-.155l.611.168-.474.164a1.993,1.993,0,0,0-.772.536c-.264.332-.445.39-1.627.522-.732.081-1.535.185-1.786.231C622.353,305.633,622.282,305.6,622.282,305.378Z" fill="#2e2e2e"/>
      </g>
    </g>
  </g>
</svg>
