<svg xmlns="http://www.w3.org/2000/svg" viewBox="0 0 512 512" version="1.1"><path d="M 376.500 1.951 C 349.213 9.129, 328.891 29.473, 322.011 56.500 L 320.229 63.500 271.864 64 L 223.500 64.500 216.500 67.794 C 209.813 70.941, 204.972 75.616, 108.294 172.294 C 11.616 268.972, 6.941 273.813, 3.794 280.500 C 0.693 287.091, 0.500 288.143, 0.500 298.500 C 0.500 317.903, -4.682 311.450, 75.417 391.799 C 122.838 439.367, 146.105 462.022, 149.618 464.046 C 157.439 468.553, 167.736 470.551, 176.309 469.224 C 189.197 467.229, 194.338 463.787, 215.250 443.154 L 234 424.655 234 448.278 C 234 461.961, 234.473 474.132, 235.124 477.201 C 237.502 488.405, 244.677 498.896, 254.151 505.019 C 265.628 512.437, 260.153 512.132, 376.052 511.798 L 479.605 511.500 487.299 507.697 C 496.797 503.003, 503.907 496.017, 508.277 487.087 L 511.500 480.500 512 388.500 C 512.275 337.900, 512.275 271.750, 512 241.500 L 511.500 186.500 508.212 179.500 C 505.312 173.325, 502.870 170.495, 487.503 155.500 L 470.082 138.500 469.709 100.500 C 469.357 64.673, 469.208 62.073, 467.103 55.027 C 457.023 21.300, 428.568 -0.124, 394.090 0.055 C 387.167 0.091, 381.076 0.748, 376.500 1.951 M 381.112 23.581 C 366.948 27.390, 354.003 38.014, 347.701 51 C 345.700 55.125, 343.774 59.737, 343.423 61.250 L 342.783 64 361.786 64 C 377.927 64, 381.759 64.299, 387.227 65.988 C 396.228 68.768, 399.789 71.438, 418.783 89.638 C 427.977 98.449, 438.367 108.309, 441.872 111.549 L 448.244 117.441 447.760 91.471 C 447.333 68.553, 447.027 64.727, 445.153 58.928 C 439.571 41.650, 425.117 28.049, 407.540 23.532 C 400.166 21.637, 388.258 21.659, 381.112 23.581 M 225.500 87.986 C 219.703 90.863, 25.606 285.218, 23.538 290.218 C 21.573 294.967, 21.572 302.027, 23.535 306.782 C 25.660 311.932, 155.839 442.424, 161.500 445.080 C 166.807 447.569, 174.993 447.565, 179.790 445.070 C 181.887 443.980, 226.622 399.950, 282.662 343.820 L 381.824 244.500 382.953 238.895 C 383.742 234.977, 383.994 213.454, 383.791 167.395 L 383.500 101.500 381 97.044 C 379.625 94.594, 376.550 91.219, 374.166 89.544 C 369.917 86.560, 369.558 86.493, 355.916 86.154 L 342 85.808 342 97.296 C 342 108.560, 342.046 108.795, 344.379 109.380 C 348.447 110.401, 356.717 118.723, 359.700 124.797 C 362.105 129.697, 362.498 131.698, 362.486 139 C 362.474 146.308, 362.088 148.231, 359.736 152.717 C 356.261 159.342, 351.342 164.261, 344.717 167.736 C 340.231 170.088, 338.308 170.474, 331 170.486 C 323.698 170.498, 321.697 170.105, 316.797 167.700 C 293.498 156.258, 292.263 123.463, 314.656 110.825 L 320 107.809 320 96.905 L 320 86 274.750 86.001 C 231.627 86.002, 229.312 86.095, 225.500 87.986 M 406 172.311 C 406 210.910, 405.601 238.832, 405.004 241.980 C 404.456 244.869, 402.804 249.993, 401.332 253.367 C 398.864 259.025, 393.131 265.041, 327.270 331.081 L 255.883 402.662 256.191 438.662 L 256.500 474.661 259.515 479.537 C 261.710 483.084, 263.987 485.172, 267.880 487.206 L 273.228 490 373.146 490 C 461.216 490, 473.505 489.816, 476.782 488.447 C 481.476 486.486, 485.637 482.561, 488.102 477.770 C 489.970 474.137, 490.014 470.342, 489.760 332.147 L 489.500 190.253 487 186.772 C 485.625 184.857, 466.837 166.326, 445.250 145.592 L 406 107.895 406 172.311 M 327.686 129.017 C 323.655 130.226, 322.166 131.738, 321.060 135.744 C 318.287 145.788, 330.773 153.193, 337.825 145.687 C 342.722 140.474, 341.003 132.153, 334.466 129.421 C 332.595 128.640, 330.937 128.039, 330.782 128.086 C 330.627 128.133, 329.234 128.552, 327.686 129.017 M 0.355 298.500 C 0.352 303.450, 0.521 305.601, 0.731 303.280 C 0.940 300.959, 0.943 296.909, 0.736 294.280 C 0.530 291.651, 0.358 293.550, 0.355 298.500" stroke="none" class="tool_gradient_color" fill-rule="evenodd"/></svg>