<svg xmlns="http://www.w3.org/2000/svg" viewBox="0 0 512 512" version="1.1"><path d="M 92.500 17.393 C 81.288 20.973, 72.522 28.573, 67.582 38.997 L 64.500 45.500 64.500 256 L 64.500 466.500 67.587 473 C 71.509 481.259, 78.644 488.385, 87 492.387 L 93.500 495.500 256 495.500 L 418.500 495.500 425.003 492.418 C 433.333 488.470, 440.470 481.333, 444.418 473.003 L 447.500 466.500 447.500 306.479 L 447.500 146.458 444.295 139.979 C 441.432 134.191, 435.087 127.519, 384.795 77.409 C 335.848 28.639, 327.782 21.003, 323 18.909 L 317.500 16.500 207 16.308 C 119.674 16.156, 95.661 16.384, 92.500 17.393 M 97.713 33.422 C 91.473 35.100, 86.121 39.524, 83.004 45.580 L 80.500 50.446 80.235 252.973 C 80.047 396.289, 80.288 457.041, 81.060 460.771 C 82.471 467.589, 87.156 473.690, 93.482 476.945 L 98.446 479.500 252.973 479.767 C 361.802 479.955, 409.059 479.711, 412.771 478.942 C 419.590 477.529, 425.691 472.842, 428.945 466.517 L 431.500 461.553 431.500 306.527 L 431.500 151.500 428.695 146.441 C 426.748 142.929, 410.933 126.427, 376.945 92.445 L 328 43.508 328 77.705 C 328 98.650, 328.423 113.875, 329.092 116.994 C 330.514 123.625, 335.268 129.747, 341.479 132.945 C 346.379 135.469, 346.763 135.504, 373.219 135.823 L 400 136.145 400 144.128 L 400 152.111 370.750 151.806 L 341.500 151.500 334.997 148.418 C 326.667 144.470, 319.530 137.333, 315.582 129.003 L 312.500 122.500 312.211 77.857 L 311.923 33.213 309.711 32.620 C 308.495 32.294, 261.375 32.052, 205 32.081 C 124.704 32.123, 101.463 32.414, 97.713 33.422 M 152 72 L 152 80 164 80 L 176 80 176 72 L 176 64 164 64 L 152 64 152 72 M 200 72 L 200 80 244 80 L 288 80 288 72 L 288 64 244 64 L 200 64 200 72 M 112 120 L 112 128 132 128 L 152 128 152 120 L 152 112 132 112 L 112 112 112 120 M 176 120 L 176 128 232 128 L 288 128 288 120 L 288 112 232 112 L 176 112 176 120 M 112 168 L 112 176 124 176 L 136 176 136 168 L 136 160 124 160 L 112 160 112 168 M 160 168 L 160 176 188 176 L 216 176 216 168 L 216 160 188 160 L 160 160 160 168 M 240 168 L 240 176 264 176 L 288 176 288 168 L 288 160 264 160 L 240 160 240 168 M 270.172 218.250 C 237.531 305.166, 224.045 341.366, 224.248 341.518 C 225.370 342.358, 239.212 347.121, 239.549 346.784 C 240.698 345.636, 287.681 218.921, 287.093 218.558 C 286.331 218.086, 272.932 213, 272.453 213 C 272.283 213, 271.256 215.363, 270.172 218.250 M 303.740 223.739 L 297.996 229.482 323.241 254.741 L 348.485 280 323.231 305.269 L 297.976 330.539 303.756 336.258 L 309.535 341.977 338.768 312.732 C 365.939 285.549, 368 283.241, 368 279.987 C 368 276.733, 365.943 274.431, 338.741 247.241 L 309.483 217.995 303.740 223.739 M 168.635 247.750 C 146.635 273.432, 144.007 276.873, 144.006 280 C 144.005 283.127, 146.606 286.535, 168.395 311.964 C 181.809 327.619, 193.216 340.572, 193.743 340.748 C 194.781 341.094, 206 332.034, 206 330.850 C 206 330.455, 196.315 318.852, 184.477 305.066 L 162.954 280 184.477 254.934 C 196.315 241.148, 206 229.545, 206 229.150 C 206 228.261, 195.072 219, 194.023 219 C 193.606 219, 182.181 231.938, 168.635 247.750 M 120 392 L 120 400 148 400 L 176 400 176 392 L 176 384 148 384 L 120 384 120 392 M 200 392 L 200 400 260 400 L 320 400 320 392 L 320 384 260 384 L 200 384 200 392 M 344 392 L 344 400 368 400 L 392 400 392 392 L 392 384 368 384 L 344 384 344 392 M 120 440 L 120 448 140 448 L 160 448 160 440 L 160 432 140 432 L 120 432 120 440 M 184 440 L 184 448 224 448 L 264 448 264 440 L 264 432 224 432 L 184 432 184 440 M 288 440 L 288 448 340 448 L 392 448 392 440 L 392 432 340 432 L 288 432 288 440" stroke="none" class="tool_gradient_color" fill-rule="evenodd"/></svg>