<svg xmlns="http://www.w3.org/2000/svg" viewBox="0 0 512 512" version="1.1"><defs><linearGradient id="gradientColor" x1="0%" y1="0%" x2="0%" y2="100%"><stop offset="0%" style="stop-color:rgb(0, 133, 121);stop-opacity:1" /><stop offset="100%" style="stop-color:rgb(255, 0, 0);stop-opacity:1" /></linearGradient></defs><path d="M 188.500 17.395 C 177.293 20.969, 168.522 28.572, 163.582 38.997 L 160.500 45.500 160.217 100.401 L 159.934 155.301 162.141 157.651 C 165.144 160.846, 170.840 160.864, 173.826 157.686 C 175.957 155.417, 176 154.788, 176 125.686 L 176 96 328 96 L 480 96 480 157.826 L 480 219.651 482.314 221.826 C 485.497 224.816, 490.957 224.739, 493.847 221.663 L 496.043 219.325 495.772 132.413 L 495.500 45.500 492.418 38.997 C 488.470 30.667, 481.333 23.530, 473.003 19.582 L 466.500 16.500 329.500 16.310 C 220.772 16.159, 191.675 16.383, 188.500 17.395 M 193.713 33.422 C 187.474 35.100, 182.121 39.524, 179.006 45.577 C 176.734 49.991, 176.470 51.807, 176.142 65.220 L 175.782 80 328 80 L 480.218 80 479.858 65.220 C 479.528 51.724, 479.275 50.010, 476.944 45.480 C 473.747 39.268, 467.627 34.515, 460.994 33.092 C 453.069 31.393, 200.099 31.705, 193.713 33.422 M 210.174 50.314 C 205.208 55.601, 208.870 64, 216.140 64 C 220.756 64, 224 60.640, 224 55.860 C 224 48.760, 215.019 45.157, 210.174 50.314 M 258.174 50.314 C 253.208 55.601, 256.870 64, 264.140 64 C 268.756 64, 272 60.640, 272 55.860 C 272 48.760, 263.019 45.157, 258.174 50.314 M 306.174 50.314 C 301.208 55.601, 304.870 64, 312.140 64 C 316.756 64, 320 60.640, 320 55.860 C 320 48.760, 311.019 45.157, 306.174 50.314 M 210.174 130.314 C 207.195 133.486, 207.261 138.957, 210.314 141.826 L 212.629 144 284.140 144 L 355.651 144 357.826 141.686 C 360.805 138.514, 360.739 133.043, 357.686 130.174 L 355.371 128 283.860 128 L 212.349 128 210.174 130.314 M 398.237 142.263 C 385.253 155.270, 384 156.839, 384 160.088 C 384 164.712, 387.340 168, 392.038 168 C 394.878 168, 396.493 166.963, 401.723 161.779 L 408 155.558 408 179.605 C 408 203.447, 408.020 203.670, 410.314 205.826 C 413.486 208.805, 418.957 208.739, 421.826 205.686 C 423.933 203.442, 424 202.634, 424 179.464 L 424 155.558 430.277 161.779 C 435.605 167.059, 437.090 168, 440.103 168 C 444.730 168, 448 164.655, 448 159.923 C 448 156.818, 446.578 155.055, 433.737 142.237 C 414.871 123.405, 417.063 123.403, 398.237 142.263 M 44.500 177.395 C 33.293 180.969, 24.522 188.572, 19.582 198.997 L 16.500 205.500 16.500 336 L 16.500 466.500 19.582 473.003 C 23.530 481.333, 30.667 488.470, 38.997 492.418 L 45.500 495.500 136.414 495.771 L 227.327 496.041 229.664 493.846 C 232.833 490.869, 232.857 485.154, 229.714 482.201 L 227.427 480.053 138.936 479.776 L 50.445 479.500 45.482 476.945 C 39.268 473.747, 34.515 467.627, 33.092 460.994 C 32.344 457.505, 32 424.428, 32 355.951 L 32 256 189.826 256 L 347.651 256 349.894 253.612 C 352.104 251.260, 352.133 250.887, 351.819 228.362 L 351.500 205.500 348.418 198.997 C 344.470 190.667, 337.333 183.530, 329.003 179.582 L 322.500 176.500 185.500 176.310 C 76.772 176.159, 47.675 176.383, 44.500 177.395 M 49.713 193.422 C 43.474 195.100, 38.121 199.524, 35.006 205.577 C 32.734 209.991, 32.470 211.807, 32.142 225.220 L 31.782 240 184 240 L 336.218 240 335.858 225.220 C 335.528 211.724, 335.275 210.010, 332.944 205.480 C 329.747 199.268, 323.627 194.515, 316.994 193.092 C 309.069 191.393, 56.099 191.705, 49.713 193.422 M 66.174 210.314 C 61.208 215.601, 64.870 224, 72.140 224 C 76.756 224, 80 220.640, 80 215.860 C 80 208.760, 71.019 205.157, 66.174 210.314 M 114.174 210.314 C 109.208 215.601, 112.870 224, 120.140 224 C 124.756 224, 128 220.640, 128 215.860 C 128 208.760, 119.019 205.157, 114.174 210.314 M 162.174 210.314 C 157.208 215.601, 160.870 224, 168.140 224 C 172.756 224, 176 220.640, 176 215.860 C 176 208.760, 167.019 205.157, 162.174 210.314 M 415.512 225.614 C 412.219 226.410, 406.144 228.693, 402.012 230.688 C 394.752 234.192, 391.812 237.002, 314.418 314.407 C 239.206 389.630, 234.135 394.920, 231.028 401.408 C 218.351 427.876, 222.954 456.995, 242.980 477.020 C 263.157 497.198, 292.101 501.658, 318.959 488.728 C 324.938 485.850, 332.231 478.870, 403.785 407.540 C 456.773 354.719, 483.378 327.499, 486.116 323.307 C 492.360 313.747, 495.225 304.440, 495.776 291.928 C 496.277 280.570, 495.287 273.854, 491.807 265 C 484.151 245.524, 466.693 230.205, 446.812 225.518 C 438.923 223.658, 423.407 223.706, 415.512 225.614 M 423.500 241.107 C 420.109 241.594, 414.251 243.569, 410.028 245.649 C 403.533 248.848, 400.023 251.823, 383.174 268.414 L 363.792 287.500 371.646 288.056 L 379.500 288.611 395.500 272.976 C 414.776 254.138, 417.590 252.539, 431.500 252.515 C 439.176 252.502, 441.335 252.891, 446.175 255.160 C 454.121 258.885, 460.397 265.030, 464.250 272.856 C 467.189 278.825, 467.500 280.322, 467.500 288.479 C 467.500 304.441, 468.761 302.795, 417.194 354.167 C 366.075 405.092, 368.219 403.457, 352.500 403.485 C 344.824 403.498, 342.665 403.109, 337.825 400.840 C 334.704 399.376, 330.103 396.293, 327.602 393.987 C 323.271 389.995, 317 379.434, 317 376.132 C 317 375.161, 315.306 376.246, 312.455 379.042 C 308.735 382.692, 308.022 383.953, 308.526 386 C 310.198 392.793, 321.911 405.907, 329.882 409.912 C 343.866 416.937, 359.744 417.112, 373.869 410.397 C 381.182 406.921, 383.362 404.907, 426.135 362.135 C 468.763 319.507, 470.931 317.160, 474.362 309.944 C 478.779 300.651, 480.311 291.251, 478.961 281.730 C 476.045 261.158, 458.968 244.010, 438.444 241.043 C 434.625 240.491, 431.050 240.086, 430.500 240.142 C 429.950 240.198, 426.800 240.632, 423.500 241.107 M 422.500 270.982 C 420.300 272.072, 413.637 277.842, 407.694 283.805 L 396.887 294.646 402.825 298.311 C 409.504 302.434, 418.613 311.777, 422.622 318.618 L 425.292 323.174 436.172 312.337 C 442.156 306.377, 447.941 299.670, 449.026 297.434 C 451.191 292.975, 451.601 285.725, 449.939 281.315 C 448.499 277.497, 443.204 272.063, 439.282 270.381 C 434.653 268.394, 427.186 268.662, 422.500 270.982 M 66.174 290.314 C 64.051 292.575, 64 293.270, 64 320.140 C 64 347.604, 64.004 347.655, 66.314 349.826 C 68.610 351.982, 68.949 352, 108.140 352 L 147.651 352 149.826 349.686 C 151.949 347.425, 152 346.730, 152 319.860 C 152 292.396, 151.996 292.345, 149.686 290.174 C 147.390 288.018, 147.051 288, 107.860 288 L 68.349 288 66.174 290.314 M 178.174 290.314 C 175.195 293.486, 175.261 298.957, 178.314 301.826 L 180.629 304 240.140 304 L 299.651 304 301.826 301.686 C 304.805 298.514, 304.739 293.043, 301.686 290.174 L 299.371 288 239.860 288 L 180.349 288 178.174 290.314 M 80 320 L 80 336 108 336 L 136 336 136 320 L 136 304 108 304 L 80 304 80 320 M 360.225 305.108 C 356.385 305.583, 350.953 307.309, 346.225 309.557 C 338.790 313.092, 336.824 314.907, 293.877 357.865 C 251.646 400.108, 249.061 402.902, 245.632 410 C 236.239 429.444, 240.017 451.057, 255.388 465.817 C 270.452 480.282, 291.212 483.520, 309.972 474.331 C 316.487 471.140, 319.926 468.228, 336.826 451.586 L 356.208 432.500 348.354 431.944 L 340.500 431.389 324.500 447.024 C 305.218 465.868, 302.413 467.461, 288.479 467.485 C 280.306 467.499, 278.838 467.195, 272.856 464.250 C 265.030 460.397, 258.885 454.121, 255.160 446.175 C 252.891 441.335, 252.502 439.176, 252.515 431.500 C 252.543 415.781, 250.908 417.925, 301.833 366.806 C 353.195 315.249, 351.562 316.500, 367.500 316.500 C 375.156 316.500, 377.348 316.897, 382.175 319.160 C 385.296 320.624, 389.897 323.707, 392.398 326.013 C 396.729 330.005, 403 340.566, 403 343.868 C 403 344.839, 404.694 343.754, 407.545 340.958 C 412.759 335.843, 412.793 334.529, 407.901 326.868 C 397.635 310.792, 379.861 302.679, 360.225 305.108 M 358.409 335.027 C 353.181 337.614, 336.490 354.583, 334.509 359.324 C 332.752 363.530, 332.544 370.659, 334.061 374.685 C 335.501 378.503, 340.796 383.937, 344.718 385.619 C 348.945 387.433, 356.167 387.375, 360.676 385.491 C 365.474 383.486, 382.473 366.719, 385 361.500 C 387.191 356.975, 387.610 349.747, 385.939 345.315 C 384.499 341.497, 379.204 336.063, 375.282 334.381 C 370.614 332.378, 363.186 332.662, 358.409 335.027 M 178.174 338.314 C 175.195 341.486, 175.261 346.957, 178.314 349.826 C 180.601 351.974, 181.056 352, 216.140 352 L 251.651 352 253.826 349.686 C 256.805 346.514, 256.739 341.043, 253.686 338.174 C 251.399 336.026, 250.944 336, 215.860 336 L 180.349 336 178.174 338.314 M 78.237 398.263 C 59.405 417.129, 59.403 414.937, 78.263 433.763 C 91.270 446.747, 92.839 448, 96.088 448 C 100.712 448, 104 444.660, 104 439.962 C 104 437.122, 102.963 435.507, 97.779 430.277 L 91.558 424 147.605 424 L 203.651 424 205.826 421.686 C 208.805 418.514, 208.739 413.043, 205.686 410.174 L 203.371 408 147.464 408 L 91.558 408 97.779 401.723 C 103.059 396.395, 104 394.910, 104 391.897 C 104 387.270, 100.655 384, 95.923 384 C 92.818 384, 91.055 385.422, 78.237 398.263 M 283.220 408.321 C 271.396 420.305, 269 424.194, 269 431.403 C 269 437.207, 270.387 440.722, 274.311 444.869 C 278.364 449.151, 282.688 451, 288.652 451 C 295.817 451, 300.468 448.089, 312.337 436.172 L 323.174 425.292 318.683 422.660 C 312.153 418.833, 303.853 410.911, 299.426 404.280 C 297.304 401.101, 295.304 398.161, 294.981 397.747 C 294.659 397.333, 289.366 402.091, 283.220 408.321" stroke="none" class="tool_gradient_color" fill="url(#gradientColor)" fill-rule="evenodd"/></svg>