<svg xmlns="http://www.w3.org/2000/svg" viewBox="0 0 512 512" version="1.1"><path d="M 61.500 21.402 C 51.821 24.471, 43.354 31.146, 38.371 39.636 C 32.959 48.857, 33.036 46.715, 33.017 188.457 L 33 319.414 19.120 333.457 C 11.230 341.440, 4.251 349.442, 2.948 352 C -0.494 358.753, -0.906 370.572, 2.023 378.500 C 4.134 384.216, 6.655 386.916, 55.369 435.615 C 95.754 475.988, 107.551 487.229, 111.500 489.100 C 118.766 492.542, 129.536 492.899, 137.500 489.962 C 143.142 487.881, 145.711 485.547, 180.530 450.874 L 217.560 414 237.131 414 C 257.371 414, 262.252 413.267, 264.021 409.961 C 265.708 406.809, 265.148 402.215, 262.811 400.039 C 260.832 398.195, 259.327 398, 247.080 398 L 233.538 398 294.614 336.750 C 359.685 271.495, 359.146 272.113, 360.985 260.573 C 361.673 256.250, 358.631 214.370, 356.608 200.326 L 356.150 197.151 386.825 196.784 C 421.254 196.372, 424.928 195.818, 438.522 188.989 L 446 185.232 446 281.750 C 446 355.223, 445.706 379.251, 444.770 382.384 C 444.063 384.751, 441.765 388.278, 439.363 390.684 C 431.907 398.150, 433.587 398, 357.493 398 L 290.349 398 288.174 400.314 C 284.186 404.559, 285.699 411.002, 291.128 412.895 C 295.055 414.264, 418.385 414.410, 427.742 413.057 C 441.115 411.123, 452.470 402.953, 458.276 391.089 L 461.500 384.500 461.772 277.525 L 462.044 170.551 483.869 148.525 C 510.708 121.440, 511.500 120.149, 511.500 103.500 C 511.500 93.364, 511.270 92.029, 508.567 86.500 C 504.869 78.935, 496.144 70.140, 489 66.776 C 482.867 63.889, 474.095 62, 466.816 62 L 462 62 462 57.605 C 462 42.499, 450.709 27.261, 435.574 21.941 C 430.180 20.046, 425.746 20.002, 247.775 20.067 C 103.467 20.120, 64.667 20.398, 61.500 21.402 M 63 37.594 C 58.454 39.564, 54.353 43.507, 51.658 48.500 C 49.627 52.265, 49.482 54.068, 49.190 79.250 L 48.881 106 234.006 106 C 350.607 106, 419.797 106.356, 420.929 106.962 C 423.733 108.463, 425.282 113.127, 424.052 116.364 C 421.783 122.330, 433.010 122, 232.532 122 L 49 122 49 212.739 L 49 303.477 107.770 244.739 C 168.642 183.899, 167.952 184.509, 173.455 186.621 C 175.819 187.528, 178.213 192.726, 177.454 195.300 C 177.097 196.510, 141.123 233.275, 97.511 277 C 53.899 320.725, 17.665 357.582, 16.991 358.905 C 15.168 362.478, 15.400 370.007, 17.456 374 C 19.287 377.558, 114.377 472.490, 118.337 474.715 C 121.022 476.222, 128.924 476.352, 132.685 474.951 C 136.253 473.622, 339.284 270.934, 342.491 265.500 C 343.789 263.300, 345.105 259.925, 345.416 258 C 345.726 256.075, 344.747 241.675, 343.240 226 L 340.500 197.500 335 197.212 L 329.500 196.924 327.187 201.992 C 322.232 212.846, 313.339 218.445, 301 218.479 C 294.541 218.497, 292.760 218.090, 288.167 215.546 C 282.331 212.313, 279.066 208.922, 275.720 202.616 C 274.004 199.385, 273.531 196.780, 273.517 190.500 C 273.502 183.384, 273.843 181.892, 276.602 177 C 283.983 163.915, 299.641 158.708, 313.249 164.813 C 318.138 167.006, 325.313 173.927, 327.053 178.129 C 328.156 180.790, 328.639 181, 333.649 181 L 339.056 181 338.430 174.250 C 337.266 161.708, 335.436 157.809, 329.221 154.629 C 327.412 153.704, 311.253 151.989, 281 149.513 C 242.857 146.390, 234.785 145.981, 231.079 146.979 C 227.399 147.970, 224.190 150.587, 211.947 162.585 C 197.115 177.120, 195.383 178.236, 190.545 176.379 C 188.182 175.472, 185.863 170.395, 186.554 167.641 C 186.882 166.334, 193.758 158.709, 201.834 150.698 C 217.647 135.011, 222.769 131.633, 232.444 130.508 C 235.260 130.180, 258.137 131.655, 284.077 133.837 C 335.085 138.126, 335.875 138.278, 343.655 145.308 C 350.489 151.481, 352.062 155.998, 354.602 176.750 L 355.123 181 383.311 180.983 C 420.033 180.960, 426.329 179.631, 440.750 168.857 L 446 164.935 446 121.468 L 446 78 418.992 78 L 391.984 78 390.380 82.008 C 388.068 87.785, 380.015 94.649, 373.234 96.620 C 360.866 100.216, 347.126 94.064, 341.485 82.403 C 338.534 76.304, 338.323 66.444, 341.010 60.198 C 343.519 54.367, 349.992 47.872, 355.683 45.476 C 361.355 43.088, 370.567 43.328, 376.844 46.028 C 382.387 48.413, 389.597 55.545, 390.631 59.667 L 391.217 62 418.608 62 L 446 62 446 57.614 C 446 50.591, 441.570 43.195, 435.001 39.250 L 429.588 36 248.044 36.039 C 88.083 36.074, 66.084 36.259, 63 37.594 M 92.500 57.365 C 76.001 64.953, 84.673 89.309, 102.023 84.111 C 109.389 81.904, 113.447 73.773, 111.097 65.930 C 108.930 58.698, 99.273 54.250, 92.500 57.365 M 136 57.121 C 131.945 58.733, 128.045 63.120, 126.905 67.352 C 126.052 70.519, 126.170 72.156, 127.499 75.637 C 132.858 89.669, 153.138 86.853, 154.665 71.864 C 155.288 65.741, 152.688 61.099, 147.038 58.250 C 142.211 55.816, 139.881 55.578, 136 57.121 M 178.500 57.365 C 168.822 61.816, 166.605 73.451, 174.021 80.867 C 185.034 91.880, 202.696 79.175, 196.613 64.617 C 193.902 58.128, 184.781 54.477, 178.500 57.365 M 361.378 60.398 C 357.073 62.326, 355 65.675, 355 70.707 C 355 79.511, 364.355 84.702, 371.807 80.033 L 375.114 77.960 373.057 75.345 C 370.448 72.028, 370.430 67.989, 373.011 65.219 L 375.022 63.060 372.709 61.545 C 369.243 59.274, 364.876 58.832, 361.378 60.398 M 462 113.237 L 462 148.474 476.435 134.065 C 493.385 117.145, 496.250 112.720, 496.250 103.459 C 496.250 88.264, 484.788 78, 467.818 78 L 462 78 462 113.237 M 296.500 178.954 C 292.454 180.628, 289.730 184.750, 289.230 189.959 C 288.769 194.752, 288.931 195.167, 292.756 198.991 C 296.273 202.508, 297.329 203, 301.367 203 C 305.016 203, 306.630 202.409, 309.168 200.141 L 312.367 197.283 310.184 194.506 C 307.609 191.234, 307.347 186.379, 309.609 183.880 C 311.108 182.223, 310.989 181.964, 307.859 180.055 C 304.389 177.940, 299.984 177.513, 296.500 178.954 M 220.772 207.345 C 209.749 211.101, 200.268 218.759, 193.714 229.200 C 187.708 238.769, 185.415 255.495, 188.492 267.307 C 191.699 279.621, 200.445 291.282, 211.433 297.895 C 235.832 312.577, 268.920 303.166, 281.308 278.021 C 284.341 271.864, 284.500 270.966, 284.500 259.946 L 284.500 248.349 280.312 239.925 C 278.008 235.291, 273.931 229.137, 271.251 226.250 C 263.711 218.125, 262.264 218.474, 248.898 231.646 C 241.835 238.606, 237.875 243.293, 237.459 245.186 C 236.312 250.410, 241.675 255.800, 246.751 254.526 C 248.162 254.172, 252.355 250.949, 256.070 247.362 L 262.823 240.842 265.456 245.335 C 269.475 252.193, 270.650 260.251, 268.641 267.165 C 266.522 274.452, 259.899 281.920, 252.203 285.700 C 247.172 288.170, 245.381 288.500, 237 288.500 C 225.706 288.500, 220.280 286.366, 212.957 279.043 C 205.525 271.611, 203.498 266.344, 203.511 254.500 C 203.520 245.611, 203.817 243.944, 206.177 239.500 C 210.884 230.636, 219.597 223.801, 229.639 221.097 C 234.425 219.809, 235.751 218.496, 236.611 214.195 C 237.128 211.608, 236.718 210.565, 234.194 208.040 C 230.573 204.419, 229.517 204.364, 220.772 207.345 M 131.775 291.518 C 128.403 293.398, 127 295.912, 127 300.073 C 127 304.071, 163.311 385.748, 166.201 388.250 C 169.308 390.941, 174.448 390.517, 176.927 387.365 C 179.746 383.782, 179.577 382.217, 175.311 372.396 L 171.623 363.904 185.548 349.952 C 193.207 342.278, 199.873 336, 200.361 336 C 200.849 336, 204.737 337.575, 209 339.500 C 218.003 343.565, 219.787 343.742, 223.365 340.927 C 226.572 338.405, 227.059 332.252, 224.250 329.754 C 221.960 327.718, 140.862 291.100, 137.264 290.477 C 135.744 290.214, 133.274 290.683, 131.775 291.518 M 156.197 329.817 C 160.583 339.543, 164.373 347.702, 164.618 347.949 C 165.254 348.589, 184.064 329.693, 183.745 328.735 C 183.527 328.081, 157.896 315.990, 150.361 312.986 C 148.551 312.265, 149.448 314.852, 156.197 329.817 M 92.500 328.863 C 90.850 329.912, 81.963 338.389, 72.750 347.702 C 57.179 363.441, 56 364.893, 56 368.317 C 56 373.091, 58.826 376, 63.463 376 C 66.328 376, 68.068 374.933, 73.521 369.831 L 80.115 363.663 107.808 391.222 C 123.038 406.380, 136.546 419.097, 137.824 419.482 C 143.203 421.102, 149.091 415.221, 147.494 409.824 C 147.116 408.546, 134.385 395.032, 119.203 379.793 L 91.600 352.087 97.800 345.630 C 103.731 339.453, 104.474 338.009, 104.036 333.500 C 103.546 328.452, 97.176 325.891, 92.500 328.863" stroke="none" class="tool_gradient_color" fill-rule="evenodd"/></svg>