<svg xmlns="http://www.w3.org/2000/svg" viewBox="0 0 512 512" version="1.1"><defs><linearGradient id="gradientColor" x1="0%" y1="0%" x2="0%" y2="100%"><stop offset="0%" style="stop-color:rgb(255, 255, 255);stop-opacity:1" /><stop offset="100%" style="stop-color:rgb(255, 0, 0);stop-opacity:1" /></linearGradient></defs><path d="" stroke="none" fill="currentColor" fill-rule="evenodd"/><path d="M 3.455 2.455 L 1 4.909 1 256 L 1 507.091 3.455 509.545 L 5.909 512 198.766 512 C 391.469 512, 391.625 511.998, 393.811 509.961 C 395.015 508.840, 396.106 507.827, 396.236 507.711 C 396.366 507.595, 396.703 469.302, 396.986 422.615 L 397.500 337.729 404.112 343.722 C 411.125 350.077, 414.399 351.559, 418.218 350.107 C 420.384 349.284, 501.962 276.609, 508.250 269.902 L 511 266.968 511 162.439 L 511 57.909 508.545 55.455 L 506.091 53 451.545 53 L 397 53 397 29.934 C 397 6.560, 396.653 4.020, 393.087 1.282 C 391.852 0.334, 348.681 0.057, 198.705 0.032 L 5.909 0 3.455 2.455 M 19 256 L 19 494 199 494 L 379 494 379 407.590 L 379 321.179 350.250 295.428 C 334.438 281.264, 320.953 268.736, 320.285 267.588 C 318.567 264.634, 318.449 60.903, 320.163 57.684 C 322.579 53.149, 323.145 53.065, 351.750 53.032 L 379 53 379 35.500 L 379 18 199 18 L 19 18 19 256 M 95.455 55.455 C 92.003 58.906, 92.062 64.770, 95.581 68.076 L 98.161 70.500 199.167 70.500 L 300.173 70.500 302.587 67.694 C 305.840 63.912, 305.823 58.732, 302.545 55.455 L 300.091 53 199 53 L 97.909 53 95.455 55.455 M 337.073 165.250 L 337.146 259.500 376.100 294.314 L 415.054 329.127 417.435 327.314 C 418.744 326.316, 436.274 310.650, 456.390 292.500 L 492.964 259.500 492.982 165.250 L 493 71 415 71 L 337 71 337.073 165.250 M 52.110 102.389 C 46.769 105.364, 45.669 111.265, 49.589 115.923 L 52.178 119 173.339 118.968 C 267.005 118.944, 294.860 118.660, 296.087 117.718 C 300.477 114.347, 301.139 108.435, 297.587 104.306 L 295.173 101.500 174.837 101.279 C 76.197 101.097, 54.069 101.298, 52.110 102.389 M 382.500 104.977 C 380.511 105.822, 369.187 115.810, 357.250 127.247 C 351.693 132.571, 351 133.664, 351 137.102 C 351 141.637, 351.524 142.257, 368 157.230 C 380.383 168.484, 382.555 170, 386.299 170 C 391.550 170, 396.175 163.276, 394.516 158.052 C 394.168 156.955, 389.219 151.796, 383.518 146.586 L 373.152 137.114 377.826 132.905 C 389.260 122.607, 394.065 117.588, 394.625 115.359 C 395.564 111.615, 393.098 106.939, 389.360 105.377 C 385.632 103.820, 385.272 103.799, 382.500 104.977 M 441.500 104.945 C 437.951 106.398, 435.800 109.691, 435.800 113.673 C 435.800 117.202, 436.545 118.167, 446.467 127.483 L 457.134 137.500 447.144 146.310 C 441.649 151.156, 436.743 156.331, 436.240 157.810 C 433.901 164.699, 440.109 171.482, 446.857 169.410 C 448.486 168.909, 456.349 162.540, 464.329 155.256 C 479.709 141.218, 481.440 138.625, 478.798 133.585 C 477.080 130.304, 450.569 106.167, 447.334 104.937 C 444.477 103.851, 444.173 103.851, 441.500 104.945 M 392.923 130.923 C 389.103 134.743, 388.908 139.999, 392.455 143.545 C 394.894 145.985, 395.032 146, 414.520 146 C 426.656 146, 434.901 145.588, 436.150 144.920 C 439.324 143.221, 441.177 137.806, 439.869 134.055 C 437.985 128.650, 435.259 128, 414.473 128 L 395.846 128 392.923 130.923 M 49.800 153.046 C 47.177 155.669, 46.836 156.600, 47.345 159.737 C 47.670 161.741, 48.863 164.307, 49.996 165.440 C 52.050 167.494, 52.390 167.501, 173.093 167.762 L 294.130 168.024 297.065 165.089 C 300.804 161.350, 300.922 157.249, 297.411 153.077 L 294.822 150 173.834 150 L 52.846 150 49.800 153.046 M 52.476 199.396 C 49.402 200.735, 47 204.523, 47 208.031 C 47 209.097, 48.313 211.438, 49.918 213.234 L 52.836 216.500 171.001 216.766 C 251.405 216.947, 290.416 216.696, 293.077 215.979 C 298.769 214.447, 301.680 208.008, 298.970 202.945 C 296.219 197.803, 301.158 197.997, 173.800 198.039 C 78.184 198.071, 54.920 198.331, 52.476 199.396 M 404.005 232.685 C 397.711 234.988, 388.836 244.075, 386.676 250.428 C 385.754 253.139, 385 258.354, 385 262.018 C 385 270.943, 389.119 279.466, 396.096 284.981 C 402.368 289.940, 406.846 291.437, 415.500 291.472 C 432.233 291.539, 445.284 278.464, 445.437 261.481 C 445.545 249.441, 439.216 239.271, 428 233.461 C 423.097 230.922, 409.983 230.498, 404.005 232.685 M 50.328 249.394 C 46.362 252.806, 46.362 259.194, 50.328 262.606 L 53.112 265 173.633 265 L 294.154 265 297.077 262.077 C 299.072 260.082, 300 258.152, 300 256 C 300 253.848, 299.072 251.918, 297.077 249.923 L 294.154 247 173.633 247 L 53.112 247 50.328 249.394 M 408.799 250.729 C 404.700 253.271, 402.593 257.928, 403.267 262.956 C 403.953 268.067, 407.040 271.632, 412.092 273.146 C 419.275 275.298, 427.290 268.928, 427.183 261.154 C 427.112 256.021, 425.698 253.396, 421.686 250.950 C 417.793 248.576, 412.418 248.484, 408.799 250.729 M 54.284 295.701 C 51.531 296.234, 47 301.475, 47 304.126 C 47 308.086, 49.893 311.889, 53.756 313.007 C 56.383 313.768, 95.730 314.003, 185.670 313.796 L 313.839 313.500 316.420 311.076 C 319.218 308.446, 319.878 303.509, 317.920 299.850 C 315.245 294.853, 319.176 294.990, 183.282 295.136 C 113.552 295.211, 55.503 295.465, 54.284 295.701 M 52.020 345.284 C 46.573 348.040, 45.559 354.712, 49.923 359.077 L 52.846 362 198.489 362 C 300.905 362, 344.731 361.679, 346.150 360.920 C 349.324 359.221, 351.177 353.806, 349.869 350.055 C 347.621 343.606, 357.437 343.999, 198.800 344.015 C 85.063 344.026, 53.975 344.295, 52.020 345.284 M 49.589 396.077 L 47 399.153 47 426 L 47 452.847 49.589 455.923 L 52.178 459 110 459 L 167.822 459 170.411 455.923 L 173 452.847 173 426 L 173 399.153 170.411 396.077 L 167.822 393 110 393 L 52.178 393 49.589 396.077 M 199.455 395.455 L 197 397.909 197 426 L 197 454.091 199.455 456.545 L 201.909 459 273.399 459 L 344.888 459 347.694 456.588 L 350.500 454.176 350.816 429.349 C 350.990 415.694, 350.848 403.004, 350.500 401.149 C 350.152 399.294, 348.793 396.702, 347.479 395.388 L 345.091 393 273.500 393 L 201.909 393 199.455 395.455 M 65 426 L 65 441 110 441 L 155 441 155 426 L 155 411 110 411 L 65 411 65 426 M 215 426 L 215 441 273.500 441 L 332 441 332 426 L 332 411 273.500 411 L 215 411 215 426" stroke="none" class="tool_gradient_color" fill="url(#gradientColor)" fill-rule="evenodd"/></svg>