<svg xmlns="http://www.w3.org/2000/svg" viewBox="0 0 168 29"><path d="M168 29H0V11.677l.03.027 7.327 6.349-2.191 9.441a.74.74 0 0 0 .141.641c.145.184.366.292.6.294.138 0 .274-.039.392-.111l8.3-5.006 8.3 5.006a.76.76 0 0 0 .392.112c.234-.002.455-.11.6-.294a.74.74 0 0 0 .141-.642l-2.2-9.442 7.325-6.347a.76.76 0 0 0-.434-1.334l-9.657-.829-3.77-8.928a.76.76 0 0 0-1.4 0l-3.775 8.927-9.655.829a.75.75 0 0 0-.464.208V0h168v29zm-15.113-5.688h0l8.3 5.005a.76.76 0 0 0 .393.112c.234-.002.455-.11.6-.293s.197-.418.141-.643l-2.2-9.442 7.326-6.347a.76.76 0 0 0-.434-1.334l-9.658-.83-3.767-8.926a.76.76 0 0 0-1.4 0l-3.772 8.927-9.658.829a.76.76 0 0 0-.434 1.334l7.327 6.349-2.2 9.442a.74.74 0 0 0 .141.641c.145.184.366.292.6.294.138 0 .274-.039.392-.111l8.3-5.005zm-34.573 0h0l8.3 5.005a.76.76 0 0 0 .392.112c.234-.002.455-.11.6-.294a.74.74 0 0 0 .141-.642l-2.2-9.442 7.325-6.347a.76.76 0 0 0-.434-1.334l-9.658-.83-3.765-8.926a.76.76 0 0 0-1.4 0l-3.773 8.927-9.658.829a.76.76 0 0 0-.434 1.334l7.328 6.349-2.2 9.442a.74.74 0 0 0 .141.641c.145.183.366.292.6.294.139 0 .275-.039.393-.111l8.3-5.005zm-34.574 0h0l8.3 5.005a.76.76 0 0 0 .393.112c.234-.002.455-.11.6-.294a.74.74 0 0 0 .141-.642l-2.2-9.442 7.326-6.347a.76.76 0 0 0-.434-1.334l-9.658-.83L84.442.614a.76.76 0 0 0-.7-.466.76.76 0 0 0-.7.466l-3.776 8.927-9.658.829a.76.76 0 0 0-.432 1.33l7.327 6.349-2.2 9.442a.74.74 0 0 0 .141.641c.145.184.366.292.6.294.138 0 .274-.039.392-.111l8.3-5.005zm-34.573 0h0l8.3 5.005a.76.76 0 0 0 .392.112c.234-.002.455-.11.6-.294a.74.74 0 0 0 .141-.642l-2.2-9.442 7.326-6.347a.76.76 0 0 0-.434-1.334l-9.658-.83L49.866.614a.76.76 0 0 0-1.4 0l-3.771 8.927-9.658.829a.76.76 0 0 0-.434 1.334l7.327 6.349-2.2 9.442a.74.74 0 0 0 .141.641c.145.184.366.292.6.294.138 0 .274-.039.392-.111l8.3-5.005z" fill="#fff"/></svg>