
<svg xmlns="http://www.w3.org/2000/svg" viewBox="0 0 512 512" version="1.1"><path d="M 7.923 7.923 L 5 10.846 5 63.500 L 5 116.154 7.923 119.077 L 10.846 122 31.923 122 L 53 122 53 256 L 53 390 31.923 390 L 10.846 390 7.923 392.923 L 5 395.846 5 448.500 L 5 501.154 7.923 504.077 L 10.846 507 63.500 507 L 116.154 507 119.077 504.077 L 122 501.154 122 480.077 L 122 459 256 459 L 390 459 390 480.077 L 390 501.154 392.923 504.077 L 395.846 507 448.500 507 L 501.154 507 504.077 504.077 L 507 501.154 507 448.500 L 507 395.846 504.077 392.923 L 501.154 390 480.077 390 L 459 390 459 256 L 459 122 480.077 122 L 501.154 122 504.077 119.077 L 507 116.154 507 63.500 L 507 10.846 504.077 7.923 L 501.154 5 448.500 5 L 395.846 5 392.923 7.923 L 390 10.846 390 31.923 L 390 53 256 53 L 122 53 122 31.923 L 122 10.846 119.077 7.923 L 116.154 5 63.500 5 L 10.846 5 7.923 7.923 M 25 63.500 L 25 102 63.500 102 L 102 102 102 63.500 L 102 25 63.500 25 L 25 25 25 63.500 M 410 63.500 L 410 102 448.500 102 L 487 102 487 63.500 L 487 25 448.500 25 L 410 25 410 63.500 M 122 95.077 L 122 116.154 119.077 119.077 L 116.154 122 95.077 122 L 74 122 74 205.410 L 74 288.820 85.805 276.660 C 92.298 269.972, 108.119 253.565, 120.963 240.201 C 133.808 226.836, 145.116 215.473, 146.092 214.951 C 147.069 214.428, 149.575 214, 151.661 214 C 155.334 214, 157.061 215.603, 205.977 264.417 L 256.500 314.835 289 286.339 C 306.875 270.666, 323.031 257.168, 324.903 256.344 C 327.792 255.072, 328.800 255.046, 331.570 256.173 C 333.365 256.903, 356.594 276.680, 383.189 300.123 C 409.785 323.566, 432.997 343.968, 434.773 345.462 L 438 348.178 438 235.089 L 438 122 416.923 122 L 395.846 122 392.923 119.077 L 390 116.154 390 95.077 L 390 74 256 74 L 122 74 122 95.077 M 283.798 109.931 C 267.682 115.084, 253.879 128.942, 248.940 144.928 C 246.182 153.856, 246.182 167.144, 248.940 176.072 C 253.909 192.157, 267.866 206.094, 284 211.081 C 297.477 215.247, 315.028 213.124, 326.500 205.941 C 337.501 199.052, 346.459 187.728, 350.015 176.217 C 352.718 167.465, 352.718 153.535, 350.015 144.783 C 345.111 128.908, 331.068 114.885, 315.145 109.964 C 306.752 107.370, 291.855 107.355, 283.798 109.931 M 291.929 129.312 C 277.070 133.498, 267.604 145.648, 267.571 160.577 C 267.532 178.203, 281.784 192.413, 299.500 192.413 C 312.114 192.413, 322.490 185.844, 328.202 174.242 C 330.941 168.677, 331.442 166.557, 331.429 160.577 C 331.401 148.032, 324.835 137.482, 313.664 132.035 C 306.383 128.485, 298.413 127.486, 291.929 129.312 M 112.250 279.079 L 74 319.035 74 354.517 L 74 390 95.077 390 L 116.154 390 119.077 392.923 L 122 395.846 122 416.923 L 122 438 256 438 L 390 438 390 416.923 L 390 395.846 392.923 392.923 L 395.846 390 416.923 390 L 438 390 438 383.071 L 438 376.141 384.741 329.321 C 355.448 303.569, 330.722 281.903, 329.795 281.173 C 328.303 279.998, 324.551 282.943, 297.302 306.673 C 256.811 341.934, 260.588 339, 255.696 339 C 251.552 339, 251.477 338.930, 201.510 289 C 173.990 261.500, 151.255 239.028, 150.987 239.062 C 150.719 239.096, 133.287 257.103, 112.250 279.079 M 25 448.500 L 25 487 63.500 487 L 102 487 102 448.500 L 102 410 63.500 410 L 25 410 25 448.500 M 410 448.500 L 410 487 448.500 487 L 487 487 487 448.500 L 487 410 448.500 410 L 410 410 410 448.500" stroke="none" class="tool_gradient_color" fill-rule="evenodd"/></svg>